%
M48
M72
T01C0.04000
%
T01
X23000Y6883
X33000Y6883
X43000Y6883
X53000Y6883
X63000Y6883
X73000Y6883
X83000Y6883
X93000Y6883
X103000Y6883
X113000Y6883
X123000Y6883
X133000Y6883
X143000Y6883
X153000Y6883
X163000Y6883
X173000Y6883
X183000Y6883
X193000Y6883
X203000Y6883
X213000Y6883
X213000Y31633
X203000Y31633
X193000Y31633
X183000Y31633
X173000Y31633
X163000Y31633
X153000Y31633
X143000Y31633
X133000Y31633
X123000Y31633
X113000Y31633
X103000Y31633
X93000Y31633
X83000Y31633
X73000Y31633
X63000Y31633
X53000Y31633
X43000Y31633
X33000Y31633
X23000Y31633
X23000Y41633
X33000Y41633
X43000Y41633
X53000Y41633
X63000Y41633
X73000Y41633
X83000Y41633
X93000Y41633
X103000Y41633
X113000Y41633
X123000Y41633
X133000Y41633
X143000Y41633
X153000Y41633
X163000Y41633
X173000Y41633
X183000Y41633
X193000Y41633
X203000Y41633
X213000Y41633
X213000Y66883
X203000Y66883
X193000Y66883
X183000Y66883
X173000Y66883
X163000Y66883
X153000Y66883
X143000Y66883
X133000Y66883
X123000Y66883
X113000Y66883
X103000Y66883
X93000Y66883
X83000Y66883
X73000Y66883
X63000Y66883
X53000Y66883
X43000Y66883
X33000Y66883
X23000Y66883
M30
