G75*
%MOIN*%
%OFA0B0*%
%FSLAX24Y24*%
%IPPOS*%
%LPD*%
%AMOC8*
5,1,8,0,0,1.08239X$1,22.5*
%
%ADD10C,0.0050*%
%ADD11C,0.0080*%
%ADD12C,0.0100*%
%ADD13C,0.0010*%
D10*
X007930Y001550D02*
X007930Y001750D01*
X007996Y001817D01*
X008063Y001750D01*
X008063Y001550D01*
X008197Y001550D02*
X008197Y001817D01*
X008130Y001817D01*
X008063Y001750D01*
X008344Y001750D02*
X008411Y001817D01*
X008544Y001817D01*
X008611Y001750D01*
X008611Y001617D01*
X008544Y001550D01*
X008411Y001550D01*
X008344Y001617D01*
X008344Y001750D01*
X008758Y001817D02*
X008959Y001817D01*
X009025Y001750D01*
X009025Y001617D01*
X008959Y001550D01*
X008758Y001550D01*
X009166Y001550D02*
X009232Y001550D01*
X009232Y001617D01*
X009166Y001617D01*
X009166Y001550D01*
X009380Y001550D02*
X009580Y001550D01*
X009647Y001617D01*
X009647Y001750D01*
X009580Y001817D01*
X009380Y001817D01*
X009856Y001817D02*
X009856Y001550D01*
X009790Y001550D02*
X009923Y001550D01*
X010066Y001550D02*
X010133Y001617D01*
X010133Y001884D01*
X010199Y001817D02*
X010066Y001817D01*
X009923Y001817D02*
X009856Y001817D01*
X009856Y001950D02*
X009856Y002017D01*
X010347Y001750D02*
X010413Y001817D01*
X010547Y001817D01*
X010614Y001750D01*
X010614Y001617D01*
X010547Y001550D01*
X010413Y001550D01*
X010347Y001617D01*
X010347Y001750D01*
X010761Y001750D02*
X010761Y001617D01*
X010828Y001550D01*
X011028Y001550D01*
X011028Y001950D01*
X011028Y001817D02*
X010828Y001817D01*
X010761Y001750D01*
X011175Y001750D02*
X011175Y001617D01*
X011242Y001550D01*
X011376Y001550D01*
X011442Y001617D01*
X011442Y001750D01*
X011376Y001817D01*
X011242Y001817D01*
X011175Y001750D01*
X011587Y001817D02*
X011654Y001817D01*
X011788Y001683D01*
X011788Y001550D02*
X011788Y001817D01*
X011935Y001817D02*
X012135Y001817D01*
X012202Y001750D01*
X012202Y001617D01*
X012135Y001550D01*
X011935Y001550D01*
X012349Y001550D02*
X012550Y001550D01*
X012616Y001617D01*
X012550Y001683D01*
X012349Y001683D01*
X012349Y001750D02*
X012349Y001550D01*
X012764Y001950D02*
X013031Y001550D01*
X013445Y001550D02*
X013178Y001950D01*
X013586Y001817D02*
X013586Y001750D01*
X013652Y001750D01*
X013652Y001817D01*
X013586Y001817D01*
X013800Y001817D02*
X014000Y001817D01*
X014067Y001750D01*
X014000Y001683D01*
X013866Y001683D01*
X013800Y001617D01*
X013866Y001550D01*
X014067Y001550D01*
X014214Y001617D02*
X014281Y001550D01*
X014481Y001550D01*
X014624Y001550D02*
X014690Y001617D01*
X014690Y001884D01*
X014757Y001817D02*
X014624Y001817D01*
X014481Y001817D02*
X014281Y001817D01*
X014214Y001750D01*
X014214Y001617D01*
X014481Y001417D02*
X014481Y001817D01*
X014900Y001817D02*
X015033Y001817D01*
X014967Y001884D02*
X014967Y001617D01*
X014900Y001550D01*
X015181Y001550D02*
X015181Y001750D01*
X015248Y001817D01*
X015381Y001817D01*
X015448Y001750D01*
X015448Y001950D02*
X015448Y001550D01*
X013652Y001550D02*
X013652Y001617D01*
X013586Y001617D01*
X013586Y001550D01*
X013652Y001550D01*
X012550Y001817D02*
X012416Y001817D01*
X012349Y001750D01*
X013970Y005617D02*
X014037Y005617D01*
X013970Y005617D02*
X013903Y005683D01*
X013903Y006017D01*
X014170Y006017D02*
X014170Y005817D01*
X014103Y005750D01*
X013903Y005750D01*
X013341Y005750D02*
X013341Y006150D01*
X013141Y006150D01*
X013075Y006084D01*
X013075Y005950D01*
X013141Y005883D01*
X013341Y005883D01*
X012927Y005750D02*
X012794Y005750D01*
X012860Y005750D02*
X012860Y006017D01*
X012927Y006017D01*
X012860Y006150D02*
X012860Y006217D01*
X012237Y006017D02*
X012103Y006150D01*
X011970Y006017D01*
X011970Y005750D01*
X012237Y005750D02*
X012237Y006017D01*
X012237Y005950D02*
X011970Y005950D01*
X011822Y005950D02*
X011555Y005950D01*
X011689Y005817D02*
X011689Y006084D01*
X011408Y005750D02*
X011141Y006150D01*
X010993Y006150D02*
X010793Y006150D01*
X010727Y006084D01*
X010727Y006017D01*
X010793Y005950D01*
X010993Y005950D01*
X010793Y005950D02*
X010727Y005883D01*
X010727Y005817D01*
X010793Y005750D01*
X010993Y005750D01*
X010993Y006150D01*
X010579Y005950D02*
X010312Y005950D01*
X010446Y005817D02*
X010446Y006084D01*
X010165Y005750D02*
X009898Y006150D01*
X009750Y006084D02*
X009684Y006150D01*
X009550Y006150D01*
X009484Y006084D01*
X009484Y006017D01*
X009750Y005750D01*
X009484Y005750D01*
X008922Y005750D02*
X008722Y005750D01*
X008655Y005817D01*
X008655Y005883D01*
X008722Y005950D01*
X008922Y005950D01*
X008722Y005950D02*
X008655Y006017D01*
X008655Y006084D01*
X008722Y006150D01*
X008922Y006150D01*
X008922Y005750D01*
X008507Y005750D02*
X008507Y006017D01*
X008374Y006017D02*
X008307Y006017D01*
X008374Y006017D02*
X008507Y005883D01*
X008162Y005883D02*
X007895Y005883D01*
X007895Y005950D01*
X007962Y006017D01*
X008095Y006017D01*
X008162Y005950D01*
X008162Y005817D01*
X008095Y005750D01*
X007962Y005750D01*
X007748Y005817D02*
X007681Y005883D01*
X007481Y005883D01*
X007481Y005950D02*
X007481Y005750D01*
X007681Y005750D01*
X007748Y005817D01*
X007548Y006017D02*
X007481Y005950D01*
X007548Y006017D02*
X007681Y006017D01*
X007333Y006150D02*
X007333Y005750D01*
X007333Y005883D02*
X007133Y005750D01*
X006988Y005817D02*
X006921Y005750D01*
X006788Y005750D01*
X006721Y005817D01*
X006721Y005950D01*
X006788Y006017D01*
X006921Y006017D01*
X006988Y005950D01*
X006988Y005817D01*
X007133Y006017D02*
X007333Y005883D01*
X006574Y005817D02*
X006507Y005750D01*
X006307Y005750D01*
X006307Y006017D01*
X006159Y006017D02*
X006026Y006017D01*
X006093Y006084D02*
X006093Y005817D01*
X006026Y005750D01*
X006574Y005817D02*
X006574Y006017D01*
X014315Y006017D02*
X014382Y006017D01*
X014515Y005883D01*
X014727Y006017D02*
X014861Y005883D01*
X015008Y005883D02*
X015008Y005950D01*
X015075Y006017D01*
X015208Y006017D01*
X015275Y005950D01*
X015275Y005817D01*
X015208Y005750D01*
X015075Y005750D01*
X014861Y005750D02*
X014861Y006017D01*
X014727Y006017D02*
X014661Y006017D01*
X014515Y006017D02*
X014515Y005750D01*
X015008Y005883D02*
X015275Y005883D01*
X015423Y005817D02*
X015423Y005950D01*
X015489Y006017D01*
X015689Y006017D01*
X015837Y005950D02*
X015837Y005817D01*
X015904Y005750D01*
X016104Y005750D01*
X016251Y005817D02*
X016318Y005883D01*
X016451Y005883D01*
X016518Y005950D01*
X016451Y006017D01*
X016251Y006017D01*
X016104Y006017D02*
X015904Y006017D01*
X015837Y005950D01*
X016104Y006017D02*
X016104Y005617D01*
X016251Y005817D02*
X016318Y005750D01*
X016518Y005750D01*
X016666Y005750D02*
X016866Y005750D01*
X016933Y005817D01*
X016866Y005883D01*
X016666Y005883D01*
X016666Y005950D02*
X016666Y005750D01*
X017080Y005750D02*
X017213Y005883D01*
X017147Y005883D02*
X017347Y005883D01*
X017147Y005883D02*
X017080Y005950D01*
X017080Y006084D01*
X017147Y006150D01*
X017347Y006150D01*
X017347Y005750D01*
X016732Y006017D02*
X016666Y005950D01*
X016732Y006017D02*
X016866Y006017D01*
X015689Y006150D02*
X015689Y005750D01*
X015489Y005750D01*
X015423Y005817D01*
D11*
X001640Y001350D02*
X001640Y000350D01*
X021640Y000350D01*
X021640Y001350D01*
X001640Y001350D01*
X000140Y002125D02*
X011140Y002125D01*
X011140Y002525D01*
X012140Y002525D01*
X012140Y002125D01*
X023140Y002125D01*
X023140Y005545D01*
X000140Y005545D01*
X000140Y002125D01*
X001640Y006350D02*
X001640Y007350D01*
X021640Y007350D01*
X021640Y006350D01*
X001640Y006350D01*
D12*
X001740Y001825D02*
X002490Y001825D01*
D13*
X021964Y001428D02*
X021964Y000498D01*
X022238Y000498D01*
X022238Y000772D01*
X022188Y000796D01*
X022188Y001080D01*
X022236Y001120D01*
X022266Y001120D01*
X022266Y001238D01*
X022288Y001260D01*
X022414Y001260D01*
X022442Y001234D01*
X022442Y001142D01*
X022464Y001142D01*
X022464Y001120D01*
X022442Y001120D01*
X022268Y001120D01*
X022268Y001136D01*
X022468Y001136D01*
X022468Y001118D01*
X022516Y001078D01*
X022516Y000796D01*
X022466Y000770D01*
X022466Y000500D01*
X022740Y000500D01*
X022740Y001428D01*
X021964Y001428D01*
X021964Y001421D02*
X022740Y001421D01*
X022740Y001413D02*
X021964Y001413D01*
X021964Y001404D02*
X022740Y001404D01*
X022740Y001396D02*
X021964Y001396D01*
X021964Y001387D02*
X022740Y001387D01*
X022740Y001379D02*
X021964Y001379D01*
X021964Y001370D02*
X022740Y001370D01*
X022740Y001362D02*
X021964Y001362D01*
X021964Y001353D02*
X022740Y001353D01*
X022740Y001345D02*
X021964Y001345D01*
X021964Y001336D02*
X022740Y001336D01*
X022740Y001328D02*
X021964Y001328D01*
X021964Y001319D02*
X022740Y001319D01*
X022740Y001311D02*
X021964Y001311D01*
X021964Y001302D02*
X022740Y001302D01*
X022740Y001294D02*
X021964Y001294D01*
X021964Y001285D02*
X022740Y001285D01*
X022740Y001277D02*
X021964Y001277D01*
X021964Y001268D02*
X022740Y001268D01*
X022740Y001260D02*
X022415Y001260D01*
X022424Y001251D02*
X022740Y001251D01*
X022740Y001243D02*
X022433Y001243D01*
X022442Y001234D02*
X022740Y001234D01*
X022740Y001226D02*
X022442Y001226D01*
X022442Y001217D02*
X022740Y001217D01*
X022740Y001209D02*
X022442Y001209D01*
X022442Y001200D02*
X022740Y001200D01*
X022740Y001192D02*
X022442Y001192D01*
X022442Y001183D02*
X022740Y001183D01*
X022740Y001175D02*
X022442Y001175D01*
X022442Y001166D02*
X022740Y001166D01*
X022740Y001158D02*
X022442Y001158D01*
X022442Y001149D02*
X022740Y001149D01*
X022740Y001141D02*
X022464Y001141D01*
X022464Y001132D02*
X022268Y001132D01*
X022266Y001132D02*
X021964Y001132D01*
X021964Y001124D02*
X022266Y001124D01*
X022268Y001124D02*
X022464Y001124D01*
X022468Y001124D02*
X022740Y001124D01*
X022740Y001132D02*
X022468Y001132D01*
X022472Y001115D02*
X022740Y001115D01*
X022740Y001107D02*
X022482Y001107D01*
X022492Y001098D02*
X022740Y001098D01*
X022740Y001090D02*
X022502Y001090D01*
X022512Y001081D02*
X022740Y001081D01*
X022740Y001073D02*
X022516Y001073D01*
X022516Y001064D02*
X022740Y001064D01*
X022740Y001056D02*
X022516Y001056D01*
X022516Y001047D02*
X022740Y001047D01*
X022740Y001039D02*
X022516Y001039D01*
X022516Y001030D02*
X022740Y001030D01*
X022740Y001022D02*
X022516Y001022D01*
X022516Y001013D02*
X022740Y001013D01*
X022740Y001005D02*
X022516Y001005D01*
X022516Y000996D02*
X022740Y000996D01*
X022740Y000988D02*
X022516Y000988D01*
X022516Y000979D02*
X022740Y000979D01*
X022740Y000971D02*
X022516Y000971D01*
X022516Y000962D02*
X022740Y000962D01*
X022740Y000954D02*
X022516Y000954D01*
X022516Y000945D02*
X022740Y000945D01*
X022740Y000937D02*
X022516Y000937D01*
X022516Y000928D02*
X022740Y000928D01*
X022740Y000920D02*
X022516Y000920D01*
X022516Y000911D02*
X022740Y000911D01*
X022740Y000903D02*
X022516Y000903D01*
X022516Y000894D02*
X022740Y000894D01*
X022740Y000886D02*
X022516Y000886D01*
X022516Y000877D02*
X022740Y000877D01*
X022740Y000869D02*
X022516Y000869D01*
X022516Y000860D02*
X022740Y000860D01*
X022740Y000852D02*
X022516Y000852D01*
X022516Y000843D02*
X022740Y000843D01*
X022740Y000835D02*
X022516Y000835D01*
X022516Y000826D02*
X022740Y000826D01*
X022740Y000818D02*
X022516Y000818D01*
X022516Y000809D02*
X022740Y000809D01*
X022740Y000801D02*
X022516Y000801D01*
X022508Y000792D02*
X022740Y000792D01*
X022740Y000784D02*
X022492Y000784D01*
X022476Y000775D02*
X022740Y000775D01*
X022740Y000767D02*
X022466Y000767D01*
X022466Y000758D02*
X022740Y000758D01*
X022740Y000750D02*
X022466Y000750D01*
X022466Y000741D02*
X022740Y000741D01*
X022740Y000733D02*
X022466Y000733D01*
X022466Y000724D02*
X022740Y000724D01*
X022740Y000716D02*
X022466Y000716D01*
X022466Y000707D02*
X022740Y000707D01*
X022740Y000699D02*
X022466Y000699D01*
X022466Y000690D02*
X022740Y000690D01*
X022740Y000682D02*
X022466Y000682D01*
X022466Y000673D02*
X022740Y000673D01*
X022740Y000665D02*
X022466Y000665D01*
X022466Y000656D02*
X022740Y000656D01*
X022740Y000648D02*
X022466Y000648D01*
X022466Y000639D02*
X022740Y000639D01*
X022740Y000631D02*
X022466Y000631D01*
X022466Y000622D02*
X022740Y000622D01*
X022740Y000614D02*
X022466Y000614D01*
X022466Y000605D02*
X022740Y000605D01*
X022740Y000597D02*
X022466Y000597D01*
X022466Y000588D02*
X022740Y000588D01*
X022740Y000580D02*
X022466Y000580D01*
X022466Y000571D02*
X022740Y000571D01*
X022740Y000563D02*
X022466Y000563D01*
X022466Y000554D02*
X022740Y000554D01*
X022740Y000546D02*
X022466Y000546D01*
X022466Y000537D02*
X022740Y000537D01*
X022740Y000529D02*
X022466Y000529D01*
X022466Y000520D02*
X022740Y000520D01*
X022740Y000512D02*
X022466Y000512D01*
X022466Y000503D02*
X022740Y000503D01*
X022238Y000503D02*
X021964Y000503D01*
X021964Y000512D02*
X022238Y000512D01*
X022238Y000520D02*
X021964Y000520D01*
X021964Y000529D02*
X022238Y000529D01*
X022238Y000537D02*
X021964Y000537D01*
X021964Y000546D02*
X022238Y000546D01*
X022238Y000554D02*
X021964Y000554D01*
X021964Y000563D02*
X022238Y000563D01*
X022238Y000571D02*
X021964Y000571D01*
X021964Y000580D02*
X022238Y000580D01*
X022238Y000588D02*
X021964Y000588D01*
X021964Y000597D02*
X022238Y000597D01*
X022238Y000605D02*
X021964Y000605D01*
X021964Y000614D02*
X022238Y000614D01*
X022238Y000622D02*
X021964Y000622D01*
X021964Y000631D02*
X022238Y000631D01*
X022238Y000639D02*
X021964Y000639D01*
X021964Y000648D02*
X022238Y000648D01*
X022238Y000656D02*
X021964Y000656D01*
X021964Y000665D02*
X022238Y000665D01*
X022238Y000673D02*
X021964Y000673D01*
X021964Y000682D02*
X022238Y000682D01*
X022238Y000690D02*
X021964Y000690D01*
X021964Y000699D02*
X022238Y000699D01*
X022238Y000707D02*
X021964Y000707D01*
X021964Y000716D02*
X022238Y000716D01*
X022238Y000724D02*
X021964Y000724D01*
X021964Y000733D02*
X022238Y000733D01*
X022238Y000741D02*
X021964Y000741D01*
X021964Y000750D02*
X022238Y000750D01*
X022238Y000758D02*
X021964Y000758D01*
X021964Y000767D02*
X022238Y000767D01*
X022232Y000775D02*
X021964Y000775D01*
X021964Y000784D02*
X022214Y000784D01*
X022196Y000792D02*
X021964Y000792D01*
X021964Y000801D02*
X022188Y000801D01*
X022188Y000809D02*
X021964Y000809D01*
X021964Y000818D02*
X022188Y000818D01*
X022188Y000826D02*
X021964Y000826D01*
X021964Y000835D02*
X022188Y000835D01*
X022188Y000843D02*
X021964Y000843D01*
X021964Y000852D02*
X022188Y000852D01*
X022188Y000860D02*
X021964Y000860D01*
X021964Y000869D02*
X022188Y000869D01*
X022188Y000877D02*
X021964Y000877D01*
X021964Y000886D02*
X022188Y000886D01*
X022188Y000894D02*
X021964Y000894D01*
X021964Y000903D02*
X022188Y000903D01*
X022188Y000911D02*
X021964Y000911D01*
X021964Y000920D02*
X022188Y000920D01*
X022188Y000928D02*
X021964Y000928D01*
X021964Y000937D02*
X022188Y000937D01*
X022188Y000945D02*
X021964Y000945D01*
X021964Y000954D02*
X022188Y000954D01*
X022188Y000962D02*
X021964Y000962D01*
X021964Y000971D02*
X022188Y000971D01*
X022188Y000979D02*
X021964Y000979D01*
X021964Y000988D02*
X022188Y000988D01*
X022188Y000996D02*
X021964Y000996D01*
X021964Y001005D02*
X022188Y001005D01*
X022188Y001013D02*
X021964Y001013D01*
X021964Y001022D02*
X022188Y001022D01*
X022188Y001030D02*
X021964Y001030D01*
X021964Y001039D02*
X022188Y001039D01*
X022188Y001047D02*
X021964Y001047D01*
X021964Y001056D02*
X022188Y001056D01*
X022188Y001064D02*
X021964Y001064D01*
X021964Y001073D02*
X022188Y001073D01*
X022189Y001081D02*
X021964Y001081D01*
X021964Y001090D02*
X022199Y001090D01*
X022210Y001098D02*
X021964Y001098D01*
X021964Y001107D02*
X022220Y001107D01*
X022230Y001115D02*
X021964Y001115D01*
X021964Y001141D02*
X022266Y001141D01*
X022266Y001149D02*
X021964Y001149D01*
X021964Y001158D02*
X022266Y001158D01*
X022266Y001166D02*
X021964Y001166D01*
X021964Y001175D02*
X022266Y001175D01*
X022266Y001183D02*
X021964Y001183D01*
X021964Y001192D02*
X022266Y001192D01*
X022266Y001200D02*
X021964Y001200D01*
X021964Y001209D02*
X022266Y001209D01*
X022266Y001217D02*
X021964Y001217D01*
X021964Y001226D02*
X022266Y001226D01*
X022266Y001234D02*
X021964Y001234D01*
X021964Y001243D02*
X022271Y001243D01*
X022279Y001251D02*
X021964Y001251D01*
X021964Y001260D02*
X022288Y001260D01*
M02*
