G75*
%MOIN*%
%OFA0B0*%
%FSLAX24Y24*%
%IPPOS*%
%LPD*%
%AMOC8*
5,1,8,0,0,1.08239X$1,22.5*
%
%ADD10C,0.0820*%
%ADD11R,0.0820X0.0820*%
D10*
X003140Y000850D03*
X004140Y000850D03*
X005140Y000850D03*
X006140Y000850D03*
X007140Y000850D03*
X008140Y000850D03*
X009140Y000850D03*
X010140Y000850D03*
X011140Y000850D03*
X012140Y000850D03*
X013140Y000850D03*
X014140Y000850D03*
X015140Y000850D03*
X016140Y000850D03*
X017140Y000850D03*
X018140Y000850D03*
X019140Y000850D03*
X020140Y000850D03*
X021140Y000850D03*
X021140Y003325D03*
X020140Y003325D03*
X019140Y003325D03*
X018140Y003325D03*
X017140Y003325D03*
X016140Y003325D03*
X015140Y003325D03*
X014140Y003325D03*
X013140Y003325D03*
X012140Y003325D03*
X011140Y003325D03*
X010140Y003325D03*
X009140Y003325D03*
X008140Y003325D03*
X007140Y003325D03*
X006140Y003325D03*
X005140Y003325D03*
X004140Y003325D03*
X003140Y003325D03*
X003140Y004325D03*
X002140Y004325D03*
X004140Y004325D03*
X005140Y004325D03*
X006140Y004325D03*
X007140Y004325D03*
X008140Y004325D03*
X009140Y004325D03*
X010140Y004325D03*
X011140Y004325D03*
X012140Y004325D03*
X013140Y004325D03*
X014140Y004325D03*
X015140Y004325D03*
X016140Y004325D03*
X017140Y004325D03*
X018140Y004325D03*
X019140Y004325D03*
X020140Y004325D03*
X021140Y004325D03*
X021140Y006850D03*
X020140Y006850D03*
X019140Y006850D03*
X018140Y006850D03*
X017140Y006850D03*
X016140Y006850D03*
X015140Y006850D03*
X014140Y006850D03*
X013140Y006850D03*
X012140Y006850D03*
X011140Y006850D03*
X010140Y006850D03*
X009140Y006850D03*
X008140Y006850D03*
X007140Y006850D03*
X006140Y006850D03*
X005140Y006850D03*
X004140Y006850D03*
X003140Y006850D03*
X002140Y006850D03*
D11*
X002140Y000850D03*
X002140Y003325D03*
M02*
