%
M48
M72
T01C0.0400
%
T01
X2140Y850
X3140Y850
X4140Y850
X5140Y850
X6140Y850
X7140Y850
X8140Y850
X9140Y850
X10140Y850
X11140Y850
X12140Y850
X13140Y850
X14140Y850
X15140Y850
X16140Y850
X17140Y850
X18140Y850
X19140Y850
X20140Y850
X21140Y850
X21140Y3325
X20140Y3325
X19140Y3325
X18140Y3325
X17140Y3325
X16140Y3325
X15140Y3325
X14140Y3325
X13140Y3325
X12140Y3325
X11140Y3325
X10140Y3325
X9140Y3325
X8140Y3325
X7140Y3325
X6140Y3325
X5140Y3325
X4140Y3325
X3140Y3325
X2140Y3325
X2140Y4325
X3140Y4325
X4140Y4325
X5140Y4325
X6140Y4325
X7140Y4325
X8140Y4325
X9140Y4325
X10140Y4325
X11140Y4325
X12140Y4325
X13140Y4325
X14140Y4325
X15140Y4325
X16140Y4325
X17140Y4325
X18140Y4325
X19140Y4325
X20140Y4325
X21140Y4325
X21140Y6850
X20140Y6850
X19140Y6850
X18140Y6850
X17140Y6850
X16140Y6850
X15140Y6850
X14140Y6850
X13140Y6850
X12140Y6850
X11140Y6850
X10140Y6850
X9140Y6850
X8140Y6850
X7140Y6850
X6140Y6850
X5140Y6850
X4140Y6850
X3140Y6850
X2140Y6850
M30
