G75*
%MOIN*%
%OFA0B0*%
%FSLAX24Y24*%
%IPPOS*%
%LPD*%
%AMOC8*
5,1,8,0,0,1.08239X$1,22.5*
%
%ADD10C,0.0010*%
%ADD11C,0.0000*%
%ADD12C,0.0740*%
%ADD13R,0.0740X0.0740*%
%ADD14C,0.0160*%
D10*
X000640Y000350D02*
X022640Y000350D01*
X023140Y000850D02*
X023140Y006850D01*
X023138Y006894D01*
X023132Y006937D01*
X023123Y006979D01*
X023110Y007021D01*
X023093Y007061D01*
X023073Y007100D01*
X023050Y007137D01*
X023023Y007171D01*
X022994Y007204D01*
X022961Y007233D01*
X022927Y007260D01*
X022890Y007283D01*
X022851Y007303D01*
X022811Y007320D01*
X022769Y007333D01*
X022727Y007342D01*
X022684Y007348D01*
X022640Y007350D01*
X000640Y007350D01*
X000596Y007348D01*
X000553Y007342D01*
X000511Y007333D01*
X000469Y007320D01*
X000429Y007303D01*
X000390Y007283D01*
X000353Y007260D01*
X000319Y007233D01*
X000286Y007204D01*
X000257Y007171D01*
X000230Y007137D01*
X000207Y007100D01*
X000187Y007061D01*
X000170Y007021D01*
X000157Y006979D01*
X000148Y006937D01*
X000142Y006894D01*
X000140Y006850D01*
X000140Y000850D01*
X000142Y000806D01*
X000148Y000763D01*
X000157Y000721D01*
X000170Y000679D01*
X000187Y000639D01*
X000207Y000600D01*
X000230Y000563D01*
X000257Y000529D01*
X000286Y000496D01*
X000319Y000467D01*
X000353Y000440D01*
X000390Y000417D01*
X000429Y000397D01*
X000469Y000380D01*
X000511Y000367D01*
X000553Y000358D01*
X000596Y000352D01*
X000640Y000350D01*
D11*
X022640Y000350D02*
X022684Y000352D01*
X022727Y000358D01*
X022769Y000367D01*
X022811Y000380D01*
X022851Y000397D01*
X022890Y000417D01*
X022927Y000440D01*
X022961Y000467D01*
X022994Y000496D01*
X023023Y000529D01*
X023050Y000563D01*
X023073Y000600D01*
X023093Y000639D01*
X023110Y000679D01*
X023123Y000721D01*
X023132Y000763D01*
X023138Y000806D01*
X023140Y000850D01*
D12*
X021140Y000850D03*
X020140Y000850D03*
X019140Y000850D03*
X018140Y000850D03*
X017140Y000850D03*
X016140Y000850D03*
X015140Y000850D03*
X014140Y000850D03*
X013140Y000850D03*
X012140Y000850D03*
X011140Y000850D03*
X010140Y000850D03*
X009140Y000850D03*
X008140Y000850D03*
X007140Y000850D03*
X006140Y000850D03*
X005140Y000850D03*
X004140Y000850D03*
X003140Y000850D03*
X003140Y003325D03*
X004140Y003325D03*
X005140Y003325D03*
X006140Y003325D03*
X007140Y003325D03*
X008140Y003325D03*
X009140Y003325D03*
X010140Y003325D03*
X011140Y003325D03*
X012140Y003325D03*
X013140Y003325D03*
X014140Y003325D03*
X015140Y003325D03*
X016140Y003325D03*
X017140Y003325D03*
X018140Y003325D03*
X019140Y003325D03*
X020140Y003325D03*
X021140Y003325D03*
X021140Y004325D03*
X020140Y004325D03*
X019140Y004325D03*
X018140Y004325D03*
X017140Y004325D03*
X016140Y004325D03*
X015140Y004325D03*
X014140Y004325D03*
X013140Y004325D03*
X012140Y004325D03*
X011140Y004325D03*
X010140Y004325D03*
X009140Y004325D03*
X008140Y004325D03*
X007140Y004325D03*
X006140Y004325D03*
X005140Y004325D03*
X004140Y004325D03*
X003140Y004325D03*
X002140Y004325D03*
X002140Y006850D03*
X003140Y006850D03*
X004140Y006850D03*
X005140Y006850D03*
X006140Y006850D03*
X007140Y006850D03*
X008140Y006850D03*
X009140Y006850D03*
X010140Y006850D03*
X011140Y006850D03*
X012140Y006850D03*
X013140Y006850D03*
X014140Y006850D03*
X015140Y006850D03*
X016140Y006850D03*
X017140Y006850D03*
X018140Y006850D03*
X019140Y006850D03*
X020140Y006850D03*
X021140Y006850D03*
D13*
X002140Y003325D03*
X002140Y000850D03*
D14*
X002140Y003325D01*
X003140Y003325D02*
X003140Y000850D01*
X004140Y000850D02*
X004140Y003325D01*
X005140Y003325D02*
X005140Y000850D01*
X006140Y000850D02*
X006140Y003325D01*
X007140Y003325D02*
X007140Y000850D01*
X008140Y000850D02*
X008140Y003325D01*
X009140Y003325D02*
X009140Y000850D01*
X010140Y000850D02*
X010140Y003325D01*
X011140Y003325D02*
X011140Y000850D01*
X012140Y000850D02*
X012140Y003325D01*
X013140Y003325D02*
X013140Y000850D01*
X014140Y000850D02*
X014140Y003325D01*
X015140Y003325D02*
X015140Y000850D01*
X016140Y000850D02*
X016140Y003325D01*
X017140Y003325D02*
X017140Y000850D01*
X018140Y000850D02*
X018140Y003325D01*
X019140Y003325D02*
X019140Y000850D01*
X020140Y000850D02*
X020140Y003325D01*
X021140Y003325D02*
X021140Y000850D01*
X021140Y004325D02*
X021140Y006850D01*
X020140Y006850D02*
X020140Y004325D01*
X019140Y004325D02*
X019140Y006850D01*
X018140Y006850D02*
X018140Y004325D01*
X017140Y004325D02*
X017140Y006850D01*
X016140Y006850D02*
X016140Y004325D01*
X015140Y004325D02*
X015140Y006850D01*
X014140Y006850D02*
X014140Y004325D01*
X013140Y004325D02*
X013140Y006850D01*
X012140Y006850D02*
X012140Y004325D01*
X011140Y004325D02*
X011140Y006850D01*
X010140Y006850D02*
X010140Y004325D01*
X009140Y004325D02*
X009140Y006850D01*
X008140Y006850D02*
X008140Y004325D01*
X007140Y004325D02*
X007140Y006850D01*
X006140Y006850D02*
X006140Y004325D01*
X005140Y004325D02*
X005140Y006850D01*
X004140Y006850D02*
X004140Y004325D01*
X003140Y004325D02*
X003140Y006850D01*
X002140Y006850D02*
X002140Y004325D01*
M02*
