G75*
%MOIN*%
%OFA0B0*%
%FSLAX24Y24*%
%IPPOS*%
%LPD*%
%AMOC8*
5,1,8,0,0,1.08239X$1,22.5*
%
%ADD10R,0.0740X0.0740*%
%ADD11C,0.0740*%
%ADD12C,0.0100*%
%ADD13C,0.0350*%
%ADD14C,0.0090*%
D10*
X021150Y002400D03*
X008650Y024650D03*
D11*
X008650Y023650D03*
X008650Y022650D03*
X008650Y021650D03*
X008650Y020650D03*
X008650Y019650D03*
X008650Y018650D03*
X008650Y017650D03*
X008650Y016650D03*
X008650Y015650D03*
X008650Y014650D03*
X008650Y013650D03*
X008650Y012650D03*
X008650Y011650D03*
X008650Y010650D03*
X008650Y009650D03*
X008650Y008650D03*
X008650Y007650D03*
X008650Y006650D03*
X008650Y005650D03*
X008150Y002400D03*
X008150Y001400D03*
X007150Y001400D03*
X007150Y002400D03*
X006150Y002400D03*
X006150Y001400D03*
X005150Y001400D03*
X005150Y002400D03*
X004150Y002400D03*
X004150Y001400D03*
X003150Y001400D03*
X003150Y002400D03*
X002150Y002400D03*
X002150Y001400D03*
X009150Y001400D03*
X009150Y002400D03*
X010150Y002400D03*
X010150Y001400D03*
X011150Y001400D03*
X011150Y002400D03*
X012150Y002400D03*
X012150Y001400D03*
X013150Y001400D03*
X013150Y002400D03*
X014150Y002400D03*
X014150Y001400D03*
X015150Y001400D03*
X015150Y002400D03*
X016150Y002400D03*
X016150Y001400D03*
X017150Y001400D03*
X017150Y002400D03*
X018150Y002400D03*
X018150Y001400D03*
X019150Y001400D03*
X019150Y002400D03*
X020150Y002400D03*
X020150Y001400D03*
X021150Y001400D03*
X014650Y005650D03*
X014650Y006650D03*
X014650Y007650D03*
X014650Y008650D03*
X014650Y009650D03*
X014650Y010650D03*
X014650Y011650D03*
X014650Y012650D03*
X014650Y013650D03*
X014650Y014650D03*
X014650Y015650D03*
X014650Y016650D03*
X014650Y017650D03*
X014650Y018650D03*
X014650Y019650D03*
X014650Y020650D03*
X014650Y021650D03*
X014650Y022650D03*
X014650Y023650D03*
X014650Y024650D03*
D12*
X000285Y003650D02*
X000285Y000285D01*
X023015Y000285D01*
X023015Y003650D01*
X023004Y003785D01*
X022921Y004043D01*
X022762Y004262D01*
X022543Y004421D01*
X022285Y004504D01*
X022150Y004515D01*
X016090Y004515D01*
X016180Y004425D01*
X016325Y004280D01*
X021625Y004280D01*
X021650Y004255D01*
X021761Y004255D01*
X021873Y004209D01*
X021959Y004123D01*
X022005Y004011D01*
X022005Y003889D01*
X021959Y003777D01*
X021873Y003691D01*
X021761Y003645D01*
X021639Y003645D01*
X021527Y003691D01*
X021441Y003777D01*
X021395Y003889D01*
X021395Y003920D01*
X016175Y003920D01*
X015925Y004170D01*
X014735Y004170D01*
X014825Y004080D01*
X015475Y004080D01*
X015580Y003975D01*
X015675Y003880D01*
X016525Y003880D01*
X016630Y003775D01*
X016725Y003680D01*
X020675Y003680D01*
X020780Y003575D01*
X021330Y003025D01*
X021330Y002900D01*
X021574Y002900D01*
X021650Y002824D01*
X021650Y001976D01*
X021574Y001900D01*
X020726Y001900D01*
X020650Y001976D01*
X020650Y002824D01*
X020726Y002900D01*
X020945Y002900D01*
X020525Y003320D01*
X020035Y003320D01*
X020330Y003025D01*
X020330Y002867D01*
X020433Y002824D01*
X020574Y002683D01*
X020650Y002499D01*
X020650Y002301D01*
X020574Y002117D01*
X020433Y001976D01*
X020249Y001900D01*
X020051Y001900D01*
X019867Y001824D01*
X019726Y001683D01*
X019650Y001499D01*
X019650Y001301D01*
X019726Y001117D01*
X019867Y000976D01*
X020051Y000900D01*
X020249Y000900D01*
X020433Y000976D01*
X020574Y001117D01*
X020650Y001301D01*
X020650Y001499D01*
X020574Y001683D01*
X020433Y001824D01*
X020249Y001900D01*
X020051Y001900D01*
X019867Y001976D01*
X019726Y002117D01*
X019650Y002301D01*
X019650Y002499D01*
X019726Y002683D01*
X019867Y002824D01*
X019970Y002867D01*
X019970Y002875D01*
X019725Y003120D01*
X019135Y003120D01*
X019330Y002925D01*
X019330Y002867D01*
X019433Y002824D01*
X019574Y002683D01*
X019650Y002499D01*
X019650Y002301D01*
X019574Y002117D01*
X019433Y001976D01*
X019249Y001900D01*
X019051Y001900D01*
X018867Y001976D01*
X018726Y002117D01*
X018650Y002301D01*
X018650Y002499D01*
X018726Y002683D01*
X018867Y002824D01*
X018906Y002840D01*
X018825Y002920D01*
X018285Y002920D01*
X018330Y002875D01*
X018330Y002867D01*
X018433Y002824D01*
X018574Y002683D01*
X018650Y002499D01*
X018650Y002301D01*
X018574Y002117D01*
X018433Y001976D01*
X018249Y001900D01*
X018051Y001900D01*
X017867Y001824D01*
X017726Y001683D01*
X017650Y001499D01*
X017574Y001683D01*
X017433Y001824D01*
X017249Y001900D01*
X017051Y001900D01*
X016867Y001824D01*
X016726Y001683D01*
X016650Y001499D01*
X016574Y001683D01*
X016433Y001824D01*
X016249Y001900D01*
X016051Y001900D01*
X015867Y001824D01*
X015726Y001683D01*
X015650Y001499D01*
X015650Y001301D01*
X015726Y001117D01*
X015867Y000976D01*
X016051Y000900D01*
X016249Y000900D01*
X016433Y000976D01*
X016574Y001117D01*
X016650Y001301D01*
X016650Y001499D01*
X016650Y001301D01*
X016726Y001117D01*
X016867Y000976D01*
X017051Y000900D01*
X017249Y000900D01*
X017433Y000976D01*
X017574Y001117D01*
X017650Y001301D01*
X017650Y001499D01*
X017650Y001301D01*
X017726Y001117D01*
X017867Y000976D01*
X018051Y000900D01*
X018249Y000900D01*
X018433Y000976D01*
X018574Y001117D01*
X018650Y001301D01*
X018650Y001499D01*
X018574Y001683D01*
X018433Y001824D01*
X018249Y001900D01*
X018051Y001900D01*
X017867Y001976D01*
X017726Y002117D01*
X017650Y002301D01*
X017650Y002499D01*
X017726Y002683D01*
X017763Y002720D01*
X016537Y002720D01*
X016574Y002683D01*
X016650Y002499D01*
X016650Y002301D01*
X016574Y002117D01*
X016433Y001976D01*
X016249Y001900D01*
X016051Y001900D01*
X015867Y001976D01*
X015726Y002117D01*
X015650Y002301D01*
X015650Y002499D01*
X015726Y002683D01*
X015763Y002720D01*
X015537Y002720D01*
X015574Y002683D01*
X015650Y002499D01*
X015650Y002301D01*
X015574Y002117D01*
X015433Y001976D01*
X015249Y001900D01*
X015051Y001900D01*
X014867Y001976D01*
X014726Y002117D01*
X014650Y002301D01*
X014650Y002499D01*
X014726Y002683D01*
X014763Y002720D01*
X014537Y002720D01*
X014574Y002683D01*
X014650Y002499D01*
X014650Y002301D01*
X014574Y002117D01*
X014433Y001976D01*
X014249Y001900D01*
X014051Y001900D01*
X013867Y001824D01*
X013726Y001683D01*
X013650Y001499D01*
X013650Y001301D01*
X013726Y001117D01*
X013867Y000976D01*
X014051Y000900D01*
X014249Y000900D01*
X014433Y000976D01*
X014574Y001117D01*
X014650Y001301D01*
X014650Y001499D01*
X014574Y001683D01*
X014433Y001824D01*
X014249Y001900D01*
X014051Y001900D01*
X013867Y001976D01*
X013726Y002117D01*
X013650Y002301D01*
X013650Y002499D01*
X013726Y002683D01*
X013763Y002720D01*
X013537Y002720D01*
X013574Y002683D01*
X013650Y002499D01*
X013650Y002301D01*
X013574Y002117D01*
X013433Y001976D01*
X013249Y001900D01*
X013051Y001900D01*
X012867Y001824D01*
X012726Y001683D01*
X012650Y001499D01*
X012650Y001301D01*
X012726Y001117D01*
X012867Y000976D01*
X013051Y000900D01*
X013249Y000900D01*
X013433Y000976D01*
X013574Y001117D01*
X013650Y001301D01*
X013650Y001499D01*
X013574Y001683D01*
X013433Y001824D01*
X013249Y001900D01*
X013051Y001900D01*
X012867Y001976D01*
X012726Y002117D01*
X012650Y002301D01*
X012650Y002499D01*
X012726Y002683D01*
X012844Y002801D01*
X012725Y002920D01*
X012285Y002920D01*
X012330Y002875D01*
X012330Y002867D01*
X012433Y002824D01*
X012574Y002683D01*
X012650Y002499D01*
X012650Y002301D01*
X012574Y002117D01*
X012433Y001976D01*
X012249Y001900D01*
X012051Y001900D01*
X011867Y001976D01*
X011726Y002117D01*
X011650Y002301D01*
X011650Y002499D01*
X011726Y002683D01*
X011763Y002720D01*
X011537Y002720D01*
X011574Y002683D01*
X011650Y002499D01*
X011650Y002301D01*
X011574Y002117D01*
X011433Y001976D01*
X011249Y001900D01*
X011051Y001900D01*
X010867Y001824D01*
X010726Y001683D01*
X010650Y001499D01*
X010650Y001301D01*
X010726Y001117D01*
X010867Y000976D01*
X011051Y000900D01*
X011249Y000900D01*
X011433Y000976D01*
X011574Y001117D01*
X011650Y001301D01*
X011650Y001499D01*
X011574Y001683D01*
X011433Y001824D01*
X011249Y001900D01*
X011051Y001900D01*
X010867Y001976D01*
X010726Y002117D01*
X010650Y002301D01*
X010650Y002499D01*
X010693Y002603D01*
X010330Y002965D01*
X010330Y002867D01*
X010433Y002824D01*
X010574Y002683D01*
X010650Y002499D01*
X010650Y002301D01*
X010574Y002117D01*
X010433Y001976D01*
X010249Y001900D01*
X010051Y001900D01*
X009867Y001824D01*
X009726Y001683D01*
X009650Y001499D01*
X009574Y001683D01*
X009433Y001824D01*
X009249Y001900D01*
X009051Y001900D01*
X008867Y001824D01*
X008726Y001683D01*
X008650Y001499D01*
X008650Y001301D01*
X008726Y001117D01*
X008867Y000976D01*
X009051Y000900D01*
X009249Y000900D01*
X009433Y000976D01*
X009574Y001117D01*
X009650Y001301D01*
X009650Y001499D01*
X009650Y001301D01*
X009726Y001117D01*
X009867Y000976D01*
X010051Y000900D01*
X010249Y000900D01*
X010433Y000976D01*
X010574Y001117D01*
X010650Y001301D01*
X010650Y001499D01*
X010574Y001683D01*
X010433Y001824D01*
X010249Y001900D01*
X010051Y001900D01*
X009867Y001976D01*
X009726Y002117D01*
X009650Y002301D01*
X009650Y002499D01*
X009726Y002683D01*
X009867Y002824D01*
X009970Y002867D01*
X009970Y003029D01*
X009271Y003775D01*
X009220Y003825D01*
X009220Y003829D01*
X009218Y003831D01*
X009220Y003903D01*
X009220Y004490D01*
X009111Y004445D01*
X009000Y004445D01*
X008875Y004320D01*
X003775Y004320D01*
X003330Y003875D01*
X003330Y002867D01*
X003433Y002824D01*
X003574Y002683D01*
X003650Y002499D01*
X003650Y002301D01*
X003726Y002117D01*
X003867Y001976D01*
X004051Y001900D01*
X004249Y001900D01*
X004433Y001976D01*
X004574Y002117D01*
X004650Y002301D01*
X004726Y002117D01*
X004867Y001976D01*
X005051Y001900D01*
X005249Y001900D01*
X005433Y001976D01*
X005574Y002117D01*
X005650Y002301D01*
X005726Y002117D01*
X005867Y001976D01*
X006051Y001900D01*
X006249Y001900D01*
X006433Y001976D01*
X006574Y002117D01*
X006650Y002301D01*
X006726Y002117D01*
X006867Y001976D01*
X007051Y001900D01*
X007249Y001900D01*
X007433Y001976D01*
X007574Y002117D01*
X007650Y002301D01*
X007726Y002117D01*
X007867Y001976D01*
X008051Y001900D01*
X008249Y001900D01*
X008433Y001976D01*
X008574Y002117D01*
X008650Y002301D01*
X008650Y002499D01*
X008574Y002683D01*
X008433Y002824D01*
X008249Y002900D01*
X008051Y002900D01*
X007867Y002824D01*
X007726Y002683D01*
X007650Y002499D01*
X007650Y002301D01*
X007650Y002499D01*
X007574Y002683D01*
X007433Y002824D01*
X007249Y002900D01*
X007051Y002900D01*
X006867Y002824D01*
X006726Y002683D01*
X006650Y002499D01*
X006650Y002301D01*
X006650Y002499D01*
X006574Y002683D01*
X006433Y002824D01*
X006249Y002900D01*
X006051Y002900D01*
X005867Y002824D01*
X005726Y002683D01*
X005650Y002499D01*
X005650Y002301D01*
X005650Y002499D01*
X005574Y002683D01*
X005433Y002824D01*
X005249Y002900D01*
X005051Y002900D01*
X004867Y002824D01*
X004726Y002683D01*
X004650Y002499D01*
X004650Y002301D01*
X004650Y002499D01*
X004574Y002683D01*
X004433Y002824D01*
X004249Y002900D01*
X004051Y002900D01*
X003867Y002824D01*
X003726Y002683D01*
X003650Y002499D01*
X003650Y002301D01*
X003574Y002117D01*
X003433Y001976D01*
X003249Y001900D01*
X003051Y001900D01*
X002867Y001824D01*
X002726Y001683D01*
X002650Y001499D01*
X002650Y001301D01*
X002726Y001117D01*
X002867Y000976D01*
X003051Y000900D01*
X003249Y000900D01*
X003433Y000976D01*
X003574Y001117D01*
X003650Y001301D01*
X003726Y001117D01*
X003867Y000976D01*
X004051Y000900D01*
X004249Y000900D01*
X004433Y000976D01*
X004574Y001117D01*
X004650Y001301D01*
X004650Y001499D01*
X004574Y001683D01*
X004433Y001824D01*
X004249Y001900D01*
X004051Y001900D01*
X003867Y001824D01*
X003726Y001683D01*
X003650Y001499D01*
X003650Y001301D01*
X003650Y001499D01*
X003574Y001683D01*
X003433Y001824D01*
X003249Y001900D01*
X003051Y001900D01*
X002867Y001976D01*
X002726Y002117D01*
X002650Y002301D01*
X002650Y002499D01*
X002726Y002683D01*
X002867Y002824D01*
X002970Y002867D01*
X002970Y004025D01*
X003460Y004515D01*
X001150Y004515D01*
X001015Y004504D01*
X000757Y004421D01*
X000538Y004262D01*
X000379Y004043D01*
X000296Y003785D01*
X000285Y003650D01*
X000289Y003696D02*
X002970Y003696D01*
X002970Y003598D02*
X000285Y003598D01*
X000285Y003499D02*
X002970Y003499D01*
X002970Y003401D02*
X000285Y003401D01*
X000285Y003302D02*
X002970Y003302D01*
X002970Y003204D02*
X000285Y003204D01*
X000285Y003105D02*
X002970Y003105D01*
X002970Y003007D02*
X000285Y003007D01*
X000285Y002908D02*
X002970Y002908D01*
X002852Y002810D02*
X000285Y002810D01*
X000285Y002711D02*
X002754Y002711D01*
X002697Y002613D02*
X000285Y002613D01*
X000285Y002514D02*
X002656Y002514D01*
X002650Y002416D02*
X000285Y002416D01*
X000285Y002317D02*
X002650Y002317D01*
X002684Y002219D02*
X000285Y002219D01*
X000285Y002120D02*
X002725Y002120D01*
X002821Y002022D02*
X000285Y002022D01*
X000285Y001923D02*
X002995Y001923D01*
X002868Y001825D02*
X002432Y001825D01*
X002433Y001824D02*
X002249Y001900D01*
X002051Y001900D01*
X001867Y001824D01*
X001726Y001683D01*
X001650Y001499D01*
X001650Y001301D01*
X001726Y001117D01*
X001867Y000976D01*
X002051Y000900D01*
X002249Y000900D01*
X002433Y000976D01*
X002574Y001117D01*
X002650Y001301D01*
X002650Y001499D01*
X002574Y001683D01*
X002433Y001824D01*
X002531Y001726D02*
X002769Y001726D01*
X002703Y001628D02*
X002597Y001628D01*
X002638Y001529D02*
X002662Y001529D01*
X002650Y001431D02*
X002650Y001431D01*
X002650Y001332D02*
X002650Y001332D01*
X002622Y001234D02*
X002678Y001234D01*
X002719Y001135D02*
X002581Y001135D01*
X002494Y001037D02*
X002806Y001037D01*
X002959Y000938D02*
X002341Y000938D01*
X001959Y000938D02*
X000285Y000938D01*
X000285Y000840D02*
X023015Y000840D01*
X023015Y000938D02*
X021341Y000938D01*
X021249Y000900D02*
X021433Y000976D01*
X021574Y001117D01*
X021650Y001301D01*
X021650Y001499D01*
X021574Y001683D01*
X021433Y001824D01*
X021249Y001900D01*
X021051Y001900D01*
X020867Y001824D01*
X020726Y001683D01*
X020650Y001499D01*
X020650Y001301D01*
X020726Y001117D01*
X020867Y000976D01*
X021051Y000900D01*
X021249Y000900D01*
X021494Y001037D02*
X023015Y001037D01*
X023015Y001135D02*
X021581Y001135D01*
X021622Y001234D02*
X023015Y001234D01*
X023015Y001332D02*
X021650Y001332D01*
X021650Y001431D02*
X023015Y001431D01*
X023015Y001529D02*
X021638Y001529D01*
X021597Y001628D02*
X023015Y001628D01*
X023015Y001726D02*
X021531Y001726D01*
X021432Y001825D02*
X023015Y001825D01*
X023015Y001923D02*
X021597Y001923D01*
X021650Y002022D02*
X023015Y002022D01*
X023015Y002120D02*
X021650Y002120D01*
X021650Y002219D02*
X023015Y002219D01*
X023015Y002317D02*
X021650Y002317D01*
X021650Y002416D02*
X023015Y002416D01*
X023015Y002514D02*
X021650Y002514D01*
X021650Y002613D02*
X023015Y002613D01*
X023015Y002711D02*
X021650Y002711D01*
X021650Y002810D02*
X023015Y002810D01*
X023015Y002908D02*
X021330Y002908D01*
X021330Y003007D02*
X023015Y003007D01*
X023015Y003105D02*
X021250Y003105D01*
X021151Y003204D02*
X023015Y003204D01*
X023015Y003302D02*
X021053Y003302D01*
X020954Y003401D02*
X023015Y003401D01*
X023015Y003499D02*
X020856Y003499D01*
X020757Y003598D02*
X023015Y003598D01*
X023011Y003696D02*
X021877Y003696D01*
X021966Y003795D02*
X023001Y003795D01*
X022969Y003893D02*
X022005Y003893D01*
X022005Y003992D02*
X022937Y003992D01*
X022886Y004090D02*
X021972Y004090D01*
X021893Y004189D02*
X022815Y004189D01*
X022727Y004287D02*
X016318Y004287D01*
X016219Y004386D02*
X022591Y004386D01*
X022348Y004484D02*
X016121Y004484D01*
X016000Y004350D02*
X016250Y004100D01*
X021550Y004100D01*
X021700Y003950D01*
X021523Y003696D02*
X016709Y003696D01*
X016610Y003795D02*
X021434Y003795D01*
X021395Y003893D02*
X015662Y003893D01*
X015563Y003992D02*
X016104Y003992D01*
X016005Y004090D02*
X014815Y004090D01*
X014750Y003900D02*
X014500Y004150D01*
X013850Y004150D01*
X013500Y004500D01*
X011900Y004500D01*
X011550Y004850D01*
X011828Y004977D02*
X013320Y004977D01*
X013320Y004925D02*
X013325Y004920D01*
X013325Y004728D01*
X013373Y004680D01*
X011975Y004680D01*
X011855Y004800D01*
X011855Y004911D01*
X011809Y005023D01*
X011723Y005109D01*
X011611Y005155D01*
X011489Y005155D01*
X011380Y005110D01*
X011380Y021281D01*
X011384Y021285D01*
X011380Y021355D01*
X011380Y021425D01*
X011376Y021428D01*
X011376Y021434D01*
X011324Y021481D01*
X011275Y021530D01*
X011269Y021530D01*
X009117Y023471D01*
X009150Y023551D01*
X009150Y023749D01*
X009074Y023933D01*
X008933Y024074D01*
X008749Y024150D01*
X008551Y024150D01*
X008367Y024074D01*
X008285Y023992D01*
X008285Y024150D01*
X008933Y024150D01*
X011045Y022234D01*
X011045Y022139D01*
X011091Y022027D01*
X011177Y021941D01*
X011289Y021895D01*
X011411Y021895D01*
X011523Y021941D01*
X011609Y022027D01*
X011655Y022139D01*
X011655Y022261D01*
X011609Y022373D01*
X011523Y022459D01*
X011411Y022505D01*
X011289Y022505D01*
X011284Y022503D01*
X009150Y024439D01*
X009150Y025015D01*
X014308Y025015D01*
X014226Y024933D01*
X014150Y024749D01*
X014150Y024551D01*
X014226Y024367D01*
X014367Y024226D01*
X014551Y024150D01*
X014367Y024074D01*
X014226Y023933D01*
X014150Y023749D01*
X014150Y023551D01*
X014226Y023367D01*
X014367Y023226D01*
X014532Y023158D01*
X014528Y023157D01*
X014450Y023132D01*
X014377Y023095D01*
X014311Y023047D01*
X014253Y022989D01*
X014205Y022923D01*
X014168Y022850D01*
X014143Y022772D01*
X014131Y022700D01*
X014600Y022700D01*
X014600Y022600D01*
X014131Y022600D01*
X014143Y022528D01*
X014168Y022450D01*
X014205Y022377D01*
X014253Y022311D01*
X014311Y022253D01*
X014377Y022205D01*
X014450Y022168D01*
X014528Y022143D01*
X014532Y022142D01*
X014367Y022074D01*
X014335Y022042D01*
X014161Y022144D01*
X014125Y022180D01*
X014099Y022180D01*
X014076Y022193D01*
X014027Y022180D01*
X013801Y022180D01*
X013723Y022259D01*
X013611Y022305D01*
X013489Y022305D01*
X013377Y022259D01*
X013291Y022173D01*
X013245Y022061D01*
X013245Y021939D01*
X013291Y021827D01*
X013377Y021741D01*
X013489Y021695D01*
X013611Y021695D01*
X013723Y021741D01*
X013801Y021820D01*
X014001Y021820D01*
X014150Y021733D01*
X014150Y021551D01*
X014226Y021367D01*
X014367Y021226D01*
X014551Y021150D01*
X014367Y021074D01*
X014343Y021050D01*
X014112Y021192D01*
X014075Y021230D01*
X014051Y021230D01*
X014031Y021242D01*
X013979Y021230D01*
X013601Y021230D01*
X013523Y021309D01*
X013411Y021355D01*
X013289Y021355D01*
X013177Y021309D01*
X013091Y021223D01*
X013045Y021111D01*
X013045Y020989D01*
X013091Y020877D01*
X013177Y020791D01*
X013289Y020745D01*
X013411Y020745D01*
X013523Y020791D01*
X013601Y020870D01*
X013949Y020870D01*
X014150Y020746D01*
X014150Y020551D01*
X014226Y020367D01*
X014367Y020226D01*
X014551Y020150D01*
X014367Y020074D01*
X014343Y020050D01*
X014112Y020192D01*
X014075Y020230D01*
X014051Y020230D01*
X014031Y020242D01*
X013979Y020230D01*
X013351Y020230D01*
X013273Y020309D01*
X013161Y020355D01*
X013039Y020355D01*
X012927Y020309D01*
X012841Y020223D01*
X012795Y020111D01*
X012795Y019989D01*
X012841Y019877D01*
X012927Y019791D01*
X013039Y019745D01*
X013161Y019745D01*
X013273Y019791D01*
X013351Y019870D01*
X013949Y019870D01*
X014150Y019746D01*
X014150Y019551D01*
X014226Y019367D01*
X014367Y019226D01*
X014532Y019158D01*
X014528Y019157D01*
X014450Y019132D01*
X014377Y019095D01*
X014311Y019047D01*
X014253Y018989D01*
X014205Y018923D01*
X014168Y018850D01*
X014143Y018772D01*
X014131Y018700D01*
X014600Y018700D01*
X014600Y018600D01*
X014131Y018600D01*
X014143Y018528D01*
X014168Y018450D01*
X014205Y018377D01*
X014253Y018311D01*
X014311Y018253D01*
X014377Y018205D01*
X014450Y018168D01*
X014528Y018143D01*
X014532Y018142D01*
X014367Y018074D01*
X014343Y018050D01*
X014112Y018192D01*
X014075Y018230D01*
X014051Y018230D01*
X014031Y018242D01*
X013979Y018230D01*
X013201Y018230D01*
X013123Y018309D01*
X013011Y018355D01*
X012889Y018355D01*
X012777Y018309D01*
X012691Y018223D01*
X012645Y018111D01*
X012645Y017989D01*
X012691Y017877D01*
X012777Y017791D01*
X012889Y017745D01*
X013011Y017745D01*
X013123Y017791D01*
X013201Y017870D01*
X013949Y017870D01*
X014150Y017746D01*
X014150Y017551D01*
X014226Y017367D01*
X014367Y017226D01*
X014551Y017150D01*
X014367Y017074D01*
X014343Y017050D01*
X014112Y017192D01*
X014075Y017230D01*
X014051Y017230D01*
X014031Y017242D01*
X013979Y017230D01*
X013001Y017230D01*
X012923Y017309D01*
X012811Y017355D01*
X012689Y017355D01*
X012577Y017309D01*
X012491Y017223D01*
X012445Y017111D01*
X012445Y016989D01*
X012491Y016877D01*
X012577Y016791D01*
X012689Y016745D01*
X012811Y016745D01*
X012923Y016791D01*
X013001Y016870D01*
X013949Y016870D01*
X014150Y016746D01*
X014150Y016551D01*
X014226Y016367D01*
X014367Y016226D01*
X014532Y016158D01*
X014528Y016157D01*
X014450Y016132D01*
X014377Y016095D01*
X014311Y016047D01*
X014253Y015989D01*
X014205Y015923D01*
X014168Y015850D01*
X014143Y015772D01*
X014131Y015700D01*
X014600Y015700D01*
X014600Y015600D01*
X014131Y015600D01*
X014143Y015528D01*
X014168Y015450D01*
X014205Y015377D01*
X014253Y015311D01*
X014311Y015253D01*
X014377Y015205D01*
X014450Y015168D01*
X014528Y015143D01*
X014532Y015142D01*
X014367Y015074D01*
X014350Y015057D01*
X014064Y015241D01*
X014025Y015280D01*
X014003Y015280D01*
X013985Y015292D01*
X013931Y015280D01*
X012801Y015280D01*
X012723Y015359D01*
X012611Y015405D01*
X012489Y015405D01*
X012377Y015359D01*
X012291Y015273D01*
X012245Y015161D01*
X012245Y015039D01*
X012291Y014927D01*
X012377Y014841D01*
X012489Y014795D01*
X012611Y014795D01*
X012723Y014841D01*
X012801Y014920D01*
X013897Y014920D01*
X014153Y014756D01*
X014150Y014749D01*
X014150Y014551D01*
X014226Y014367D01*
X014367Y014226D01*
X014551Y014150D01*
X014367Y014074D01*
X014356Y014063D01*
X014015Y014290D01*
X013975Y014330D01*
X013954Y014330D01*
X013938Y014341D01*
X013882Y014330D01*
X012601Y014330D01*
X012523Y014409D01*
X012411Y014455D01*
X012289Y014455D01*
X012177Y014409D01*
X012091Y014323D01*
X012045Y014211D01*
X012045Y014089D01*
X012091Y013977D01*
X012177Y013891D01*
X012289Y013845D01*
X012411Y013845D01*
X012523Y013891D01*
X012601Y013970D01*
X013846Y013970D01*
X014156Y013763D01*
X014150Y013749D01*
X014150Y013551D01*
X014226Y013367D01*
X014367Y013226D01*
X014551Y013150D01*
X014367Y013074D01*
X014356Y013063D01*
X014015Y013290D01*
X013975Y013330D01*
X013954Y013330D01*
X013938Y013341D01*
X013882Y013330D01*
X012401Y013330D01*
X012323Y013409D01*
X012211Y013455D01*
X012089Y013455D01*
X011977Y013409D01*
X011891Y013323D01*
X011845Y013211D01*
X011845Y013089D01*
X011891Y012977D01*
X011977Y012891D01*
X012089Y012845D01*
X012211Y012845D01*
X012323Y012891D01*
X012401Y012970D01*
X013846Y012970D01*
X014156Y012763D01*
X014150Y012749D01*
X014150Y012551D01*
X014226Y012367D01*
X014367Y012226D01*
X014551Y012150D01*
X014367Y012074D01*
X014350Y012057D01*
X014064Y012241D01*
X014025Y012280D01*
X014003Y012280D01*
X013985Y012292D01*
X013931Y012280D01*
X012101Y012280D01*
X012023Y012359D01*
X011911Y012405D01*
X011789Y012405D01*
X011677Y012359D01*
X011591Y012273D01*
X011545Y012161D01*
X011545Y012039D01*
X011591Y011927D01*
X011677Y011841D01*
X011789Y011795D01*
X011911Y011795D01*
X012023Y011841D01*
X012101Y011920D01*
X013897Y011920D01*
X014153Y011756D01*
X014150Y011749D01*
X014150Y011551D01*
X014226Y011367D01*
X014367Y011226D01*
X014532Y011158D01*
X014528Y011157D01*
X014450Y011132D01*
X014377Y011095D01*
X014311Y011047D01*
X014253Y010989D01*
X014205Y010923D01*
X014168Y010850D01*
X014143Y010772D01*
X014131Y010700D01*
X014600Y010700D01*
X014600Y010600D01*
X014131Y010600D01*
X014143Y010528D01*
X014168Y010450D01*
X014205Y010377D01*
X014253Y010311D01*
X014311Y010253D01*
X014377Y010205D01*
X014450Y010168D01*
X014528Y010143D01*
X014532Y010142D01*
X014367Y010074D01*
X014226Y009933D01*
X014183Y009830D01*
X011825Y009830D01*
X011625Y009630D01*
X011520Y009525D01*
X011520Y005851D01*
X011441Y005773D01*
X011395Y005661D01*
X011395Y005539D01*
X011441Y005427D01*
X011527Y005341D01*
X011639Y005295D01*
X011761Y005295D01*
X011873Y005341D01*
X011959Y005427D01*
X012005Y005539D01*
X012005Y005661D01*
X011959Y005773D01*
X011880Y005851D01*
X011880Y009375D01*
X011975Y009470D01*
X014183Y009470D01*
X014226Y009367D01*
X014367Y009226D01*
X014532Y009158D01*
X014528Y009157D01*
X014450Y009132D01*
X014377Y009095D01*
X014311Y009047D01*
X014253Y008989D01*
X014205Y008923D01*
X014168Y008850D01*
X014143Y008772D01*
X014131Y008700D01*
X014600Y008700D01*
X014600Y008600D01*
X014131Y008600D01*
X014143Y008528D01*
X014168Y008450D01*
X014205Y008377D01*
X014253Y008311D01*
X014311Y008253D01*
X014377Y008205D01*
X014450Y008168D01*
X014528Y008143D01*
X014532Y008142D01*
X014367Y008074D01*
X014226Y007933D01*
X014183Y007830D01*
X013775Y007830D01*
X013670Y007725D01*
X013320Y007375D01*
X013320Y004925D01*
X013325Y004878D02*
X011855Y004878D01*
X011875Y004780D02*
X013325Y004780D01*
X013372Y004681D02*
X011974Y004681D01*
X011756Y005075D02*
X013320Y005075D01*
X013320Y005174D02*
X011380Y005174D01*
X011380Y005272D02*
X013320Y005272D01*
X013320Y005371D02*
X011902Y005371D01*
X011976Y005469D02*
X013320Y005469D01*
X013320Y005568D02*
X012005Y005568D01*
X012003Y005666D02*
X013320Y005666D01*
X013320Y005765D02*
X011962Y005765D01*
X011880Y005863D02*
X013320Y005863D01*
X013320Y005962D02*
X011880Y005962D01*
X011880Y006060D02*
X013320Y006060D01*
X013320Y006159D02*
X011880Y006159D01*
X011880Y006257D02*
X013320Y006257D01*
X013320Y006356D02*
X011880Y006356D01*
X011880Y006454D02*
X013320Y006454D01*
X013320Y006553D02*
X011880Y006553D01*
X011880Y006651D02*
X013320Y006651D01*
X013320Y006750D02*
X011880Y006750D01*
X011880Y006848D02*
X013320Y006848D01*
X013320Y006947D02*
X011880Y006947D01*
X011880Y007045D02*
X013320Y007045D01*
X013320Y007144D02*
X011880Y007144D01*
X011880Y007242D02*
X013320Y007242D01*
X013320Y007341D02*
X011880Y007341D01*
X011880Y007439D02*
X013384Y007439D01*
X013483Y007538D02*
X011880Y007538D01*
X011880Y007636D02*
X013581Y007636D01*
X013680Y007735D02*
X011880Y007735D01*
X011880Y007833D02*
X014185Y007833D01*
X014225Y007932D02*
X011880Y007932D01*
X011880Y008030D02*
X014323Y008030D01*
X014348Y008227D02*
X011880Y008227D01*
X011880Y008129D02*
X014499Y008129D01*
X014243Y008326D02*
X011880Y008326D01*
X011880Y008424D02*
X014182Y008424D01*
X014145Y008523D02*
X011880Y008523D01*
X011880Y008621D02*
X014600Y008621D01*
X014280Y009015D02*
X011880Y009015D01*
X011880Y008917D02*
X014202Y008917D01*
X014158Y008818D02*
X011880Y008818D01*
X011880Y008720D02*
X014135Y008720D01*
X014414Y009114D02*
X011880Y009114D01*
X011880Y009212D02*
X014401Y009212D01*
X014282Y009311D02*
X011880Y009311D01*
X011914Y009409D02*
X014209Y009409D01*
X014213Y009902D02*
X011380Y009902D01*
X011380Y010000D02*
X014293Y010000D01*
X014426Y010099D02*
X011380Y010099D01*
X011380Y010197D02*
X014394Y010197D01*
X014269Y010296D02*
X011380Y010296D01*
X011380Y010394D02*
X014197Y010394D01*
X014154Y010493D02*
X011380Y010493D01*
X011380Y010591D02*
X014133Y010591D01*
X014148Y010788D02*
X011380Y010788D01*
X011380Y010690D02*
X014600Y010690D01*
X014251Y010985D02*
X011380Y010985D01*
X011380Y010887D02*
X014187Y010887D01*
X014362Y011084D02*
X011380Y011084D01*
X011380Y011182D02*
X014473Y011182D01*
X014312Y011281D02*
X011380Y011281D01*
X011380Y011379D02*
X014221Y011379D01*
X014180Y011478D02*
X011380Y011478D01*
X011380Y011576D02*
X014150Y011576D01*
X014150Y011675D02*
X011380Y011675D01*
X011380Y011773D02*
X014126Y011773D01*
X013973Y011872D02*
X012053Y011872D01*
X011850Y012100D02*
X013950Y012100D01*
X014650Y011650D01*
X014361Y012069D02*
X014332Y012069D01*
X014179Y012167D02*
X014509Y012167D01*
X014551Y012150D02*
X014749Y012150D01*
X014551Y012150D01*
X014749Y012150D02*
X014933Y012074D01*
X015015Y011992D01*
X015015Y012308D01*
X014933Y012226D01*
X014749Y012150D01*
X014791Y012167D02*
X015015Y012167D01*
X015015Y012069D02*
X014939Y012069D01*
X014973Y012266D02*
X015015Y012266D01*
X014650Y012650D02*
X013900Y013150D01*
X012150Y013150D01*
X012382Y013349D02*
X014244Y013349D01*
X014193Y013448D02*
X012229Y013448D01*
X012071Y013448D02*
X011380Y013448D01*
X011380Y013546D02*
X014152Y013546D01*
X014150Y013645D02*
X011380Y013645D01*
X011380Y013743D02*
X014150Y013743D01*
X014038Y013842D02*
X011380Y013842D01*
X011380Y013940D02*
X012129Y013940D01*
X012066Y014039D02*
X011380Y014039D01*
X011380Y014137D02*
X012045Y014137D01*
X012055Y014236D02*
X011380Y014236D01*
X011380Y014334D02*
X012103Y014334D01*
X012235Y014433D02*
X011380Y014433D01*
X011380Y014531D02*
X014158Y014531D01*
X014150Y014630D02*
X011380Y014630D01*
X011380Y014728D02*
X014150Y014728D01*
X014043Y014827D02*
X012687Y014827D01*
X012413Y014827D02*
X011380Y014827D01*
X011380Y014925D02*
X012294Y014925D01*
X012252Y015024D02*
X011380Y015024D01*
X011380Y015122D02*
X012245Y015122D01*
X012270Y015221D02*
X011380Y015221D01*
X011380Y015319D02*
X012338Y015319D01*
X012550Y015100D02*
X013950Y015100D01*
X014650Y014650D01*
X014259Y014334D02*
X013948Y014334D01*
X013902Y014334D02*
X012597Y014334D01*
X012465Y014433D02*
X014199Y014433D01*
X014096Y014236D02*
X014357Y014236D01*
X014244Y014137D02*
X014519Y014137D01*
X014551Y014150D02*
X014749Y014150D01*
X014933Y014074D01*
X015015Y013992D01*
X015015Y014308D01*
X014933Y014226D01*
X014749Y014150D01*
X014551Y014150D01*
X014781Y014137D02*
X015015Y014137D01*
X015015Y014039D02*
X014969Y014039D01*
X014943Y014236D02*
X015015Y014236D01*
X014650Y013650D02*
X013900Y014150D01*
X012350Y014150D01*
X012571Y013940D02*
X013890Y013940D01*
X014074Y013251D02*
X014342Y013251D01*
X014221Y013152D02*
X014546Y013152D01*
X014551Y013150D02*
X014749Y013150D01*
X014933Y013074D01*
X015015Y012992D01*
X015015Y013308D01*
X014933Y013226D01*
X014749Y013150D01*
X014551Y013150D01*
X014754Y013152D02*
X015015Y013152D01*
X015015Y013054D02*
X014954Y013054D01*
X014958Y013251D02*
X015015Y013251D01*
X014154Y012758D02*
X011380Y012758D01*
X011380Y012660D02*
X014150Y012660D01*
X014150Y012561D02*
X011380Y012561D01*
X011380Y012463D02*
X014186Y012463D01*
X014229Y012364D02*
X012010Y012364D01*
X011690Y012364D02*
X011380Y012364D01*
X011380Y012266D02*
X011588Y012266D01*
X011548Y012167D02*
X011380Y012167D01*
X011380Y012069D02*
X011545Y012069D01*
X011574Y011970D02*
X011380Y011970D01*
X011380Y011872D02*
X011647Y011872D01*
X011380Y012857D02*
X012061Y012857D01*
X011914Y012955D02*
X011380Y012955D01*
X011380Y013054D02*
X011860Y013054D01*
X011845Y013152D02*
X011380Y013152D01*
X011380Y013251D02*
X011862Y013251D01*
X011918Y013349D02*
X011380Y013349D01*
X012239Y012857D02*
X014016Y012857D01*
X013868Y012955D02*
X012386Y012955D01*
X014039Y012266D02*
X014327Y012266D01*
X014650Y009650D02*
X011900Y009650D01*
X011700Y009450D01*
X011700Y005600D01*
X011424Y005469D02*
X011380Y005469D01*
X011380Y005371D02*
X011498Y005371D01*
X011395Y005568D02*
X011380Y005568D01*
X011380Y005666D02*
X011397Y005666D01*
X011380Y005765D02*
X011438Y005765D01*
X011380Y005863D02*
X011520Y005863D01*
X011520Y005962D02*
X011380Y005962D01*
X011380Y006060D02*
X011520Y006060D01*
X011520Y006159D02*
X011380Y006159D01*
X011380Y006257D02*
X011520Y006257D01*
X011520Y006356D02*
X011380Y006356D01*
X011380Y006454D02*
X011520Y006454D01*
X011520Y006553D02*
X011380Y006553D01*
X011380Y006651D02*
X011520Y006651D01*
X011520Y006750D02*
X011380Y006750D01*
X011380Y006848D02*
X011520Y006848D01*
X011520Y006947D02*
X011380Y006947D01*
X011380Y007045D02*
X011520Y007045D01*
X011520Y007144D02*
X011380Y007144D01*
X011380Y007242D02*
X011520Y007242D01*
X011520Y007341D02*
X011380Y007341D01*
X011380Y007439D02*
X011520Y007439D01*
X011520Y007538D02*
X011380Y007538D01*
X011380Y007636D02*
X011520Y007636D01*
X011520Y007735D02*
X011380Y007735D01*
X011380Y007833D02*
X011520Y007833D01*
X011520Y007932D02*
X011380Y007932D01*
X011380Y008030D02*
X011520Y008030D01*
X011520Y008129D02*
X011380Y008129D01*
X011380Y008227D02*
X011520Y008227D01*
X011520Y008326D02*
X011380Y008326D01*
X011380Y008424D02*
X011520Y008424D01*
X011520Y008523D02*
X011380Y008523D01*
X011380Y008621D02*
X011520Y008621D01*
X011520Y008720D02*
X011380Y008720D01*
X011380Y008818D02*
X011520Y008818D01*
X011520Y008917D02*
X011380Y008917D01*
X011380Y009015D02*
X011520Y009015D01*
X011520Y009114D02*
X011380Y009114D01*
X011380Y009212D02*
X011520Y009212D01*
X011520Y009311D02*
X011380Y009311D01*
X011380Y009409D02*
X011520Y009409D01*
X011520Y009508D02*
X011380Y009508D01*
X011380Y009606D02*
X011601Y009606D01*
X011700Y009705D02*
X011380Y009705D01*
X011380Y009803D02*
X011798Y009803D01*
X013850Y007650D02*
X014650Y007650D01*
X013850Y007650D02*
X013500Y007300D01*
X013500Y005000D01*
X013700Y005200D02*
X013700Y006450D01*
X013900Y006650D01*
X014650Y006650D01*
X013700Y005200D02*
X014250Y004650D01*
X014650Y004350D02*
X016000Y004350D01*
X015400Y003900D02*
X014750Y003900D01*
X014650Y003700D02*
X014400Y003950D01*
X013750Y003950D01*
X013400Y004300D01*
X011650Y004300D01*
X011200Y004750D01*
X011200Y021350D01*
X008650Y023650D01*
X009020Y023987D02*
X009113Y023987D01*
X009092Y023889D02*
X009221Y023889D01*
X009133Y023790D02*
X009330Y023790D01*
X009438Y023692D02*
X009150Y023692D01*
X009150Y023593D02*
X009547Y023593D01*
X009655Y023495D02*
X009127Y023495D01*
X009200Y023396D02*
X009764Y023396D01*
X009873Y023298D02*
X009309Y023298D01*
X009419Y023199D02*
X009981Y023199D01*
X010090Y023101D02*
X009528Y023101D01*
X009637Y023002D02*
X010198Y023002D01*
X010307Y022904D02*
X009746Y022904D01*
X009856Y022805D02*
X010415Y022805D01*
X010524Y022707D02*
X009965Y022707D01*
X010074Y022608D02*
X010632Y022608D01*
X010741Y022510D02*
X010183Y022510D01*
X010292Y022411D02*
X010850Y022411D01*
X010958Y022313D02*
X010402Y022313D01*
X010511Y022214D02*
X011045Y022214D01*
X011055Y022116D02*
X010620Y022116D01*
X010729Y022017D02*
X011102Y022017D01*
X011232Y021919D02*
X010838Y021919D01*
X010948Y021820D02*
X013299Y021820D01*
X013254Y021919D02*
X011468Y021919D01*
X011598Y022017D02*
X013245Y022017D01*
X013268Y022116D02*
X011645Y022116D01*
X011655Y022214D02*
X013333Y022214D01*
X013550Y022000D02*
X014050Y022000D01*
X014650Y021650D01*
X014265Y021328D02*
X013477Y021328D01*
X013223Y021328D02*
X011381Y021328D01*
X011379Y021426D02*
X014202Y021426D01*
X014161Y021525D02*
X011280Y021525D01*
X011166Y021623D02*
X014150Y021623D01*
X014150Y021722D02*
X013675Y021722D01*
X013425Y021722D02*
X011057Y021722D01*
X011350Y022200D02*
X008650Y024650D01*
X009150Y024677D02*
X014150Y024677D01*
X014161Y024775D02*
X009150Y024775D01*
X009150Y024874D02*
X014201Y024874D01*
X014265Y024972D02*
X009150Y024972D01*
X009150Y024578D02*
X014150Y024578D01*
X014179Y024480D02*
X009150Y024480D01*
X009214Y024381D02*
X014220Y024381D01*
X014310Y024283D02*
X009323Y024283D01*
X009431Y024184D02*
X014468Y024184D01*
X014551Y024150D02*
X014749Y024150D01*
X014933Y024074D01*
X015015Y023992D01*
X015015Y024308D01*
X014933Y024226D01*
X014749Y024150D01*
X014551Y024150D01*
X014395Y024086D02*
X009540Y024086D01*
X009648Y023987D02*
X014280Y023987D01*
X014208Y023889D02*
X009757Y023889D01*
X009866Y023790D02*
X014167Y023790D01*
X014150Y023692D02*
X009974Y023692D01*
X010083Y023593D02*
X014150Y023593D01*
X014173Y023495D02*
X010191Y023495D01*
X010300Y023396D02*
X014214Y023396D01*
X014295Y023298D02*
X010408Y023298D01*
X010517Y023199D02*
X014432Y023199D01*
X014389Y023101D02*
X010625Y023101D01*
X010734Y023002D02*
X014267Y023002D01*
X014196Y022904D02*
X010843Y022904D01*
X010951Y022805D02*
X014154Y022805D01*
X014132Y022707D02*
X011060Y022707D01*
X011168Y022608D02*
X014600Y022608D01*
X014252Y022313D02*
X011634Y022313D01*
X011570Y022411D02*
X014188Y022411D01*
X014149Y022510D02*
X011277Y022510D01*
X011380Y021229D02*
X013098Y021229D01*
X013053Y021131D02*
X011380Y021131D01*
X011380Y021032D02*
X013045Y021032D01*
X013068Y020934D02*
X011380Y020934D01*
X011380Y020835D02*
X013134Y020835D01*
X013350Y021050D02*
X014000Y021050D01*
X014650Y020650D01*
X014250Y020343D02*
X013191Y020343D01*
X013337Y020244D02*
X014349Y020244D01*
X014188Y020146D02*
X014540Y020146D01*
X014551Y020150D02*
X014749Y020150D01*
X014933Y020074D01*
X015015Y019992D01*
X015015Y020308D01*
X014933Y020226D01*
X014749Y020150D01*
X014551Y020150D01*
X014760Y020146D02*
X015015Y020146D01*
X015015Y020244D02*
X014951Y020244D01*
X014960Y020047D02*
X015015Y020047D01*
X014650Y019650D02*
X014000Y020050D01*
X013100Y020050D01*
X013331Y019850D02*
X013981Y019850D01*
X014142Y019752D02*
X013176Y019752D01*
X013024Y019752D02*
X011380Y019752D01*
X011380Y019850D02*
X012869Y019850D01*
X012812Y019949D02*
X011380Y019949D01*
X011380Y020047D02*
X012795Y020047D01*
X012809Y020146D02*
X011380Y020146D01*
X011380Y020244D02*
X012863Y020244D01*
X013009Y020343D02*
X011380Y020343D01*
X011380Y020441D02*
X014195Y020441D01*
X014155Y020540D02*
X011380Y020540D01*
X011380Y020638D02*
X014150Y020638D01*
X014150Y020737D02*
X011380Y020737D01*
X011000Y020550D02*
X008650Y022650D01*
X008650Y021650D02*
X010800Y019750D01*
X010800Y004550D01*
X011450Y003900D01*
X013200Y003900D01*
X013600Y003500D01*
X014250Y003500D01*
X014450Y003300D01*
X015100Y003300D01*
X015300Y003100D01*
X016100Y003100D01*
X016300Y002900D01*
X018050Y002900D01*
X018150Y002800D01*
X018150Y002400D01*
X017754Y002711D02*
X016546Y002711D01*
X016603Y002613D02*
X017697Y002613D01*
X017656Y002514D02*
X016644Y002514D01*
X016650Y002416D02*
X017650Y002416D01*
X017650Y002317D02*
X016650Y002317D01*
X016616Y002219D02*
X017684Y002219D01*
X017725Y002120D02*
X016575Y002120D01*
X016479Y002022D02*
X017821Y002022D01*
X017995Y001923D02*
X016305Y001923D01*
X016432Y001825D02*
X016868Y001825D01*
X016900Y001900D02*
X017150Y002150D01*
X017150Y002400D01*
X016900Y001900D02*
X015650Y001900D01*
X015150Y001400D01*
X014650Y001431D02*
X015650Y001431D01*
X015662Y001529D02*
X014638Y001529D01*
X014597Y001628D02*
X015703Y001628D01*
X015769Y001726D02*
X014531Y001726D01*
X014432Y001825D02*
X015868Y001825D01*
X015995Y001923D02*
X015305Y001923D01*
X015479Y002022D02*
X015821Y002022D01*
X015725Y002120D02*
X015575Y002120D01*
X015616Y002219D02*
X015684Y002219D01*
X015650Y002317D02*
X015650Y002317D01*
X015650Y002416D02*
X015650Y002416D01*
X015644Y002514D02*
X015656Y002514D01*
X015697Y002613D02*
X015603Y002613D01*
X015546Y002711D02*
X015754Y002711D01*
X016000Y002900D02*
X016150Y002750D01*
X016150Y002400D01*
X016000Y002900D02*
X015200Y002900D01*
X015000Y003100D01*
X014350Y003100D01*
X014150Y003300D01*
X013500Y003300D01*
X013100Y003700D01*
X011350Y003700D01*
X010600Y004450D01*
X010600Y018000D01*
X008650Y019650D01*
X009059Y019949D02*
X010304Y019949D01*
X010415Y019850D02*
X009108Y019850D01*
X009074Y019933D02*
X009150Y019749D01*
X009150Y019551D01*
X009123Y019486D01*
X010620Y018219D01*
X010620Y019669D01*
X008882Y021205D01*
X008768Y021158D01*
X008772Y021157D01*
X008850Y021132D01*
X008923Y021095D01*
X008989Y021047D01*
X009047Y020989D01*
X009095Y020923D01*
X009132Y020850D01*
X009157Y020772D01*
X009169Y020700D01*
X008700Y020700D01*
X008700Y020600D01*
X009169Y020600D01*
X009157Y020528D01*
X009132Y020450D01*
X009095Y020377D01*
X009047Y020311D01*
X008989Y020253D01*
X008923Y020205D01*
X008850Y020168D01*
X008772Y020143D01*
X008768Y020142D01*
X008933Y020074D01*
X009074Y019933D01*
X008960Y020047D02*
X010192Y020047D01*
X010081Y020146D02*
X008780Y020146D01*
X008976Y020244D02*
X009969Y020244D01*
X009858Y020343D02*
X009069Y020343D01*
X009127Y020441D02*
X009746Y020441D01*
X009635Y020540D02*
X009159Y020540D01*
X009163Y020737D02*
X009412Y020737D01*
X009300Y020835D02*
X009137Y020835D01*
X009087Y020934D02*
X009189Y020934D01*
X009077Y021032D02*
X009003Y021032D01*
X008966Y021131D02*
X008852Y021131D01*
X008700Y020638D02*
X009523Y020638D01*
X009149Y019752D02*
X010526Y019752D01*
X010620Y019653D02*
X009150Y019653D01*
X009150Y019555D02*
X010620Y019555D01*
X010620Y019456D02*
X009158Y019456D01*
X009274Y019358D02*
X010620Y019358D01*
X010620Y019259D02*
X009391Y019259D01*
X009507Y019161D02*
X010620Y019161D01*
X010620Y019062D02*
X009624Y019062D01*
X009740Y018964D02*
X010620Y018964D01*
X010620Y018865D02*
X009856Y018865D01*
X009973Y018767D02*
X010620Y018767D01*
X010620Y018668D02*
X010089Y018668D01*
X010206Y018570D02*
X010620Y018570D01*
X010620Y018471D02*
X010322Y018471D01*
X010438Y018373D02*
X010620Y018373D01*
X010620Y018274D02*
X010555Y018274D01*
X011380Y018274D02*
X012743Y018274D01*
X012672Y018176D02*
X011380Y018176D01*
X011380Y018077D02*
X012645Y018077D01*
X012649Y017979D02*
X011380Y017979D01*
X011380Y017880D02*
X012690Y017880D01*
X012801Y017782D02*
X011380Y017782D01*
X011380Y017683D02*
X014150Y017683D01*
X014150Y017585D02*
X011380Y017585D01*
X011380Y017486D02*
X014177Y017486D01*
X014218Y017388D02*
X011380Y017388D01*
X011380Y017289D02*
X012558Y017289D01*
X012478Y017191D02*
X011380Y017191D01*
X011380Y017092D02*
X012445Y017092D01*
X012445Y016994D02*
X011380Y016994D01*
X011380Y016895D02*
X012484Y016895D01*
X012572Y016797D02*
X011380Y016797D01*
X011380Y016698D02*
X014150Y016698D01*
X014150Y016600D02*
X011380Y016600D01*
X011380Y016501D02*
X014171Y016501D01*
X014211Y016403D02*
X011380Y016403D01*
X011380Y016304D02*
X014289Y016304D01*
X014416Y016206D02*
X011380Y016206D01*
X011380Y016107D02*
X014402Y016107D01*
X014273Y016009D02*
X011380Y016009D01*
X011380Y015910D02*
X014199Y015910D01*
X014156Y015812D02*
X011380Y015812D01*
X011380Y015713D02*
X014134Y015713D01*
X014147Y015516D02*
X011380Y015516D01*
X011380Y015418D02*
X014185Y015418D01*
X014248Y015319D02*
X012762Y015319D01*
X014095Y015221D02*
X014356Y015221D01*
X014249Y015122D02*
X014483Y015122D01*
X014600Y015615D02*
X011380Y015615D01*
X010200Y016450D02*
X008650Y017650D01*
X008650Y016650D02*
X010000Y015700D01*
X010000Y004150D01*
X011050Y003100D01*
X012800Y003100D01*
X013150Y002750D01*
X013150Y002400D01*
X013616Y002219D02*
X013684Y002219D01*
X013650Y002317D02*
X013650Y002317D01*
X013650Y002416D02*
X013650Y002416D01*
X013644Y002514D02*
X013656Y002514D01*
X013697Y002613D02*
X013603Y002613D01*
X013546Y002711D02*
X013754Y002711D01*
X013950Y002900D02*
X014150Y002700D01*
X014150Y002400D01*
X014616Y002219D02*
X014684Y002219D01*
X014650Y002317D02*
X014650Y002317D01*
X014650Y002416D02*
X014650Y002416D01*
X014644Y002514D02*
X014656Y002514D01*
X014697Y002613D02*
X014603Y002613D01*
X014546Y002711D02*
X014754Y002711D01*
X014900Y002900D02*
X015150Y002650D01*
X015150Y002400D01*
X014821Y002022D02*
X014479Y002022D01*
X014575Y002120D02*
X014725Y002120D01*
X014995Y001923D02*
X014305Y001923D01*
X013995Y001923D02*
X013305Y001923D01*
X013432Y001825D02*
X013868Y001825D01*
X013769Y001726D02*
X013531Y001726D01*
X013597Y001628D02*
X013703Y001628D01*
X013662Y001529D02*
X013638Y001529D01*
X013650Y001431D02*
X013650Y001431D01*
X013650Y001332D02*
X013650Y001332D01*
X013622Y001234D02*
X013678Y001234D01*
X013719Y001135D02*
X013581Y001135D01*
X013494Y001037D02*
X013806Y001037D01*
X013959Y000938D02*
X013341Y000938D01*
X012959Y000938D02*
X011341Y000938D01*
X011494Y001037D02*
X012806Y001037D01*
X012719Y001135D02*
X011581Y001135D01*
X011622Y001234D02*
X012678Y001234D01*
X012650Y001332D02*
X011650Y001332D01*
X011650Y001431D02*
X012650Y001431D01*
X012662Y001529D02*
X011638Y001529D01*
X011597Y001628D02*
X012703Y001628D01*
X012769Y001726D02*
X011531Y001726D01*
X011432Y001825D02*
X012868Y001825D01*
X012995Y001923D02*
X012305Y001923D01*
X012479Y002022D02*
X012821Y002022D01*
X012725Y002120D02*
X012575Y002120D01*
X012616Y002219D02*
X012684Y002219D01*
X012650Y002317D02*
X012650Y002317D01*
X012650Y002416D02*
X012650Y002416D01*
X012644Y002514D02*
X012656Y002514D01*
X012697Y002613D02*
X012603Y002613D01*
X012546Y002711D02*
X012754Y002711D01*
X012836Y002810D02*
X012448Y002810D01*
X012297Y002908D02*
X012737Y002908D01*
X012900Y003300D02*
X013300Y002900D01*
X013950Y002900D01*
X014050Y003100D02*
X014250Y002900D01*
X014900Y002900D01*
X015400Y003300D02*
X015200Y003500D01*
X014550Y003500D01*
X014300Y003750D01*
X013650Y003750D01*
X013300Y004100D01*
X011550Y004100D01*
X011000Y004650D01*
X011000Y020550D01*
X011380Y019653D02*
X014150Y019653D01*
X014150Y019555D02*
X011380Y019555D01*
X011380Y019456D02*
X014189Y019456D01*
X014235Y019358D02*
X011380Y019358D01*
X011380Y019259D02*
X014334Y019259D01*
X014332Y019062D02*
X011380Y019062D01*
X011380Y018964D02*
X014235Y018964D01*
X014176Y018865D02*
X011380Y018865D01*
X011380Y018767D02*
X014142Y018767D01*
X014136Y018570D02*
X011380Y018570D01*
X011380Y018668D02*
X014600Y018668D01*
X014291Y018274D02*
X013157Y018274D01*
X012950Y018050D02*
X014000Y018050D01*
X014650Y017650D01*
X014304Y017289D02*
X012942Y017289D01*
X012750Y017050D02*
X014000Y017050D01*
X014650Y016650D01*
X015014Y016994D02*
X015015Y016994D01*
X015015Y016992D02*
X014933Y017074D01*
X014749Y017150D01*
X014551Y017150D01*
X014749Y017150D01*
X014933Y017226D01*
X015015Y017308D01*
X015015Y016992D01*
X015015Y017092D02*
X014889Y017092D01*
X014847Y017191D02*
X015015Y017191D01*
X015015Y017289D02*
X014996Y017289D01*
X014453Y017191D02*
X014115Y017191D01*
X014275Y017092D02*
X014411Y017092D01*
X014068Y016797D02*
X012928Y016797D01*
X013099Y017782D02*
X014093Y017782D01*
X014299Y018077D02*
X014374Y018077D01*
X014436Y018176D02*
X014139Y018176D01*
X014209Y018373D02*
X011380Y018373D01*
X011380Y018471D02*
X014161Y018471D01*
X014525Y019161D02*
X011380Y019161D01*
X010400Y017200D02*
X010400Y004350D01*
X011250Y003500D01*
X013000Y003500D01*
X013400Y003100D01*
X014050Y003100D01*
X014650Y003700D02*
X015300Y003700D01*
X015500Y003500D01*
X016300Y003500D01*
X016500Y003300D01*
X019800Y003300D01*
X020150Y002950D01*
X020150Y002400D01*
X020616Y002219D02*
X020650Y002219D01*
X020650Y002317D02*
X020650Y002317D01*
X020650Y002416D02*
X020650Y002416D01*
X020644Y002514D02*
X020650Y002514D01*
X020650Y002613D02*
X020603Y002613D01*
X020650Y002711D02*
X020546Y002711D01*
X020448Y002810D02*
X020650Y002810D01*
X020839Y003007D02*
X020330Y003007D01*
X020330Y002908D02*
X020937Y002908D01*
X021150Y002950D02*
X020600Y003500D01*
X016650Y003500D01*
X016450Y003700D01*
X015600Y003700D01*
X015400Y003900D01*
X015400Y003300D02*
X016200Y003300D01*
X016400Y003100D01*
X018900Y003100D01*
X019150Y002850D01*
X019150Y002400D01*
X019546Y002711D02*
X019754Y002711D01*
X019697Y002613D02*
X019603Y002613D01*
X019644Y002514D02*
X019656Y002514D01*
X019650Y002416D02*
X019650Y002416D01*
X019650Y002317D02*
X019650Y002317D01*
X019616Y002219D02*
X019684Y002219D01*
X019725Y002120D02*
X019575Y002120D01*
X019479Y002022D02*
X019821Y002022D01*
X019995Y001923D02*
X019305Y001923D01*
X018995Y001923D02*
X018305Y001923D01*
X018432Y001825D02*
X019868Y001825D01*
X019769Y001726D02*
X018531Y001726D01*
X018597Y001628D02*
X019703Y001628D01*
X019662Y001529D02*
X018638Y001529D01*
X018650Y001431D02*
X019650Y001431D01*
X019650Y001332D02*
X018650Y001332D01*
X018622Y001234D02*
X019678Y001234D01*
X019719Y001135D02*
X018581Y001135D01*
X018494Y001037D02*
X019806Y001037D01*
X019959Y000938D02*
X018341Y000938D01*
X017959Y000938D02*
X017341Y000938D01*
X017494Y001037D02*
X017806Y001037D01*
X017719Y001135D02*
X017581Y001135D01*
X017622Y001234D02*
X017678Y001234D01*
X017650Y001332D02*
X017650Y001332D01*
X017650Y001431D02*
X017650Y001431D01*
X017638Y001529D02*
X017662Y001529D01*
X017703Y001628D02*
X017597Y001628D01*
X017531Y001726D02*
X017769Y001726D01*
X017868Y001825D02*
X017432Y001825D01*
X016769Y001726D02*
X016531Y001726D01*
X016597Y001628D02*
X016703Y001628D01*
X016662Y001529D02*
X016638Y001529D01*
X016650Y001431D02*
X016650Y001431D01*
X016650Y001332D02*
X016650Y001332D01*
X016622Y001234D02*
X016678Y001234D01*
X016719Y001135D02*
X016581Y001135D01*
X016494Y001037D02*
X016806Y001037D01*
X016959Y000938D02*
X016341Y000938D01*
X015959Y000938D02*
X014341Y000938D01*
X014494Y001037D02*
X015806Y001037D01*
X015719Y001135D02*
X014581Y001135D01*
X014622Y001234D02*
X015678Y001234D01*
X015650Y001332D02*
X014650Y001332D01*
X013821Y002022D02*
X013479Y002022D01*
X013575Y002120D02*
X013725Y002120D01*
X012900Y003300D02*
X011150Y003300D01*
X010200Y004250D01*
X010200Y016450D01*
X010400Y017200D02*
X008650Y018650D01*
X008650Y015650D02*
X009800Y014900D01*
X009800Y004050D01*
X010950Y002900D01*
X012050Y002900D01*
X012150Y002800D01*
X012150Y002400D01*
X011684Y002219D02*
X011616Y002219D01*
X011650Y002317D02*
X011650Y002317D01*
X011650Y002416D02*
X011650Y002416D01*
X011644Y002514D02*
X011656Y002514D01*
X011697Y002613D02*
X011603Y002613D01*
X011546Y002711D02*
X011754Y002711D01*
X011725Y002120D02*
X011575Y002120D01*
X011479Y002022D02*
X011821Y002022D01*
X011995Y001923D02*
X011305Y001923D01*
X010995Y001923D02*
X010305Y001923D01*
X010432Y001825D02*
X010868Y001825D01*
X010769Y001726D02*
X010531Y001726D01*
X010597Y001628D02*
X010703Y001628D01*
X010662Y001529D02*
X010638Y001529D01*
X010650Y001431D02*
X010650Y001431D01*
X010650Y001332D02*
X010650Y001332D01*
X010622Y001234D02*
X010678Y001234D01*
X010719Y001135D02*
X010581Y001135D01*
X010494Y001037D02*
X010806Y001037D01*
X010959Y000938D02*
X010341Y000938D01*
X009959Y000938D02*
X009341Y000938D01*
X009494Y001037D02*
X009806Y001037D01*
X009719Y001135D02*
X009581Y001135D01*
X009622Y001234D02*
X009678Y001234D01*
X009650Y001332D02*
X009650Y001332D01*
X009650Y001431D02*
X009650Y001431D01*
X009638Y001529D02*
X009662Y001529D01*
X009703Y001628D02*
X009597Y001628D01*
X009531Y001726D02*
X009769Y001726D01*
X009868Y001825D02*
X009432Y001825D01*
X009725Y002120D02*
X008575Y002120D01*
X008616Y002219D02*
X009684Y002219D01*
X009650Y002317D02*
X008650Y002317D01*
X008650Y002416D02*
X009650Y002416D01*
X009656Y002514D02*
X008644Y002514D01*
X008603Y002613D02*
X009697Y002613D01*
X009754Y002711D02*
X008546Y002711D01*
X008448Y002810D02*
X009852Y002810D01*
X009970Y002908D02*
X003330Y002908D01*
X003330Y003007D02*
X009970Y003007D01*
X009899Y003105D02*
X003330Y003105D01*
X003330Y003204D02*
X009806Y003204D01*
X009714Y003302D02*
X003330Y003302D01*
X003330Y003401D02*
X009622Y003401D01*
X009529Y003499D02*
X003330Y003499D01*
X003330Y003598D02*
X009437Y003598D01*
X009345Y003696D02*
X003330Y003696D01*
X003330Y003795D02*
X009251Y003795D01*
X009220Y003893D02*
X003348Y003893D01*
X003446Y003992D02*
X009220Y003992D01*
X009220Y004090D02*
X003545Y004090D01*
X003643Y004189D02*
X009220Y004189D01*
X009220Y004287D02*
X003742Y004287D01*
X003700Y004500D02*
X008800Y004500D01*
X009050Y004750D01*
X008773Y004878D02*
X007992Y004878D01*
X007963Y004837D02*
X008174Y005128D01*
X008174Y005128D01*
X008240Y005330D01*
X008253Y005311D01*
X008311Y005253D01*
X008377Y005205D01*
X008450Y005168D01*
X008528Y005143D01*
X008600Y005131D01*
X008600Y005600D01*
X008700Y005600D01*
X008700Y005700D01*
X009169Y005700D01*
X009157Y005772D01*
X009132Y005850D01*
X009095Y005923D01*
X009047Y005989D01*
X008989Y006047D01*
X008923Y006095D01*
X008850Y006132D01*
X008772Y006157D01*
X008768Y006158D01*
X008933Y006226D01*
X009074Y006367D01*
X009150Y006551D01*
X009150Y006749D01*
X009074Y006933D01*
X008933Y007074D01*
X008749Y007150D01*
X008933Y007226D01*
X009074Y007367D01*
X009150Y007551D01*
X009150Y007749D01*
X009074Y007933D01*
X008933Y008074D01*
X008749Y008150D01*
X008933Y008226D01*
X009074Y008367D01*
X009150Y008551D01*
X009150Y008749D01*
X009074Y008933D01*
X008933Y009074D01*
X008749Y009150D01*
X008933Y009226D01*
X009074Y009367D01*
X009150Y009551D01*
X009150Y009749D01*
X009074Y009933D01*
X008933Y010074D01*
X008749Y010150D01*
X008933Y010226D01*
X009074Y010367D01*
X009150Y010551D01*
X009150Y010749D01*
X009074Y010933D01*
X008933Y011074D01*
X008749Y011150D01*
X008933Y011226D01*
X009074Y011367D01*
X009150Y011551D01*
X009150Y011749D01*
X009074Y011933D01*
X008933Y012074D01*
X008768Y012142D01*
X008772Y012143D01*
X008850Y012168D01*
X008923Y012205D01*
X008989Y012253D01*
X009047Y012311D01*
X009095Y012377D01*
X009132Y012450D01*
X009157Y012528D01*
X009169Y012600D01*
X008700Y012600D01*
X008700Y012700D01*
X009169Y012700D01*
X009157Y012772D01*
X009132Y012850D01*
X009095Y012923D01*
X009047Y012989D01*
X008989Y013047D01*
X008923Y013095D01*
X008850Y013132D01*
X008772Y013157D01*
X008768Y013158D01*
X008933Y013226D01*
X009074Y013367D01*
X009090Y013406D01*
X009220Y013275D01*
X009220Y005010D01*
X009111Y005055D01*
X008989Y005055D01*
X008877Y005009D01*
X008791Y004923D01*
X008745Y004811D01*
X008745Y004700D01*
X008725Y004680D01*
X007746Y004680D01*
X007963Y004837D01*
X007963Y004837D01*
X007963Y004837D01*
X007883Y004780D02*
X008745Y004780D01*
X008726Y004681D02*
X007747Y004681D01*
X008064Y004977D02*
X008845Y004977D01*
X008772Y005143D02*
X008850Y005168D01*
X008923Y005205D01*
X008989Y005253D01*
X009047Y005311D01*
X009095Y005377D01*
X009132Y005450D01*
X009157Y005528D01*
X009169Y005600D01*
X008700Y005600D01*
X008700Y005131D01*
X008772Y005143D01*
X008700Y005174D02*
X008600Y005174D01*
X008600Y005272D02*
X008700Y005272D01*
X008700Y005371D02*
X008600Y005371D01*
X008600Y005469D02*
X008700Y005469D01*
X008700Y005568D02*
X008600Y005568D01*
X008700Y005666D02*
X009220Y005666D01*
X009220Y005568D02*
X009163Y005568D01*
X009138Y005469D02*
X009220Y005469D01*
X009220Y005371D02*
X009090Y005371D01*
X009007Y005272D02*
X009220Y005272D01*
X009220Y005174D02*
X008860Y005174D01*
X009220Y005075D02*
X008135Y005075D01*
X008189Y005174D02*
X008440Y005174D01*
X008293Y005272D02*
X008221Y005272D01*
X008970Y006060D02*
X009220Y006060D01*
X009220Y005962D02*
X009066Y005962D01*
X009125Y005863D02*
X009220Y005863D01*
X009220Y005765D02*
X009158Y005765D01*
X009220Y006159D02*
X008770Y006159D01*
X008964Y006257D02*
X009220Y006257D01*
X009220Y006356D02*
X009063Y006356D01*
X009110Y006454D02*
X009220Y006454D01*
X009220Y006553D02*
X009150Y006553D01*
X009150Y006651D02*
X009220Y006651D01*
X009220Y006750D02*
X009150Y006750D01*
X009109Y006848D02*
X009220Y006848D01*
X009220Y006947D02*
X009061Y006947D01*
X008962Y007045D02*
X009220Y007045D01*
X009220Y007144D02*
X008765Y007144D01*
X008749Y007150D02*
X008551Y007150D01*
X008367Y007226D01*
X008285Y007308D01*
X008285Y006992D01*
X008367Y007074D01*
X008551Y007150D01*
X008749Y007150D01*
X008535Y007144D02*
X008285Y007144D01*
X008285Y007242D02*
X008351Y007242D01*
X008338Y007045D02*
X008285Y007045D01*
X008949Y007242D02*
X009220Y007242D01*
X009220Y007341D02*
X009048Y007341D01*
X009104Y007439D02*
X009220Y007439D01*
X009220Y007538D02*
X009145Y007538D01*
X009150Y007636D02*
X009220Y007636D01*
X009220Y007735D02*
X009150Y007735D01*
X009115Y007833D02*
X009220Y007833D01*
X009220Y007932D02*
X009075Y007932D01*
X008977Y008030D02*
X009220Y008030D01*
X009220Y008129D02*
X008801Y008129D01*
X008749Y008150D02*
X008551Y008150D01*
X008367Y008226D01*
X008285Y008308D01*
X008285Y007992D01*
X008367Y008074D01*
X008551Y008150D01*
X008749Y008150D01*
X008934Y008227D02*
X009220Y008227D01*
X009220Y008326D02*
X009033Y008326D01*
X009098Y008424D02*
X009220Y008424D01*
X009220Y008523D02*
X009138Y008523D01*
X009150Y008621D02*
X009220Y008621D01*
X009220Y008720D02*
X009150Y008720D01*
X009122Y008818D02*
X009220Y008818D01*
X009220Y008917D02*
X009081Y008917D01*
X008992Y009015D02*
X009220Y009015D01*
X009220Y009114D02*
X008838Y009114D01*
X008749Y009150D02*
X008551Y009150D01*
X008749Y009150D01*
X008899Y009212D02*
X009220Y009212D01*
X009220Y009311D02*
X009018Y009311D01*
X009091Y009409D02*
X009220Y009409D01*
X009220Y009508D02*
X009132Y009508D01*
X009150Y009606D02*
X009220Y009606D01*
X009220Y009705D02*
X009150Y009705D01*
X009128Y009803D02*
X009220Y009803D01*
X009220Y009902D02*
X009087Y009902D01*
X009007Y010000D02*
X009220Y010000D01*
X009220Y010099D02*
X008874Y010099D01*
X008863Y010197D02*
X009220Y010197D01*
X009220Y010296D02*
X009003Y010296D01*
X009085Y010394D02*
X009220Y010394D01*
X009220Y010493D02*
X009126Y010493D01*
X009150Y010591D02*
X009220Y010591D01*
X009220Y010690D02*
X009150Y010690D01*
X009134Y010788D02*
X009220Y010788D01*
X009220Y010887D02*
X009093Y010887D01*
X009022Y010985D02*
X009220Y010985D01*
X009220Y011084D02*
X008910Y011084D01*
X008827Y011182D02*
X009220Y011182D01*
X009220Y011281D02*
X008988Y011281D01*
X009079Y011379D02*
X009220Y011379D01*
X009220Y011478D02*
X009120Y011478D01*
X009150Y011576D02*
X009220Y011576D01*
X009220Y011675D02*
X009150Y011675D01*
X009140Y011773D02*
X009220Y011773D01*
X009220Y011872D02*
X009099Y011872D01*
X009037Y011970D02*
X009220Y011970D01*
X009220Y012069D02*
X008939Y012069D01*
X008846Y012167D02*
X009220Y012167D01*
X009220Y012266D02*
X009001Y012266D01*
X009085Y012364D02*
X009220Y012364D01*
X009220Y012463D02*
X009136Y012463D01*
X009162Y012561D02*
X009220Y012561D01*
X009220Y012660D02*
X008700Y012660D01*
X009071Y012955D02*
X009220Y012955D01*
X009220Y012857D02*
X009128Y012857D01*
X009159Y012758D02*
X009220Y012758D01*
X009220Y013054D02*
X008979Y013054D01*
X008958Y013251D02*
X009220Y013251D01*
X009220Y013152D02*
X008788Y013152D01*
X009056Y013349D02*
X009146Y013349D01*
X009400Y013350D02*
X009100Y013650D01*
X008650Y013650D01*
X009400Y013350D02*
X009400Y003900D01*
X010150Y003100D01*
X010150Y002400D01*
X010616Y002219D02*
X010684Y002219D01*
X010650Y002317D02*
X010650Y002317D01*
X010650Y002416D02*
X010650Y002416D01*
X010644Y002514D02*
X010656Y002514D01*
X010683Y002613D02*
X010603Y002613D01*
X010584Y002711D02*
X010546Y002711D01*
X010486Y002810D02*
X010448Y002810D01*
X010387Y002908D02*
X010330Y002908D01*
X010575Y002120D02*
X010725Y002120D01*
X010821Y002022D02*
X010479Y002022D01*
X009995Y001923D02*
X008305Y001923D01*
X008249Y001900D02*
X008051Y001900D01*
X007867Y001824D01*
X007726Y001683D01*
X007650Y001499D01*
X007650Y001301D01*
X007726Y001117D01*
X007867Y000976D01*
X008051Y000900D01*
X008249Y000900D01*
X008433Y000976D01*
X008574Y001117D01*
X008650Y001301D01*
X008650Y001499D01*
X008574Y001683D01*
X008433Y001824D01*
X008249Y001900D01*
X008432Y001825D02*
X008868Y001825D01*
X008769Y001726D02*
X008531Y001726D01*
X008597Y001628D02*
X008703Y001628D01*
X008662Y001529D02*
X008638Y001529D01*
X008650Y001431D02*
X008650Y001431D01*
X008650Y001332D02*
X008650Y001332D01*
X008622Y001234D02*
X008678Y001234D01*
X008719Y001135D02*
X008581Y001135D01*
X008494Y001037D02*
X008806Y001037D01*
X008959Y000938D02*
X008341Y000938D01*
X007959Y000938D02*
X006341Y000938D01*
X006249Y000900D02*
X006433Y000976D01*
X006574Y001117D01*
X006650Y001301D01*
X006650Y001499D01*
X006574Y001683D01*
X006433Y001824D01*
X006249Y001900D01*
X006051Y001900D01*
X005867Y001824D01*
X005726Y001683D01*
X005650Y001499D01*
X005650Y001301D01*
X005726Y001117D01*
X005867Y000976D01*
X006051Y000900D01*
X006249Y000900D01*
X006494Y001037D02*
X007806Y001037D01*
X007719Y001135D02*
X006581Y001135D01*
X006622Y001234D02*
X007678Y001234D01*
X007650Y001332D02*
X006650Y001332D01*
X006650Y001431D02*
X007650Y001431D01*
X007662Y001529D02*
X006638Y001529D01*
X006597Y001628D02*
X007703Y001628D01*
X007769Y001726D02*
X006531Y001726D01*
X006432Y001825D02*
X007868Y001825D01*
X007995Y001923D02*
X007305Y001923D01*
X007479Y002022D02*
X007821Y002022D01*
X007725Y002120D02*
X007575Y002120D01*
X007616Y002219D02*
X007684Y002219D01*
X007650Y002317D02*
X007650Y002317D01*
X007650Y002416D02*
X007650Y002416D01*
X007644Y002514D02*
X007656Y002514D01*
X007697Y002613D02*
X007603Y002613D01*
X007546Y002711D02*
X007754Y002711D01*
X007852Y002810D02*
X007448Y002810D01*
X006852Y002810D02*
X006448Y002810D01*
X006546Y002711D02*
X006754Y002711D01*
X006697Y002613D02*
X006603Y002613D01*
X006644Y002514D02*
X006656Y002514D01*
X006650Y002416D02*
X006650Y002416D01*
X006650Y002317D02*
X006650Y002317D01*
X006616Y002219D02*
X006684Y002219D01*
X006725Y002120D02*
X006575Y002120D01*
X006479Y002022D02*
X006821Y002022D01*
X006995Y001923D02*
X006305Y001923D01*
X005995Y001923D02*
X005305Y001923D01*
X005479Y002022D02*
X005821Y002022D01*
X005725Y002120D02*
X005575Y002120D01*
X005616Y002219D02*
X005684Y002219D01*
X005650Y002317D02*
X005650Y002317D01*
X005650Y002416D02*
X005650Y002416D01*
X005644Y002514D02*
X005656Y002514D01*
X005697Y002613D02*
X005603Y002613D01*
X005546Y002711D02*
X005754Y002711D01*
X005852Y002810D02*
X005448Y002810D01*
X004852Y002810D02*
X004448Y002810D01*
X004546Y002711D02*
X004754Y002711D01*
X004697Y002613D02*
X004603Y002613D01*
X004644Y002514D02*
X004656Y002514D01*
X004650Y002416D02*
X004650Y002416D01*
X004650Y002317D02*
X004650Y002317D01*
X004616Y002219D02*
X004684Y002219D01*
X004725Y002120D02*
X004575Y002120D01*
X004479Y002022D02*
X004821Y002022D01*
X004995Y001923D02*
X004305Y001923D01*
X004432Y001825D02*
X005868Y001825D01*
X005769Y001726D02*
X004531Y001726D01*
X004597Y001628D02*
X005703Y001628D01*
X005662Y001529D02*
X004638Y001529D01*
X004650Y001431D02*
X005650Y001431D01*
X005650Y001332D02*
X004650Y001332D01*
X004622Y001234D02*
X005678Y001234D01*
X005719Y001135D02*
X004581Y001135D01*
X004494Y001037D02*
X005806Y001037D01*
X005959Y000938D02*
X004341Y000938D01*
X003959Y000938D02*
X003341Y000938D01*
X003494Y001037D02*
X003806Y001037D01*
X003719Y001135D02*
X003581Y001135D01*
X003622Y001234D02*
X003678Y001234D01*
X003650Y001332D02*
X003650Y001332D01*
X003650Y001431D02*
X003650Y001431D01*
X003638Y001529D02*
X003662Y001529D01*
X003703Y001628D02*
X003597Y001628D01*
X003531Y001726D02*
X003769Y001726D01*
X003868Y001825D02*
X003432Y001825D01*
X003305Y001923D02*
X003995Y001923D01*
X003821Y002022D02*
X003479Y002022D01*
X003575Y002120D02*
X003725Y002120D01*
X003684Y002219D02*
X003616Y002219D01*
X003650Y002317D02*
X003650Y002317D01*
X003650Y002416D02*
X003650Y002416D01*
X003644Y002514D02*
X003656Y002514D01*
X003697Y002613D02*
X003603Y002613D01*
X003546Y002711D02*
X003754Y002711D01*
X003852Y002810D02*
X003448Y002810D01*
X003150Y002400D02*
X003150Y003950D01*
X003700Y004500D01*
X003429Y004484D02*
X000952Y004484D01*
X000709Y004386D02*
X003331Y004386D01*
X003232Y004287D02*
X000573Y004287D01*
X000485Y004189D02*
X003134Y004189D01*
X003035Y004090D02*
X000414Y004090D01*
X000363Y003992D02*
X002970Y003992D01*
X002970Y003893D02*
X000331Y003893D01*
X000299Y003795D02*
X002970Y003795D01*
X001868Y001825D02*
X000285Y001825D01*
X000285Y001726D02*
X001769Y001726D01*
X001703Y001628D02*
X000285Y001628D01*
X000285Y001529D02*
X001662Y001529D01*
X001650Y001431D02*
X000285Y001431D01*
X000285Y001332D02*
X001650Y001332D01*
X001678Y001234D02*
X000285Y001234D01*
X000285Y001135D02*
X001719Y001135D01*
X001806Y001037D02*
X000285Y001037D01*
X000285Y000741D02*
X023015Y000741D01*
X023015Y000643D02*
X000285Y000643D01*
X000285Y000544D02*
X023015Y000544D01*
X023015Y000446D02*
X000285Y000446D01*
X000285Y000347D02*
X023015Y000347D01*
X021150Y002400D02*
X021150Y002950D01*
X020740Y003105D02*
X020250Y003105D01*
X020151Y003204D02*
X020642Y003204D01*
X020543Y003302D02*
X020053Y003302D01*
X019839Y003007D02*
X019248Y003007D01*
X019330Y002908D02*
X019937Y002908D01*
X019852Y002810D02*
X019448Y002810D01*
X019740Y003105D02*
X019150Y003105D01*
X018837Y002908D02*
X018297Y002908D01*
X018448Y002810D02*
X018852Y002810D01*
X018754Y002711D02*
X018546Y002711D01*
X018603Y002613D02*
X018697Y002613D01*
X018656Y002514D02*
X018644Y002514D01*
X018650Y002416D02*
X018650Y002416D01*
X018650Y002317D02*
X018650Y002317D01*
X018616Y002219D02*
X018684Y002219D01*
X018725Y002120D02*
X018575Y002120D01*
X018479Y002022D02*
X018821Y002022D01*
X020305Y001923D02*
X020703Y001923D01*
X020650Y002022D02*
X020479Y002022D01*
X020575Y002120D02*
X020650Y002120D01*
X020432Y001825D02*
X020868Y001825D01*
X020769Y001726D02*
X020531Y001726D01*
X020597Y001628D02*
X020703Y001628D01*
X020662Y001529D02*
X020638Y001529D01*
X020650Y001431D02*
X020650Y001431D01*
X020650Y001332D02*
X020650Y001332D01*
X020622Y001234D02*
X020678Y001234D01*
X020719Y001135D02*
X020581Y001135D01*
X020494Y001037D02*
X020806Y001037D01*
X020959Y000938D02*
X020341Y000938D01*
X011150Y002400D02*
X009600Y003950D01*
X009600Y014050D01*
X008650Y014650D01*
X008285Y011308D02*
X008367Y011226D01*
X008551Y011150D01*
X008749Y011150D01*
X008551Y011150D01*
X008367Y011074D01*
X008285Y010992D01*
X008285Y011308D01*
X008285Y011281D02*
X008312Y011281D01*
X008285Y011182D02*
X008473Y011182D01*
X008390Y011084D02*
X008285Y011084D01*
X008285Y010308D02*
X008367Y010226D01*
X008551Y010150D01*
X008749Y010150D01*
X008551Y010150D01*
X008367Y010074D01*
X008285Y009992D01*
X008285Y010308D01*
X008285Y010296D02*
X008297Y010296D01*
X008285Y010197D02*
X008437Y010197D01*
X008426Y010099D02*
X008285Y010099D01*
X008285Y010000D02*
X008293Y010000D01*
X008285Y009308D02*
X008367Y009226D01*
X008551Y009150D01*
X008367Y009074D01*
X008285Y008992D01*
X008285Y009308D01*
X008285Y009212D02*
X008401Y009212D01*
X008462Y009114D02*
X008285Y009114D01*
X008285Y009015D02*
X008308Y009015D01*
X008285Y008227D02*
X008366Y008227D01*
X008285Y008129D02*
X008499Y008129D01*
X008323Y008030D02*
X008285Y008030D01*
X009205Y004484D02*
X009220Y004484D01*
X009220Y004386D02*
X008940Y004386D01*
X008479Y002022D02*
X009821Y002022D01*
X013566Y020835D02*
X014006Y020835D01*
X014213Y021131D02*
X014504Y021131D01*
X014551Y021150D02*
X014749Y021150D01*
X014933Y021074D01*
X015015Y020992D01*
X015015Y021308D01*
X014933Y021226D01*
X014749Y021150D01*
X014551Y021150D01*
X014364Y021229D02*
X014076Y021229D01*
X014796Y021131D02*
X015015Y021131D01*
X015015Y021229D02*
X014936Y021229D01*
X014975Y021032D02*
X015015Y021032D01*
X014467Y022116D02*
X014209Y022116D01*
X014365Y022214D02*
X013767Y022214D01*
X014905Y024086D02*
X015015Y024086D01*
X015015Y024184D02*
X014832Y024184D01*
X014990Y024283D02*
X015015Y024283D01*
X009004Y024086D02*
X008905Y024086D01*
X008395Y024086D02*
X008285Y024086D01*
D13*
X011350Y022200D03*
X013100Y020050D03*
X013350Y021050D03*
X013550Y022000D03*
X012950Y018050D03*
X012750Y017050D03*
X011750Y015650D03*
X012550Y015100D03*
X012350Y014150D03*
X012150Y013150D03*
X011850Y012100D03*
X011700Y005600D03*
X011550Y004850D03*
X009050Y004750D03*
X014250Y004650D03*
X021700Y003950D03*
X001000Y004100D03*
D14*
X013500Y004800D02*
X013500Y005000D01*
X013500Y004800D02*
X013950Y004350D01*
X014650Y004350D01*
M02*
