%
M48
M72
T01C0.0150
T02C0.0400
%
T01
X1000Y4100
X9050Y4750
X11550Y4850
X11700Y5600
X14250Y4650
X11850Y12100
X12150Y13150
X12350Y14150
X12550Y15100
X11750Y15650
X12750Y17050
X12950Y18050
X13100Y20050
X13350Y21050
X13550Y22000
X11350Y22200
X21700Y3950
T02
X2150Y1400
X2150Y2400
X3150Y2400
X3150Y1400
X4150Y1400
X4150Y2400
X5150Y2400
X5150Y1400
X6150Y1400
X6150Y2400
X7150Y2400
X7150Y1400
X8150Y1400
X8150Y2400
X9150Y2400
X9150Y1400
X10150Y1400
X10150Y2400
X11150Y2400
X11150Y1400
X12150Y1400
X12150Y2400
X13150Y2400
X13150Y1400
X14150Y1400
X14150Y2400
X15150Y2400
X15150Y1400
X16150Y1400
X16150Y2400
X17150Y2400
X17150Y1400
X18150Y1400
X18150Y2400
X19150Y2400
X19150Y1400
X20150Y1400
X20150Y2400
X21150Y2400
X21150Y1400
X14650Y5650
X14650Y6650
X14650Y7650
X14650Y8650
X14650Y9650
X14650Y10650
X14650Y11650
X14650Y12650
X14650Y13650
X14650Y14650
X14650Y15650
X14650Y16650
X14650Y17650
X14650Y18650
X14650Y19650
X14650Y20650
X14650Y21650
X14650Y22650
X14650Y23650
X14650Y24650
X8650Y24650
X8650Y23650
X8650Y22650
X8650Y21650
X8650Y20650
X8650Y19650
X8650Y18650
X8650Y17650
X8650Y16650
X8650Y15650
X8650Y14650
X8650Y13650
X8650Y12650
X8650Y11650
X8650Y10650
X8650Y9650
X8650Y8650
X8650Y7650
X8650Y6650
X8650Y5650
M30
