%
M48
M72
T01C0.0150
T02C0.0400
%
T01
X1000Y4100
X9050Y4750
X11550Y4850
X11700Y5600
X14250Y5450
X11850Y12600
X12150Y13650
X12350Y14650
X12550Y15600
X11750Y16150
X12750Y17550
X12950Y18550
X13100Y20550
X13350Y21550
X13550Y22500
X11350Y22700
X21700Y3950
T02
X2150Y1400
X2150Y2400
X3150Y2400
X3150Y1400
X4150Y1400
X4150Y2400
X5150Y2400
X5150Y1400
X6150Y1400
X6150Y2400
X7150Y2400
X7150Y1400
X8150Y1400
X8150Y2400
X9150Y2400
X9150Y1400
X10150Y1400
X10150Y2400
X11150Y2400
X11150Y1400
X12150Y1400
X12150Y2400
X13150Y2400
X13150Y1400
X14150Y1400
X14150Y2400
X15150Y2400
X15150Y1400
X16150Y1400
X16150Y2400
X17150Y2400
X17150Y1400
X18150Y1400
X18150Y2400
X19150Y2400
X19150Y1400
X20150Y1400
X20150Y2400
X21150Y2400
X21150Y1400
X14400Y6150
X14400Y7150
X14400Y8150
X14400Y9150
X14400Y10150
X14400Y11150
X14400Y12150
X14400Y13150
X14400Y14150
X14400Y15150
X14400Y16150
X14400Y17150
X14400Y18150
X14400Y19150
X14400Y20150
X14400Y21150
X14400Y22150
X14400Y23150
X14400Y24150
X14400Y25150
X8900Y25150
X8900Y24150
X8900Y23150
X8900Y22150
X8900Y21150
X8900Y20150
X8900Y19150
X8900Y18150
X8900Y17150
X8900Y16150
X8900Y15150
X8900Y14150
X8900Y13150
X8900Y12150
X8900Y11150
X8900Y10150
X8900Y9150
X8900Y8150
X8900Y7150
X8900Y6150
M30
