G75*
%MOIN*%
%OFA0B0*%
%FSLAX24Y24*%
%IPPOS*%
%LPD*%
%AMOC8*
5,1,8,0,0,1.08239X$1,22.5*
%
%ADD10C,0.0010*%
%ADD11R,0.0740X0.0740*%
%ADD12C,0.0740*%
%ADD13C,0.0100*%
%ADD14C,0.0350*%
D10*
X000150Y000150D02*
X023150Y000150D01*
X023150Y003650D01*
X023148Y003710D01*
X023143Y003771D01*
X023134Y003830D01*
X023121Y003889D01*
X023105Y003948D01*
X023085Y004005D01*
X023062Y004060D01*
X023035Y004115D01*
X023006Y004167D01*
X022973Y004218D01*
X022937Y004267D01*
X022899Y004313D01*
X022857Y004357D01*
X022813Y004399D01*
X022767Y004437D01*
X022718Y004473D01*
X022667Y004506D01*
X022615Y004535D01*
X022560Y004562D01*
X022505Y004585D01*
X022448Y004605D01*
X022389Y004621D01*
X022330Y004634D01*
X022271Y004643D01*
X022210Y004648D01*
X022150Y004650D01*
X015900Y004650D01*
X015840Y004652D01*
X015779Y004657D01*
X015720Y004666D01*
X015661Y004679D01*
X015602Y004695D01*
X015545Y004715D01*
X015490Y004738D01*
X015435Y004765D01*
X015383Y004794D01*
X015332Y004827D01*
X015283Y004863D01*
X015237Y004901D01*
X015193Y004943D01*
X015151Y004987D01*
X015113Y005033D01*
X015077Y005082D01*
X015044Y005133D01*
X015015Y005185D01*
X014988Y005240D01*
X014965Y005295D01*
X014945Y005352D01*
X014929Y005411D01*
X014916Y005470D01*
X014907Y005529D01*
X014902Y005590D01*
X014900Y005650D01*
X014900Y025650D01*
X008400Y025650D01*
X008400Y005650D01*
X008398Y005590D01*
X008393Y005529D01*
X008384Y005470D01*
X008371Y005411D01*
X008355Y005352D01*
X008335Y005295D01*
X008312Y005240D01*
X008285Y005185D01*
X008256Y005133D01*
X008223Y005082D01*
X008187Y005033D01*
X008149Y004987D01*
X008107Y004943D01*
X008063Y004901D01*
X008017Y004863D01*
X007968Y004827D01*
X007917Y004794D01*
X007865Y004765D01*
X007810Y004738D01*
X007755Y004715D01*
X007698Y004695D01*
X007639Y004679D01*
X007580Y004666D01*
X007521Y004657D01*
X007460Y004652D01*
X007400Y004650D01*
X001150Y004650D01*
X001090Y004648D01*
X001029Y004643D01*
X000970Y004634D01*
X000911Y004621D01*
X000852Y004605D01*
X000795Y004585D01*
X000740Y004562D01*
X000685Y004535D01*
X000633Y004506D01*
X000582Y004473D01*
X000533Y004437D01*
X000487Y004399D01*
X000443Y004357D01*
X000401Y004313D01*
X000363Y004267D01*
X000327Y004218D01*
X000294Y004167D01*
X000265Y004115D01*
X000238Y004060D01*
X000215Y004005D01*
X000195Y003948D01*
X000179Y003889D01*
X000166Y003830D01*
X000157Y003771D01*
X000152Y003710D01*
X000150Y003650D01*
X000150Y000150D01*
D11*
X021150Y002400D03*
X008900Y025150D03*
D12*
X008900Y024150D03*
X008900Y023150D03*
X008900Y022150D03*
X008900Y021150D03*
X008900Y020150D03*
X008900Y019150D03*
X008900Y018150D03*
X008900Y017150D03*
X008900Y016150D03*
X008900Y015150D03*
X008900Y014150D03*
X008900Y013150D03*
X008900Y012150D03*
X008900Y011150D03*
X008900Y010150D03*
X008900Y009150D03*
X008900Y008150D03*
X008900Y007150D03*
X008900Y006150D03*
X009150Y002400D03*
X009150Y001400D03*
X010150Y001400D03*
X010150Y002400D03*
X011150Y002400D03*
X011150Y001400D03*
X012150Y001400D03*
X012150Y002400D03*
X013150Y002400D03*
X013150Y001400D03*
X014150Y001400D03*
X014150Y002400D03*
X015150Y002400D03*
X015150Y001400D03*
X016150Y001400D03*
X016150Y002400D03*
X017150Y002400D03*
X017150Y001400D03*
X018150Y001400D03*
X018150Y002400D03*
X019150Y002400D03*
X019150Y001400D03*
X020150Y001400D03*
X020150Y002400D03*
X021150Y001400D03*
X014400Y006150D03*
X014400Y007150D03*
X014400Y008150D03*
X014400Y009150D03*
X014400Y010150D03*
X014400Y011150D03*
X014400Y012150D03*
X014400Y013150D03*
X014400Y014150D03*
X014400Y015150D03*
X014400Y016150D03*
X014400Y017150D03*
X014400Y018150D03*
X014400Y019150D03*
X014400Y020150D03*
X014400Y021150D03*
X014400Y022150D03*
X014400Y023150D03*
X014400Y024150D03*
X014400Y025150D03*
X008150Y002400D03*
X008150Y001400D03*
X007150Y001400D03*
X007150Y002400D03*
X006150Y002400D03*
X006150Y001400D03*
X005150Y001400D03*
X005150Y002400D03*
X004150Y002400D03*
X004150Y001400D03*
X003150Y001400D03*
X003150Y002400D03*
X002150Y002400D03*
X002150Y001400D03*
D13*
X002150Y000600D01*
X002350Y000400D01*
X022200Y000400D01*
X022550Y000750D01*
X022550Y004200D01*
X022250Y004500D01*
X015050Y004500D01*
X014700Y004850D01*
X014700Y005850D01*
X014400Y006150D01*
X014250Y005450D02*
X014250Y004500D01*
X014450Y004300D01*
X021800Y004300D01*
X022150Y003950D01*
X022150Y000950D01*
X021800Y000600D01*
X003150Y000600D01*
X003150Y001400D01*
X003494Y001037D02*
X003806Y001037D01*
X003867Y000976D02*
X003970Y000933D01*
X003970Y000825D01*
X004015Y000780D01*
X003330Y000780D01*
X003330Y000933D01*
X003433Y000976D01*
X003574Y001117D01*
X003650Y001301D01*
X003650Y001499D01*
X003574Y001683D01*
X003433Y001824D01*
X003249Y001900D01*
X003433Y001976D01*
X003574Y002117D01*
X003650Y002301D01*
X003650Y002499D01*
X003574Y002683D01*
X003433Y002824D01*
X003249Y002900D01*
X003051Y002900D01*
X002867Y002824D01*
X002726Y002683D01*
X002650Y002499D01*
X002650Y002301D01*
X002726Y002117D01*
X002867Y001976D01*
X003051Y001900D01*
X003249Y001900D01*
X003051Y001900D01*
X002867Y001824D01*
X002726Y001683D01*
X002650Y001499D01*
X002574Y001683D01*
X002433Y001824D01*
X002249Y001900D01*
X002051Y001900D01*
X001867Y001824D01*
X001726Y001683D01*
X001650Y001499D01*
X001650Y001301D01*
X001726Y001117D01*
X001867Y000976D01*
X001970Y000933D01*
X001970Y000525D01*
X002170Y000325D01*
X002210Y000285D01*
X000285Y000285D01*
X000285Y003650D01*
X000296Y003785D01*
X000379Y004043D01*
X000538Y004262D01*
X000757Y004421D01*
X001015Y004504D01*
X001150Y004515D01*
X007580Y004515D01*
X007922Y004626D01*
X008213Y004837D01*
X008424Y005128D01*
X008424Y005128D01*
X008535Y005470D01*
X008535Y005780D01*
X008561Y005753D01*
X008627Y005705D01*
X008700Y005668D01*
X008778Y005643D01*
X008850Y005631D01*
X008850Y006100D01*
X008950Y006100D01*
X008950Y005631D01*
X009022Y005643D01*
X009100Y005668D01*
X009173Y005705D01*
X009220Y005740D01*
X009220Y005175D01*
X009100Y005055D01*
X008989Y005055D01*
X008877Y005009D01*
X008791Y004923D01*
X008745Y004811D01*
X008745Y004689D01*
X008791Y004577D01*
X008877Y004491D01*
X008905Y004480D01*
X004375Y004480D01*
X004270Y004375D01*
X003970Y004075D01*
X003970Y002867D01*
X003867Y002824D01*
X003726Y002683D01*
X003650Y002499D01*
X003650Y002301D01*
X003726Y002117D01*
X003867Y001976D01*
X004051Y001900D01*
X004249Y001900D01*
X004433Y001976D01*
X004574Y002117D01*
X004650Y002301D01*
X004726Y002117D01*
X004867Y001976D01*
X005051Y001900D01*
X005249Y001900D01*
X005433Y001976D01*
X005574Y002117D01*
X005650Y002301D01*
X005726Y002117D01*
X005867Y001976D01*
X006051Y001900D01*
X006249Y001900D01*
X006433Y001976D01*
X006574Y002117D01*
X006650Y002301D01*
X006726Y002117D01*
X006763Y002080D01*
X006575Y002080D01*
X006470Y001975D01*
X006353Y001857D01*
X006249Y001900D01*
X006051Y001900D01*
X005867Y001824D01*
X005726Y001683D01*
X005650Y001499D01*
X005650Y001301D01*
X005726Y001117D01*
X005863Y000980D01*
X004437Y000980D01*
X004574Y001117D01*
X004650Y001301D01*
X004650Y001499D01*
X004574Y001683D01*
X004433Y001824D01*
X004249Y001900D01*
X004051Y001900D01*
X003867Y001824D01*
X003726Y001683D01*
X003650Y001499D01*
X003650Y001301D01*
X003726Y001117D01*
X003867Y000976D01*
X003959Y000938D02*
X003341Y000938D01*
X003330Y000840D02*
X003970Y000840D01*
X004150Y000900D02*
X004250Y000800D01*
X021450Y000800D01*
X021700Y001050D01*
X021700Y003950D01*
X019650Y003950D02*
X019650Y001900D01*
X020150Y001400D01*
X021150Y001400D01*
X019863Y000980D02*
X018437Y000980D01*
X018574Y001117D01*
X018650Y001301D01*
X018650Y001499D01*
X018607Y001603D01*
X018830Y001825D01*
X018830Y002013D01*
X018867Y001976D01*
X019051Y001900D01*
X019249Y001900D01*
X019433Y001976D01*
X019470Y002013D01*
X019470Y001825D01*
X019575Y001720D01*
X019693Y001603D01*
X019650Y001499D01*
X019650Y001301D01*
X019726Y001117D01*
X019863Y000980D01*
X019806Y001037D02*
X018494Y001037D01*
X018581Y001135D02*
X019719Y001135D01*
X019678Y001234D02*
X018622Y001234D01*
X018650Y001332D02*
X019650Y001332D01*
X019650Y001431D02*
X018650Y001431D01*
X018638Y001529D02*
X019662Y001529D01*
X019668Y001628D02*
X018632Y001628D01*
X018731Y001726D02*
X019569Y001726D01*
X019471Y001825D02*
X018829Y001825D01*
X018830Y001923D02*
X018995Y001923D01*
X019305Y001923D02*
X019470Y001923D01*
X018650Y001900D02*
X018650Y003800D01*
X018550Y003900D01*
X013800Y003900D01*
X013700Y004000D01*
X013700Y022350D01*
X013550Y022500D01*
X013443Y022214D02*
X011530Y022214D01*
X011530Y022116D02*
X013520Y022116D01*
X013520Y022195D02*
X013489Y022195D01*
X013377Y022241D01*
X013291Y022327D01*
X013245Y022439D01*
X013245Y022561D01*
X013291Y022673D01*
X013377Y022759D01*
X013489Y022805D01*
X013611Y022805D01*
X013720Y022760D01*
X013720Y024975D01*
X013825Y025080D01*
X013900Y025155D01*
X013900Y025249D01*
X013976Y025433D01*
X014058Y025515D01*
X009400Y025515D01*
X009400Y024726D01*
X009324Y024650D01*
X008535Y024650D01*
X008535Y024492D01*
X008617Y024574D01*
X008801Y024650D01*
X008999Y024650D01*
X009183Y024574D01*
X009324Y024433D01*
X009400Y024249D01*
X009400Y024051D01*
X009324Y023867D01*
X009183Y023726D01*
X008999Y023650D01*
X008801Y023650D01*
X008617Y023726D01*
X008535Y023808D01*
X008535Y023492D01*
X008617Y023574D01*
X008801Y023650D01*
X008999Y023650D01*
X009183Y023574D01*
X009324Y023433D01*
X009400Y023249D01*
X009400Y023051D01*
X009324Y022867D01*
X009183Y022726D01*
X008999Y022650D01*
X008801Y022650D01*
X008617Y022726D01*
X008535Y022808D01*
X008535Y022492D01*
X008617Y022574D01*
X008801Y022650D01*
X008999Y022650D01*
X009183Y022574D01*
X009324Y022433D01*
X009400Y022249D01*
X009400Y022051D01*
X009324Y021867D01*
X009183Y021726D01*
X009018Y021658D01*
X009022Y021657D01*
X009100Y021632D01*
X009173Y021595D01*
X009239Y021547D01*
X009297Y021489D01*
X009345Y021423D01*
X009382Y021350D01*
X009407Y021272D01*
X009419Y021200D01*
X008950Y021200D01*
X008950Y021100D01*
X009419Y021100D01*
X009407Y021028D01*
X009382Y020950D01*
X009345Y020877D01*
X009297Y020811D01*
X009239Y020753D01*
X009173Y020705D01*
X009100Y020668D01*
X009022Y020643D01*
X009018Y020642D01*
X009183Y020574D01*
X009324Y020433D01*
X009400Y020249D01*
X009400Y020051D01*
X009324Y019867D01*
X009183Y019726D01*
X008999Y019650D01*
X008801Y019650D01*
X008617Y019726D01*
X008535Y019808D01*
X008535Y019492D01*
X008617Y019574D01*
X008801Y019650D01*
X008999Y019650D01*
X009183Y019574D01*
X009324Y019433D01*
X009400Y019249D01*
X009400Y019051D01*
X009324Y018867D01*
X009183Y018726D01*
X008999Y018650D01*
X008801Y018650D01*
X008617Y018726D01*
X008535Y018808D01*
X008535Y018492D01*
X008617Y018574D01*
X008801Y018650D01*
X008999Y018650D01*
X009183Y018574D01*
X009324Y018433D01*
X009400Y018249D01*
X009400Y018051D01*
X009324Y017867D01*
X009183Y017726D01*
X008999Y017650D01*
X008801Y017650D01*
X008617Y017726D01*
X008535Y017808D01*
X008535Y017492D01*
X008617Y017574D01*
X008801Y017650D01*
X008999Y017650D01*
X009183Y017574D01*
X009324Y017433D01*
X009400Y017249D01*
X009400Y017051D01*
X009324Y016867D01*
X009183Y016726D01*
X008999Y016650D01*
X008801Y016650D01*
X008617Y016726D01*
X008535Y016808D01*
X008535Y016492D01*
X008617Y016574D01*
X008801Y016650D01*
X008999Y016650D01*
X009183Y016574D01*
X009324Y016433D01*
X009400Y016249D01*
X009400Y016051D01*
X009324Y015867D01*
X009183Y015726D01*
X008999Y015650D01*
X008801Y015650D01*
X008617Y015726D01*
X008535Y015808D01*
X008535Y015492D01*
X008617Y015574D01*
X008801Y015650D01*
X008999Y015650D01*
X009183Y015574D01*
X009324Y015433D01*
X009400Y015249D01*
X009400Y015051D01*
X009324Y014867D01*
X009183Y014726D01*
X008999Y014650D01*
X008801Y014650D01*
X008617Y014726D01*
X008535Y014808D01*
X008535Y014492D01*
X008617Y014574D01*
X008801Y014650D01*
X008999Y014650D01*
X009183Y014574D01*
X009324Y014433D01*
X009400Y014249D01*
X009400Y014051D01*
X009324Y013867D01*
X009183Y013726D01*
X009018Y013658D01*
X009022Y013657D01*
X009100Y013632D01*
X009173Y013595D01*
X009239Y013547D01*
X009297Y013489D01*
X009345Y013423D01*
X009382Y013350D01*
X009407Y013272D01*
X009419Y013200D01*
X008950Y013200D01*
X008950Y013100D01*
X009419Y013100D01*
X009407Y013028D01*
X009382Y012950D01*
X009345Y012877D01*
X009297Y012811D01*
X009239Y012753D01*
X009173Y012705D01*
X009100Y012668D01*
X009022Y012643D01*
X009018Y012642D01*
X009183Y012574D01*
X009324Y012433D01*
X009367Y012330D01*
X009475Y012330D01*
X009580Y012225D01*
X010580Y011225D01*
X010580Y004025D01*
X010475Y003920D01*
X010035Y003480D01*
X011225Y003480D01*
X011720Y003975D01*
X011720Y004590D01*
X011611Y004545D01*
X011489Y004545D01*
X011377Y004591D01*
X011291Y004677D01*
X011245Y004789D01*
X011245Y004900D01*
X011170Y004975D01*
X011170Y022449D01*
X011091Y022527D01*
X011045Y022639D01*
X011045Y022761D01*
X011091Y022873D01*
X011177Y022959D01*
X011289Y023005D01*
X011411Y023005D01*
X011523Y022959D01*
X011609Y022873D01*
X011655Y022761D01*
X011655Y022639D01*
X011609Y022527D01*
X011530Y022449D01*
X011530Y005860D01*
X011639Y005905D01*
X011761Y005905D01*
X011873Y005859D01*
X011920Y005811D01*
X011920Y012275D01*
X011900Y012295D01*
X011789Y012295D01*
X011677Y012341D01*
X011591Y012427D01*
X011545Y012539D01*
X011545Y012661D01*
X011591Y012773D01*
X011677Y012859D01*
X011789Y012905D01*
X011911Y012905D01*
X012023Y012859D01*
X012109Y012773D01*
X012120Y012745D01*
X012120Y013345D01*
X012089Y013345D01*
X011977Y013391D01*
X011891Y013477D01*
X011845Y013589D01*
X011845Y013711D01*
X011891Y013823D01*
X011977Y013909D01*
X012089Y013955D01*
X012211Y013955D01*
X012320Y013910D01*
X012320Y014345D01*
X012289Y014345D01*
X012177Y014391D01*
X012091Y014477D01*
X012045Y014589D01*
X012045Y014711D01*
X012091Y014823D01*
X012177Y014909D01*
X012289Y014955D01*
X012411Y014955D01*
X012520Y014910D01*
X012520Y015295D01*
X012489Y015295D01*
X012377Y015341D01*
X012291Y015427D01*
X012245Y015539D01*
X012245Y015661D01*
X012291Y015773D01*
X012377Y015859D01*
X012489Y015905D01*
X012611Y015905D01*
X012720Y015860D01*
X012720Y017245D01*
X012689Y017245D01*
X012577Y017291D01*
X012491Y017377D01*
X012445Y017489D01*
X012445Y017611D01*
X012491Y017723D01*
X012577Y017809D01*
X012689Y017855D01*
X012811Y017855D01*
X012920Y017810D01*
X012920Y018245D01*
X012889Y018245D01*
X012777Y018291D01*
X012691Y018377D01*
X012645Y018489D01*
X012645Y018611D01*
X012691Y018723D01*
X012777Y018809D01*
X012889Y018855D01*
X013011Y018855D01*
X013120Y018810D01*
X013120Y020245D01*
X013039Y020245D01*
X012927Y020291D01*
X012841Y020377D01*
X012795Y020489D01*
X012795Y020611D01*
X012841Y020723D01*
X012927Y020809D01*
X013039Y020855D01*
X013161Y020855D01*
X013273Y020809D01*
X013320Y020761D01*
X013320Y021245D01*
X013289Y021245D01*
X013177Y021291D01*
X013091Y021377D01*
X013045Y021489D01*
X013045Y021611D01*
X013091Y021723D01*
X013177Y021809D01*
X013289Y021855D01*
X013411Y021855D01*
X013520Y021810D01*
X013520Y022195D01*
X013520Y022017D02*
X011530Y022017D01*
X011530Y021919D02*
X013520Y021919D01*
X013520Y021820D02*
X013495Y021820D01*
X013205Y021820D02*
X011530Y021820D01*
X011530Y021722D02*
X013091Y021722D01*
X013050Y021623D02*
X011530Y021623D01*
X011530Y021525D02*
X013045Y021525D01*
X013071Y021426D02*
X011530Y021426D01*
X011530Y021328D02*
X013141Y021328D01*
X013320Y021229D02*
X011530Y021229D01*
X011530Y021131D02*
X013320Y021131D01*
X013320Y021032D02*
X011530Y021032D01*
X011530Y020934D02*
X013320Y020934D01*
X013320Y020835D02*
X013209Y020835D01*
X012991Y020835D02*
X011530Y020835D01*
X011530Y020737D02*
X012855Y020737D01*
X012806Y020638D02*
X011530Y020638D01*
X011530Y020540D02*
X012795Y020540D01*
X012815Y020441D02*
X011530Y020441D01*
X011530Y020343D02*
X012876Y020343D01*
X013120Y020244D02*
X011530Y020244D01*
X011530Y020146D02*
X013120Y020146D01*
X013120Y020047D02*
X011530Y020047D01*
X011530Y019949D02*
X013120Y019949D01*
X013120Y019850D02*
X011530Y019850D01*
X011530Y019752D02*
X013120Y019752D01*
X013120Y019653D02*
X011530Y019653D01*
X011530Y019555D02*
X013120Y019555D01*
X013120Y019456D02*
X011530Y019456D01*
X011530Y019358D02*
X013120Y019358D01*
X013120Y019259D02*
X011530Y019259D01*
X011530Y019161D02*
X013120Y019161D01*
X013120Y019062D02*
X011530Y019062D01*
X011530Y018964D02*
X013120Y018964D01*
X013120Y018865D02*
X011530Y018865D01*
X011530Y018767D02*
X012735Y018767D01*
X012669Y018668D02*
X011530Y018668D01*
X011530Y018570D02*
X012645Y018570D01*
X012653Y018471D02*
X011530Y018471D01*
X011530Y018373D02*
X012696Y018373D01*
X012819Y018274D02*
X011530Y018274D01*
X011530Y018176D02*
X012920Y018176D01*
X012920Y018077D02*
X011530Y018077D01*
X011530Y017979D02*
X012920Y017979D01*
X012920Y017880D02*
X011530Y017880D01*
X011530Y017782D02*
X012550Y017782D01*
X012475Y017683D02*
X011530Y017683D01*
X011530Y017585D02*
X012445Y017585D01*
X012446Y017486D02*
X011530Y017486D01*
X011530Y017388D02*
X012487Y017388D01*
X012583Y017289D02*
X011530Y017289D01*
X011530Y017191D02*
X012720Y017191D01*
X012720Y017092D02*
X011530Y017092D01*
X011530Y016994D02*
X012720Y016994D01*
X012720Y016895D02*
X011530Y016895D01*
X011530Y016797D02*
X012720Y016797D01*
X012720Y016698D02*
X011530Y016698D01*
X011530Y016600D02*
X012720Y016600D01*
X012720Y016501D02*
X011530Y016501D01*
X011530Y016403D02*
X012720Y016403D01*
X012720Y016304D02*
X011530Y016304D01*
X011530Y016206D02*
X012720Y016206D01*
X012720Y016107D02*
X011530Y016107D01*
X011530Y016009D02*
X012720Y016009D01*
X012720Y015910D02*
X011530Y015910D01*
X011530Y015812D02*
X012330Y015812D01*
X012267Y015713D02*
X011530Y015713D01*
X011530Y015615D02*
X012245Y015615D01*
X012255Y015516D02*
X011530Y015516D01*
X011530Y015418D02*
X012301Y015418D01*
X012431Y015319D02*
X011530Y015319D01*
X011530Y015221D02*
X012520Y015221D01*
X012520Y015122D02*
X011530Y015122D01*
X011530Y015024D02*
X012520Y015024D01*
X012520Y014925D02*
X012483Y014925D01*
X012217Y014925D02*
X011530Y014925D01*
X011530Y014827D02*
X012095Y014827D01*
X012052Y014728D02*
X011530Y014728D01*
X011530Y014630D02*
X012045Y014630D01*
X012069Y014531D02*
X011530Y014531D01*
X011530Y014433D02*
X012136Y014433D01*
X012320Y014334D02*
X011530Y014334D01*
X011530Y014236D02*
X012320Y014236D01*
X012320Y014137D02*
X011530Y014137D01*
X011530Y014039D02*
X012320Y014039D01*
X012320Y013940D02*
X012247Y013940D01*
X012053Y013940D02*
X011530Y013940D01*
X011530Y013842D02*
X011910Y013842D01*
X011858Y013743D02*
X011530Y013743D01*
X011530Y013645D02*
X011845Y013645D01*
X011863Y013546D02*
X011530Y013546D01*
X011530Y013448D02*
X011921Y013448D01*
X012080Y013349D02*
X011530Y013349D01*
X011530Y013251D02*
X012120Y013251D01*
X012120Y013152D02*
X011530Y013152D01*
X011530Y013054D02*
X012120Y013054D01*
X012120Y012955D02*
X011530Y012955D01*
X011530Y012857D02*
X011675Y012857D01*
X011585Y012758D02*
X011530Y012758D01*
X011530Y012660D02*
X011545Y012660D01*
X011545Y012561D02*
X011530Y012561D01*
X011530Y012463D02*
X011577Y012463D01*
X011530Y012364D02*
X011655Y012364D01*
X011530Y012266D02*
X011920Y012266D01*
X011920Y012167D02*
X011530Y012167D01*
X011530Y012069D02*
X011920Y012069D01*
X011920Y011970D02*
X011530Y011970D01*
X011530Y011872D02*
X011920Y011872D01*
X011920Y011773D02*
X011530Y011773D01*
X011530Y011675D02*
X011920Y011675D01*
X011920Y011576D02*
X011530Y011576D01*
X011530Y011478D02*
X011920Y011478D01*
X011920Y011379D02*
X011530Y011379D01*
X011530Y011281D02*
X011920Y011281D01*
X011920Y011182D02*
X011530Y011182D01*
X011530Y011084D02*
X011920Y011084D01*
X011920Y010985D02*
X011530Y010985D01*
X011530Y010887D02*
X011920Y010887D01*
X011920Y010788D02*
X011530Y010788D01*
X011530Y010690D02*
X011920Y010690D01*
X011920Y010591D02*
X011530Y010591D01*
X011530Y010493D02*
X011920Y010493D01*
X011920Y010394D02*
X011530Y010394D01*
X011530Y010296D02*
X011920Y010296D01*
X011920Y010197D02*
X011530Y010197D01*
X011530Y010099D02*
X011920Y010099D01*
X011920Y010000D02*
X011530Y010000D01*
X011530Y009902D02*
X011920Y009902D01*
X011920Y009803D02*
X011530Y009803D01*
X011530Y009705D02*
X011920Y009705D01*
X011920Y009606D02*
X011530Y009606D01*
X011530Y009508D02*
X011920Y009508D01*
X011920Y009409D02*
X011530Y009409D01*
X011530Y009311D02*
X011920Y009311D01*
X011920Y009212D02*
X011530Y009212D01*
X011530Y009114D02*
X011920Y009114D01*
X011920Y009015D02*
X011530Y009015D01*
X011530Y008917D02*
X011920Y008917D01*
X011920Y008818D02*
X011530Y008818D01*
X011530Y008720D02*
X011920Y008720D01*
X011920Y008621D02*
X011530Y008621D01*
X011530Y008523D02*
X011920Y008523D01*
X011920Y008424D02*
X011530Y008424D01*
X011530Y008326D02*
X011920Y008326D01*
X011920Y008227D02*
X011530Y008227D01*
X011530Y008129D02*
X011920Y008129D01*
X011920Y008030D02*
X011530Y008030D01*
X011530Y007932D02*
X011920Y007932D01*
X011920Y007833D02*
X011530Y007833D01*
X011530Y007735D02*
X011920Y007735D01*
X011920Y007636D02*
X011530Y007636D01*
X011530Y007538D02*
X011920Y007538D01*
X011920Y007439D02*
X011530Y007439D01*
X011530Y007341D02*
X011920Y007341D01*
X011920Y007242D02*
X011530Y007242D01*
X011530Y007144D02*
X011920Y007144D01*
X011920Y007045D02*
X011530Y007045D01*
X011530Y006947D02*
X011920Y006947D01*
X011920Y006848D02*
X011530Y006848D01*
X011530Y006750D02*
X011920Y006750D01*
X011920Y006651D02*
X011530Y006651D01*
X011530Y006553D02*
X011920Y006553D01*
X011920Y006454D02*
X011530Y006454D01*
X011530Y006356D02*
X011920Y006356D01*
X011920Y006257D02*
X011530Y006257D01*
X011530Y006159D02*
X011920Y006159D01*
X011920Y006060D02*
X011530Y006060D01*
X011530Y005962D02*
X011920Y005962D01*
X011920Y005863D02*
X011862Y005863D01*
X011700Y005600D02*
X011900Y005400D01*
X011900Y003900D01*
X011300Y003300D01*
X008800Y003300D01*
X008650Y003150D01*
X008650Y002100D01*
X008450Y001900D01*
X006650Y001900D01*
X006150Y001400D01*
X006494Y001037D02*
X007806Y001037D01*
X007863Y000980D02*
X007726Y001117D01*
X007650Y001301D01*
X007650Y001499D01*
X007726Y001683D01*
X007763Y001720D01*
X006725Y001720D01*
X006607Y001603D01*
X006650Y001499D01*
X006650Y001301D01*
X006574Y001117D01*
X006437Y000980D01*
X007863Y000980D01*
X007719Y001135D02*
X006581Y001135D01*
X006622Y001234D02*
X007678Y001234D01*
X007650Y001332D02*
X006650Y001332D01*
X006650Y001431D02*
X007650Y001431D01*
X007662Y001529D02*
X006638Y001529D01*
X006632Y001628D02*
X007703Y001628D01*
X008150Y001400D02*
X008500Y001400D01*
X008650Y001550D01*
X008650Y001700D01*
X008850Y001900D01*
X009450Y001900D01*
X009650Y002100D01*
X009650Y002950D01*
X009800Y003100D01*
X011350Y003100D01*
X012100Y003800D01*
X012100Y012350D01*
X011850Y012600D01*
X012115Y012758D02*
X012120Y012758D01*
X012120Y012857D02*
X012025Y012857D01*
X012300Y013500D02*
X012150Y013650D01*
X012300Y013500D02*
X012300Y003700D01*
X011500Y002900D01*
X010750Y002900D01*
X010650Y002800D01*
X010650Y002100D01*
X010450Y001900D01*
X009800Y001900D01*
X009650Y001750D01*
X009650Y001550D01*
X009500Y001400D01*
X009150Y001400D01*
X009375Y002080D02*
X008830Y002080D01*
X008830Y003075D01*
X008875Y003120D01*
X009565Y003120D01*
X009470Y003025D01*
X009470Y002175D01*
X009375Y002080D01*
X009415Y002120D02*
X008830Y002120D01*
X008830Y002219D02*
X009470Y002219D01*
X009470Y002317D02*
X008830Y002317D01*
X008830Y002416D02*
X009470Y002416D01*
X009470Y002514D02*
X008830Y002514D01*
X008830Y002613D02*
X009470Y002613D01*
X009470Y002711D02*
X008830Y002711D01*
X008830Y002810D02*
X009470Y002810D01*
X009470Y002908D02*
X008830Y002908D01*
X008830Y003007D02*
X009470Y003007D01*
X009550Y003105D02*
X008860Y003105D01*
X008250Y003500D02*
X009800Y003500D01*
X010400Y004100D01*
X010400Y011150D01*
X009400Y012150D01*
X008900Y012150D01*
X009295Y012463D02*
X011170Y012463D01*
X011170Y012561D02*
X009196Y012561D01*
X009073Y012660D02*
X011170Y012660D01*
X011170Y012758D02*
X009243Y012758D01*
X009330Y012857D02*
X011170Y012857D01*
X011170Y012955D02*
X009383Y012955D01*
X009411Y013054D02*
X011170Y013054D01*
X011170Y013152D02*
X008950Y013152D01*
X009411Y013251D02*
X011170Y013251D01*
X011170Y013349D02*
X009382Y013349D01*
X009327Y013448D02*
X011170Y013448D01*
X011170Y013546D02*
X009239Y013546D01*
X009200Y013743D02*
X011170Y013743D01*
X011170Y013645D02*
X009061Y013645D01*
X009299Y013842D02*
X011170Y013842D01*
X011170Y013940D02*
X009354Y013940D01*
X009395Y014039D02*
X011170Y014039D01*
X011170Y014137D02*
X009400Y014137D01*
X009400Y014236D02*
X011170Y014236D01*
X011170Y014334D02*
X009365Y014334D01*
X009324Y014433D02*
X011170Y014433D01*
X011170Y014531D02*
X009226Y014531D01*
X009185Y014728D02*
X011170Y014728D01*
X011170Y014630D02*
X009049Y014630D01*
X008751Y014630D02*
X008535Y014630D01*
X008535Y014728D02*
X008615Y014728D01*
X008574Y014531D02*
X008535Y014531D01*
X009284Y014827D02*
X011170Y014827D01*
X011170Y014925D02*
X009348Y014925D01*
X009389Y015024D02*
X011170Y015024D01*
X011170Y015122D02*
X009400Y015122D01*
X009400Y015221D02*
X011170Y015221D01*
X011170Y015319D02*
X009371Y015319D01*
X009330Y015418D02*
X011170Y015418D01*
X011170Y015516D02*
X009241Y015516D01*
X009085Y015615D02*
X011170Y015615D01*
X011170Y015713D02*
X009152Y015713D01*
X009269Y015812D02*
X011170Y015812D01*
X011170Y015910D02*
X009342Y015910D01*
X009383Y016009D02*
X011170Y016009D01*
X011170Y016107D02*
X009400Y016107D01*
X009400Y016206D02*
X011170Y016206D01*
X011170Y016304D02*
X009377Y016304D01*
X009337Y016403D02*
X011170Y016403D01*
X011170Y016501D02*
X009256Y016501D01*
X009121Y016600D02*
X011170Y016600D01*
X011170Y016698D02*
X009115Y016698D01*
X009254Y016797D02*
X011170Y016797D01*
X011170Y016895D02*
X009336Y016895D01*
X009376Y016994D02*
X011170Y016994D01*
X011170Y017092D02*
X009400Y017092D01*
X009400Y017191D02*
X011170Y017191D01*
X011170Y017289D02*
X009384Y017289D01*
X009343Y017388D02*
X011170Y017388D01*
X011170Y017486D02*
X009271Y017486D01*
X009157Y017585D02*
X011170Y017585D01*
X011170Y017683D02*
X009079Y017683D01*
X009239Y017782D02*
X011170Y017782D01*
X011170Y017880D02*
X009329Y017880D01*
X009370Y017979D02*
X011170Y017979D01*
X011170Y018077D02*
X009400Y018077D01*
X009400Y018176D02*
X011170Y018176D01*
X011170Y018274D02*
X009390Y018274D01*
X009349Y018373D02*
X011170Y018373D01*
X011170Y018471D02*
X009286Y018471D01*
X009188Y018570D02*
X011170Y018570D01*
X011170Y018668D02*
X009043Y018668D01*
X009224Y018767D02*
X011170Y018767D01*
X011170Y018865D02*
X009322Y018865D01*
X009364Y018964D02*
X011170Y018964D01*
X011170Y019062D02*
X009400Y019062D01*
X009400Y019161D02*
X011170Y019161D01*
X011170Y019259D02*
X009396Y019259D01*
X009355Y019358D02*
X011170Y019358D01*
X011170Y019456D02*
X009301Y019456D01*
X009203Y019555D02*
X011170Y019555D01*
X011170Y019653D02*
X009007Y019653D01*
X008793Y019653D02*
X008535Y019653D01*
X008535Y019555D02*
X008597Y019555D01*
X008591Y019752D02*
X008535Y019752D01*
X009209Y019752D02*
X011170Y019752D01*
X011170Y019850D02*
X009307Y019850D01*
X009358Y019949D02*
X011170Y019949D01*
X011170Y020047D02*
X009399Y020047D01*
X009400Y020146D02*
X011170Y020146D01*
X011170Y020244D02*
X009400Y020244D01*
X009361Y020343D02*
X011170Y020343D01*
X011170Y020441D02*
X009316Y020441D01*
X009218Y020540D02*
X011170Y020540D01*
X011170Y020638D02*
X009028Y020638D01*
X009216Y020737D02*
X011170Y020737D01*
X011170Y020835D02*
X009314Y020835D01*
X009373Y020934D02*
X011170Y020934D01*
X011170Y021032D02*
X009408Y021032D01*
X009414Y021229D02*
X011170Y021229D01*
X011170Y021131D02*
X008950Y021131D01*
X009389Y021328D02*
X011170Y021328D01*
X011170Y021426D02*
X009342Y021426D01*
X009261Y021525D02*
X011170Y021525D01*
X011170Y021623D02*
X009117Y021623D01*
X009172Y021722D02*
X011170Y021722D01*
X011170Y021820D02*
X009277Y021820D01*
X009345Y021919D02*
X011170Y021919D01*
X011170Y022017D02*
X009386Y022017D01*
X009400Y022116D02*
X011170Y022116D01*
X011170Y022214D02*
X009400Y022214D01*
X009374Y022313D02*
X011170Y022313D01*
X011170Y022411D02*
X009333Y022411D01*
X009248Y022510D02*
X011109Y022510D01*
X011058Y022608D02*
X009101Y022608D01*
X009136Y022707D02*
X011045Y022707D01*
X011063Y022805D02*
X009262Y022805D01*
X009339Y022904D02*
X011122Y022904D01*
X011282Y023002D02*
X009380Y023002D01*
X009400Y023101D02*
X013720Y023101D01*
X013720Y023199D02*
X009400Y023199D01*
X009380Y023298D02*
X013720Y023298D01*
X013720Y023396D02*
X009339Y023396D01*
X009263Y023495D02*
X013720Y023495D01*
X013720Y023593D02*
X009137Y023593D01*
X009100Y023692D02*
X013720Y023692D01*
X013720Y023790D02*
X009247Y023790D01*
X009333Y023889D02*
X013720Y023889D01*
X013720Y023987D02*
X009374Y023987D01*
X009400Y024086D02*
X013720Y024086D01*
X013720Y024184D02*
X009400Y024184D01*
X009386Y024283D02*
X013720Y024283D01*
X013720Y024381D02*
X009345Y024381D01*
X009278Y024480D02*
X013720Y024480D01*
X013720Y024578D02*
X009173Y024578D01*
X009350Y024677D02*
X013720Y024677D01*
X013720Y024775D02*
X009400Y024775D01*
X009400Y024874D02*
X013720Y024874D01*
X013720Y024972D02*
X009400Y024972D01*
X009400Y025071D02*
X013816Y025071D01*
X013900Y025169D02*
X009400Y025169D01*
X009400Y025268D02*
X013908Y025268D01*
X013948Y025366D02*
X009400Y025366D01*
X009400Y025465D02*
X014007Y025465D01*
X014150Y025150D02*
X013900Y024900D01*
X013900Y004350D01*
X014150Y004100D01*
X019500Y004100D01*
X019650Y003950D01*
X018650Y001900D02*
X018150Y001400D01*
X017650Y001900D02*
X017650Y003500D01*
X017450Y003700D01*
X013600Y003700D01*
X013500Y003800D01*
X013500Y021400D01*
X013350Y021550D01*
X013306Y022313D02*
X011530Y022313D01*
X011530Y022411D02*
X013257Y022411D01*
X013245Y022510D02*
X011591Y022510D01*
X011642Y022608D02*
X013265Y022608D01*
X013325Y022707D02*
X011655Y022707D01*
X011637Y022805D02*
X013720Y022805D01*
X013720Y022904D02*
X011578Y022904D01*
X011418Y023002D02*
X013720Y023002D01*
X014400Y024150D02*
X014400Y025150D01*
X014150Y025150D01*
X011350Y022700D02*
X011350Y005050D01*
X011550Y004850D01*
X011245Y004878D02*
X010580Y004878D01*
X010580Y004780D02*
X011249Y004780D01*
X011290Y004681D02*
X010580Y004681D01*
X010580Y004583D02*
X011399Y004583D01*
X011701Y004583D02*
X011720Y004583D01*
X011720Y004484D02*
X010580Y004484D01*
X010580Y004386D02*
X011720Y004386D01*
X011720Y004287D02*
X010580Y004287D01*
X010580Y004189D02*
X011720Y004189D01*
X011720Y004090D02*
X010580Y004090D01*
X010546Y003992D02*
X011720Y003992D01*
X011638Y003893D02*
X010448Y003893D01*
X010349Y003795D02*
X011540Y003795D01*
X011441Y003696D02*
X010251Y003696D01*
X010152Y003598D02*
X011343Y003598D01*
X011244Y003499D02*
X010054Y003499D01*
X009700Y003700D02*
X010200Y004200D01*
X010200Y010350D01*
X009400Y011150D01*
X008900Y011150D01*
X009736Y012069D02*
X011170Y012069D01*
X011170Y012167D02*
X009638Y012167D01*
X009539Y012266D02*
X011170Y012266D01*
X011170Y012364D02*
X009353Y012364D01*
X009835Y011970D02*
X011170Y011970D01*
X011170Y011872D02*
X009933Y011872D01*
X010032Y011773D02*
X011170Y011773D01*
X011170Y011675D02*
X010130Y011675D01*
X010229Y011576D02*
X011170Y011576D01*
X011170Y011478D02*
X010327Y011478D01*
X010426Y011379D02*
X011170Y011379D01*
X011170Y011281D02*
X010524Y011281D01*
X010580Y011182D02*
X011170Y011182D01*
X011170Y011084D02*
X010580Y011084D01*
X010580Y010985D02*
X011170Y010985D01*
X011170Y010887D02*
X010580Y010887D01*
X010580Y010788D02*
X011170Y010788D01*
X011170Y010690D02*
X010580Y010690D01*
X010580Y010591D02*
X011170Y010591D01*
X011170Y010493D02*
X010580Y010493D01*
X010580Y010394D02*
X011170Y010394D01*
X011170Y010296D02*
X010580Y010296D01*
X010580Y010197D02*
X011170Y010197D01*
X011170Y010099D02*
X010580Y010099D01*
X010580Y010000D02*
X011170Y010000D01*
X011170Y009902D02*
X010580Y009902D01*
X010580Y009803D02*
X011170Y009803D01*
X011170Y009705D02*
X010580Y009705D01*
X010580Y009606D02*
X011170Y009606D01*
X011170Y009508D02*
X010580Y009508D01*
X010580Y009409D02*
X011170Y009409D01*
X011170Y009311D02*
X010580Y009311D01*
X010580Y009212D02*
X011170Y009212D01*
X011170Y009114D02*
X010580Y009114D01*
X010580Y009015D02*
X011170Y009015D01*
X011170Y008917D02*
X010580Y008917D01*
X010580Y008818D02*
X011170Y008818D01*
X011170Y008720D02*
X010580Y008720D01*
X010580Y008621D02*
X011170Y008621D01*
X011170Y008523D02*
X010580Y008523D01*
X010580Y008424D02*
X011170Y008424D01*
X011170Y008326D02*
X010580Y008326D01*
X010580Y008227D02*
X011170Y008227D01*
X011170Y008129D02*
X010580Y008129D01*
X010580Y008030D02*
X011170Y008030D01*
X011170Y007932D02*
X010580Y007932D01*
X010580Y007833D02*
X011170Y007833D01*
X011170Y007735D02*
X010580Y007735D01*
X010580Y007636D02*
X011170Y007636D01*
X011170Y007538D02*
X010580Y007538D01*
X010580Y007439D02*
X011170Y007439D01*
X011170Y007341D02*
X010580Y007341D01*
X010580Y007242D02*
X011170Y007242D01*
X011170Y007144D02*
X010580Y007144D01*
X010580Y007045D02*
X011170Y007045D01*
X011170Y006947D02*
X010580Y006947D01*
X010580Y006848D02*
X011170Y006848D01*
X011170Y006750D02*
X010580Y006750D01*
X010580Y006651D02*
X011170Y006651D01*
X011170Y006553D02*
X010580Y006553D01*
X010580Y006454D02*
X011170Y006454D01*
X011170Y006356D02*
X010580Y006356D01*
X010580Y006257D02*
X011170Y006257D01*
X011170Y006159D02*
X010580Y006159D01*
X010580Y006060D02*
X011170Y006060D01*
X011170Y005962D02*
X010580Y005962D01*
X010580Y005863D02*
X011170Y005863D01*
X011170Y005765D02*
X010580Y005765D01*
X010580Y005666D02*
X011170Y005666D01*
X011170Y005568D02*
X010580Y005568D01*
X010580Y005469D02*
X011170Y005469D01*
X011170Y005371D02*
X010580Y005371D01*
X010580Y005272D02*
X011170Y005272D01*
X011170Y005174D02*
X010580Y005174D01*
X010580Y005075D02*
X011170Y005075D01*
X011170Y004977D02*
X010580Y004977D01*
X010000Y004350D02*
X010000Y009550D01*
X009400Y010150D01*
X008900Y010150D01*
X008900Y009150D02*
X009400Y009150D01*
X009800Y008750D01*
X009800Y004450D01*
X009450Y004100D01*
X005300Y004100D01*
X005150Y003950D01*
X005150Y002400D01*
X005330Y002867D02*
X005433Y002824D01*
X005574Y002683D01*
X005650Y002499D01*
X005650Y002301D01*
X005650Y002499D01*
X005726Y002683D01*
X005867Y002824D01*
X005970Y002867D01*
X005970Y003825D01*
X006065Y003920D01*
X005375Y003920D01*
X005330Y003875D01*
X005330Y002867D01*
X005330Y002908D02*
X005970Y002908D01*
X005970Y003007D02*
X005330Y003007D01*
X005330Y003105D02*
X005970Y003105D01*
X005970Y003204D02*
X005330Y003204D01*
X005330Y003302D02*
X005970Y003302D01*
X005970Y003401D02*
X005330Y003401D01*
X005330Y003499D02*
X005970Y003499D01*
X005970Y003598D02*
X005330Y003598D01*
X005330Y003696D02*
X005970Y003696D01*
X005970Y003795D02*
X005330Y003795D01*
X005348Y003893D02*
X006038Y003893D01*
X006150Y003750D02*
X006300Y003900D01*
X009550Y003900D01*
X010000Y004350D01*
X009600Y004550D02*
X009600Y007950D01*
X009400Y008150D01*
X008900Y008150D01*
X008900Y007150D02*
X009100Y007150D01*
X009400Y006850D01*
X009400Y005100D01*
X009050Y004750D01*
X008773Y004878D02*
X008242Y004878D01*
X008213Y004837D02*
X008213Y004837D01*
X008213Y004837D01*
X008133Y004780D02*
X008745Y004780D01*
X008748Y004681D02*
X007997Y004681D01*
X007922Y004626D02*
X007922Y004626D01*
X007788Y004583D02*
X008789Y004583D01*
X008895Y004484D02*
X000952Y004484D01*
X000709Y004386D02*
X004281Y004386D01*
X004182Y004287D02*
X000573Y004287D01*
X000485Y004189D02*
X004084Y004189D01*
X003985Y004090D02*
X000414Y004090D01*
X000363Y003992D02*
X003970Y003992D01*
X003970Y003893D02*
X000331Y003893D01*
X000299Y003795D02*
X003970Y003795D01*
X003970Y003696D02*
X000289Y003696D01*
X000285Y003598D02*
X003970Y003598D01*
X003970Y003499D02*
X000285Y003499D01*
X000285Y003401D02*
X003970Y003401D01*
X003970Y003302D02*
X000285Y003302D01*
X000285Y003204D02*
X003970Y003204D01*
X003970Y003105D02*
X000285Y003105D01*
X000285Y003007D02*
X003970Y003007D01*
X003970Y002908D02*
X000285Y002908D01*
X000285Y002810D02*
X002852Y002810D01*
X002754Y002711D02*
X000285Y002711D01*
X000285Y002613D02*
X002697Y002613D01*
X002656Y002514D02*
X000285Y002514D01*
X000285Y002416D02*
X002650Y002416D01*
X002650Y002317D02*
X000285Y002317D01*
X000285Y002219D02*
X002684Y002219D01*
X002725Y002120D02*
X000285Y002120D01*
X000285Y002022D02*
X002821Y002022D01*
X002995Y001923D02*
X000285Y001923D01*
X000285Y001825D02*
X001868Y001825D01*
X001769Y001726D02*
X000285Y001726D01*
X000285Y001628D02*
X001703Y001628D01*
X001662Y001529D02*
X000285Y001529D01*
X000285Y001431D02*
X001650Y001431D01*
X001650Y001332D02*
X000285Y001332D01*
X000285Y001234D02*
X001678Y001234D01*
X001719Y001135D02*
X000285Y001135D01*
X000285Y001037D02*
X001806Y001037D01*
X001959Y000938D02*
X000285Y000938D01*
X000285Y000840D02*
X001970Y000840D01*
X001970Y000741D02*
X000285Y000741D01*
X000285Y000643D02*
X001970Y000643D01*
X001970Y000544D02*
X000285Y000544D01*
X000285Y000446D02*
X002050Y000446D01*
X002148Y000347D02*
X000285Y000347D01*
X002330Y000675D02*
X002330Y000933D01*
X002433Y000976D01*
X002574Y001117D01*
X002650Y001301D01*
X002650Y001499D01*
X002650Y001301D01*
X002726Y001117D01*
X002867Y000976D01*
X002970Y000933D01*
X002970Y000580D01*
X002425Y000580D01*
X002330Y000675D01*
X002362Y000643D02*
X002970Y000643D01*
X002970Y000741D02*
X002330Y000741D01*
X002330Y000840D02*
X002970Y000840D01*
X002959Y000938D02*
X002341Y000938D01*
X002494Y001037D02*
X002806Y001037D01*
X002719Y001135D02*
X002581Y001135D01*
X002622Y001234D02*
X002678Y001234D01*
X002650Y001332D02*
X002650Y001332D01*
X002650Y001431D02*
X002650Y001431D01*
X002638Y001529D02*
X002662Y001529D01*
X002703Y001628D02*
X002597Y001628D01*
X002531Y001726D02*
X002769Y001726D01*
X002868Y001825D02*
X002432Y001825D01*
X003305Y001923D02*
X003995Y001923D01*
X003868Y001825D02*
X003432Y001825D01*
X003531Y001726D02*
X003769Y001726D01*
X003703Y001628D02*
X003597Y001628D01*
X003638Y001529D02*
X003662Y001529D01*
X003650Y001431D02*
X003650Y001431D01*
X003650Y001332D02*
X003650Y001332D01*
X003622Y001234D02*
X003678Y001234D01*
X003719Y001135D02*
X003581Y001135D01*
X004150Y000900D02*
X004150Y001400D01*
X004494Y001037D02*
X005806Y001037D01*
X005719Y001135D02*
X004581Y001135D01*
X004622Y001234D02*
X005678Y001234D01*
X005650Y001332D02*
X004650Y001332D01*
X004650Y001431D02*
X005650Y001431D01*
X005662Y001529D02*
X004638Y001529D01*
X004597Y001628D02*
X005703Y001628D01*
X005769Y001726D02*
X004531Y001726D01*
X004432Y001825D02*
X005868Y001825D01*
X005995Y001923D02*
X005305Y001923D01*
X005479Y002022D02*
X005821Y002022D01*
X005725Y002120D02*
X005575Y002120D01*
X005616Y002219D02*
X005684Y002219D01*
X005650Y002317D02*
X005650Y002317D01*
X005650Y002416D02*
X005650Y002416D01*
X005644Y002514D02*
X005656Y002514D01*
X005697Y002613D02*
X005603Y002613D01*
X005546Y002711D02*
X005754Y002711D01*
X005852Y002810D02*
X005448Y002810D01*
X004970Y002867D02*
X004867Y002824D01*
X004726Y002683D01*
X004650Y002499D01*
X004650Y002301D01*
X004650Y002499D01*
X004574Y002683D01*
X004433Y002824D01*
X004330Y002867D01*
X004330Y003925D01*
X004525Y004120D01*
X005065Y004120D01*
X004970Y004025D01*
X004970Y002867D01*
X004970Y002908D02*
X004330Y002908D01*
X004330Y003007D02*
X004970Y003007D01*
X004970Y003105D02*
X004330Y003105D01*
X004330Y003204D02*
X004970Y003204D01*
X004970Y003302D02*
X004330Y003302D01*
X004330Y003401D02*
X004970Y003401D01*
X004970Y003499D02*
X004330Y003499D01*
X004330Y003598D02*
X004970Y003598D01*
X004970Y003696D02*
X004330Y003696D01*
X004330Y003795D02*
X004970Y003795D01*
X004970Y003893D02*
X004330Y003893D01*
X004396Y003992D02*
X004970Y003992D01*
X005035Y004090D02*
X004495Y004090D01*
X004450Y004300D02*
X009350Y004300D01*
X009600Y004550D01*
X009120Y005075D02*
X008385Y005075D01*
X008439Y005174D02*
X009219Y005174D01*
X009220Y005272D02*
X008471Y005272D01*
X008503Y005371D02*
X009220Y005371D01*
X009220Y005469D02*
X008535Y005469D01*
X008535Y005568D02*
X009220Y005568D01*
X009220Y005666D02*
X009093Y005666D01*
X008950Y005666D02*
X008850Y005666D01*
X008850Y005765D02*
X008950Y005765D01*
X008950Y005863D02*
X008850Y005863D01*
X008850Y005962D02*
X008950Y005962D01*
X008950Y006060D02*
X008850Y006060D01*
X008550Y005765D02*
X008535Y005765D01*
X008535Y005666D02*
X008707Y005666D01*
X008845Y004977D02*
X008314Y004977D01*
X007250Y003700D02*
X009700Y003700D01*
X008250Y003500D02*
X008150Y003400D01*
X008150Y002400D01*
X007150Y002400D02*
X007150Y003600D01*
X007250Y003700D01*
X007015Y003720D02*
X006970Y003675D01*
X006970Y002867D01*
X006867Y002824D01*
X006726Y002683D01*
X006650Y002499D01*
X006650Y002301D01*
X006650Y002499D01*
X006574Y002683D01*
X006433Y002824D01*
X006330Y002867D01*
X006330Y003675D01*
X006375Y003720D01*
X007015Y003720D01*
X006991Y003696D02*
X006351Y003696D01*
X006330Y003598D02*
X006970Y003598D01*
X006970Y003499D02*
X006330Y003499D01*
X006330Y003401D02*
X006970Y003401D01*
X006970Y003302D02*
X006330Y003302D01*
X006330Y003204D02*
X006970Y003204D01*
X006970Y003105D02*
X006330Y003105D01*
X006330Y003007D02*
X006970Y003007D01*
X006970Y002908D02*
X006330Y002908D01*
X006448Y002810D02*
X006852Y002810D01*
X006754Y002711D02*
X006546Y002711D01*
X006603Y002613D02*
X006697Y002613D01*
X006656Y002514D02*
X006644Y002514D01*
X006650Y002416D02*
X006650Y002416D01*
X006650Y002317D02*
X006650Y002317D01*
X006616Y002219D02*
X006684Y002219D01*
X006725Y002120D02*
X006575Y002120D01*
X006517Y002022D02*
X006479Y002022D01*
X006418Y001923D02*
X006305Y001923D01*
X006150Y002400D02*
X006150Y003750D01*
X004852Y002810D02*
X004448Y002810D01*
X004546Y002711D02*
X004754Y002711D01*
X004697Y002613D02*
X004603Y002613D01*
X004644Y002514D02*
X004656Y002514D01*
X004650Y002416D02*
X004650Y002416D01*
X004650Y002317D02*
X004650Y002317D01*
X004616Y002219D02*
X004684Y002219D01*
X004725Y002120D02*
X004575Y002120D01*
X004479Y002022D02*
X004821Y002022D01*
X004995Y001923D02*
X004305Y001923D01*
X003821Y002022D02*
X003479Y002022D01*
X003575Y002120D02*
X003725Y002120D01*
X003684Y002219D02*
X003616Y002219D01*
X003650Y002317D02*
X003650Y002317D01*
X003650Y002416D02*
X003650Y002416D01*
X003644Y002514D02*
X003656Y002514D01*
X003697Y002613D02*
X003603Y002613D01*
X003546Y002711D02*
X003754Y002711D01*
X003852Y002810D02*
X003448Y002810D01*
X004150Y002400D02*
X004150Y004000D01*
X004450Y004300D01*
X010150Y001400D02*
X010500Y001400D01*
X010650Y001550D01*
X010650Y001750D01*
X010800Y001900D01*
X011450Y001900D01*
X011650Y002100D01*
X011650Y002750D01*
X012500Y003600D01*
X012500Y014500D01*
X012350Y014650D01*
X012700Y015450D02*
X012550Y015600D01*
X012700Y015450D02*
X012700Y003050D01*
X012850Y002900D01*
X013450Y002900D01*
X013650Y002700D01*
X013650Y002100D01*
X013450Y001900D01*
X011800Y001900D01*
X011650Y001750D01*
X011650Y001550D01*
X011500Y001400D01*
X011150Y001400D01*
X011494Y001037D02*
X012806Y001037D01*
X012863Y000980D02*
X012726Y001117D01*
X012650Y001301D01*
X012650Y001499D01*
X012726Y001683D01*
X012763Y001720D01*
X011875Y001720D01*
X011830Y001675D01*
X011830Y001475D01*
X011725Y001370D01*
X011646Y001292D01*
X011574Y001117D01*
X011437Y000980D01*
X012863Y000980D01*
X012719Y001135D02*
X011581Y001135D01*
X011622Y001234D02*
X012678Y001234D01*
X012650Y001332D02*
X011687Y001332D01*
X011785Y001431D02*
X012650Y001431D01*
X012662Y001529D02*
X011830Y001529D01*
X011830Y001628D02*
X012703Y001628D01*
X013150Y001400D02*
X013500Y001400D01*
X013650Y001550D01*
X013650Y001750D01*
X013800Y001900D01*
X014450Y001900D01*
X014650Y002100D01*
X014650Y002900D01*
X014450Y003100D01*
X012950Y003100D01*
X012900Y003150D01*
X012900Y017400D01*
X012750Y017550D01*
X013100Y018400D02*
X012950Y018550D01*
X013100Y018400D02*
X013100Y003400D01*
X013200Y003300D01*
X015500Y003300D01*
X015650Y003150D01*
X015650Y002000D01*
X015550Y001900D01*
X014850Y001900D01*
X014650Y001700D01*
X014650Y001550D01*
X014500Y001400D01*
X014150Y001400D01*
X014494Y001037D02*
X015806Y001037D01*
X015863Y000980D02*
X015726Y001117D01*
X015650Y001301D01*
X015650Y001499D01*
X015726Y001683D01*
X015867Y001824D01*
X016051Y001900D01*
X016249Y001900D01*
X016353Y001857D01*
X016470Y001975D01*
X016470Y002013D01*
X016433Y001976D01*
X016249Y001900D01*
X016051Y001900D01*
X015867Y001976D01*
X015830Y002013D01*
X015830Y001925D01*
X015725Y001820D01*
X015625Y001720D01*
X014925Y001720D01*
X014830Y001625D01*
X014830Y001475D01*
X014725Y001370D01*
X014646Y001292D01*
X014574Y001117D01*
X014437Y000980D01*
X015863Y000980D01*
X015719Y001135D02*
X014581Y001135D01*
X014622Y001234D02*
X015678Y001234D01*
X015650Y001332D02*
X014687Y001332D01*
X014785Y001431D02*
X015650Y001431D01*
X015662Y001529D02*
X014830Y001529D01*
X014832Y001628D02*
X015703Y001628D01*
X015769Y001726D02*
X015631Y001726D01*
X015729Y001825D02*
X015868Y001825D01*
X015828Y001923D02*
X015995Y001923D01*
X016305Y001923D02*
X016418Y001923D01*
X016650Y001900D02*
X016650Y003200D01*
X016350Y003500D01*
X013400Y003500D01*
X013300Y003600D01*
X013300Y020350D01*
X013100Y020550D01*
X008757Y018668D02*
X008535Y018668D01*
X008535Y018570D02*
X008612Y018570D01*
X008576Y018767D02*
X008535Y018767D01*
X008535Y017782D02*
X008561Y017782D01*
X008535Y017683D02*
X008721Y017683D01*
X008643Y017585D02*
X008535Y017585D01*
X008535Y016797D02*
X008546Y016797D01*
X008535Y016698D02*
X008685Y016698D01*
X008679Y016600D02*
X008535Y016600D01*
X008535Y016501D02*
X008544Y016501D01*
X008535Y015713D02*
X008648Y015713D01*
X008715Y015615D02*
X008535Y015615D01*
X008535Y015516D02*
X008559Y015516D01*
X008535Y022510D02*
X008552Y022510D01*
X008535Y022608D02*
X008699Y022608D01*
X008664Y022707D02*
X008535Y022707D01*
X008535Y022805D02*
X008538Y022805D01*
X008535Y023495D02*
X008537Y023495D01*
X008535Y023593D02*
X008663Y023593D01*
X008700Y023692D02*
X008535Y023692D01*
X008535Y023790D02*
X008553Y023790D01*
X008535Y024578D02*
X008627Y024578D01*
X011530Y005863D02*
X011538Y005863D01*
X016150Y001400D02*
X016650Y001900D01*
X016830Y001923D02*
X017418Y001923D01*
X017470Y001975D02*
X017353Y001857D01*
X017249Y001900D01*
X017051Y001900D01*
X016867Y001824D01*
X016726Y001683D01*
X016650Y001499D01*
X016650Y001301D01*
X016726Y001117D01*
X016863Y000980D01*
X016437Y000980D01*
X016574Y001117D01*
X016650Y001301D01*
X016650Y001499D01*
X016607Y001603D01*
X016725Y001720D01*
X016830Y001825D01*
X016830Y003275D01*
X016585Y003520D01*
X017375Y003520D01*
X017470Y003425D01*
X017470Y001975D01*
X017470Y002022D02*
X016830Y002022D01*
X016830Y002120D02*
X017470Y002120D01*
X017470Y002219D02*
X016830Y002219D01*
X016830Y002317D02*
X017470Y002317D01*
X017470Y002416D02*
X016830Y002416D01*
X016830Y002514D02*
X017470Y002514D01*
X017470Y002613D02*
X016830Y002613D01*
X016830Y002711D02*
X017470Y002711D01*
X017470Y002810D02*
X016830Y002810D01*
X016830Y002908D02*
X017470Y002908D01*
X017470Y003007D02*
X016830Y003007D01*
X016830Y003105D02*
X017470Y003105D01*
X017470Y003204D02*
X016830Y003204D01*
X016803Y003302D02*
X017470Y003302D01*
X017470Y003401D02*
X016704Y003401D01*
X016606Y003499D02*
X017396Y003499D01*
X017650Y001900D02*
X017150Y001400D01*
X016806Y001037D02*
X016494Y001037D01*
X016581Y001135D02*
X016719Y001135D01*
X016678Y001234D02*
X016622Y001234D01*
X016650Y001332D02*
X016650Y001332D01*
X016650Y001431D02*
X016650Y001431D01*
X016638Y001529D02*
X016662Y001529D01*
X016632Y001628D02*
X016703Y001628D01*
X016731Y001726D02*
X016769Y001726D01*
X016829Y001825D02*
X016868Y001825D01*
D14*
X014250Y005450D03*
X011700Y005600D03*
X011550Y004850D03*
X009050Y004750D03*
X011850Y012600D03*
X012150Y013650D03*
X012350Y014650D03*
X012550Y015600D03*
X011750Y016150D03*
X012750Y017550D03*
X012950Y018550D03*
X013100Y020550D03*
X013350Y021550D03*
X013550Y022500D03*
X011350Y022700D03*
X001000Y004100D03*
X021700Y003950D03*
M02*
