G75*
%MOIN*%
%OFA0B0*%
%FSLAX24Y24*%
%IPPOS*%
%LPD*%
%AMOC8*
5,1,8,0,0,1.08239X$1,22.5*
%
%ADD10C,0.0050*%
%ADD11C,0.0100*%
%ADD12C,0.0040*%
%ADD13C,0.0080*%
%ADD14C,0.0010*%
D10*
X005525Y003775D02*
X005525Y004225D01*
X005750Y004225D01*
X005825Y004150D01*
X005825Y004000D01*
X005750Y003925D01*
X005525Y003925D01*
X005675Y003925D02*
X005825Y003775D01*
X005985Y003850D02*
X006060Y003925D01*
X006286Y003925D01*
X006286Y004000D02*
X006286Y003775D01*
X006060Y003775D01*
X005985Y003850D01*
X006060Y004075D02*
X006211Y004075D01*
X006286Y004000D01*
X006446Y004000D02*
X006521Y004075D01*
X006746Y004075D01*
X006906Y004075D02*
X007131Y004075D01*
X007206Y004000D01*
X007206Y003850D01*
X007131Y003775D01*
X006906Y003775D01*
X006906Y003625D02*
X006906Y004075D01*
X006746Y003850D02*
X006671Y003925D01*
X006521Y003925D01*
X006446Y004000D01*
X006446Y003775D02*
X006671Y003775D01*
X006746Y003850D01*
X007367Y003775D02*
X007592Y003775D01*
X007667Y003850D01*
X007667Y004000D01*
X007592Y004075D01*
X007367Y004075D01*
X007367Y004225D02*
X007367Y003775D01*
X007827Y003850D02*
X007902Y003775D01*
X008052Y003775D01*
X008127Y003925D02*
X007827Y003925D01*
X007827Y003850D02*
X007827Y004000D01*
X007902Y004075D01*
X008052Y004075D01*
X008127Y004000D01*
X008127Y003925D01*
X008287Y003925D02*
X008437Y004075D01*
X008513Y004075D01*
X008671Y004075D02*
X008671Y003775D01*
X008671Y003925D02*
X008821Y004075D01*
X008896Y004075D01*
X009055Y004075D02*
X009055Y003850D01*
X009130Y003775D01*
X009355Y003775D01*
X009355Y003700D02*
X009280Y003625D01*
X009205Y003625D01*
X009355Y003700D02*
X009355Y004075D01*
X009975Y003925D02*
X010201Y003925D01*
X010276Y004000D01*
X010276Y004150D01*
X010201Y004225D01*
X009975Y004225D01*
X009975Y003775D01*
X010436Y003775D02*
X010586Y003775D01*
X010511Y003775D02*
X010511Y004075D01*
X010436Y004075D01*
X010511Y004225D02*
X010511Y004300D01*
X011203Y004075D02*
X011203Y003775D01*
X011203Y004000D02*
X011503Y004000D01*
X011503Y004075D02*
X011353Y004225D01*
X011203Y004075D01*
X011503Y004075D02*
X011503Y003775D01*
X011664Y004000D02*
X011964Y004000D01*
X011814Y004150D02*
X011814Y003850D01*
X012124Y003775D02*
X012424Y004225D01*
X012584Y004225D02*
X012810Y004225D01*
X012885Y004150D01*
X012885Y004075D01*
X012810Y004000D01*
X012584Y004000D01*
X012584Y003775D02*
X012810Y003775D01*
X012885Y003850D01*
X012885Y003925D01*
X012810Y004000D01*
X013045Y004000D02*
X013345Y004000D01*
X013195Y004150D02*
X013195Y003850D01*
X013505Y003775D02*
X013805Y004225D01*
X013966Y004150D02*
X014041Y004225D01*
X014191Y004225D01*
X014266Y004150D01*
X014266Y004075D01*
X013966Y003775D01*
X014266Y003775D01*
X014886Y003775D02*
X014886Y004225D01*
X015112Y004225D01*
X015187Y004150D01*
X015187Y004075D01*
X015112Y004000D01*
X014886Y004000D01*
X014886Y003775D02*
X015112Y003775D01*
X015187Y003850D01*
X015187Y003925D01*
X015112Y004000D01*
X015347Y003925D02*
X015497Y004075D01*
X015572Y004075D01*
X015730Y004000D02*
X015805Y004075D01*
X015956Y004075D01*
X016031Y004000D01*
X016031Y003925D01*
X015730Y003925D01*
X015730Y003850D02*
X015730Y004000D01*
X015730Y003850D02*
X015805Y003775D01*
X015956Y003775D01*
X016191Y003850D02*
X016266Y003925D01*
X016491Y003925D01*
X016491Y004000D02*
X016491Y003775D01*
X016266Y003775D01*
X016191Y003850D01*
X016266Y004075D02*
X016416Y004075D01*
X016491Y004000D01*
X016651Y003925D02*
X016876Y004075D01*
X017035Y004000D02*
X017035Y003850D01*
X017110Y003775D01*
X017260Y003775D01*
X017335Y003850D01*
X017335Y004000D01*
X017260Y004075D01*
X017110Y004075D01*
X017035Y004000D01*
X016876Y003775D02*
X016651Y003925D01*
X016651Y003775D02*
X016651Y004225D01*
X017495Y004075D02*
X017495Y003850D01*
X017570Y003775D01*
X017795Y003775D01*
X017795Y004075D01*
X017956Y004075D02*
X018106Y004075D01*
X018031Y004150D02*
X018031Y003850D01*
X018106Y003775D01*
X015347Y003775D02*
X015347Y004075D01*
X013765Y005425D02*
X013465Y005425D01*
X013615Y005425D02*
X013615Y005875D01*
X013465Y005725D01*
X013304Y005725D02*
X013304Y005800D01*
X013229Y005875D01*
X013079Y005875D01*
X013004Y005800D01*
X012844Y005800D02*
X012769Y005875D01*
X012619Y005875D01*
X012544Y005800D01*
X012544Y005500D01*
X012619Y005425D01*
X012769Y005425D01*
X012844Y005500D01*
X012844Y005800D01*
X013004Y005425D02*
X013304Y005725D01*
X013304Y005425D02*
X013004Y005425D01*
X012387Y005425D02*
X012237Y005425D01*
X012312Y005425D02*
X012312Y005875D01*
X012237Y005875D02*
X012387Y005875D01*
X012387Y006425D02*
X012237Y006425D01*
X012312Y006425D02*
X012312Y006875D01*
X012237Y006875D02*
X012387Y006875D01*
X012544Y006800D02*
X012544Y006500D01*
X012619Y006425D01*
X012769Y006425D01*
X012844Y006500D01*
X012844Y006800D01*
X012769Y006875D01*
X012619Y006875D01*
X012544Y006800D01*
X013004Y006800D02*
X013079Y006875D01*
X013229Y006875D01*
X013304Y006800D01*
X013304Y006725D01*
X013004Y006425D01*
X013304Y006425D01*
X013465Y006500D02*
X013765Y006800D01*
X013765Y006500D01*
X013690Y006425D01*
X013540Y006425D01*
X013465Y006500D01*
X013465Y006800D01*
X013540Y006875D01*
X013690Y006875D01*
X013765Y006800D01*
X013690Y007425D02*
X013765Y007500D01*
X013765Y007575D01*
X013690Y007650D01*
X013465Y007650D01*
X013465Y007500D01*
X013540Y007425D01*
X013690Y007425D01*
X013465Y007650D02*
X013615Y007800D01*
X013765Y007875D01*
X013690Y008425D02*
X013465Y008425D01*
X013465Y008875D01*
X013690Y008875D01*
X013765Y008800D01*
X013765Y008500D01*
X013690Y008425D01*
X013304Y008425D02*
X013304Y008875D01*
X013004Y008875D02*
X013004Y008425D01*
X012844Y008500D02*
X012844Y008650D01*
X012694Y008650D01*
X012844Y008500D02*
X012769Y008425D01*
X012619Y008425D01*
X012544Y008500D01*
X012544Y008800D01*
X012619Y008875D01*
X012769Y008875D01*
X012844Y008800D01*
X013004Y008875D02*
X013304Y008425D01*
X013154Y007875D02*
X013154Y007425D01*
X013004Y007425D02*
X013304Y007425D01*
X013004Y007725D02*
X013154Y007875D01*
X012844Y007800D02*
X012769Y007875D01*
X012619Y007875D01*
X012544Y007800D01*
X012544Y007500D01*
X012619Y007425D01*
X012769Y007425D01*
X012844Y007500D01*
X012844Y007800D01*
X012387Y007875D02*
X012237Y007875D01*
X012312Y007875D02*
X012312Y007425D01*
X012237Y007425D02*
X012387Y007425D01*
X011053Y007500D02*
X011053Y007800D01*
X010978Y007875D01*
X010828Y007875D01*
X010753Y007800D01*
X010753Y007725D01*
X010828Y007650D01*
X011053Y007650D01*
X011053Y007500D02*
X010978Y007425D01*
X010828Y007425D01*
X010753Y007500D01*
X010593Y007425D02*
X010292Y007425D01*
X010442Y007425D02*
X010442Y007875D01*
X010292Y007725D01*
X010132Y007800D02*
X010132Y007500D01*
X010057Y007425D01*
X009907Y007425D01*
X009832Y007500D01*
X009832Y007800D01*
X009907Y007875D01*
X010057Y007875D01*
X010132Y007800D01*
X009675Y007875D02*
X009525Y007875D01*
X009600Y007875D02*
X009600Y007425D01*
X009525Y007425D02*
X009675Y007425D01*
X009675Y006875D02*
X009525Y006875D01*
X009600Y006875D02*
X009600Y006425D01*
X009525Y006425D02*
X009675Y006425D01*
X009832Y006500D02*
X009832Y006800D01*
X009907Y006875D01*
X010057Y006875D01*
X010132Y006800D01*
X010132Y006500D01*
X010057Y006425D01*
X009907Y006425D01*
X009832Y006500D01*
X010292Y006425D02*
X010593Y006725D01*
X010593Y006800D01*
X010518Y006875D01*
X010367Y006875D01*
X010292Y006800D01*
X010292Y006425D02*
X010593Y006425D01*
X010753Y006500D02*
X010753Y006650D01*
X010978Y006650D01*
X011053Y006575D01*
X011053Y006500D01*
X010978Y006425D01*
X010828Y006425D01*
X010753Y006500D01*
X010753Y006650D02*
X010903Y006800D01*
X011053Y006875D01*
X010671Y005875D02*
X010446Y005875D01*
X010446Y005425D01*
X010671Y005425D01*
X010746Y005500D01*
X010746Y005800D01*
X010671Y005875D01*
X010286Y005875D02*
X010286Y005425D01*
X009985Y005875D01*
X009985Y005425D01*
X009825Y005500D02*
X009825Y005650D01*
X009675Y005650D01*
X009525Y005500D02*
X009600Y005425D01*
X009750Y005425D01*
X009825Y005500D01*
X009825Y005800D02*
X009750Y005875D01*
X009600Y005875D01*
X009525Y005800D01*
X009525Y005500D01*
X008287Y004075D02*
X008287Y003775D01*
X012584Y003775D02*
X012584Y004225D01*
X010978Y008425D02*
X010828Y008425D01*
X010753Y008500D01*
X010593Y008425D02*
X010292Y008425D01*
X010442Y008425D02*
X010442Y008875D01*
X010292Y008725D01*
X010132Y008800D02*
X010132Y008500D01*
X010057Y008425D01*
X009907Y008425D01*
X009832Y008500D01*
X009832Y008800D01*
X009907Y008875D01*
X010057Y008875D01*
X010132Y008800D01*
X009675Y008875D02*
X009525Y008875D01*
X009600Y008875D02*
X009600Y008425D01*
X009525Y008425D02*
X009675Y008425D01*
X009675Y009425D02*
X009525Y009425D01*
X009600Y009425D02*
X009600Y009875D01*
X009525Y009875D02*
X009675Y009875D01*
X009832Y009800D02*
X009832Y009500D01*
X009907Y009425D01*
X010057Y009425D01*
X010132Y009500D01*
X010132Y009800D01*
X010057Y009875D01*
X009907Y009875D01*
X009832Y009800D01*
X010292Y009650D02*
X010292Y009500D01*
X010367Y009425D01*
X010518Y009425D01*
X010593Y009500D01*
X010593Y009575D01*
X010518Y009650D01*
X010292Y009650D01*
X010442Y009800D01*
X010593Y009875D01*
X010518Y010425D02*
X010367Y010425D01*
X010292Y010500D01*
X010292Y010650D02*
X010442Y010725D01*
X010518Y010725D01*
X010593Y010650D01*
X010593Y010500D01*
X010518Y010425D01*
X010292Y010650D02*
X010292Y010875D01*
X010593Y010875D01*
X010132Y010800D02*
X010132Y010500D01*
X010057Y010425D01*
X009907Y010425D01*
X009832Y010500D01*
X009832Y010800D01*
X009907Y010875D01*
X010057Y010875D01*
X010132Y010800D01*
X009675Y010875D02*
X009525Y010875D01*
X009600Y010875D02*
X009600Y010425D01*
X009525Y010425D02*
X009675Y010425D01*
X009675Y011425D02*
X009525Y011425D01*
X009600Y011425D02*
X009600Y011875D01*
X009525Y011875D02*
X009675Y011875D01*
X009832Y011875D02*
X009832Y011425D01*
X010057Y011425D01*
X010132Y011500D01*
X010132Y011800D01*
X010057Y011875D01*
X009832Y011875D01*
X010292Y011500D02*
X010367Y011500D01*
X010367Y011425D01*
X010292Y011425D01*
X010292Y011500D01*
X010523Y011500D02*
X010598Y011425D01*
X010748Y011425D01*
X010823Y011500D01*
X010823Y011575D01*
X010748Y011650D01*
X010598Y011650D01*
X010523Y011725D01*
X010523Y011800D01*
X010598Y011875D01*
X010748Y011875D01*
X010823Y011800D01*
X010983Y011875D02*
X010983Y011425D01*
X011208Y011425D01*
X011283Y011500D01*
X011283Y011800D01*
X011208Y011875D01*
X010983Y011875D01*
X010671Y012425D02*
X010446Y012425D01*
X010446Y012875D01*
X010671Y012875D01*
X010746Y012800D01*
X010746Y012500D01*
X010671Y012425D01*
X010286Y012425D02*
X010286Y012875D01*
X009985Y012875D02*
X010286Y012425D01*
X009985Y012425D02*
X009985Y012875D01*
X009825Y012800D02*
X009750Y012875D01*
X009600Y012875D01*
X009525Y012800D01*
X009525Y012500D01*
X009600Y012425D01*
X009750Y012425D01*
X009825Y012500D01*
X009825Y012650D01*
X009675Y012650D01*
X009675Y013425D02*
X009525Y013425D01*
X009600Y013425D02*
X009600Y013875D01*
X009525Y013875D02*
X009675Y013875D01*
X009832Y013800D02*
X009832Y013500D01*
X009907Y013425D01*
X010057Y013425D01*
X010132Y013500D01*
X010132Y013800D01*
X010057Y013875D01*
X009907Y013875D01*
X009832Y013800D01*
X010292Y013725D02*
X010442Y013875D01*
X010442Y013425D01*
X010292Y013425D02*
X010593Y013425D01*
X010753Y013425D02*
X011053Y013425D01*
X010903Y013425D02*
X010903Y013875D01*
X010753Y013725D01*
X010518Y014425D02*
X010367Y014425D01*
X010292Y014500D01*
X010132Y014500D02*
X010132Y014800D01*
X010057Y014875D01*
X009907Y014875D01*
X009832Y014800D01*
X009832Y014500D01*
X009907Y014425D01*
X010057Y014425D01*
X010132Y014500D01*
X010292Y014725D02*
X010367Y014650D01*
X010593Y014650D01*
X010593Y014500D02*
X010593Y014800D01*
X010518Y014875D01*
X010367Y014875D01*
X010292Y014800D01*
X010292Y014725D01*
X010518Y014425D02*
X010593Y014500D01*
X010593Y015425D02*
X010292Y015425D01*
X010442Y015425D02*
X010442Y015875D01*
X010292Y015725D01*
X010132Y015800D02*
X010132Y015500D01*
X010057Y015425D01*
X009907Y015425D01*
X009832Y015500D01*
X009832Y015800D01*
X009907Y015875D01*
X010057Y015875D01*
X010132Y015800D01*
X009675Y015875D02*
X009525Y015875D01*
X009600Y015875D02*
X009600Y015425D01*
X009525Y015425D02*
X009675Y015425D01*
X009675Y014875D02*
X009525Y014875D01*
X009600Y014875D02*
X009600Y014425D01*
X009525Y014425D02*
X009675Y014425D01*
X010753Y015500D02*
X010753Y015800D01*
X010828Y015875D01*
X010978Y015875D01*
X011053Y015800D01*
X010753Y015500D01*
X010828Y015425D01*
X010978Y015425D01*
X011053Y015500D01*
X011053Y015800D01*
X010671Y016425D02*
X010521Y016425D01*
X010446Y016500D01*
X010286Y016575D02*
X010286Y016875D01*
X010446Y016800D02*
X010521Y016875D01*
X010671Y016875D01*
X010746Y016800D01*
X010746Y016725D01*
X010671Y016650D01*
X010746Y016575D01*
X010746Y016500D01*
X010671Y016425D01*
X010671Y016650D02*
X010596Y016650D01*
X010286Y016575D02*
X010136Y016425D01*
X009985Y016575D01*
X009985Y016875D01*
X009825Y016800D02*
X009825Y016725D01*
X009750Y016650D01*
X009825Y016575D01*
X009825Y016500D01*
X009750Y016425D01*
X009600Y016425D01*
X009525Y016500D01*
X009675Y016650D02*
X009750Y016650D01*
X009825Y016800D02*
X009750Y016875D01*
X009600Y016875D01*
X009525Y016800D01*
X009525Y017425D02*
X009675Y017425D01*
X009600Y017425D02*
X009600Y017875D01*
X009525Y017875D02*
X009675Y017875D01*
X009832Y017800D02*
X009832Y017500D01*
X009907Y017425D01*
X010057Y017425D01*
X010132Y017500D01*
X010132Y017800D01*
X010057Y017875D01*
X009907Y017875D01*
X009832Y017800D01*
X010292Y017800D02*
X010367Y017875D01*
X010518Y017875D01*
X010593Y017800D01*
X010593Y017725D01*
X010292Y017425D01*
X010593Y017425D01*
X010753Y017425D02*
X011053Y017725D01*
X011053Y017800D01*
X010978Y017875D01*
X010828Y017875D01*
X010753Y017800D01*
X010753Y017425D02*
X011053Y017425D01*
X010753Y018425D02*
X010753Y018500D01*
X011053Y018800D01*
X011053Y018875D01*
X010753Y018875D01*
X010593Y018800D02*
X010518Y018875D01*
X010367Y018875D01*
X010292Y018800D01*
X010132Y018800D02*
X010132Y018500D01*
X010057Y018425D01*
X009907Y018425D01*
X009832Y018500D01*
X009832Y018800D01*
X009907Y018875D01*
X010057Y018875D01*
X010132Y018800D01*
X010292Y018425D02*
X010593Y018725D01*
X010593Y018800D01*
X010593Y018425D02*
X010292Y018425D01*
X009675Y018425D02*
X009525Y018425D01*
X009600Y018425D02*
X009600Y018875D01*
X009525Y018875D02*
X009675Y018875D01*
X009675Y019425D02*
X009525Y019425D01*
X009600Y019425D02*
X009600Y019875D01*
X009525Y019875D02*
X009675Y019875D01*
X009832Y019800D02*
X009832Y019500D01*
X009907Y019425D01*
X010057Y019425D01*
X010132Y019500D01*
X010132Y019800D01*
X010057Y019875D01*
X009907Y019875D01*
X009832Y019800D01*
X010292Y019725D02*
X010442Y019875D01*
X010442Y019425D01*
X010292Y019425D02*
X010593Y019425D01*
X010753Y019425D02*
X010753Y019500D01*
X011053Y019800D01*
X011053Y019875D01*
X010753Y019875D01*
X010671Y020425D02*
X010446Y020425D01*
X010446Y020875D01*
X010671Y020875D01*
X010746Y020800D01*
X010746Y020500D01*
X010671Y020425D01*
X010286Y020425D02*
X010286Y020875D01*
X009985Y020875D02*
X009985Y020425D01*
X009825Y020500D02*
X009825Y020650D01*
X009675Y020650D01*
X009525Y020800D02*
X009525Y020500D01*
X009600Y020425D01*
X009750Y020425D01*
X009825Y020500D01*
X009825Y020800D02*
X009750Y020875D01*
X009600Y020875D01*
X009525Y020800D01*
X009985Y020875D02*
X010286Y020425D01*
X010057Y021425D02*
X009907Y021425D01*
X009832Y021500D01*
X009832Y021800D01*
X009907Y021875D01*
X010057Y021875D01*
X010132Y021800D01*
X010132Y021500D01*
X010057Y021425D01*
X010292Y021650D02*
X010593Y021650D01*
X010518Y021425D02*
X010518Y021875D01*
X010292Y021650D01*
X009675Y021425D02*
X009525Y021425D01*
X009600Y021425D02*
X009600Y021875D01*
X009525Y021875D02*
X009675Y021875D01*
X009675Y022425D02*
X009525Y022425D01*
X009600Y022425D02*
X009600Y022875D01*
X009525Y022875D02*
X009675Y022875D01*
X009832Y022800D02*
X009832Y022500D01*
X009907Y022425D01*
X010057Y022425D01*
X010132Y022500D01*
X010132Y022800D01*
X010057Y022875D01*
X009907Y022875D01*
X009832Y022800D01*
X010292Y022800D02*
X010367Y022875D01*
X010518Y022875D01*
X010593Y022800D01*
X010593Y022725D01*
X010518Y022650D01*
X010593Y022575D01*
X010593Y022500D01*
X010518Y022425D01*
X010367Y022425D01*
X010292Y022500D01*
X010442Y022650D02*
X010518Y022650D01*
X010593Y023425D02*
X010292Y023425D01*
X010593Y023725D01*
X010593Y023800D01*
X010518Y023875D01*
X010367Y023875D01*
X010292Y023800D01*
X010132Y023800D02*
X010057Y023875D01*
X009907Y023875D01*
X009832Y023800D01*
X009832Y023500D01*
X009907Y023425D01*
X010057Y023425D01*
X010132Y023500D01*
X010132Y023800D01*
X009675Y023875D02*
X009525Y023875D01*
X009600Y023875D02*
X009600Y023425D01*
X009525Y023425D02*
X009675Y023425D01*
X009600Y024425D02*
X009525Y024500D01*
X009600Y024425D02*
X009750Y024425D01*
X009825Y024500D01*
X009825Y024575D01*
X009750Y024650D01*
X009675Y024650D01*
X009750Y024650D02*
X009825Y024725D01*
X009825Y024800D01*
X009750Y024875D01*
X009600Y024875D01*
X009525Y024800D01*
X009985Y024875D02*
X009985Y024575D01*
X010136Y024425D01*
X010286Y024575D01*
X010286Y024875D01*
X010446Y024800D02*
X010521Y024875D01*
X010671Y024875D01*
X010746Y024800D01*
X010746Y024725D01*
X010671Y024650D01*
X010746Y024575D01*
X010746Y024500D01*
X010671Y024425D01*
X010521Y024425D01*
X010446Y024500D01*
X010596Y024650D02*
X010671Y024650D01*
X012544Y022800D02*
X012544Y022500D01*
X012619Y022425D01*
X012769Y022425D01*
X012844Y022500D01*
X012844Y022650D01*
X012694Y022650D01*
X012844Y022800D02*
X012769Y022875D01*
X012619Y022875D01*
X012544Y022800D01*
X013004Y022875D02*
X013004Y022425D01*
X013304Y022425D02*
X013004Y022875D01*
X013304Y022875D02*
X013304Y022425D01*
X013465Y022425D02*
X013690Y022425D01*
X013765Y022500D01*
X013765Y022800D01*
X013690Y022875D01*
X013465Y022875D01*
X013465Y022425D01*
X013690Y021875D02*
X013465Y021650D01*
X013765Y021650D01*
X013690Y021425D02*
X013690Y021875D01*
X013154Y021875D02*
X013154Y021425D01*
X013004Y021425D02*
X013304Y021425D01*
X013004Y021725D02*
X013154Y021875D01*
X012844Y021800D02*
X012769Y021875D01*
X012619Y021875D01*
X012544Y021800D01*
X012544Y021500D01*
X012619Y021425D01*
X012769Y021425D01*
X012844Y021500D01*
X012844Y021800D01*
X012387Y021875D02*
X012237Y021875D01*
X012312Y021875D02*
X012312Y021425D01*
X012237Y021425D02*
X012387Y021425D01*
X012387Y020875D02*
X012237Y020875D01*
X012312Y020875D02*
X012312Y020425D01*
X012237Y020425D02*
X012387Y020425D01*
X012544Y020500D02*
X012619Y020425D01*
X012769Y020425D01*
X012844Y020500D01*
X012844Y020800D01*
X012769Y020875D01*
X012619Y020875D01*
X012544Y020800D01*
X012544Y020500D01*
X013004Y020425D02*
X013304Y020425D01*
X013154Y020425D02*
X013154Y020875D01*
X013004Y020725D01*
X013465Y020650D02*
X013615Y020725D01*
X013690Y020725D01*
X013765Y020650D01*
X013765Y020500D01*
X013690Y020425D01*
X013540Y020425D01*
X013465Y020500D01*
X013465Y020650D02*
X013465Y020875D01*
X013765Y020875D01*
X013690Y019875D02*
X013765Y019800D01*
X013765Y019725D01*
X013690Y019650D01*
X013540Y019650D01*
X013465Y019725D01*
X013465Y019800D01*
X013540Y019875D01*
X013690Y019875D01*
X013690Y019650D02*
X013765Y019575D01*
X013765Y019500D01*
X013690Y019425D01*
X013540Y019425D01*
X013465Y019500D01*
X013465Y019575D01*
X013540Y019650D01*
X013304Y019425D02*
X013004Y019425D01*
X013154Y019425D02*
X013154Y019875D01*
X013004Y019725D01*
X012844Y019800D02*
X012844Y019500D01*
X012769Y019425D01*
X012619Y019425D01*
X012544Y019500D01*
X012544Y019800D01*
X012619Y019875D01*
X012769Y019875D01*
X012844Y019800D01*
X012387Y019875D02*
X012237Y019875D01*
X012312Y019875D02*
X012312Y019425D01*
X012237Y019425D02*
X012387Y019425D01*
X012619Y018875D02*
X012544Y018800D01*
X012544Y018500D01*
X012619Y018425D01*
X012769Y018425D01*
X012844Y018500D01*
X012844Y018650D01*
X012694Y018650D01*
X012844Y018800D02*
X012769Y018875D01*
X012619Y018875D01*
X013004Y018875D02*
X013304Y018425D01*
X013304Y018875D01*
X013465Y018875D02*
X013690Y018875D01*
X013765Y018800D01*
X013765Y018500D01*
X013690Y018425D01*
X013465Y018425D01*
X013465Y018875D01*
X013004Y018875D02*
X013004Y018425D01*
X013079Y017875D02*
X013004Y017800D01*
X013079Y017875D02*
X013229Y017875D01*
X013304Y017800D01*
X013304Y017725D01*
X013004Y017425D01*
X013304Y017425D01*
X013465Y017500D02*
X013540Y017425D01*
X013690Y017425D01*
X013765Y017500D01*
X013765Y017575D01*
X013690Y017650D01*
X013615Y017650D01*
X013690Y017650D02*
X013765Y017725D01*
X013765Y017800D01*
X013690Y017875D01*
X013540Y017875D01*
X013465Y017800D01*
X012844Y017800D02*
X012844Y017500D01*
X012769Y017425D01*
X012619Y017425D01*
X012544Y017500D01*
X012544Y017800D01*
X012619Y017875D01*
X012769Y017875D01*
X012844Y017800D01*
X012387Y017875D02*
X012237Y017875D01*
X012312Y017875D02*
X012312Y017425D01*
X012237Y017425D02*
X012387Y017425D01*
X012387Y016875D02*
X012237Y016875D01*
X012312Y016875D02*
X012312Y016425D01*
X012237Y016425D02*
X012387Y016425D01*
X012544Y016500D02*
X012619Y016425D01*
X012769Y016425D01*
X012844Y016500D01*
X012844Y016800D01*
X012769Y016875D01*
X012619Y016875D01*
X012544Y016800D01*
X012544Y016500D01*
X013004Y016425D02*
X013304Y016725D01*
X013304Y016800D01*
X013229Y016875D01*
X013079Y016875D01*
X013004Y016800D01*
X013004Y016425D02*
X013304Y016425D01*
X013465Y016650D02*
X013765Y016650D01*
X013690Y016425D02*
X013690Y016875D01*
X013465Y016650D01*
X013465Y015875D02*
X013690Y015875D01*
X013765Y015800D01*
X013765Y015500D01*
X013690Y015425D01*
X013465Y015425D01*
X013465Y015875D01*
X013304Y015875D02*
X013304Y015425D01*
X013004Y015875D01*
X013004Y015425D01*
X012844Y015500D02*
X012844Y015650D01*
X012694Y015650D01*
X012844Y015500D02*
X012769Y015425D01*
X012619Y015425D01*
X012544Y015500D01*
X012544Y015800D01*
X012619Y015875D01*
X012769Y015875D01*
X012844Y015800D01*
X012769Y014875D02*
X012844Y014800D01*
X012844Y014500D01*
X012769Y014425D01*
X012619Y014425D01*
X012544Y014500D01*
X012544Y014800D01*
X012619Y014875D01*
X012769Y014875D01*
X013004Y014800D02*
X013079Y014875D01*
X013229Y014875D01*
X013304Y014800D01*
X013304Y014725D01*
X013004Y014425D01*
X013304Y014425D01*
X013465Y014500D02*
X013540Y014425D01*
X013690Y014425D01*
X013765Y014500D01*
X013765Y014650D01*
X013690Y014725D01*
X013615Y014725D01*
X013465Y014650D01*
X013465Y014875D01*
X013765Y014875D01*
X013690Y013875D02*
X013765Y013800D01*
X013765Y013725D01*
X013690Y013650D01*
X013540Y013650D01*
X013465Y013725D01*
X013465Y013800D01*
X013540Y013875D01*
X013690Y013875D01*
X013690Y013650D02*
X013765Y013575D01*
X013765Y013500D01*
X013690Y013425D01*
X013540Y013425D01*
X013465Y013500D01*
X013465Y013575D01*
X013540Y013650D01*
X013304Y013500D02*
X013304Y013800D01*
X013229Y013875D01*
X013079Y013875D01*
X013004Y013800D01*
X013004Y013500D01*
X013079Y013425D01*
X013229Y013425D01*
X013304Y013500D01*
X012847Y013425D02*
X012697Y013425D01*
X012772Y013425D02*
X012772Y013875D01*
X012697Y013875D02*
X012847Y013875D01*
X012387Y014425D02*
X012237Y014425D01*
X012312Y014425D02*
X012312Y014875D01*
X012237Y014875D02*
X012387Y014875D01*
X012697Y012875D02*
X012847Y012875D01*
X012772Y012875D02*
X012772Y012425D01*
X012697Y012425D02*
X012847Y012425D01*
X013004Y012500D02*
X013079Y012425D01*
X013229Y012425D01*
X013304Y012500D01*
X013304Y012800D01*
X013229Y012875D01*
X013079Y012875D01*
X013004Y012800D01*
X013004Y012500D01*
X013465Y012500D02*
X013465Y012425D01*
X013465Y012500D02*
X013765Y012800D01*
X013765Y012875D01*
X013465Y012875D01*
X013540Y011875D02*
X013465Y011800D01*
X013465Y011500D01*
X013540Y011425D01*
X013690Y011425D01*
X013765Y011500D01*
X013765Y011800D02*
X013690Y011875D01*
X013540Y011875D01*
X013304Y011800D02*
X013229Y011875D01*
X013079Y011875D01*
X013004Y011800D01*
X013004Y011725D01*
X013079Y011650D01*
X013229Y011650D01*
X013304Y011575D01*
X013304Y011500D01*
X013229Y011425D01*
X013079Y011425D01*
X013004Y011500D01*
X012849Y011500D02*
X012849Y011425D01*
X012774Y011425D01*
X012774Y011500D01*
X012849Y011500D01*
X012614Y011500D02*
X012614Y011800D01*
X012539Y011875D01*
X012314Y011875D01*
X012314Y011425D01*
X012539Y011425D01*
X012614Y011500D01*
X012157Y011425D02*
X012007Y011425D01*
X012082Y011425D02*
X012082Y011875D01*
X012007Y011875D02*
X012157Y011875D01*
X012619Y010875D02*
X012544Y010800D01*
X012544Y010500D01*
X012619Y010425D01*
X012769Y010425D01*
X012844Y010500D01*
X012844Y010650D01*
X012694Y010650D01*
X012844Y010800D02*
X012769Y010875D01*
X012619Y010875D01*
X013004Y010875D02*
X013004Y010425D01*
X013304Y010425D02*
X013004Y010875D01*
X013304Y010875D02*
X013304Y010425D01*
X013465Y010425D02*
X013690Y010425D01*
X013765Y010500D01*
X013765Y010800D01*
X013690Y010875D01*
X013465Y010875D01*
X013465Y010425D01*
X013540Y009875D02*
X013465Y009800D01*
X013540Y009875D02*
X013690Y009875D01*
X013765Y009800D01*
X013765Y009725D01*
X013465Y009425D01*
X013765Y009425D01*
X013304Y009425D02*
X013004Y009425D01*
X013154Y009425D02*
X013154Y009875D01*
X013004Y009725D01*
X012844Y009800D02*
X012769Y009875D01*
X012619Y009875D01*
X012544Y009800D01*
X012544Y009500D01*
X012619Y009425D01*
X012769Y009425D01*
X012844Y009500D01*
X012844Y009800D01*
X012387Y009875D02*
X012237Y009875D01*
X012312Y009875D02*
X012312Y009425D01*
X012237Y009425D02*
X012387Y009425D01*
X011053Y008800D02*
X011053Y008725D01*
X010978Y008650D01*
X011053Y008575D01*
X011053Y008500D01*
X010978Y008425D01*
X010978Y008650D02*
X010903Y008650D01*
X011053Y008800D02*
X010978Y008875D01*
X010828Y008875D01*
X010753Y008800D01*
X021615Y002525D02*
X021765Y002675D01*
X021765Y002225D01*
X021615Y002225D02*
X021915Y002225D01*
X013615Y023425D02*
X013765Y023575D01*
X013765Y023875D01*
X013465Y023875D02*
X013465Y023575D01*
X013615Y023425D01*
X013304Y023500D02*
X013304Y023650D01*
X013229Y023725D01*
X013154Y023725D01*
X013004Y023650D01*
X013004Y023875D01*
X013304Y023875D01*
X013304Y023500D02*
X013229Y023425D01*
X013079Y023425D01*
X013004Y023500D01*
X013079Y024425D02*
X013004Y024500D01*
X013079Y024425D02*
X013229Y024425D01*
X013304Y024500D01*
X013304Y024650D01*
X013229Y024725D01*
X013154Y024725D01*
X013004Y024650D01*
X013004Y024875D01*
X013304Y024875D01*
X013465Y024875D02*
X013465Y024575D01*
X013615Y024425D01*
X013765Y024575D01*
X013765Y024875D01*
D11*
X011500Y025150D02*
X011500Y004950D01*
X020800Y003900D02*
X021550Y003900D01*
D12*
X002612Y003820D02*
X002399Y003820D01*
X002505Y003820D02*
X002505Y004140D01*
X002399Y004034D01*
X002286Y003873D02*
X002286Y003820D01*
X002233Y003820D01*
X002233Y003873D01*
X002286Y003873D01*
X002115Y003820D02*
X001901Y003820D01*
X002008Y003820D02*
X002008Y004140D01*
X001901Y004034D01*
X001784Y004034D02*
X001677Y003820D01*
X001570Y004034D01*
D13*
X000150Y003600D02*
X000150Y000180D01*
X023150Y000180D01*
X023150Y003600D01*
X012150Y003600D01*
X012150Y003200D01*
X011150Y003200D01*
X011150Y003600D01*
X000150Y003600D01*
X008150Y005150D02*
X009150Y005150D01*
X009150Y025150D01*
X008150Y025150D01*
X008150Y005150D01*
X014150Y005150D02*
X015150Y005150D01*
X015150Y025150D01*
X014150Y025150D01*
X014150Y005150D01*
D14*
X010476Y005148D02*
X009700Y005148D01*
X009700Y005140D02*
X010476Y005140D01*
X010476Y005131D02*
X009700Y005131D01*
X009700Y005123D02*
X010476Y005123D01*
X010476Y005114D02*
X009700Y005114D01*
X009700Y005106D02*
X010476Y005106D01*
X010476Y005097D02*
X009700Y005097D01*
X009700Y005089D02*
X010476Y005089D01*
X010476Y005080D02*
X009700Y005080D01*
X009700Y005072D02*
X010476Y005072D01*
X010476Y005063D02*
X009700Y005063D01*
X009700Y005055D02*
X010020Y005055D01*
X010026Y005060D02*
X009998Y005034D01*
X009998Y004942D01*
X009976Y004942D01*
X009976Y004920D01*
X009998Y004920D01*
X010172Y004920D01*
X010172Y004936D01*
X009972Y004936D01*
X009972Y004918D01*
X009924Y004878D01*
X009924Y004596D01*
X009974Y004570D01*
X009974Y004300D01*
X009700Y004300D01*
X009700Y005228D01*
X010476Y005228D01*
X010476Y004298D01*
X010202Y004298D01*
X010202Y004572D01*
X010252Y004596D01*
X010252Y004880D01*
X010204Y004920D01*
X010174Y004920D01*
X010174Y005038D01*
X010152Y005060D01*
X010026Y005060D01*
X010011Y005046D02*
X009700Y005046D01*
X009700Y005038D02*
X010002Y005038D01*
X009998Y005029D02*
X009700Y005029D01*
X009700Y005021D02*
X009998Y005021D01*
X009998Y005012D02*
X009700Y005012D01*
X009700Y005004D02*
X009998Y005004D01*
X009998Y004995D02*
X009700Y004995D01*
X009700Y004987D02*
X009998Y004987D01*
X009998Y004978D02*
X009700Y004978D01*
X009700Y004970D02*
X009998Y004970D01*
X009998Y004961D02*
X009700Y004961D01*
X009700Y004953D02*
X009998Y004953D01*
X009998Y004944D02*
X009700Y004944D01*
X009700Y004936D02*
X009972Y004936D01*
X009976Y004936D02*
X010172Y004936D01*
X010174Y004936D02*
X010476Y004936D01*
X010476Y004944D02*
X010174Y004944D01*
X010174Y004953D02*
X010476Y004953D01*
X010476Y004961D02*
X010174Y004961D01*
X010174Y004970D02*
X010476Y004970D01*
X010476Y004978D02*
X010174Y004978D01*
X010174Y004987D02*
X010476Y004987D01*
X010476Y004995D02*
X010174Y004995D01*
X010174Y005004D02*
X010476Y005004D01*
X010476Y005012D02*
X010174Y005012D01*
X010174Y005021D02*
X010476Y005021D01*
X010476Y005029D02*
X010174Y005029D01*
X010174Y005038D02*
X010476Y005038D01*
X010476Y005046D02*
X010166Y005046D01*
X010157Y005055D02*
X010476Y005055D01*
X010476Y005157D02*
X009700Y005157D01*
X009700Y005165D02*
X010476Y005165D01*
X010476Y005174D02*
X009700Y005174D01*
X009700Y005182D02*
X010476Y005182D01*
X010476Y005191D02*
X009700Y005191D01*
X009700Y005199D02*
X010476Y005199D01*
X010476Y005208D02*
X009700Y005208D01*
X009700Y005216D02*
X010476Y005216D01*
X010476Y005225D02*
X009700Y005225D01*
X009700Y004927D02*
X009972Y004927D01*
X009976Y004927D02*
X010172Y004927D01*
X010174Y004927D02*
X010476Y004927D01*
X010476Y004919D02*
X010206Y004919D01*
X010216Y004910D02*
X010476Y004910D01*
X010476Y004902D02*
X010226Y004902D01*
X010236Y004893D02*
X010476Y004893D01*
X010476Y004885D02*
X010246Y004885D01*
X010252Y004876D02*
X010476Y004876D01*
X010476Y004868D02*
X010252Y004868D01*
X010252Y004859D02*
X010476Y004859D01*
X010476Y004851D02*
X010252Y004851D01*
X010252Y004842D02*
X010476Y004842D01*
X010476Y004834D02*
X010252Y004834D01*
X010252Y004825D02*
X010476Y004825D01*
X010476Y004817D02*
X010252Y004817D01*
X010252Y004808D02*
X010476Y004808D01*
X010476Y004800D02*
X010252Y004800D01*
X010252Y004791D02*
X010476Y004791D01*
X010476Y004783D02*
X010252Y004783D01*
X010252Y004774D02*
X010476Y004774D01*
X010476Y004766D02*
X010252Y004766D01*
X010252Y004757D02*
X010476Y004757D01*
X010476Y004749D02*
X010252Y004749D01*
X010252Y004740D02*
X010476Y004740D01*
X010476Y004732D02*
X010252Y004732D01*
X010252Y004723D02*
X010476Y004723D01*
X010476Y004715D02*
X010252Y004715D01*
X010252Y004706D02*
X010476Y004706D01*
X010476Y004698D02*
X010252Y004698D01*
X010252Y004689D02*
X010476Y004689D01*
X010476Y004681D02*
X010252Y004681D01*
X010252Y004672D02*
X010476Y004672D01*
X010476Y004664D02*
X010252Y004664D01*
X010252Y004655D02*
X010476Y004655D01*
X010476Y004647D02*
X010252Y004647D01*
X010252Y004638D02*
X010476Y004638D01*
X010476Y004630D02*
X010252Y004630D01*
X010252Y004621D02*
X010476Y004621D01*
X010476Y004613D02*
X010252Y004613D01*
X010252Y004604D02*
X010476Y004604D01*
X010476Y004596D02*
X010251Y004596D01*
X010234Y004587D02*
X010476Y004587D01*
X010476Y004579D02*
X010216Y004579D01*
X010202Y004570D02*
X010476Y004570D01*
X010476Y004562D02*
X010202Y004562D01*
X010202Y004553D02*
X010476Y004553D01*
X010476Y004545D02*
X010202Y004545D01*
X010202Y004536D02*
X010476Y004536D01*
X010476Y004528D02*
X010202Y004528D01*
X010202Y004519D02*
X010476Y004519D01*
X010476Y004511D02*
X010202Y004511D01*
X010202Y004502D02*
X010476Y004502D01*
X010476Y004494D02*
X010202Y004494D01*
X010202Y004485D02*
X010476Y004485D01*
X010476Y004477D02*
X010202Y004477D01*
X010202Y004468D02*
X010476Y004468D01*
X010476Y004460D02*
X010202Y004460D01*
X010202Y004451D02*
X010476Y004451D01*
X010476Y004443D02*
X010202Y004443D01*
X010202Y004434D02*
X010476Y004434D01*
X010476Y004426D02*
X010202Y004426D01*
X010202Y004417D02*
X010476Y004417D01*
X010476Y004409D02*
X010202Y004409D01*
X010202Y004400D02*
X010476Y004400D01*
X010476Y004392D02*
X010202Y004392D01*
X010202Y004383D02*
X010476Y004383D01*
X010476Y004375D02*
X010202Y004375D01*
X010202Y004366D02*
X010476Y004366D01*
X010476Y004358D02*
X010202Y004358D01*
X010202Y004349D02*
X010476Y004349D01*
X010476Y004341D02*
X010202Y004341D01*
X010202Y004332D02*
X010476Y004332D01*
X010476Y004324D02*
X010202Y004324D01*
X010202Y004315D02*
X010476Y004315D01*
X010476Y004307D02*
X010202Y004307D01*
X010202Y004298D02*
X010476Y004298D01*
X009974Y004307D02*
X009700Y004307D01*
X009700Y004315D02*
X009974Y004315D01*
X009974Y004324D02*
X009700Y004324D01*
X009700Y004332D02*
X009974Y004332D01*
X009974Y004341D02*
X009700Y004341D01*
X009700Y004349D02*
X009974Y004349D01*
X009974Y004358D02*
X009700Y004358D01*
X009700Y004366D02*
X009974Y004366D01*
X009974Y004375D02*
X009700Y004375D01*
X009700Y004383D02*
X009974Y004383D01*
X009974Y004392D02*
X009700Y004392D01*
X009700Y004400D02*
X009974Y004400D01*
X009974Y004409D02*
X009700Y004409D01*
X009700Y004417D02*
X009974Y004417D01*
X009974Y004426D02*
X009700Y004426D01*
X009700Y004434D02*
X009974Y004434D01*
X009974Y004443D02*
X009700Y004443D01*
X009700Y004451D02*
X009974Y004451D01*
X009974Y004460D02*
X009700Y004460D01*
X009700Y004468D02*
X009974Y004468D01*
X009974Y004477D02*
X009700Y004477D01*
X009700Y004485D02*
X009974Y004485D01*
X009974Y004494D02*
X009700Y004494D01*
X009700Y004502D02*
X009974Y004502D01*
X009974Y004511D02*
X009700Y004511D01*
X009700Y004519D02*
X009974Y004519D01*
X009974Y004528D02*
X009700Y004528D01*
X009700Y004536D02*
X009974Y004536D01*
X009974Y004545D02*
X009700Y004545D01*
X009700Y004553D02*
X009974Y004553D01*
X009974Y004562D02*
X009700Y004562D01*
X009700Y004570D02*
X009974Y004570D01*
X009957Y004579D02*
X009700Y004579D01*
X009700Y004587D02*
X009941Y004587D01*
X009925Y004596D02*
X009700Y004596D01*
X009700Y004604D02*
X009924Y004604D01*
X009924Y004613D02*
X009700Y004613D01*
X009700Y004621D02*
X009924Y004621D01*
X009924Y004630D02*
X009700Y004630D01*
X009700Y004638D02*
X009924Y004638D01*
X009924Y004647D02*
X009700Y004647D01*
X009700Y004655D02*
X009924Y004655D01*
X009924Y004664D02*
X009700Y004664D01*
X009700Y004672D02*
X009924Y004672D01*
X009924Y004681D02*
X009700Y004681D01*
X009700Y004689D02*
X009924Y004689D01*
X009924Y004698D02*
X009700Y004698D01*
X009700Y004706D02*
X009924Y004706D01*
X009924Y004715D02*
X009700Y004715D01*
X009700Y004723D02*
X009924Y004723D01*
X009924Y004732D02*
X009700Y004732D01*
X009700Y004740D02*
X009924Y004740D01*
X009924Y004749D02*
X009700Y004749D01*
X009700Y004757D02*
X009924Y004757D01*
X009924Y004766D02*
X009700Y004766D01*
X009700Y004774D02*
X009924Y004774D01*
X009924Y004783D02*
X009700Y004783D01*
X009700Y004791D02*
X009924Y004791D01*
X009924Y004800D02*
X009700Y004800D01*
X009700Y004808D02*
X009924Y004808D01*
X009924Y004817D02*
X009700Y004817D01*
X009700Y004825D02*
X009924Y004825D01*
X009924Y004834D02*
X009700Y004834D01*
X009700Y004842D02*
X009924Y004842D01*
X009924Y004851D02*
X009700Y004851D01*
X009700Y004859D02*
X009924Y004859D01*
X009924Y004868D02*
X009700Y004868D01*
X009700Y004876D02*
X009924Y004876D01*
X009932Y004885D02*
X009700Y004885D01*
X009700Y004893D02*
X009942Y004893D01*
X009952Y004902D02*
X009700Y004902D01*
X009700Y004910D02*
X009963Y004910D01*
X009972Y004919D02*
X009700Y004919D01*
M02*
