G75*
%MOIN*%
%OFA0B0*%
%FSLAX24Y24*%
%IPPOS*%
%LPD*%
%AMOC8*
5,1,8,0,0,1.08239X$1,22.5*
%
%ADD10C,0.0010*%
%ADD11R,0.0740X0.0740*%
%ADD12C,0.0740*%
%ADD13C,0.0100*%
%ADD14C,0.0350*%
%ADD15C,0.0090*%
D10*
X000150Y000150D02*
X023150Y000150D01*
X023150Y003650D01*
X023148Y003710D01*
X023143Y003771D01*
X023134Y003830D01*
X023121Y003889D01*
X023105Y003948D01*
X023085Y004005D01*
X023062Y004060D01*
X023035Y004115D01*
X023006Y004167D01*
X022973Y004218D01*
X022937Y004267D01*
X022899Y004313D01*
X022857Y004357D01*
X022813Y004399D01*
X022767Y004437D01*
X022718Y004473D01*
X022667Y004506D01*
X022615Y004535D01*
X022560Y004562D01*
X022505Y004585D01*
X022448Y004605D01*
X022389Y004621D01*
X022330Y004634D01*
X022271Y004643D01*
X022210Y004648D01*
X022150Y004650D01*
X016150Y004650D01*
X016090Y004652D01*
X016029Y004657D01*
X015970Y004666D01*
X015911Y004679D01*
X015852Y004695D01*
X015795Y004715D01*
X015740Y004738D01*
X015685Y004765D01*
X015633Y004794D01*
X015582Y004827D01*
X015533Y004863D01*
X015487Y004901D01*
X015443Y004943D01*
X015401Y004987D01*
X015363Y005033D01*
X015327Y005082D01*
X015294Y005133D01*
X015265Y005185D01*
X015238Y005240D01*
X015215Y005295D01*
X015195Y005352D01*
X015179Y005411D01*
X015166Y005470D01*
X015157Y005529D01*
X015152Y005590D01*
X015150Y005650D01*
X015150Y025150D01*
X008150Y025150D01*
X008150Y005650D01*
X008148Y005590D01*
X008143Y005529D01*
X008134Y005470D01*
X008121Y005411D01*
X008105Y005352D01*
X008085Y005295D01*
X008062Y005240D01*
X008035Y005185D01*
X008006Y005133D01*
X007973Y005082D01*
X007937Y005033D01*
X007899Y004987D01*
X007857Y004943D01*
X007813Y004901D01*
X007767Y004863D01*
X007718Y004827D01*
X007667Y004794D01*
X007615Y004765D01*
X007560Y004738D01*
X007505Y004715D01*
X007448Y004695D01*
X007389Y004679D01*
X007330Y004666D01*
X007271Y004657D01*
X007210Y004652D01*
X007150Y004650D01*
X001150Y004650D01*
X001090Y004648D01*
X001029Y004643D01*
X000970Y004634D01*
X000911Y004621D01*
X000852Y004605D01*
X000795Y004585D01*
X000740Y004562D01*
X000685Y004535D01*
X000633Y004506D01*
X000582Y004473D01*
X000533Y004437D01*
X000487Y004399D01*
X000443Y004357D01*
X000401Y004313D01*
X000363Y004267D01*
X000327Y004218D01*
X000294Y004167D01*
X000265Y004115D01*
X000238Y004060D01*
X000215Y004005D01*
X000195Y003948D01*
X000179Y003889D01*
X000166Y003830D01*
X000157Y003771D01*
X000152Y003710D01*
X000150Y003650D01*
X000150Y000150D01*
D11*
X021150Y002400D03*
X008650Y024650D03*
D12*
X008650Y023650D03*
X008650Y022650D03*
X008650Y021650D03*
X008650Y020650D03*
X008650Y019650D03*
X008650Y018650D03*
X008650Y017650D03*
X008650Y016650D03*
X008650Y015650D03*
X008650Y014650D03*
X008650Y013650D03*
X008650Y012650D03*
X008650Y011650D03*
X008650Y010650D03*
X008650Y009650D03*
X008650Y008650D03*
X008650Y007650D03*
X008650Y006650D03*
X008650Y005650D03*
X008150Y002400D03*
X008150Y001400D03*
X007150Y001400D03*
X007150Y002400D03*
X006150Y002400D03*
X006150Y001400D03*
X005150Y001400D03*
X005150Y002400D03*
X004150Y002400D03*
X004150Y001400D03*
X003150Y001400D03*
X003150Y002400D03*
X002150Y002400D03*
X002150Y001400D03*
X009150Y001400D03*
X009150Y002400D03*
X010150Y002400D03*
X010150Y001400D03*
X011150Y001400D03*
X011150Y002400D03*
X012150Y002400D03*
X012150Y001400D03*
X013150Y001400D03*
X013150Y002400D03*
X014150Y002400D03*
X014150Y001400D03*
X015150Y001400D03*
X015150Y002400D03*
X016150Y002400D03*
X016150Y001400D03*
X017150Y001400D03*
X017150Y002400D03*
X018150Y002400D03*
X018150Y001400D03*
X019150Y001400D03*
X019150Y002400D03*
X020150Y002400D03*
X020150Y001400D03*
X021150Y001400D03*
X014650Y005650D03*
X014650Y006650D03*
X014650Y007650D03*
X014650Y008650D03*
X014650Y009650D03*
X014650Y010650D03*
X014650Y011650D03*
X014650Y012650D03*
X014650Y013650D03*
X014650Y014650D03*
X014650Y015650D03*
X014650Y016650D03*
X014650Y017650D03*
X014650Y018650D03*
X014650Y019650D03*
X014650Y020650D03*
X014650Y021650D03*
X014650Y022650D03*
X014650Y023650D03*
X014650Y024650D03*
D13*
X014650Y023650D01*
X014295Y023298D02*
X014080Y023298D01*
X014080Y023396D02*
X014214Y023396D01*
X014226Y023367D02*
X014367Y023226D01*
X014532Y023158D01*
X014528Y023157D01*
X014450Y023132D01*
X014377Y023095D01*
X014311Y023047D01*
X014253Y022989D01*
X014205Y022923D01*
X014168Y022850D01*
X014143Y022772D01*
X014131Y022700D01*
X014600Y022700D01*
X014600Y022600D01*
X014131Y022600D01*
X014143Y022528D01*
X014168Y022450D01*
X014205Y022377D01*
X014253Y022311D01*
X014311Y022253D01*
X014377Y022205D01*
X014450Y022168D01*
X014528Y022143D01*
X014532Y022142D01*
X014367Y022074D01*
X014226Y021933D01*
X014150Y021749D01*
X014150Y021551D01*
X014226Y021367D01*
X014367Y021226D01*
X014551Y021150D01*
X014367Y021074D01*
X014226Y020933D01*
X014150Y020749D01*
X014150Y020551D01*
X014226Y020367D01*
X014367Y020226D01*
X014551Y020150D01*
X014367Y020074D01*
X014226Y019933D01*
X014150Y019749D01*
X014150Y019551D01*
X014226Y019367D01*
X014367Y019226D01*
X014532Y019158D01*
X014528Y019157D01*
X014450Y019132D01*
X014377Y019095D01*
X014311Y019047D01*
X014253Y018989D01*
X014205Y018923D01*
X014168Y018850D01*
X014143Y018772D01*
X014131Y018700D01*
X014600Y018700D01*
X014600Y018600D01*
X014131Y018600D01*
X014143Y018528D01*
X014168Y018450D01*
X014205Y018377D01*
X014253Y018311D01*
X014311Y018253D01*
X014377Y018205D01*
X014450Y018168D01*
X014528Y018143D01*
X014532Y018142D01*
X014367Y018074D01*
X014226Y017933D01*
X014150Y017749D01*
X014150Y017551D01*
X014226Y017367D01*
X014367Y017226D01*
X014551Y017150D01*
X014367Y017074D01*
X014226Y016933D01*
X014150Y016749D01*
X014150Y016551D01*
X014226Y016367D01*
X014367Y016226D01*
X014532Y016158D01*
X014528Y016157D01*
X014450Y016132D01*
X014377Y016095D01*
X014311Y016047D01*
X014253Y015989D01*
X014205Y015923D01*
X014168Y015850D01*
X014143Y015772D01*
X014131Y015700D01*
X014600Y015700D01*
X014600Y015600D01*
X014131Y015600D01*
X014143Y015528D01*
X014168Y015450D01*
X014205Y015377D01*
X014253Y015311D01*
X014311Y015253D01*
X014377Y015205D01*
X014450Y015168D01*
X014528Y015143D01*
X014532Y015142D01*
X014367Y015074D01*
X014226Y014933D01*
X014150Y014749D01*
X014150Y014551D01*
X014226Y014367D01*
X014367Y014226D01*
X014551Y014150D01*
X014367Y014074D01*
X014226Y013933D01*
X014150Y013749D01*
X014150Y013551D01*
X014226Y013367D01*
X014367Y013226D01*
X014551Y013150D01*
X014367Y013074D01*
X014226Y012933D01*
X014150Y012749D01*
X014150Y012551D01*
X014226Y012367D01*
X014367Y012226D01*
X014551Y012150D01*
X014367Y012074D01*
X014226Y011933D01*
X014150Y011749D01*
X014150Y011551D01*
X014226Y011367D01*
X014367Y011226D01*
X014532Y011158D01*
X014528Y011157D01*
X014450Y011132D01*
X014377Y011095D01*
X014311Y011047D01*
X014253Y010989D01*
X014205Y010923D01*
X014168Y010850D01*
X014143Y010772D01*
X014131Y010700D01*
X014600Y010700D01*
X014600Y010600D01*
X014131Y010600D01*
X014143Y010528D01*
X014168Y010450D01*
X014205Y010377D01*
X014253Y010311D01*
X014311Y010253D01*
X014377Y010205D01*
X014450Y010168D01*
X014528Y010143D01*
X014532Y010142D01*
X014367Y010074D01*
X014226Y009933D01*
X014150Y009749D01*
X014150Y009551D01*
X014226Y009367D01*
X014367Y009226D01*
X014532Y009158D01*
X014528Y009157D01*
X014450Y009132D01*
X014377Y009095D01*
X014311Y009047D01*
X014253Y008989D01*
X014205Y008923D01*
X014168Y008850D01*
X014143Y008772D01*
X014131Y008700D01*
X014600Y008700D01*
X014600Y008600D01*
X014131Y008600D01*
X014143Y008528D01*
X014168Y008450D01*
X014205Y008377D01*
X014253Y008311D01*
X014311Y008253D01*
X014377Y008205D01*
X014450Y008168D01*
X014528Y008143D01*
X014532Y008142D01*
X014367Y008074D01*
X014226Y007933D01*
X014150Y007749D01*
X014150Y007551D01*
X014226Y007367D01*
X014367Y007226D01*
X014551Y007150D01*
X014367Y007074D01*
X014226Y006933D01*
X014150Y006749D01*
X014150Y006551D01*
X014226Y006367D01*
X014367Y006226D01*
X014551Y006150D01*
X014367Y006074D01*
X014226Y005933D01*
X014150Y005749D01*
X014150Y005551D01*
X014226Y005367D01*
X014367Y005226D01*
X014475Y005181D01*
X014475Y004856D01*
X014423Y004909D01*
X014311Y004955D01*
X014189Y004955D01*
X014080Y004910D01*
X014080Y024325D01*
X014195Y024441D01*
X014226Y024367D01*
X014367Y024226D01*
X014470Y024183D01*
X014470Y024117D01*
X014367Y024074D01*
X014226Y023933D01*
X014150Y023749D01*
X014150Y023551D01*
X014226Y023367D01*
X014173Y023495D02*
X014080Y023495D01*
X014080Y023593D02*
X014150Y023593D01*
X014150Y023692D02*
X014080Y023692D01*
X014080Y023790D02*
X014167Y023790D01*
X014208Y023889D02*
X014080Y023889D01*
X014080Y023987D02*
X014280Y023987D01*
X014395Y024086D02*
X014080Y024086D01*
X014080Y024184D02*
X014468Y024184D01*
X014310Y024283D02*
X014080Y024283D01*
X014136Y024381D02*
X014220Y024381D01*
X014150Y024650D02*
X013900Y024400D01*
X013900Y004350D01*
X014150Y004100D01*
X019500Y004100D01*
X019650Y003950D01*
X019650Y001900D01*
X020150Y001400D01*
X021150Y001400D01*
X021700Y001050D02*
X021450Y000800D01*
X004250Y000800D01*
X004150Y000900D01*
X004150Y001400D01*
X003806Y001037D02*
X003494Y001037D01*
X003433Y000976D02*
X003574Y001117D01*
X003650Y001301D01*
X003650Y001499D01*
X003574Y001683D01*
X003433Y001824D01*
X003249Y001900D01*
X003433Y001976D01*
X003574Y002117D01*
X003650Y002301D01*
X003650Y002499D01*
X003574Y002683D01*
X003433Y002824D01*
X003249Y002900D01*
X003051Y002900D01*
X002867Y002824D01*
X002726Y002683D01*
X002650Y002499D01*
X002650Y002301D01*
X002726Y002117D01*
X002867Y001976D01*
X003051Y001900D01*
X003249Y001900D01*
X003051Y001900D01*
X002867Y001824D01*
X002726Y001683D01*
X002650Y001499D01*
X002574Y001683D01*
X002433Y001824D01*
X002249Y001900D01*
X002051Y001900D01*
X001867Y001824D01*
X001726Y001683D01*
X001650Y001499D01*
X001650Y001301D01*
X001726Y001117D01*
X001867Y000976D01*
X001970Y000933D01*
X001970Y000525D01*
X002170Y000325D01*
X002210Y000285D01*
X000285Y000285D01*
X000285Y003650D01*
X000296Y003785D01*
X000379Y004043D01*
X000538Y004262D01*
X000757Y004421D01*
X001015Y004504D01*
X001150Y004515D01*
X007330Y004515D01*
X007672Y004626D01*
X007963Y004837D01*
X008174Y005128D01*
X008174Y005128D01*
X008240Y005330D01*
X008253Y005311D01*
X008311Y005253D01*
X008377Y005205D01*
X008450Y005168D01*
X008528Y005143D01*
X008600Y005131D01*
X008600Y005600D01*
X008700Y005600D01*
X008700Y005700D01*
X009169Y005700D01*
X009157Y005772D01*
X009132Y005850D01*
X009095Y005923D01*
X009047Y005989D01*
X008989Y006047D01*
X008923Y006095D01*
X008850Y006132D01*
X008772Y006157D01*
X008768Y006158D01*
X008933Y006226D01*
X009074Y006367D01*
X009090Y006406D01*
X009220Y006275D01*
X009220Y005175D01*
X009100Y005055D01*
X008989Y005055D01*
X008877Y005009D01*
X008791Y004923D01*
X008745Y004811D01*
X008745Y004689D01*
X008791Y004577D01*
X008877Y004491D01*
X008905Y004480D01*
X004375Y004480D01*
X004270Y004375D01*
X003970Y004075D01*
X003970Y002867D01*
X003867Y002824D01*
X003726Y002683D01*
X003650Y002499D01*
X003650Y002301D01*
X003726Y002117D01*
X003867Y001976D01*
X004051Y001900D01*
X004249Y001900D01*
X004433Y001976D01*
X004574Y002117D01*
X004650Y002301D01*
X004726Y002117D01*
X004867Y001976D01*
X005051Y001900D01*
X005249Y001900D01*
X005433Y001976D01*
X005574Y002117D01*
X005650Y002301D01*
X005726Y002117D01*
X005867Y001976D01*
X006051Y001900D01*
X006249Y001900D01*
X006433Y001976D01*
X006574Y002117D01*
X006650Y002301D01*
X006726Y002117D01*
X006763Y002080D01*
X006575Y002080D01*
X006470Y001975D01*
X006353Y001857D01*
X006249Y001900D01*
X006051Y001900D01*
X005867Y001824D01*
X005726Y001683D01*
X005650Y001499D01*
X005650Y001301D01*
X005726Y001117D01*
X005863Y000980D01*
X004437Y000980D01*
X004574Y001117D01*
X004650Y001301D01*
X004650Y001499D01*
X004574Y001683D01*
X004433Y001824D01*
X004249Y001900D01*
X004051Y001900D01*
X003867Y001824D01*
X003726Y001683D01*
X003650Y001499D01*
X003650Y001301D01*
X003726Y001117D01*
X003867Y000976D01*
X003970Y000933D01*
X003970Y000825D01*
X004015Y000780D01*
X003330Y000780D01*
X003330Y000933D01*
X003433Y000976D01*
X003341Y000938D02*
X003959Y000938D01*
X003970Y000840D02*
X003330Y000840D01*
X003150Y000600D02*
X021800Y000600D01*
X022150Y000950D01*
X022150Y003950D01*
X021800Y004300D01*
X014600Y004300D01*
X014250Y004650D01*
X014453Y004878D02*
X014475Y004878D01*
X014475Y004977D02*
X014080Y004977D01*
X014080Y005075D02*
X014475Y005075D01*
X014475Y005174D02*
X014080Y005174D01*
X014080Y005272D02*
X014321Y005272D01*
X014225Y005371D02*
X014080Y005371D01*
X014080Y005469D02*
X014184Y005469D01*
X014150Y005568D02*
X014080Y005568D01*
X014080Y005666D02*
X014150Y005666D01*
X014156Y005765D02*
X014080Y005765D01*
X014080Y005863D02*
X014197Y005863D01*
X014254Y005962D02*
X014080Y005962D01*
X014080Y006060D02*
X014353Y006060D01*
X014336Y006257D02*
X014080Y006257D01*
X014080Y006159D02*
X014530Y006159D01*
X014551Y006150D02*
X014749Y006150D01*
X014933Y006074D01*
X015015Y005992D01*
X015015Y006308D01*
X014933Y006226D01*
X014749Y006150D01*
X014551Y006150D01*
X014770Y006159D02*
X015015Y006159D01*
X015015Y006257D02*
X014964Y006257D01*
X014947Y006060D02*
X015015Y006060D01*
X014237Y006356D02*
X014080Y006356D01*
X014080Y006454D02*
X014190Y006454D01*
X014150Y006553D02*
X014080Y006553D01*
X014080Y006651D02*
X014150Y006651D01*
X014150Y006750D02*
X014080Y006750D01*
X014080Y006848D02*
X014191Y006848D01*
X014239Y006947D02*
X014080Y006947D01*
X014080Y007045D02*
X014338Y007045D01*
X014351Y007242D02*
X014080Y007242D01*
X014080Y007144D02*
X014535Y007144D01*
X014551Y007150D02*
X014749Y007150D01*
X014933Y007074D01*
X015015Y006992D01*
X015015Y007308D01*
X014933Y007226D01*
X014749Y007150D01*
X014551Y007150D01*
X014765Y007144D02*
X015015Y007144D01*
X015015Y007242D02*
X014949Y007242D01*
X014962Y007045D02*
X015015Y007045D01*
X014252Y007341D02*
X014080Y007341D01*
X014080Y007439D02*
X014196Y007439D01*
X014155Y007538D02*
X014080Y007538D01*
X014080Y007636D02*
X014150Y007636D01*
X014150Y007735D02*
X014080Y007735D01*
X014080Y007833D02*
X014185Y007833D01*
X014225Y007932D02*
X014080Y007932D01*
X014080Y008030D02*
X014323Y008030D01*
X014348Y008227D02*
X014080Y008227D01*
X014080Y008129D02*
X014499Y008129D01*
X014243Y008326D02*
X014080Y008326D01*
X014080Y008424D02*
X014182Y008424D01*
X014145Y008523D02*
X014080Y008523D01*
X014080Y008621D02*
X014600Y008621D01*
X014280Y009015D02*
X014080Y009015D01*
X014080Y008917D02*
X014202Y008917D01*
X014158Y008818D02*
X014080Y008818D01*
X014080Y008720D02*
X014135Y008720D01*
X014080Y009114D02*
X014414Y009114D01*
X014401Y009212D02*
X014080Y009212D01*
X014080Y009311D02*
X014282Y009311D01*
X014209Y009409D02*
X014080Y009409D01*
X014080Y009508D02*
X014168Y009508D01*
X014150Y009606D02*
X014080Y009606D01*
X014080Y009705D02*
X014150Y009705D01*
X014172Y009803D02*
X014080Y009803D01*
X014080Y009902D02*
X014213Y009902D01*
X014293Y010000D02*
X014080Y010000D01*
X014080Y010099D02*
X014426Y010099D01*
X014394Y010197D02*
X014080Y010197D01*
X014080Y010296D02*
X014269Y010296D01*
X014197Y010394D02*
X014080Y010394D01*
X014080Y010493D02*
X014154Y010493D01*
X014133Y010591D02*
X014080Y010591D01*
X014080Y010690D02*
X014600Y010690D01*
X014251Y010985D02*
X014080Y010985D01*
X014080Y010887D02*
X014187Y010887D01*
X014148Y010788D02*
X014080Y010788D01*
X014080Y011084D02*
X014362Y011084D01*
X014473Y011182D02*
X014080Y011182D01*
X014080Y011281D02*
X014312Y011281D01*
X014221Y011379D02*
X014080Y011379D01*
X014080Y011478D02*
X014180Y011478D01*
X014150Y011576D02*
X014080Y011576D01*
X014080Y011675D02*
X014150Y011675D01*
X014160Y011773D02*
X014080Y011773D01*
X014080Y011872D02*
X014201Y011872D01*
X014263Y011970D02*
X014080Y011970D01*
X014080Y012069D02*
X014361Y012069D01*
X014509Y012167D02*
X014080Y012167D01*
X014080Y012266D02*
X014327Y012266D01*
X014229Y012364D02*
X014080Y012364D01*
X014080Y012463D02*
X014186Y012463D01*
X014150Y012561D02*
X014080Y012561D01*
X014080Y012660D02*
X014150Y012660D01*
X014154Y012758D02*
X014080Y012758D01*
X014080Y012857D02*
X014194Y012857D01*
X014248Y012955D02*
X014080Y012955D01*
X014080Y013054D02*
X014346Y013054D01*
X014342Y013251D02*
X014080Y013251D01*
X014080Y013349D02*
X014244Y013349D01*
X014193Y013448D02*
X014080Y013448D01*
X014080Y013546D02*
X014152Y013546D01*
X014150Y013645D02*
X014080Y013645D01*
X014080Y013743D02*
X014150Y013743D01*
X014188Y013842D02*
X014080Y013842D01*
X014080Y013940D02*
X014233Y013940D01*
X014331Y014039D02*
X014080Y014039D01*
X014080Y014137D02*
X014519Y014137D01*
X014551Y014150D02*
X014749Y014150D01*
X014933Y014074D01*
X015015Y013992D01*
X015015Y014308D01*
X014933Y014226D01*
X014749Y014150D01*
X014551Y014150D01*
X014357Y014236D02*
X014080Y014236D01*
X014080Y014334D02*
X014259Y014334D01*
X014199Y014433D02*
X014080Y014433D01*
X014080Y014531D02*
X014158Y014531D01*
X014150Y014630D02*
X014080Y014630D01*
X014080Y014728D02*
X014150Y014728D01*
X014182Y014827D02*
X014080Y014827D01*
X014080Y014925D02*
X014223Y014925D01*
X014316Y015024D02*
X014080Y015024D01*
X014080Y015122D02*
X014483Y015122D01*
X014356Y015221D02*
X014080Y015221D01*
X014080Y015319D02*
X014248Y015319D01*
X014185Y015418D02*
X014080Y015418D01*
X014080Y015516D02*
X014147Y015516D01*
X014080Y015615D02*
X014600Y015615D01*
X014134Y015713D02*
X014080Y015713D01*
X014080Y015812D02*
X014156Y015812D01*
X014199Y015910D02*
X014080Y015910D01*
X014080Y016009D02*
X014273Y016009D01*
X014402Y016107D02*
X014080Y016107D01*
X014080Y016206D02*
X014416Y016206D01*
X014289Y016304D02*
X014080Y016304D01*
X014080Y016403D02*
X014211Y016403D01*
X014171Y016501D02*
X014080Y016501D01*
X014080Y016600D02*
X014150Y016600D01*
X014150Y016698D02*
X014080Y016698D01*
X014080Y016797D02*
X014170Y016797D01*
X014210Y016895D02*
X014080Y016895D01*
X014080Y016994D02*
X014286Y016994D01*
X014411Y017092D02*
X014080Y017092D01*
X014080Y017191D02*
X014453Y017191D01*
X014551Y017150D02*
X014749Y017150D01*
X014933Y017074D01*
X015015Y016992D01*
X015015Y017308D01*
X014933Y017226D01*
X014749Y017150D01*
X014551Y017150D01*
X014304Y017289D02*
X014080Y017289D01*
X014080Y017388D02*
X014218Y017388D01*
X014177Y017486D02*
X014080Y017486D01*
X014080Y017585D02*
X014150Y017585D01*
X014150Y017683D02*
X014080Y017683D01*
X014080Y017782D02*
X014163Y017782D01*
X014204Y017880D02*
X014080Y017880D01*
X014080Y017979D02*
X014271Y017979D01*
X014374Y018077D02*
X014080Y018077D01*
X014080Y018176D02*
X014436Y018176D01*
X014291Y018274D02*
X014080Y018274D01*
X014080Y018373D02*
X014209Y018373D01*
X014161Y018471D02*
X014080Y018471D01*
X014080Y018570D02*
X014136Y018570D01*
X014080Y018668D02*
X014600Y018668D01*
X014235Y018964D02*
X014080Y018964D01*
X014080Y019062D02*
X014332Y019062D01*
X014334Y019259D02*
X014080Y019259D01*
X014080Y019161D02*
X014525Y019161D01*
X014235Y019358D02*
X014080Y019358D01*
X014080Y019456D02*
X014189Y019456D01*
X014150Y019555D02*
X014080Y019555D01*
X014080Y019653D02*
X014150Y019653D01*
X014151Y019752D02*
X014080Y019752D01*
X014080Y019850D02*
X014192Y019850D01*
X014241Y019949D02*
X014080Y019949D01*
X014080Y020047D02*
X014340Y020047D01*
X014349Y020244D02*
X014080Y020244D01*
X014080Y020146D02*
X014540Y020146D01*
X014551Y020150D02*
X014749Y020150D01*
X014933Y020074D01*
X015015Y019992D01*
X015015Y020308D01*
X014933Y020226D01*
X014749Y020150D01*
X014551Y020150D01*
X014760Y020146D02*
X015015Y020146D01*
X015015Y020244D02*
X014951Y020244D01*
X014960Y020047D02*
X015015Y020047D01*
X014250Y020343D02*
X014080Y020343D01*
X014080Y020441D02*
X014195Y020441D01*
X014155Y020540D02*
X014080Y020540D01*
X014080Y020638D02*
X014150Y020638D01*
X014150Y020737D02*
X014080Y020737D01*
X014080Y020835D02*
X014185Y020835D01*
X014226Y020934D02*
X014080Y020934D01*
X014080Y021032D02*
X014325Y021032D01*
X014364Y021229D02*
X014080Y021229D01*
X014080Y021131D02*
X014504Y021131D01*
X014551Y021150D02*
X014749Y021150D01*
X014933Y021074D01*
X015015Y020992D01*
X015015Y021308D01*
X014933Y021226D01*
X014749Y021150D01*
X014551Y021150D01*
X014796Y021131D02*
X015015Y021131D01*
X015015Y021229D02*
X014936Y021229D01*
X014975Y021032D02*
X015015Y021032D01*
X014265Y021328D02*
X014080Y021328D01*
X014080Y021426D02*
X014202Y021426D01*
X014161Y021525D02*
X014080Y021525D01*
X014080Y021623D02*
X014150Y021623D01*
X014150Y021722D02*
X014080Y021722D01*
X014080Y021820D02*
X014179Y021820D01*
X014220Y021919D02*
X014080Y021919D01*
X014080Y022017D02*
X014310Y022017D01*
X014467Y022116D02*
X014080Y022116D01*
X014080Y022214D02*
X014365Y022214D01*
X014252Y022313D02*
X014080Y022313D01*
X014080Y022411D02*
X014188Y022411D01*
X014149Y022510D02*
X014080Y022510D01*
X014080Y022608D02*
X014600Y022608D01*
X014267Y023002D02*
X014080Y023002D01*
X014080Y022904D02*
X014196Y022904D01*
X014154Y022805D02*
X014080Y022805D01*
X014080Y022707D02*
X014132Y022707D01*
X014080Y023101D02*
X014389Y023101D01*
X014432Y023199D02*
X014080Y023199D01*
X013720Y023199D02*
X008868Y023199D01*
X008933Y023226D02*
X009074Y023367D01*
X009150Y023551D01*
X009150Y023749D01*
X009074Y023933D01*
X008933Y024074D01*
X008749Y024150D01*
X008551Y024150D01*
X008367Y024074D01*
X008285Y023992D01*
X008285Y024150D01*
X009074Y024150D01*
X009150Y024226D01*
X009150Y025015D01*
X014308Y025015D01*
X014226Y024933D01*
X014183Y024830D01*
X014075Y024830D01*
X013825Y024580D01*
X013720Y024475D01*
X013720Y022260D01*
X013611Y022305D01*
X013489Y022305D01*
X013377Y022259D01*
X013291Y022173D01*
X013245Y022061D01*
X013245Y021939D01*
X013291Y021827D01*
X013377Y021741D01*
X013489Y021695D01*
X013520Y021695D01*
X013520Y021310D01*
X013411Y021355D01*
X013289Y021355D01*
X013177Y021309D01*
X013091Y021223D01*
X013045Y021111D01*
X013045Y020989D01*
X013091Y020877D01*
X013177Y020791D01*
X013289Y020745D01*
X013320Y020745D01*
X013320Y020261D01*
X013273Y020309D01*
X013161Y020355D01*
X013039Y020355D01*
X012927Y020309D01*
X012841Y020223D01*
X012795Y020111D01*
X012795Y019989D01*
X012841Y019877D01*
X012927Y019791D01*
X013039Y019745D01*
X013120Y019745D01*
X013120Y018310D01*
X013011Y018355D01*
X012889Y018355D01*
X012777Y018309D01*
X012691Y018223D01*
X012645Y018111D01*
X012645Y017989D01*
X012691Y017877D01*
X012777Y017791D01*
X012889Y017745D01*
X012920Y017745D01*
X012920Y017310D01*
X012811Y017355D01*
X012689Y017355D01*
X012577Y017309D01*
X012491Y017223D01*
X012445Y017111D01*
X012445Y016989D01*
X012491Y016877D01*
X012577Y016791D01*
X012689Y016745D01*
X012720Y016745D01*
X012720Y015360D01*
X012611Y015405D01*
X012489Y015405D01*
X012377Y015359D01*
X012291Y015273D01*
X012245Y015161D01*
X012245Y015039D01*
X012291Y014927D01*
X012377Y014841D01*
X012489Y014795D01*
X012520Y014795D01*
X012520Y014410D01*
X012411Y014455D01*
X012289Y014455D01*
X012177Y014409D01*
X012091Y014323D01*
X012045Y014211D01*
X012045Y014089D01*
X012091Y013977D01*
X012177Y013891D01*
X012289Y013845D01*
X012320Y013845D01*
X012320Y013410D01*
X012211Y013455D01*
X012089Y013455D01*
X011977Y013409D01*
X011891Y013323D01*
X011845Y013211D01*
X011845Y013089D01*
X011891Y012977D01*
X011977Y012891D01*
X012089Y012845D01*
X012120Y012845D01*
X012120Y012245D01*
X012109Y012273D01*
X012023Y012359D01*
X011911Y012405D01*
X011789Y012405D01*
X011677Y012359D01*
X011591Y012273D01*
X011545Y012161D01*
X011545Y012039D01*
X011591Y011927D01*
X011677Y011841D01*
X011789Y011795D01*
X011900Y011795D01*
X011920Y011775D01*
X011920Y005811D01*
X011873Y005859D01*
X011761Y005905D01*
X011639Y005905D01*
X011530Y005860D01*
X011530Y021949D01*
X011609Y022027D01*
X011655Y022139D01*
X011655Y022261D01*
X011609Y022373D01*
X011523Y022459D01*
X011411Y022505D01*
X011289Y022505D01*
X011177Y022459D01*
X011091Y022373D01*
X011045Y022261D01*
X011045Y022139D01*
X011091Y022027D01*
X011170Y021949D01*
X011170Y004975D01*
X011245Y004900D01*
X011245Y004789D01*
X011291Y004677D01*
X011377Y004591D01*
X011489Y004545D01*
X011611Y004545D01*
X011720Y004590D01*
X011720Y003975D01*
X011225Y003480D01*
X010035Y003480D01*
X010475Y003920D01*
X010580Y004025D01*
X010580Y010725D01*
X009580Y011725D01*
X009475Y011830D01*
X009117Y011830D01*
X009074Y011933D01*
X008933Y012074D01*
X008768Y012142D01*
X008772Y012143D01*
X008850Y012168D01*
X008923Y012205D01*
X008989Y012253D01*
X009047Y012311D01*
X009095Y012377D01*
X009132Y012450D01*
X009157Y012528D01*
X009169Y012600D01*
X008700Y012600D01*
X008700Y012700D01*
X009169Y012700D01*
X009157Y012772D01*
X009132Y012850D01*
X009095Y012923D01*
X009047Y012989D01*
X008989Y013047D01*
X008923Y013095D01*
X008850Y013132D01*
X008772Y013157D01*
X008768Y013158D01*
X008933Y013226D01*
X009074Y013367D01*
X009150Y013551D01*
X009150Y013749D01*
X009074Y013933D01*
X008933Y014074D01*
X008749Y014150D01*
X008933Y014226D01*
X009074Y014367D01*
X009150Y014551D01*
X009150Y014749D01*
X009074Y014933D01*
X008933Y015074D01*
X008749Y015150D01*
X008933Y015226D01*
X009074Y015367D01*
X009150Y015551D01*
X009150Y015749D01*
X009074Y015933D01*
X008933Y016074D01*
X008749Y016150D01*
X008933Y016226D01*
X009074Y016367D01*
X009150Y016551D01*
X009150Y016749D01*
X009074Y016933D01*
X008933Y017074D01*
X008749Y017150D01*
X008933Y017226D01*
X009074Y017367D01*
X009150Y017551D01*
X009150Y017749D01*
X009074Y017933D01*
X008933Y018074D01*
X008749Y018150D01*
X008933Y018226D01*
X009074Y018367D01*
X009150Y018551D01*
X009150Y018749D01*
X009074Y018933D01*
X008933Y019074D01*
X008749Y019150D01*
X008933Y019226D01*
X009074Y019367D01*
X009150Y019551D01*
X009150Y019749D01*
X009074Y019933D01*
X008933Y020074D01*
X008768Y020142D01*
X008772Y020143D01*
X008850Y020168D01*
X008923Y020205D01*
X008989Y020253D01*
X009047Y020311D01*
X009095Y020377D01*
X009132Y020450D01*
X009157Y020528D01*
X009169Y020600D01*
X008700Y020600D01*
X008700Y020700D01*
X009169Y020700D01*
X009157Y020772D01*
X009132Y020850D01*
X009095Y020923D01*
X009047Y020989D01*
X008989Y021047D01*
X008923Y021095D01*
X008850Y021132D01*
X008772Y021157D01*
X008768Y021158D01*
X008933Y021226D01*
X009074Y021367D01*
X009150Y021551D01*
X009150Y021749D01*
X009074Y021933D01*
X008933Y022074D01*
X008749Y022150D01*
X008933Y022226D01*
X009074Y022367D01*
X009150Y022551D01*
X009150Y022749D01*
X009074Y022933D01*
X008933Y023074D01*
X008749Y023150D01*
X008933Y023226D01*
X009005Y023298D02*
X013720Y023298D01*
X013720Y023396D02*
X009086Y023396D01*
X009127Y023495D02*
X013720Y023495D01*
X013720Y023593D02*
X009150Y023593D01*
X009150Y023692D02*
X013720Y023692D01*
X013720Y023790D02*
X009133Y023790D01*
X009092Y023889D02*
X013720Y023889D01*
X013720Y023987D02*
X009020Y023987D01*
X008905Y024086D02*
X013720Y024086D01*
X013720Y024184D02*
X009108Y024184D01*
X009150Y024283D02*
X013720Y024283D01*
X013720Y024381D02*
X009150Y024381D01*
X009150Y024480D02*
X013725Y024480D01*
X013824Y024578D02*
X009150Y024578D01*
X009150Y024677D02*
X013922Y024677D01*
X014021Y024775D02*
X009150Y024775D01*
X009150Y024874D02*
X014201Y024874D01*
X014265Y024972D02*
X009150Y024972D01*
X008395Y024086D02*
X008285Y024086D01*
X008285Y023308D02*
X008367Y023226D01*
X008551Y023150D01*
X008749Y023150D01*
X008551Y023150D01*
X008367Y023074D01*
X008285Y022992D01*
X008285Y023308D01*
X008285Y023298D02*
X008295Y023298D01*
X008285Y023199D02*
X008432Y023199D01*
X008431Y023101D02*
X008285Y023101D01*
X008285Y023002D02*
X008295Y023002D01*
X008285Y022308D02*
X008367Y022226D01*
X008551Y022150D01*
X008749Y022150D01*
X008551Y022150D01*
X008367Y022074D01*
X008285Y021992D01*
X008285Y022308D01*
X008285Y022214D02*
X008396Y022214D01*
X008467Y022116D02*
X008285Y022116D01*
X008285Y022017D02*
X008310Y022017D01*
X008833Y022116D02*
X011055Y022116D01*
X011045Y022214D02*
X008904Y022214D01*
X009020Y022313D02*
X011066Y022313D01*
X011130Y022411D02*
X009092Y022411D01*
X009133Y022510D02*
X013720Y022510D01*
X013720Y022608D02*
X009150Y022608D01*
X009150Y022707D02*
X013720Y022707D01*
X013720Y022805D02*
X009127Y022805D01*
X009086Y022904D02*
X013720Y022904D01*
X013720Y023002D02*
X009005Y023002D01*
X008869Y023101D02*
X013720Y023101D01*
X013720Y022411D02*
X011570Y022411D01*
X011634Y022313D02*
X013720Y022313D01*
X013333Y022214D02*
X011655Y022214D01*
X011645Y022116D02*
X013268Y022116D01*
X013245Y022017D02*
X011598Y022017D01*
X011530Y021919D02*
X013254Y021919D01*
X013299Y021820D02*
X011530Y021820D01*
X011530Y021722D02*
X013425Y021722D01*
X013520Y021623D02*
X011530Y021623D01*
X011530Y021525D02*
X013520Y021525D01*
X013520Y021426D02*
X011530Y021426D01*
X011530Y021328D02*
X013223Y021328D01*
X013098Y021229D02*
X011530Y021229D01*
X011530Y021131D02*
X013053Y021131D01*
X013045Y021032D02*
X011530Y021032D01*
X011530Y020934D02*
X013068Y020934D01*
X013134Y020835D02*
X011530Y020835D01*
X011530Y020737D02*
X013320Y020737D01*
X013320Y020638D02*
X011530Y020638D01*
X011530Y020540D02*
X013320Y020540D01*
X013320Y020441D02*
X011530Y020441D01*
X011530Y020343D02*
X013009Y020343D01*
X012863Y020244D02*
X011530Y020244D01*
X011530Y020146D02*
X012809Y020146D01*
X012795Y020047D02*
X011530Y020047D01*
X011530Y019949D02*
X012812Y019949D01*
X012869Y019850D02*
X011530Y019850D01*
X011530Y019752D02*
X013024Y019752D01*
X013120Y019653D02*
X011530Y019653D01*
X011530Y019555D02*
X013120Y019555D01*
X013120Y019456D02*
X011530Y019456D01*
X011530Y019358D02*
X013120Y019358D01*
X013120Y019259D02*
X011530Y019259D01*
X011530Y019161D02*
X013120Y019161D01*
X013120Y019062D02*
X011530Y019062D01*
X011530Y018964D02*
X013120Y018964D01*
X013120Y018865D02*
X011530Y018865D01*
X011530Y018767D02*
X013120Y018767D01*
X013120Y018668D02*
X011530Y018668D01*
X011530Y018570D02*
X013120Y018570D01*
X013120Y018471D02*
X011530Y018471D01*
X011530Y018373D02*
X013120Y018373D01*
X012950Y018050D02*
X013100Y017900D01*
X013100Y003400D01*
X013200Y003300D01*
X015500Y003300D01*
X015650Y003150D01*
X015650Y002000D01*
X015550Y001900D01*
X014850Y001900D01*
X014650Y001700D01*
X014650Y001550D01*
X014500Y001400D01*
X014150Y001400D01*
X014494Y001037D02*
X015806Y001037D01*
X015863Y000980D02*
X015726Y001117D01*
X015650Y001301D01*
X015650Y001499D01*
X015726Y001683D01*
X015867Y001824D01*
X016051Y001900D01*
X016249Y001900D01*
X016353Y001857D01*
X016470Y001975D01*
X016470Y002013D01*
X016433Y001976D01*
X016249Y001900D01*
X016051Y001900D01*
X015867Y001976D01*
X015830Y002013D01*
X015830Y001925D01*
X015725Y001820D01*
X015625Y001720D01*
X014925Y001720D01*
X014830Y001625D01*
X014830Y001475D01*
X014725Y001370D01*
X014646Y001292D01*
X014574Y001117D01*
X014437Y000980D01*
X015863Y000980D01*
X015719Y001135D02*
X014581Y001135D01*
X014622Y001234D02*
X015678Y001234D01*
X015650Y001332D02*
X014687Y001332D01*
X014785Y001431D02*
X015650Y001431D01*
X015662Y001529D02*
X014830Y001529D01*
X014832Y001628D02*
X015703Y001628D01*
X015769Y001726D02*
X015631Y001726D01*
X015729Y001825D02*
X015868Y001825D01*
X015828Y001923D02*
X015995Y001923D01*
X016305Y001923D02*
X016418Y001923D01*
X016650Y001900D02*
X016650Y003200D01*
X016350Y003500D01*
X013400Y003500D01*
X013300Y003600D01*
X013300Y019850D01*
X013100Y020050D01*
X013191Y020343D02*
X013320Y020343D01*
X013500Y020900D02*
X013350Y021050D01*
X013500Y020900D02*
X013500Y003800D01*
X013600Y003700D01*
X017450Y003700D01*
X017650Y003500D01*
X017650Y001900D01*
X017150Y001400D01*
X016806Y001037D02*
X016494Y001037D01*
X016437Y000980D02*
X016574Y001117D01*
X016650Y001301D01*
X016726Y001117D01*
X016863Y000980D01*
X016437Y000980D01*
X016581Y001135D02*
X016719Y001135D01*
X016678Y001234D02*
X016622Y001234D01*
X016650Y001301D02*
X016650Y001499D01*
X016726Y001683D01*
X016867Y001824D01*
X017051Y001900D01*
X017249Y001900D01*
X017353Y001857D01*
X017470Y001975D01*
X017470Y003425D01*
X017375Y003520D01*
X016585Y003520D01*
X016830Y003275D01*
X016830Y001825D01*
X016725Y001720D01*
X016607Y001603D01*
X016650Y001499D01*
X016650Y001301D01*
X016650Y001332D02*
X016650Y001332D01*
X016650Y001431D02*
X016650Y001431D01*
X016638Y001529D02*
X016662Y001529D01*
X016632Y001628D02*
X016703Y001628D01*
X016731Y001726D02*
X016769Y001726D01*
X016829Y001825D02*
X016868Y001825D01*
X016830Y001923D02*
X017418Y001923D01*
X017470Y002022D02*
X016830Y002022D01*
X016830Y002120D02*
X017470Y002120D01*
X017470Y002219D02*
X016830Y002219D01*
X016830Y002317D02*
X017470Y002317D01*
X017470Y002416D02*
X016830Y002416D01*
X016830Y002514D02*
X017470Y002514D01*
X017470Y002613D02*
X016830Y002613D01*
X016830Y002711D02*
X017470Y002711D01*
X017470Y002810D02*
X016830Y002810D01*
X016830Y002908D02*
X017470Y002908D01*
X017470Y003007D02*
X016830Y003007D01*
X016830Y003105D02*
X017470Y003105D01*
X017470Y003204D02*
X016830Y003204D01*
X016803Y003302D02*
X017470Y003302D01*
X017470Y003401D02*
X016704Y003401D01*
X016606Y003499D02*
X017396Y003499D01*
X018550Y003900D02*
X013800Y003900D01*
X013700Y004000D01*
X013700Y021850D01*
X013550Y022000D01*
X013520Y021328D02*
X013477Y021328D01*
X011350Y022200D02*
X011350Y005050D01*
X011550Y004850D01*
X011245Y004878D02*
X010580Y004878D01*
X010580Y004780D02*
X011249Y004780D01*
X011290Y004681D02*
X010580Y004681D01*
X010580Y004583D02*
X011399Y004583D01*
X011170Y004977D02*
X010580Y004977D01*
X010580Y005075D02*
X011170Y005075D01*
X011170Y005174D02*
X010580Y005174D01*
X010580Y005272D02*
X011170Y005272D01*
X011170Y005371D02*
X010580Y005371D01*
X010580Y005469D02*
X011170Y005469D01*
X011170Y005568D02*
X010580Y005568D01*
X010580Y005666D02*
X011170Y005666D01*
X011170Y005765D02*
X010580Y005765D01*
X010580Y005863D02*
X011170Y005863D01*
X011170Y005962D02*
X010580Y005962D01*
X010580Y006060D02*
X011170Y006060D01*
X011170Y006159D02*
X010580Y006159D01*
X010580Y006257D02*
X011170Y006257D01*
X011170Y006356D02*
X010580Y006356D01*
X010580Y006454D02*
X011170Y006454D01*
X011170Y006553D02*
X010580Y006553D01*
X010580Y006651D02*
X011170Y006651D01*
X011170Y006750D02*
X010580Y006750D01*
X010580Y006848D02*
X011170Y006848D01*
X011170Y006947D02*
X010580Y006947D01*
X010580Y007045D02*
X011170Y007045D01*
X011170Y007144D02*
X010580Y007144D01*
X010580Y007242D02*
X011170Y007242D01*
X011170Y007341D02*
X010580Y007341D01*
X010580Y007439D02*
X011170Y007439D01*
X011170Y007538D02*
X010580Y007538D01*
X010580Y007636D02*
X011170Y007636D01*
X011170Y007735D02*
X010580Y007735D01*
X010580Y007833D02*
X011170Y007833D01*
X011170Y007932D02*
X010580Y007932D01*
X010580Y008030D02*
X011170Y008030D01*
X011170Y008129D02*
X010580Y008129D01*
X010580Y008227D02*
X011170Y008227D01*
X011170Y008326D02*
X010580Y008326D01*
X010580Y008424D02*
X011170Y008424D01*
X011170Y008523D02*
X010580Y008523D01*
X010580Y008621D02*
X011170Y008621D01*
X011170Y008720D02*
X010580Y008720D01*
X010580Y008818D02*
X011170Y008818D01*
X011170Y008917D02*
X010580Y008917D01*
X010580Y009015D02*
X011170Y009015D01*
X011170Y009114D02*
X010580Y009114D01*
X010580Y009212D02*
X011170Y009212D01*
X011170Y009311D02*
X010580Y009311D01*
X010580Y009409D02*
X011170Y009409D01*
X011170Y009508D02*
X010580Y009508D01*
X010580Y009606D02*
X011170Y009606D01*
X011170Y009705D02*
X010580Y009705D01*
X010580Y009803D02*
X011170Y009803D01*
X011170Y009902D02*
X010580Y009902D01*
X010580Y010000D02*
X011170Y010000D01*
X011170Y010099D02*
X010580Y010099D01*
X010580Y010197D02*
X011170Y010197D01*
X011170Y010296D02*
X010580Y010296D01*
X010580Y010394D02*
X011170Y010394D01*
X011170Y010493D02*
X010580Y010493D01*
X010580Y010591D02*
X011170Y010591D01*
X011170Y010690D02*
X010580Y010690D01*
X010517Y010788D02*
X011170Y010788D01*
X011170Y010887D02*
X010418Y010887D01*
X010320Y010985D02*
X011170Y010985D01*
X011170Y011084D02*
X010221Y011084D01*
X010123Y011182D02*
X011170Y011182D01*
X011170Y011281D02*
X010024Y011281D01*
X009926Y011379D02*
X011170Y011379D01*
X011170Y011478D02*
X009827Y011478D01*
X009729Y011576D02*
X011170Y011576D01*
X011170Y011675D02*
X009630Y011675D01*
X009532Y011773D02*
X011170Y011773D01*
X011170Y011872D02*
X009099Y011872D01*
X009037Y011970D02*
X011170Y011970D01*
X011170Y012069D02*
X008939Y012069D01*
X008846Y012167D02*
X011170Y012167D01*
X011170Y012266D02*
X009001Y012266D01*
X009085Y012364D02*
X011170Y012364D01*
X011170Y012463D02*
X009136Y012463D01*
X009162Y012561D02*
X011170Y012561D01*
X011170Y012660D02*
X008700Y012660D01*
X009071Y012955D02*
X011170Y012955D01*
X011170Y012857D02*
X009128Y012857D01*
X009159Y012758D02*
X011170Y012758D01*
X011170Y013054D02*
X008979Y013054D01*
X008958Y013251D02*
X011170Y013251D01*
X011170Y013349D02*
X009056Y013349D01*
X009107Y013448D02*
X011170Y013448D01*
X011170Y013546D02*
X009148Y013546D01*
X009150Y013645D02*
X011170Y013645D01*
X011170Y013743D02*
X009150Y013743D01*
X009112Y013842D02*
X011170Y013842D01*
X011170Y013940D02*
X009067Y013940D01*
X008969Y014039D02*
X011170Y014039D01*
X011170Y014137D02*
X008781Y014137D01*
X008749Y014150D02*
X008551Y014150D01*
X008367Y014226D01*
X008285Y014308D01*
X008285Y013992D01*
X008367Y014074D01*
X008551Y014150D01*
X008749Y014150D01*
X008943Y014236D02*
X011170Y014236D01*
X011170Y014334D02*
X009041Y014334D01*
X009101Y014433D02*
X011170Y014433D01*
X011170Y014531D02*
X009142Y014531D01*
X009150Y014630D02*
X011170Y014630D01*
X011170Y014728D02*
X009150Y014728D01*
X009118Y014827D02*
X011170Y014827D01*
X011170Y014925D02*
X009077Y014925D01*
X008984Y015024D02*
X011170Y015024D01*
X011170Y015122D02*
X008817Y015122D01*
X008749Y015150D02*
X008551Y015150D01*
X008749Y015150D01*
X008920Y015221D02*
X011170Y015221D01*
X011170Y015319D02*
X009026Y015319D01*
X009095Y015418D02*
X011170Y015418D01*
X011170Y015516D02*
X009136Y015516D01*
X009150Y015615D02*
X011170Y015615D01*
X011170Y015713D02*
X009150Y015713D01*
X009124Y015812D02*
X011170Y015812D01*
X011170Y015910D02*
X009083Y015910D01*
X008999Y016009D02*
X011170Y016009D01*
X011170Y016107D02*
X008853Y016107D01*
X008884Y016206D02*
X011170Y016206D01*
X011170Y016304D02*
X009011Y016304D01*
X009089Y016403D02*
X011170Y016403D01*
X011170Y016501D02*
X009129Y016501D01*
X009150Y016600D02*
X011170Y016600D01*
X011170Y016698D02*
X009150Y016698D01*
X009130Y016797D02*
X011170Y016797D01*
X011170Y016895D02*
X009090Y016895D01*
X009014Y016994D02*
X011170Y016994D01*
X011170Y017092D02*
X008889Y017092D01*
X008847Y017191D02*
X011170Y017191D01*
X011170Y017289D02*
X008996Y017289D01*
X009082Y017388D02*
X011170Y017388D01*
X011170Y017486D02*
X009123Y017486D01*
X009150Y017585D02*
X011170Y017585D01*
X011170Y017683D02*
X009150Y017683D01*
X009137Y017782D02*
X011170Y017782D01*
X011170Y017880D02*
X009096Y017880D01*
X009029Y017979D02*
X011170Y017979D01*
X011170Y018077D02*
X008926Y018077D01*
X008811Y018176D02*
X011170Y018176D01*
X011170Y018274D02*
X008981Y018274D01*
X009076Y018373D02*
X011170Y018373D01*
X011170Y018471D02*
X009117Y018471D01*
X009150Y018570D02*
X011170Y018570D01*
X011170Y018668D02*
X009150Y018668D01*
X009143Y018767D02*
X011170Y018767D01*
X011170Y018865D02*
X009102Y018865D01*
X009044Y018964D02*
X011170Y018964D01*
X011170Y019062D02*
X008945Y019062D01*
X008775Y019161D02*
X011170Y019161D01*
X011170Y019259D02*
X008966Y019259D01*
X009065Y019358D02*
X011170Y019358D01*
X011170Y019456D02*
X009111Y019456D01*
X009150Y019555D02*
X011170Y019555D01*
X011170Y019653D02*
X009150Y019653D01*
X009149Y019752D02*
X011170Y019752D01*
X011170Y019850D02*
X009108Y019850D01*
X009059Y019949D02*
X011170Y019949D01*
X011170Y020047D02*
X008960Y020047D01*
X008976Y020244D02*
X011170Y020244D01*
X011170Y020146D02*
X008780Y020146D01*
X009069Y020343D02*
X011170Y020343D01*
X011170Y020441D02*
X009127Y020441D01*
X009159Y020540D02*
X011170Y020540D01*
X011170Y020638D02*
X008700Y020638D01*
X009087Y020934D02*
X011170Y020934D01*
X011170Y021032D02*
X009003Y021032D01*
X008852Y021131D02*
X011170Y021131D01*
X011170Y021229D02*
X008936Y021229D01*
X009035Y021328D02*
X011170Y021328D01*
X011170Y021426D02*
X009098Y021426D01*
X009139Y021525D02*
X011170Y021525D01*
X011170Y021623D02*
X009150Y021623D01*
X009150Y021722D02*
X011170Y021722D01*
X011170Y021820D02*
X009121Y021820D01*
X009080Y021919D02*
X011170Y021919D01*
X011102Y022017D02*
X008990Y022017D01*
X009137Y020835D02*
X011170Y020835D01*
X011170Y020737D02*
X009163Y020737D01*
X008285Y019308D02*
X008367Y019226D01*
X008551Y019150D01*
X008749Y019150D01*
X008551Y019150D01*
X008367Y019074D01*
X008285Y018992D01*
X008285Y019308D01*
X008285Y019259D02*
X008334Y019259D01*
X008285Y019161D02*
X008525Y019161D01*
X008355Y019062D02*
X008285Y019062D01*
X008285Y018308D02*
X008367Y018226D01*
X008551Y018150D01*
X008749Y018150D01*
X008551Y018150D01*
X008367Y018074D01*
X008285Y017992D01*
X008285Y018308D01*
X008285Y018274D02*
X008319Y018274D01*
X008285Y018176D02*
X008489Y018176D01*
X008374Y018077D02*
X008285Y018077D01*
X008285Y017308D02*
X008367Y017226D01*
X008551Y017150D01*
X008749Y017150D01*
X008551Y017150D01*
X008367Y017074D01*
X008285Y016992D01*
X008285Y017308D01*
X008285Y017289D02*
X008304Y017289D01*
X008285Y017191D02*
X008453Y017191D01*
X008411Y017092D02*
X008285Y017092D01*
X008285Y016994D02*
X008286Y016994D01*
X008285Y016308D02*
X008367Y016226D01*
X008551Y016150D01*
X008749Y016150D01*
X008551Y016150D01*
X008367Y016074D01*
X008285Y015992D01*
X008285Y016308D01*
X008285Y016304D02*
X008289Y016304D01*
X008285Y016206D02*
X008416Y016206D01*
X008447Y016107D02*
X008285Y016107D01*
X008285Y016009D02*
X008301Y016009D01*
X008285Y015308D02*
X008367Y015226D01*
X008551Y015150D01*
X008367Y015074D01*
X008285Y014992D01*
X008285Y015308D01*
X008285Y015221D02*
X008380Y015221D01*
X008285Y015122D02*
X008483Y015122D01*
X008316Y015024D02*
X008285Y015024D01*
X008285Y014236D02*
X008357Y014236D01*
X008285Y014137D02*
X008519Y014137D01*
X008331Y014039D02*
X008285Y014039D01*
X008788Y013152D02*
X011170Y013152D01*
X011530Y013152D02*
X011845Y013152D01*
X011860Y013054D02*
X011530Y013054D01*
X011530Y012955D02*
X011914Y012955D01*
X012061Y012857D02*
X011530Y012857D01*
X011530Y012758D02*
X012120Y012758D01*
X012120Y012660D02*
X011530Y012660D01*
X011530Y012561D02*
X012120Y012561D01*
X012120Y012463D02*
X011530Y012463D01*
X011530Y012364D02*
X011690Y012364D01*
X011588Y012266D02*
X011530Y012266D01*
X011530Y012167D02*
X011548Y012167D01*
X011545Y012069D02*
X011530Y012069D01*
X011530Y011970D02*
X011574Y011970D01*
X011530Y011872D02*
X011647Y011872D01*
X011530Y011773D02*
X011920Y011773D01*
X011920Y011675D02*
X011530Y011675D01*
X011530Y011576D02*
X011920Y011576D01*
X011920Y011478D02*
X011530Y011478D01*
X011530Y011379D02*
X011920Y011379D01*
X011920Y011281D02*
X011530Y011281D01*
X011530Y011182D02*
X011920Y011182D01*
X011920Y011084D02*
X011530Y011084D01*
X011530Y010985D02*
X011920Y010985D01*
X011920Y010887D02*
X011530Y010887D01*
X011530Y010788D02*
X011920Y010788D01*
X011920Y010690D02*
X011530Y010690D01*
X011530Y010591D02*
X011920Y010591D01*
X011920Y010493D02*
X011530Y010493D01*
X011530Y010394D02*
X011920Y010394D01*
X011920Y010296D02*
X011530Y010296D01*
X011530Y010197D02*
X011920Y010197D01*
X011920Y010099D02*
X011530Y010099D01*
X011530Y010000D02*
X011920Y010000D01*
X011920Y009902D02*
X011530Y009902D01*
X011530Y009803D02*
X011920Y009803D01*
X011920Y009705D02*
X011530Y009705D01*
X011530Y009606D02*
X011920Y009606D01*
X011920Y009508D02*
X011530Y009508D01*
X011530Y009409D02*
X011920Y009409D01*
X011920Y009311D02*
X011530Y009311D01*
X011530Y009212D02*
X011920Y009212D01*
X011920Y009114D02*
X011530Y009114D01*
X011530Y009015D02*
X011920Y009015D01*
X011920Y008917D02*
X011530Y008917D01*
X011530Y008818D02*
X011920Y008818D01*
X011920Y008720D02*
X011530Y008720D01*
X011530Y008621D02*
X011920Y008621D01*
X011920Y008523D02*
X011530Y008523D01*
X011530Y008424D02*
X011920Y008424D01*
X011920Y008326D02*
X011530Y008326D01*
X011530Y008227D02*
X011920Y008227D01*
X011920Y008129D02*
X011530Y008129D01*
X011530Y008030D02*
X011920Y008030D01*
X011920Y007932D02*
X011530Y007932D01*
X011530Y007833D02*
X011920Y007833D01*
X011920Y007735D02*
X011530Y007735D01*
X011530Y007636D02*
X011920Y007636D01*
X011920Y007538D02*
X011530Y007538D01*
X011530Y007439D02*
X011920Y007439D01*
X011920Y007341D02*
X011530Y007341D01*
X011530Y007242D02*
X011920Y007242D01*
X011920Y007144D02*
X011530Y007144D01*
X011530Y007045D02*
X011920Y007045D01*
X011920Y006947D02*
X011530Y006947D01*
X011530Y006848D02*
X011920Y006848D01*
X011920Y006750D02*
X011530Y006750D01*
X011530Y006651D02*
X011920Y006651D01*
X011920Y006553D02*
X011530Y006553D01*
X011530Y006454D02*
X011920Y006454D01*
X011920Y006356D02*
X011530Y006356D01*
X011530Y006257D02*
X011920Y006257D01*
X011920Y006159D02*
X011530Y006159D01*
X011530Y006060D02*
X011920Y006060D01*
X011920Y005962D02*
X011530Y005962D01*
X011530Y005863D02*
X011538Y005863D01*
X011700Y005600D02*
X011900Y005400D01*
X011900Y003900D01*
X011300Y003300D01*
X008800Y003300D01*
X008650Y003150D01*
X008650Y002100D01*
X008450Y001900D01*
X006650Y001900D01*
X006150Y001400D01*
X006494Y001037D02*
X007806Y001037D01*
X007863Y000980D02*
X007726Y001117D01*
X007650Y001301D01*
X007650Y001499D01*
X007726Y001683D01*
X007763Y001720D01*
X006725Y001720D01*
X006607Y001603D01*
X006650Y001499D01*
X006650Y001301D01*
X006574Y001117D01*
X006437Y000980D01*
X007863Y000980D01*
X007719Y001135D02*
X006581Y001135D01*
X006622Y001234D02*
X007678Y001234D01*
X007650Y001332D02*
X006650Y001332D01*
X006650Y001431D02*
X007650Y001431D01*
X007662Y001529D02*
X006638Y001529D01*
X006632Y001628D02*
X007703Y001628D01*
X008150Y001400D02*
X008500Y001400D01*
X008650Y001550D01*
X008650Y001700D01*
X008850Y001900D01*
X009450Y001900D01*
X009650Y002100D01*
X009650Y002950D01*
X009800Y003100D01*
X011350Y003100D01*
X012100Y003800D01*
X012100Y011850D01*
X011850Y012100D01*
X012010Y012364D02*
X012120Y012364D01*
X012112Y012266D02*
X012120Y012266D01*
X012300Y013000D02*
X012150Y013150D01*
X012300Y013000D02*
X012300Y003700D01*
X011500Y002900D01*
X010750Y002900D01*
X010650Y002800D01*
X010650Y002100D01*
X010450Y001900D01*
X009800Y001900D01*
X009650Y001750D01*
X009650Y001550D01*
X009500Y001400D01*
X009150Y001400D01*
X009375Y002080D02*
X008830Y002080D01*
X008830Y003075D01*
X008875Y003120D01*
X009565Y003120D01*
X009470Y003025D01*
X009470Y002175D01*
X009375Y002080D01*
X009415Y002120D02*
X008830Y002120D01*
X008830Y002219D02*
X009470Y002219D01*
X009470Y002317D02*
X008830Y002317D01*
X008830Y002416D02*
X009470Y002416D01*
X009470Y002514D02*
X008830Y002514D01*
X008830Y002613D02*
X009470Y002613D01*
X009470Y002711D02*
X008830Y002711D01*
X008830Y002810D02*
X009470Y002810D01*
X009470Y002908D02*
X008830Y002908D01*
X008830Y003007D02*
X009470Y003007D01*
X009550Y003105D02*
X008860Y003105D01*
X008250Y003500D02*
X009800Y003500D01*
X010400Y004100D01*
X010400Y010650D01*
X009400Y011650D01*
X008650Y011650D01*
X008650Y010650D02*
X009400Y010650D01*
X010200Y009850D01*
X010200Y004200D01*
X009700Y003700D01*
X007250Y003700D01*
X007150Y003600D01*
X007150Y002400D01*
X006684Y002219D02*
X006616Y002219D01*
X006650Y002301D02*
X006650Y002499D01*
X006726Y002683D01*
X006867Y002824D01*
X006970Y002867D01*
X006970Y003675D01*
X007015Y003720D01*
X006375Y003720D01*
X006330Y003675D01*
X006330Y002867D01*
X006433Y002824D01*
X006574Y002683D01*
X006650Y002499D01*
X006650Y002301D01*
X006650Y002317D02*
X006650Y002317D01*
X006650Y002416D02*
X006650Y002416D01*
X006644Y002514D02*
X006656Y002514D01*
X006697Y002613D02*
X006603Y002613D01*
X006546Y002711D02*
X006754Y002711D01*
X006852Y002810D02*
X006448Y002810D01*
X006330Y002908D02*
X006970Y002908D01*
X006970Y003007D02*
X006330Y003007D01*
X006330Y003105D02*
X006970Y003105D01*
X006970Y003204D02*
X006330Y003204D01*
X006330Y003302D02*
X006970Y003302D01*
X006970Y003401D02*
X006330Y003401D01*
X006330Y003499D02*
X006970Y003499D01*
X006970Y003598D02*
X006330Y003598D01*
X006351Y003696D02*
X006991Y003696D01*
X006300Y003900D02*
X009550Y003900D01*
X010000Y004350D01*
X010000Y009050D01*
X009400Y009650D01*
X008650Y009650D01*
X008650Y008650D02*
X009400Y008650D01*
X009800Y008250D01*
X009800Y004450D01*
X009450Y004100D01*
X005300Y004100D01*
X005150Y003950D01*
X005150Y002400D01*
X005546Y002711D02*
X005754Y002711D01*
X005726Y002683D02*
X005650Y002499D01*
X005650Y002301D01*
X005650Y002499D01*
X005574Y002683D01*
X005433Y002824D01*
X005330Y002867D01*
X005330Y003875D01*
X005375Y003920D01*
X006065Y003920D01*
X005970Y003825D01*
X005970Y002867D01*
X005867Y002824D01*
X005726Y002683D01*
X005697Y002613D02*
X005603Y002613D01*
X005644Y002514D02*
X005656Y002514D01*
X005650Y002416D02*
X005650Y002416D01*
X005650Y002317D02*
X005650Y002317D01*
X005616Y002219D02*
X005684Y002219D01*
X005725Y002120D02*
X005575Y002120D01*
X005479Y002022D02*
X005821Y002022D01*
X005995Y001923D02*
X005305Y001923D01*
X004995Y001923D02*
X004305Y001923D01*
X004432Y001825D02*
X005868Y001825D01*
X005769Y001726D02*
X004531Y001726D01*
X004597Y001628D02*
X005703Y001628D01*
X005662Y001529D02*
X004638Y001529D01*
X004650Y001431D02*
X005650Y001431D01*
X005650Y001332D02*
X004650Y001332D01*
X004622Y001234D02*
X005678Y001234D01*
X005719Y001135D02*
X004581Y001135D01*
X004494Y001037D02*
X005806Y001037D01*
X006305Y001923D02*
X006418Y001923D01*
X006479Y002022D02*
X006517Y002022D01*
X006575Y002120D02*
X006725Y002120D01*
X006150Y002400D02*
X006150Y003750D01*
X006300Y003900D01*
X006038Y003893D02*
X005348Y003893D01*
X005330Y003795D02*
X005970Y003795D01*
X005970Y003696D02*
X005330Y003696D01*
X005330Y003598D02*
X005970Y003598D01*
X005970Y003499D02*
X005330Y003499D01*
X005330Y003401D02*
X005970Y003401D01*
X005970Y003302D02*
X005330Y003302D01*
X005330Y003204D02*
X005970Y003204D01*
X005970Y003105D02*
X005330Y003105D01*
X005330Y003007D02*
X005970Y003007D01*
X005970Y002908D02*
X005330Y002908D01*
X005448Y002810D02*
X005852Y002810D01*
X004970Y002867D02*
X004970Y004025D01*
X005065Y004120D01*
X004525Y004120D01*
X004330Y003925D01*
X004330Y002867D01*
X004433Y002824D01*
X004574Y002683D01*
X004650Y002499D01*
X004650Y002301D01*
X004650Y002499D01*
X004726Y002683D01*
X004867Y002824D01*
X004970Y002867D01*
X004970Y002908D02*
X004330Y002908D01*
X004330Y003007D02*
X004970Y003007D01*
X004970Y003105D02*
X004330Y003105D01*
X004330Y003204D02*
X004970Y003204D01*
X004970Y003302D02*
X004330Y003302D01*
X004330Y003401D02*
X004970Y003401D01*
X004970Y003499D02*
X004330Y003499D01*
X004330Y003598D02*
X004970Y003598D01*
X004970Y003696D02*
X004330Y003696D01*
X004330Y003795D02*
X004970Y003795D01*
X004970Y003893D02*
X004330Y003893D01*
X004396Y003992D02*
X004970Y003992D01*
X005035Y004090D02*
X004495Y004090D01*
X004450Y004300D02*
X009350Y004300D01*
X009600Y004550D01*
X009600Y007450D01*
X009400Y007650D01*
X008650Y007650D01*
X008650Y006650D02*
X009100Y006650D01*
X009400Y006350D01*
X009400Y005100D01*
X009050Y004750D01*
X008773Y004878D02*
X007992Y004878D01*
X007963Y004837D02*
X007963Y004837D01*
X007963Y004837D01*
X007883Y004780D02*
X008745Y004780D01*
X008748Y004681D02*
X007747Y004681D01*
X007672Y004626D02*
X007672Y004626D01*
X007538Y004583D02*
X008789Y004583D01*
X008895Y004484D02*
X000952Y004484D01*
X000709Y004386D02*
X004281Y004386D01*
X004182Y004287D02*
X000573Y004287D01*
X000485Y004189D02*
X004084Y004189D01*
X003985Y004090D02*
X000414Y004090D01*
X000363Y003992D02*
X003970Y003992D01*
X003970Y003893D02*
X000331Y003893D01*
X000299Y003795D02*
X003970Y003795D01*
X003970Y003696D02*
X000289Y003696D01*
X000285Y003598D02*
X003970Y003598D01*
X003970Y003499D02*
X000285Y003499D01*
X000285Y003401D02*
X003970Y003401D01*
X003970Y003302D02*
X000285Y003302D01*
X000285Y003204D02*
X003970Y003204D01*
X003970Y003105D02*
X000285Y003105D01*
X000285Y003007D02*
X003970Y003007D01*
X003970Y002908D02*
X000285Y002908D01*
X000285Y002810D02*
X002852Y002810D01*
X002754Y002711D02*
X000285Y002711D01*
X000285Y002613D02*
X002697Y002613D01*
X002656Y002514D02*
X000285Y002514D01*
X000285Y002416D02*
X002650Y002416D01*
X002650Y002317D02*
X000285Y002317D01*
X000285Y002219D02*
X002684Y002219D01*
X002725Y002120D02*
X000285Y002120D01*
X000285Y002022D02*
X002821Y002022D01*
X002995Y001923D02*
X000285Y001923D01*
X000285Y001825D02*
X001868Y001825D01*
X001769Y001726D02*
X000285Y001726D01*
X000285Y001628D02*
X001703Y001628D01*
X001662Y001529D02*
X000285Y001529D01*
X000285Y001431D02*
X001650Y001431D01*
X001650Y001332D02*
X000285Y001332D01*
X000285Y001234D02*
X001678Y001234D01*
X001719Y001135D02*
X000285Y001135D01*
X000285Y001037D02*
X001806Y001037D01*
X001959Y000938D02*
X000285Y000938D01*
X000285Y000840D02*
X001970Y000840D01*
X001970Y000741D02*
X000285Y000741D01*
X000285Y000643D02*
X001970Y000643D01*
X001970Y000544D02*
X000285Y000544D01*
X000285Y000446D02*
X002050Y000446D01*
X002148Y000347D02*
X000285Y000347D01*
X002150Y000600D02*
X002350Y000400D01*
X022200Y000400D01*
X022550Y000750D01*
X022550Y004200D01*
X022250Y004500D01*
X015050Y004500D01*
X014700Y004850D01*
X014450Y003100D02*
X012950Y003100D01*
X012900Y003150D01*
X012900Y016900D01*
X012750Y017050D01*
X012478Y017191D02*
X011530Y017191D01*
X011530Y017289D02*
X012558Y017289D01*
X012445Y017092D02*
X011530Y017092D01*
X011530Y016994D02*
X012445Y016994D01*
X012484Y016895D02*
X011530Y016895D01*
X011530Y016797D02*
X012572Y016797D01*
X012720Y016698D02*
X011530Y016698D01*
X011530Y016600D02*
X012720Y016600D01*
X012720Y016501D02*
X011530Y016501D01*
X011530Y016403D02*
X012720Y016403D01*
X012720Y016304D02*
X011530Y016304D01*
X011530Y016206D02*
X012720Y016206D01*
X012720Y016107D02*
X011530Y016107D01*
X011530Y016009D02*
X012720Y016009D01*
X012720Y015910D02*
X011530Y015910D01*
X011530Y015812D02*
X012720Y015812D01*
X012720Y015713D02*
X011530Y015713D01*
X011530Y015615D02*
X012720Y015615D01*
X012720Y015516D02*
X011530Y015516D01*
X011530Y015418D02*
X012720Y015418D01*
X012550Y015100D02*
X012700Y014950D01*
X012700Y003050D01*
X012850Y002900D01*
X013450Y002900D01*
X013650Y002700D01*
X013650Y002100D01*
X013450Y001900D01*
X011800Y001900D01*
X011650Y001750D01*
X011650Y001550D01*
X011500Y001400D01*
X011150Y001400D01*
X011494Y001037D02*
X012806Y001037D01*
X012863Y000980D02*
X012726Y001117D01*
X012650Y001301D01*
X012650Y001499D01*
X012726Y001683D01*
X012763Y001720D01*
X011875Y001720D01*
X011830Y001675D01*
X011830Y001475D01*
X011725Y001370D01*
X011646Y001292D01*
X011574Y001117D01*
X011437Y000980D01*
X012863Y000980D01*
X012719Y001135D02*
X011581Y001135D01*
X011622Y001234D02*
X012678Y001234D01*
X012650Y001332D02*
X011687Y001332D01*
X011785Y001431D02*
X012650Y001431D01*
X012662Y001529D02*
X011830Y001529D01*
X011830Y001628D02*
X012703Y001628D01*
X013150Y001400D02*
X013500Y001400D01*
X013650Y001550D01*
X013650Y001750D01*
X013800Y001900D01*
X014450Y001900D01*
X014650Y002100D01*
X014650Y002900D01*
X014450Y003100D01*
X016150Y001400D02*
X016650Y001900D01*
X018150Y001400D02*
X018650Y001900D01*
X018650Y003800D01*
X018550Y003900D01*
X018830Y002013D02*
X018867Y001976D01*
X019051Y001900D01*
X019249Y001900D01*
X019433Y001976D01*
X019470Y002013D01*
X019470Y001825D01*
X019575Y001720D01*
X019693Y001603D01*
X019650Y001499D01*
X019650Y001301D01*
X019726Y001117D01*
X019863Y000980D01*
X018437Y000980D01*
X018574Y001117D01*
X018650Y001301D01*
X018650Y001499D01*
X018607Y001603D01*
X018830Y001825D01*
X018830Y002013D01*
X018830Y001923D02*
X018995Y001923D01*
X018829Y001825D02*
X019471Y001825D01*
X019470Y001923D02*
X019305Y001923D01*
X019569Y001726D02*
X018731Y001726D01*
X018632Y001628D02*
X019668Y001628D01*
X019662Y001529D02*
X018638Y001529D01*
X018650Y001431D02*
X019650Y001431D01*
X019650Y001332D02*
X018650Y001332D01*
X018622Y001234D02*
X019678Y001234D01*
X019719Y001135D02*
X018581Y001135D01*
X018494Y001037D02*
X019806Y001037D01*
X021700Y001050D02*
X021700Y003950D01*
X015015Y011992D02*
X014933Y012074D01*
X014749Y012150D01*
X014551Y012150D01*
X014749Y012150D01*
X014933Y012226D01*
X015015Y012308D01*
X015015Y011992D01*
X015015Y012069D02*
X014939Y012069D01*
X015015Y012167D02*
X014791Y012167D01*
X014973Y012266D02*
X015015Y012266D01*
X015015Y012992D02*
X014933Y013074D01*
X014749Y013150D01*
X014551Y013150D01*
X014749Y013150D01*
X014933Y013226D01*
X015015Y013308D01*
X015015Y012992D01*
X015015Y013054D02*
X014954Y013054D01*
X015015Y013152D02*
X014754Y013152D01*
X014546Y013152D02*
X014080Y013152D01*
X014958Y013251D02*
X015015Y013251D01*
X015015Y014039D02*
X014969Y014039D01*
X015015Y014137D02*
X014781Y014137D01*
X014943Y014236D02*
X015015Y014236D01*
X012520Y014433D02*
X012465Y014433D01*
X012520Y014531D02*
X011530Y014531D01*
X011530Y014433D02*
X012235Y014433D01*
X012103Y014334D02*
X011530Y014334D01*
X011530Y014236D02*
X012055Y014236D01*
X012045Y014137D02*
X011530Y014137D01*
X011530Y014039D02*
X012066Y014039D01*
X012129Y013940D02*
X011530Y013940D01*
X011530Y013842D02*
X012320Y013842D01*
X012320Y013743D02*
X011530Y013743D01*
X011530Y013645D02*
X012320Y013645D01*
X012320Y013546D02*
X011530Y013546D01*
X011530Y013448D02*
X012071Y013448D01*
X012229Y013448D02*
X012320Y013448D01*
X011918Y013349D02*
X011530Y013349D01*
X011530Y013251D02*
X011862Y013251D01*
X012500Y014000D02*
X012350Y014150D01*
X012500Y014000D02*
X012500Y003600D01*
X011650Y002750D01*
X011650Y002100D01*
X011450Y001900D01*
X010800Y001900D01*
X010650Y001750D01*
X010650Y001550D01*
X010500Y001400D01*
X010150Y001400D01*
X010054Y003499D02*
X011244Y003499D01*
X011343Y003598D02*
X010152Y003598D01*
X010251Y003696D02*
X011441Y003696D01*
X011540Y003795D02*
X010349Y003795D01*
X010448Y003893D02*
X011638Y003893D01*
X011720Y003992D02*
X010546Y003992D01*
X010580Y004090D02*
X011720Y004090D01*
X011720Y004189D02*
X010580Y004189D01*
X010580Y004287D02*
X011720Y004287D01*
X011720Y004386D02*
X010580Y004386D01*
X010580Y004484D02*
X011720Y004484D01*
X011720Y004583D02*
X011701Y004583D01*
X011862Y005863D02*
X011920Y005863D01*
X009220Y005863D02*
X009125Y005863D01*
X009158Y005765D02*
X009220Y005765D01*
X009220Y005666D02*
X008700Y005666D01*
X008700Y005600D02*
X009169Y005600D01*
X009157Y005528D01*
X009132Y005450D01*
X009095Y005377D01*
X009047Y005311D01*
X008989Y005253D01*
X008923Y005205D01*
X008850Y005168D01*
X008772Y005143D01*
X008700Y005131D01*
X008700Y005600D01*
X008700Y005568D02*
X008600Y005568D01*
X008600Y005469D02*
X008700Y005469D01*
X008700Y005371D02*
X008600Y005371D01*
X008600Y005272D02*
X008700Y005272D01*
X008700Y005174D02*
X008600Y005174D01*
X008440Y005174D02*
X008189Y005174D01*
X008221Y005272D02*
X008293Y005272D01*
X008135Y005075D02*
X009120Y005075D01*
X009219Y005174D02*
X008860Y005174D01*
X009007Y005272D02*
X009220Y005272D01*
X009220Y005371D02*
X009090Y005371D01*
X009138Y005469D02*
X009220Y005469D01*
X009220Y005568D02*
X009163Y005568D01*
X009220Y005962D02*
X009066Y005962D01*
X008970Y006060D02*
X009220Y006060D01*
X009220Y006159D02*
X008770Y006159D01*
X008964Y006257D02*
X009220Y006257D01*
X009140Y006356D02*
X009063Y006356D01*
X008845Y004977D02*
X008064Y004977D01*
X008250Y003500D02*
X008150Y003400D01*
X008150Y002400D01*
X004852Y002810D02*
X004448Y002810D01*
X004546Y002711D02*
X004754Y002711D01*
X004697Y002613D02*
X004603Y002613D01*
X004644Y002514D02*
X004656Y002514D01*
X004650Y002416D02*
X004650Y002416D01*
X004650Y002317D02*
X004650Y002317D01*
X004616Y002219D02*
X004684Y002219D01*
X004725Y002120D02*
X004575Y002120D01*
X004479Y002022D02*
X004821Y002022D01*
X004150Y002400D02*
X004150Y004000D01*
X004450Y004300D01*
X003852Y002810D02*
X003448Y002810D01*
X003546Y002711D02*
X003754Y002711D01*
X003697Y002613D02*
X003603Y002613D01*
X003644Y002514D02*
X003656Y002514D01*
X003650Y002416D02*
X003650Y002416D01*
X003650Y002317D02*
X003650Y002317D01*
X003616Y002219D02*
X003684Y002219D01*
X003725Y002120D02*
X003575Y002120D01*
X003479Y002022D02*
X003821Y002022D01*
X003995Y001923D02*
X003305Y001923D01*
X003432Y001825D02*
X003868Y001825D01*
X003769Y001726D02*
X003531Y001726D01*
X003597Y001628D02*
X003703Y001628D01*
X003662Y001529D02*
X003638Y001529D01*
X003650Y001431D02*
X003650Y001431D01*
X003650Y001332D02*
X003650Y001332D01*
X003622Y001234D02*
X003678Y001234D01*
X003719Y001135D02*
X003581Y001135D01*
X003150Y001400D02*
X003150Y000600D01*
X002970Y000580D02*
X002970Y000933D01*
X002867Y000976D01*
X002726Y001117D01*
X002650Y001301D01*
X002650Y001499D01*
X002650Y001301D01*
X002574Y001117D01*
X002433Y000976D01*
X002330Y000933D01*
X002330Y000675D01*
X002425Y000580D01*
X002970Y000580D01*
X002970Y000643D02*
X002362Y000643D01*
X002330Y000741D02*
X002970Y000741D01*
X002970Y000840D02*
X002330Y000840D01*
X002341Y000938D02*
X002959Y000938D01*
X002806Y001037D02*
X002494Y001037D01*
X002581Y001135D02*
X002719Y001135D01*
X002678Y001234D02*
X002622Y001234D01*
X002650Y001332D02*
X002650Y001332D01*
X002650Y001431D02*
X002650Y001431D01*
X002638Y001529D02*
X002662Y001529D01*
X002703Y001628D02*
X002597Y001628D01*
X002531Y001726D02*
X002769Y001726D01*
X002868Y001825D02*
X002432Y001825D01*
X002150Y001400D02*
X002150Y000600D01*
X011530Y014630D02*
X012520Y014630D01*
X012520Y014728D02*
X011530Y014728D01*
X011530Y014827D02*
X012413Y014827D01*
X012294Y014925D02*
X011530Y014925D01*
X011530Y015024D02*
X012252Y015024D01*
X012245Y015122D02*
X011530Y015122D01*
X011530Y015221D02*
X012270Y015221D01*
X012338Y015319D02*
X011530Y015319D01*
X011530Y017388D02*
X012920Y017388D01*
X012920Y017486D02*
X011530Y017486D01*
X011530Y017585D02*
X012920Y017585D01*
X012920Y017683D02*
X011530Y017683D01*
X011530Y017782D02*
X012801Y017782D01*
X012690Y017880D02*
X011530Y017880D01*
X011530Y017979D02*
X012649Y017979D01*
X012645Y018077D02*
X011530Y018077D01*
X011530Y018176D02*
X012672Y018176D01*
X012743Y018274D02*
X011530Y018274D01*
X014080Y018767D02*
X014142Y018767D01*
X014176Y018865D02*
X014080Y018865D01*
X014996Y017289D02*
X015015Y017289D01*
X015015Y017191D02*
X014847Y017191D01*
X014889Y017092D02*
X015015Y017092D01*
X015014Y016994D02*
X015015Y016994D01*
X014650Y024650D02*
X014150Y024650D01*
D14*
X013550Y022000D03*
X013350Y021050D03*
X013100Y020050D03*
X012950Y018050D03*
X012750Y017050D03*
X011750Y015650D03*
X012550Y015100D03*
X012350Y014150D03*
X012150Y013150D03*
X011850Y012100D03*
X011700Y005600D03*
X011550Y004850D03*
X009050Y004750D03*
X014250Y004650D03*
X021700Y003950D03*
X011350Y022200D03*
X001000Y004100D03*
D15*
X014650Y004900D02*
X014700Y004850D01*
X014650Y004900D02*
X014650Y005650D01*
M02*
