G75*
%MOIN*%
%OFA0B0*%
%FSLAX24Y24*%
%IPPOS*%
%LPD*%
%AMOC8*
5,1,8,0,0,1.08239X$1,22.5*
%
%ADD10C,0.0050*%
%ADD11C,0.0080*%
%ADD12C,0.0100*%
%ADD13C,0.0010*%
D10*
X007518Y003775D02*
X007518Y004000D01*
X007593Y004075D01*
X007668Y004000D01*
X007668Y003775D01*
X007818Y003775D02*
X007818Y004075D01*
X007743Y004075D01*
X007668Y004000D01*
X007978Y004000D02*
X008053Y004075D01*
X008203Y004075D01*
X008279Y004000D01*
X008279Y003850D01*
X008203Y003775D01*
X008053Y003775D01*
X007978Y003850D01*
X007978Y004000D01*
X008439Y004075D02*
X008664Y004075D01*
X008739Y004000D01*
X008739Y003850D01*
X008664Y003775D01*
X008439Y003775D01*
X008894Y003775D02*
X008969Y003775D01*
X008969Y003850D01*
X008894Y003850D01*
X008894Y003775D01*
X009129Y003775D02*
X009354Y003775D01*
X009430Y003850D01*
X009430Y004000D01*
X009354Y004075D01*
X009129Y004075D01*
X009661Y004075D02*
X009661Y003775D01*
X009736Y003775D02*
X009586Y003775D01*
X009893Y003775D02*
X009968Y003850D01*
X009968Y004150D01*
X010043Y004075D02*
X009893Y004075D01*
X009736Y004075D02*
X009661Y004075D01*
X009661Y004225D02*
X009661Y004300D01*
X010204Y004000D02*
X010279Y004075D01*
X010429Y004075D01*
X010504Y004000D01*
X010504Y003850D01*
X010429Y003775D01*
X010279Y003775D01*
X010204Y003850D01*
X010204Y004000D01*
X010664Y004000D02*
X010739Y004075D01*
X010964Y004075D01*
X010964Y004225D02*
X010964Y003775D01*
X010739Y003775D01*
X010664Y003850D01*
X010664Y004000D01*
X011124Y004000D02*
X011199Y004075D01*
X011349Y004075D01*
X011425Y004000D01*
X011425Y003850D01*
X011349Y003775D01*
X011199Y003775D01*
X011124Y003850D01*
X011124Y004000D01*
X011583Y004075D02*
X011658Y004075D01*
X011808Y003925D01*
X011808Y003775D02*
X011808Y004075D01*
X011968Y004075D02*
X012194Y004075D01*
X012269Y004000D01*
X012269Y003850D01*
X012194Y003775D01*
X011968Y003775D01*
X012429Y003775D02*
X012654Y003775D01*
X012729Y003850D01*
X012654Y003925D01*
X012429Y003925D01*
X012429Y004000D02*
X012429Y003775D01*
X012429Y004000D02*
X012504Y004075D01*
X012654Y004075D01*
X012889Y004225D02*
X013189Y003775D01*
X013650Y003775D02*
X013350Y004225D01*
X013805Y004075D02*
X013805Y004000D01*
X013880Y004000D01*
X013880Y004075D01*
X013805Y004075D01*
X013805Y003850D02*
X013805Y003775D01*
X013880Y003775D01*
X013880Y003850D01*
X013805Y003850D01*
X014040Y003850D02*
X014115Y003775D01*
X014340Y003775D01*
X014265Y003925D02*
X014115Y003925D01*
X014040Y003850D01*
X014040Y004075D02*
X014265Y004075D01*
X014340Y004000D01*
X014265Y003925D01*
X014500Y003850D02*
X014576Y003775D01*
X014801Y003775D01*
X014801Y003625D02*
X014801Y004075D01*
X014576Y004075D01*
X014500Y004000D01*
X014500Y003850D01*
X014958Y003775D02*
X015033Y003850D01*
X015033Y004150D01*
X015108Y004075D02*
X014958Y004075D01*
X015264Y004075D02*
X015415Y004075D01*
X015340Y004150D02*
X015340Y003850D01*
X015264Y003775D01*
X015575Y003775D02*
X015575Y004000D01*
X015650Y004075D01*
X015800Y004075D01*
X015875Y004000D01*
X015875Y004225D02*
X015875Y003775D01*
D11*
X000150Y003600D02*
X000150Y000180D01*
X023150Y000180D01*
X023150Y003600D01*
X012150Y003600D01*
X012150Y003200D01*
X011150Y003200D01*
X011150Y003600D01*
X000150Y003600D01*
X008150Y005150D02*
X008150Y025150D01*
X009150Y025150D01*
X009150Y005150D01*
X008150Y005150D01*
X014150Y005150D02*
X014150Y025150D01*
X015150Y025150D01*
X015150Y005150D01*
X014150Y005150D01*
D12*
X020800Y003900D02*
X021550Y003900D01*
D13*
X013350Y004300D02*
X013350Y005228D01*
X012574Y005228D01*
X012574Y004298D01*
X012848Y004298D01*
X012848Y004572D01*
X012798Y004596D01*
X012798Y004880D01*
X012846Y004920D01*
X012876Y004920D01*
X012876Y005038D01*
X012898Y005060D01*
X013024Y005060D01*
X013052Y005034D01*
X013052Y004942D01*
X013074Y004942D01*
X013074Y004920D01*
X013052Y004920D01*
X012878Y004920D01*
X012878Y004936D01*
X013078Y004936D01*
X013078Y004918D01*
X013126Y004878D01*
X013126Y004596D01*
X013076Y004570D01*
X013076Y004300D01*
X013350Y004300D01*
X013350Y004307D02*
X013076Y004307D01*
X013076Y004315D02*
X013350Y004315D01*
X013350Y004324D02*
X013076Y004324D01*
X013076Y004332D02*
X013350Y004332D01*
X013350Y004341D02*
X013076Y004341D01*
X013076Y004349D02*
X013350Y004349D01*
X013350Y004358D02*
X013076Y004358D01*
X013076Y004366D02*
X013350Y004366D01*
X013350Y004375D02*
X013076Y004375D01*
X013076Y004383D02*
X013350Y004383D01*
X013350Y004392D02*
X013076Y004392D01*
X013076Y004400D02*
X013350Y004400D01*
X013350Y004409D02*
X013076Y004409D01*
X013076Y004417D02*
X013350Y004417D01*
X013350Y004426D02*
X013076Y004426D01*
X013076Y004434D02*
X013350Y004434D01*
X013350Y004443D02*
X013076Y004443D01*
X013076Y004451D02*
X013350Y004451D01*
X013350Y004460D02*
X013076Y004460D01*
X013076Y004468D02*
X013350Y004468D01*
X013350Y004477D02*
X013076Y004477D01*
X013076Y004485D02*
X013350Y004485D01*
X013350Y004494D02*
X013076Y004494D01*
X013076Y004502D02*
X013350Y004502D01*
X013350Y004511D02*
X013076Y004511D01*
X013076Y004519D02*
X013350Y004519D01*
X013350Y004528D02*
X013076Y004528D01*
X013076Y004536D02*
X013350Y004536D01*
X013350Y004545D02*
X013076Y004545D01*
X013076Y004553D02*
X013350Y004553D01*
X013350Y004562D02*
X013076Y004562D01*
X013076Y004570D02*
X013350Y004570D01*
X013350Y004579D02*
X013093Y004579D01*
X013109Y004587D02*
X013350Y004587D01*
X013350Y004596D02*
X013125Y004596D01*
X013126Y004604D02*
X013350Y004604D01*
X013350Y004613D02*
X013126Y004613D01*
X013126Y004621D02*
X013350Y004621D01*
X013350Y004630D02*
X013126Y004630D01*
X013126Y004638D02*
X013350Y004638D01*
X013350Y004647D02*
X013126Y004647D01*
X013126Y004655D02*
X013350Y004655D01*
X013350Y004664D02*
X013126Y004664D01*
X013126Y004672D02*
X013350Y004672D01*
X013350Y004681D02*
X013126Y004681D01*
X013126Y004689D02*
X013350Y004689D01*
X013350Y004698D02*
X013126Y004698D01*
X013126Y004706D02*
X013350Y004706D01*
X013350Y004715D02*
X013126Y004715D01*
X013126Y004723D02*
X013350Y004723D01*
X013350Y004732D02*
X013126Y004732D01*
X013126Y004740D02*
X013350Y004740D01*
X013350Y004749D02*
X013126Y004749D01*
X013126Y004757D02*
X013350Y004757D01*
X013350Y004766D02*
X013126Y004766D01*
X013126Y004774D02*
X013350Y004774D01*
X013350Y004783D02*
X013126Y004783D01*
X013126Y004791D02*
X013350Y004791D01*
X013350Y004800D02*
X013126Y004800D01*
X013126Y004808D02*
X013350Y004808D01*
X013350Y004817D02*
X013126Y004817D01*
X013126Y004825D02*
X013350Y004825D01*
X013350Y004834D02*
X013126Y004834D01*
X013126Y004842D02*
X013350Y004842D01*
X013350Y004851D02*
X013126Y004851D01*
X013126Y004859D02*
X013350Y004859D01*
X013350Y004868D02*
X013126Y004868D01*
X013126Y004876D02*
X013350Y004876D01*
X013350Y004885D02*
X013118Y004885D01*
X013108Y004893D02*
X013350Y004893D01*
X013350Y004902D02*
X013098Y004902D01*
X013087Y004910D02*
X013350Y004910D01*
X013350Y004919D02*
X013078Y004919D01*
X013078Y004927D02*
X013350Y004927D01*
X013350Y004936D02*
X013078Y004936D01*
X013074Y004936D02*
X012878Y004936D01*
X012876Y004936D02*
X012574Y004936D01*
X012574Y004944D02*
X012876Y004944D01*
X012876Y004953D02*
X012574Y004953D01*
X012574Y004961D02*
X012876Y004961D01*
X012876Y004970D02*
X012574Y004970D01*
X012574Y004978D02*
X012876Y004978D01*
X012876Y004987D02*
X012574Y004987D01*
X012574Y004995D02*
X012876Y004995D01*
X012876Y005004D02*
X012574Y005004D01*
X012574Y005012D02*
X012876Y005012D01*
X012876Y005021D02*
X012574Y005021D01*
X012574Y005029D02*
X012876Y005029D01*
X012876Y005038D02*
X012574Y005038D01*
X012574Y005046D02*
X012884Y005046D01*
X012893Y005055D02*
X012574Y005055D01*
X012574Y005063D02*
X013350Y005063D01*
X013350Y005055D02*
X013030Y005055D01*
X013039Y005046D02*
X013350Y005046D01*
X013350Y005038D02*
X013048Y005038D01*
X013052Y005029D02*
X013350Y005029D01*
X013350Y005021D02*
X013052Y005021D01*
X013052Y005012D02*
X013350Y005012D01*
X013350Y005004D02*
X013052Y005004D01*
X013052Y004995D02*
X013350Y004995D01*
X013350Y004987D02*
X013052Y004987D01*
X013052Y004978D02*
X013350Y004978D01*
X013350Y004970D02*
X013052Y004970D01*
X013052Y004961D02*
X013350Y004961D01*
X013350Y004953D02*
X013052Y004953D01*
X013052Y004944D02*
X013350Y004944D01*
X013350Y005072D02*
X012574Y005072D01*
X012574Y005080D02*
X013350Y005080D01*
X013350Y005089D02*
X012574Y005089D01*
X012574Y005097D02*
X013350Y005097D01*
X013350Y005106D02*
X012574Y005106D01*
X012574Y005114D02*
X013350Y005114D01*
X013350Y005123D02*
X012574Y005123D01*
X012574Y005131D02*
X013350Y005131D01*
X013350Y005140D02*
X012574Y005140D01*
X012574Y005148D02*
X013350Y005148D01*
X013350Y005157D02*
X012574Y005157D01*
X012574Y005165D02*
X013350Y005165D01*
X013350Y005174D02*
X012574Y005174D01*
X012574Y005182D02*
X013350Y005182D01*
X013350Y005191D02*
X012574Y005191D01*
X012574Y005199D02*
X013350Y005199D01*
X013350Y005208D02*
X012574Y005208D01*
X012574Y005216D02*
X013350Y005216D01*
X013350Y005225D02*
X012574Y005225D01*
X012574Y004927D02*
X012876Y004927D01*
X012878Y004927D02*
X013074Y004927D01*
X012844Y004919D02*
X012574Y004919D01*
X012574Y004910D02*
X012834Y004910D01*
X012824Y004902D02*
X012574Y004902D01*
X012574Y004893D02*
X012814Y004893D01*
X012804Y004885D02*
X012574Y004885D01*
X012574Y004876D02*
X012798Y004876D01*
X012798Y004868D02*
X012574Y004868D01*
X012574Y004859D02*
X012798Y004859D01*
X012798Y004851D02*
X012574Y004851D01*
X012574Y004842D02*
X012798Y004842D01*
X012798Y004834D02*
X012574Y004834D01*
X012574Y004825D02*
X012798Y004825D01*
X012798Y004817D02*
X012574Y004817D01*
X012574Y004808D02*
X012798Y004808D01*
X012798Y004800D02*
X012574Y004800D01*
X012574Y004791D02*
X012798Y004791D01*
X012798Y004783D02*
X012574Y004783D01*
X012574Y004774D02*
X012798Y004774D01*
X012798Y004766D02*
X012574Y004766D01*
X012574Y004757D02*
X012798Y004757D01*
X012798Y004749D02*
X012574Y004749D01*
X012574Y004740D02*
X012798Y004740D01*
X012798Y004732D02*
X012574Y004732D01*
X012574Y004723D02*
X012798Y004723D01*
X012798Y004715D02*
X012574Y004715D01*
X012574Y004706D02*
X012798Y004706D01*
X012798Y004698D02*
X012574Y004698D01*
X012574Y004689D02*
X012798Y004689D01*
X012798Y004681D02*
X012574Y004681D01*
X012574Y004672D02*
X012798Y004672D01*
X012798Y004664D02*
X012574Y004664D01*
X012574Y004655D02*
X012798Y004655D01*
X012798Y004647D02*
X012574Y004647D01*
X012574Y004638D02*
X012798Y004638D01*
X012798Y004630D02*
X012574Y004630D01*
X012574Y004621D02*
X012798Y004621D01*
X012798Y004613D02*
X012574Y004613D01*
X012574Y004604D02*
X012798Y004604D01*
X012799Y004596D02*
X012574Y004596D01*
X012574Y004587D02*
X012816Y004587D01*
X012834Y004579D02*
X012574Y004579D01*
X012574Y004570D02*
X012848Y004570D01*
X012848Y004562D02*
X012574Y004562D01*
X012574Y004553D02*
X012848Y004553D01*
X012848Y004545D02*
X012574Y004545D01*
X012574Y004536D02*
X012848Y004536D01*
X012848Y004528D02*
X012574Y004528D01*
X012574Y004519D02*
X012848Y004519D01*
X012848Y004511D02*
X012574Y004511D01*
X012574Y004502D02*
X012848Y004502D01*
X012848Y004494D02*
X012574Y004494D01*
X012574Y004485D02*
X012848Y004485D01*
X012848Y004477D02*
X012574Y004477D01*
X012574Y004468D02*
X012848Y004468D01*
X012848Y004460D02*
X012574Y004460D01*
X012574Y004451D02*
X012848Y004451D01*
X012848Y004443D02*
X012574Y004443D01*
X012574Y004434D02*
X012848Y004434D01*
X012848Y004426D02*
X012574Y004426D01*
X012574Y004417D02*
X012848Y004417D01*
X012848Y004409D02*
X012574Y004409D01*
X012574Y004400D02*
X012848Y004400D01*
X012848Y004392D02*
X012574Y004392D01*
X012574Y004383D02*
X012848Y004383D01*
X012848Y004375D02*
X012574Y004375D01*
X012574Y004366D02*
X012848Y004366D01*
X012848Y004358D02*
X012574Y004358D01*
X012574Y004349D02*
X012848Y004349D01*
X012848Y004341D02*
X012574Y004341D01*
X012574Y004332D02*
X012848Y004332D01*
X012848Y004324D02*
X012574Y004324D01*
X012574Y004315D02*
X012848Y004315D01*
X012848Y004307D02*
X012574Y004307D01*
X012574Y004298D02*
X012848Y004298D01*
M02*
