G75*
%MOIN*%
%OFA0B0*%
%FSLAX24Y24*%
%IPPOS*%
%LPD*%
%AMOC8*
5,1,8,0,0,1.08239X$1,22.5*
%
%ADD10C,0.0050*%
%ADD11C,0.0100*%
%ADD12C,0.0040*%
%ADD13C,0.0080*%
%ADD14C,0.0010*%
D10*
X005925Y003775D02*
X005925Y004225D01*
X006150Y004225D01*
X006225Y004150D01*
X006225Y004000D01*
X006150Y003925D01*
X005925Y003925D01*
X006075Y003925D02*
X006225Y003775D01*
X006385Y003850D02*
X006460Y003925D01*
X006686Y003925D01*
X006686Y004000D02*
X006686Y003775D01*
X006460Y003775D01*
X006385Y003850D01*
X006460Y004075D02*
X006611Y004075D01*
X006686Y004000D01*
X006846Y004000D02*
X006921Y004075D01*
X007146Y004075D01*
X007306Y004075D02*
X007306Y003625D01*
X007306Y003775D02*
X007531Y003775D01*
X007606Y003850D01*
X007606Y004000D01*
X007531Y004075D01*
X007306Y004075D01*
X007146Y003850D02*
X007071Y003925D01*
X006921Y003925D01*
X006846Y004000D01*
X006846Y003775D02*
X007071Y003775D01*
X007146Y003850D01*
X007767Y003775D02*
X007992Y003775D01*
X008067Y003850D01*
X008067Y004000D01*
X007992Y004075D01*
X007767Y004075D01*
X007767Y004225D02*
X007767Y003775D01*
X008227Y003850D02*
X008227Y004000D01*
X008302Y004075D01*
X008452Y004075D01*
X008527Y004000D01*
X008527Y003925D01*
X008227Y003925D01*
X008227Y003850D02*
X008302Y003775D01*
X008452Y003775D01*
X008687Y003775D02*
X008687Y004075D01*
X008687Y003925D02*
X008837Y004075D01*
X008913Y004075D01*
X009071Y004075D02*
X009071Y003775D01*
X009071Y003925D02*
X009221Y004075D01*
X009296Y004075D01*
X009455Y004075D02*
X009455Y003850D01*
X009530Y003775D01*
X009755Y003775D01*
X009755Y003700D02*
X009680Y003625D01*
X009605Y003625D01*
X009755Y003700D02*
X009755Y004075D01*
X010375Y003925D02*
X010601Y003925D01*
X010676Y004000D01*
X010676Y004150D01*
X010601Y004225D01*
X010375Y004225D01*
X010375Y003775D01*
X010836Y003775D02*
X010986Y003775D01*
X010911Y003775D02*
X010911Y004075D01*
X010836Y004075D01*
X010911Y004225D02*
X010911Y004300D01*
X011603Y004075D02*
X011603Y003775D01*
X011603Y004000D02*
X011903Y004000D01*
X011903Y004075D02*
X011903Y003775D01*
X012064Y004000D02*
X012364Y004000D01*
X012214Y004150D02*
X012214Y003850D01*
X012524Y003775D02*
X012824Y004225D01*
X012984Y004225D02*
X013210Y004225D01*
X013285Y004150D01*
X013285Y004075D01*
X013210Y004000D01*
X012984Y004000D01*
X012984Y003775D02*
X013210Y003775D01*
X013285Y003850D01*
X013285Y003925D01*
X013210Y004000D01*
X013445Y004000D02*
X013745Y004000D01*
X013595Y004150D02*
X013595Y003850D01*
X012984Y003775D02*
X012984Y004225D01*
X011903Y004075D02*
X011753Y004225D01*
X011603Y004075D01*
X012237Y005925D02*
X012387Y005925D01*
X012312Y005925D02*
X012312Y006375D01*
X012237Y006375D02*
X012387Y006375D01*
X012544Y006300D02*
X012544Y006000D01*
X012619Y005925D01*
X012769Y005925D01*
X012844Y006000D01*
X012844Y006300D01*
X012769Y006375D01*
X012619Y006375D01*
X012544Y006300D01*
X013004Y006300D02*
X013079Y006375D01*
X013229Y006375D01*
X013304Y006300D01*
X013304Y006225D01*
X013004Y005925D01*
X013304Y005925D01*
X013465Y005925D02*
X013765Y005925D01*
X013615Y005925D02*
X013615Y006375D01*
X013465Y006225D01*
X013540Y006925D02*
X013465Y007000D01*
X013765Y007300D01*
X013765Y007000D01*
X013690Y006925D01*
X013540Y006925D01*
X013465Y007000D02*
X013465Y007300D01*
X013540Y007375D01*
X013690Y007375D01*
X013765Y007300D01*
X013304Y007300D02*
X013229Y007375D01*
X013079Y007375D01*
X013004Y007300D01*
X012844Y007300D02*
X012769Y007375D01*
X012619Y007375D01*
X012544Y007300D01*
X012544Y007000D01*
X012619Y006925D01*
X012769Y006925D01*
X012844Y007000D01*
X012844Y007300D01*
X013004Y006925D02*
X013304Y007225D01*
X013304Y007300D01*
X013304Y006925D02*
X013004Y006925D01*
X012387Y006925D02*
X012237Y006925D01*
X012312Y006925D02*
X012312Y007375D01*
X012237Y007375D02*
X012387Y007375D01*
X012387Y007925D02*
X012237Y007925D01*
X012312Y007925D02*
X012312Y008375D01*
X012237Y008375D02*
X012387Y008375D01*
X012544Y008300D02*
X012544Y008000D01*
X012619Y007925D01*
X012769Y007925D01*
X012844Y008000D01*
X012844Y008300D01*
X012769Y008375D01*
X012619Y008375D01*
X012544Y008300D01*
X013004Y008225D02*
X013154Y008375D01*
X013154Y007925D01*
X013004Y007925D02*
X013304Y007925D01*
X013465Y008000D02*
X013540Y007925D01*
X013690Y007925D01*
X013765Y008000D01*
X013765Y008075D01*
X013690Y008150D01*
X013465Y008150D01*
X013465Y008000D01*
X013465Y008150D02*
X013615Y008300D01*
X013765Y008375D01*
X013690Y008925D02*
X013465Y008925D01*
X013465Y009375D01*
X013690Y009375D01*
X013765Y009300D01*
X013765Y009000D01*
X013690Y008925D01*
X013304Y008925D02*
X013304Y009375D01*
X013004Y009375D02*
X013004Y008925D01*
X012844Y009000D02*
X012844Y009150D01*
X012694Y009150D01*
X012844Y009000D02*
X012769Y008925D01*
X012619Y008925D01*
X012544Y009000D01*
X012544Y009300D01*
X012619Y009375D01*
X012769Y009375D01*
X012844Y009300D01*
X013004Y009375D02*
X013304Y008925D01*
X013304Y009925D02*
X013004Y009925D01*
X013154Y009925D02*
X013154Y010375D01*
X013004Y010225D01*
X012844Y010300D02*
X012769Y010375D01*
X012619Y010375D01*
X012544Y010300D01*
X012544Y010000D01*
X012619Y009925D01*
X012769Y009925D01*
X012844Y010000D01*
X012844Y010300D01*
X012387Y010375D02*
X012237Y010375D01*
X012312Y010375D02*
X012312Y009925D01*
X012237Y009925D02*
X012387Y009925D01*
X012619Y010925D02*
X012544Y011000D01*
X012544Y011300D01*
X012619Y011375D01*
X012769Y011375D01*
X012844Y011300D01*
X012844Y011150D02*
X012694Y011150D01*
X012844Y011150D02*
X012844Y011000D01*
X012769Y010925D01*
X012619Y010925D01*
X013004Y010925D02*
X013004Y011375D01*
X013304Y010925D01*
X013304Y011375D01*
X013465Y011375D02*
X013690Y011375D01*
X013765Y011300D01*
X013765Y011000D01*
X013690Y010925D01*
X013465Y010925D01*
X013465Y011375D01*
X013540Y011925D02*
X013465Y012000D01*
X013465Y012300D01*
X013540Y012375D01*
X013690Y012375D01*
X013765Y012300D01*
X013765Y012000D02*
X013690Y011925D01*
X013540Y011925D01*
X013304Y012000D02*
X013229Y011925D01*
X013079Y011925D01*
X013004Y012000D01*
X012849Y012000D02*
X012849Y011925D01*
X012774Y011925D01*
X012774Y012000D01*
X012849Y012000D01*
X012614Y012000D02*
X012614Y012300D01*
X012539Y012375D01*
X012314Y012375D01*
X012314Y011925D01*
X012539Y011925D01*
X012614Y012000D01*
X013004Y012225D02*
X013079Y012150D01*
X013229Y012150D01*
X013304Y012075D01*
X013304Y012000D01*
X013304Y012300D02*
X013229Y012375D01*
X013079Y012375D01*
X013004Y012300D01*
X013004Y012225D01*
X013079Y012925D02*
X013004Y013000D01*
X013004Y013300D01*
X013079Y013375D01*
X013229Y013375D01*
X013304Y013300D01*
X013304Y013000D01*
X013229Y012925D01*
X013079Y012925D01*
X012847Y012925D02*
X012697Y012925D01*
X012772Y012925D02*
X012772Y013375D01*
X012697Y013375D02*
X012847Y013375D01*
X012847Y013925D02*
X012697Y013925D01*
X012772Y013925D02*
X012772Y014375D01*
X012697Y014375D02*
X012847Y014375D01*
X013004Y014300D02*
X013004Y014000D01*
X013079Y013925D01*
X013229Y013925D01*
X013304Y014000D01*
X013304Y014300D01*
X013229Y014375D01*
X013079Y014375D01*
X013004Y014300D01*
X013465Y014300D02*
X013465Y014225D01*
X013540Y014150D01*
X013690Y014150D01*
X013765Y014075D01*
X013765Y014000D01*
X013690Y013925D01*
X013540Y013925D01*
X013465Y014000D01*
X013465Y014075D01*
X013540Y014150D01*
X013690Y014150D02*
X013765Y014225D01*
X013765Y014300D01*
X013690Y014375D01*
X013540Y014375D01*
X013465Y014300D01*
X013540Y014925D02*
X013465Y015000D01*
X013540Y014925D02*
X013690Y014925D01*
X013765Y015000D01*
X013765Y015150D01*
X013690Y015225D01*
X013615Y015225D01*
X013465Y015150D01*
X013465Y015375D01*
X013765Y015375D01*
X013304Y015300D02*
X013229Y015375D01*
X013079Y015375D01*
X013004Y015300D01*
X012844Y015300D02*
X012769Y015375D01*
X012619Y015375D01*
X012544Y015300D01*
X012544Y015000D01*
X012619Y014925D01*
X012769Y014925D01*
X012844Y015000D01*
X012844Y015300D01*
X013004Y014925D02*
X013304Y015225D01*
X013304Y015300D01*
X013304Y014925D02*
X013004Y014925D01*
X012387Y014925D02*
X012237Y014925D01*
X012312Y014925D02*
X012312Y015375D01*
X012237Y015375D02*
X012387Y015375D01*
X012619Y015925D02*
X012769Y015925D01*
X012844Y016000D01*
X012844Y016150D01*
X012694Y016150D01*
X012544Y016300D02*
X012544Y016000D01*
X012619Y015925D01*
X013004Y015925D02*
X013004Y016375D01*
X013304Y015925D01*
X013304Y016375D01*
X013465Y016375D02*
X013690Y016375D01*
X013765Y016300D01*
X013765Y016000D01*
X013690Y015925D01*
X013465Y015925D01*
X013465Y016375D01*
X013304Y016925D02*
X013004Y016925D01*
X013304Y017225D01*
X013304Y017300D01*
X013229Y017375D01*
X013079Y017375D01*
X013004Y017300D01*
X012844Y017300D02*
X012769Y017375D01*
X012619Y017375D01*
X012544Y017300D01*
X012544Y017000D01*
X012619Y016925D01*
X012769Y016925D01*
X012844Y017000D01*
X012844Y017300D01*
X012387Y017375D02*
X012237Y017375D01*
X012312Y017375D02*
X012312Y016925D01*
X012237Y016925D02*
X012387Y016925D01*
X012619Y016375D02*
X012544Y016300D01*
X012619Y016375D02*
X012769Y016375D01*
X012844Y016300D01*
X013690Y016925D02*
X013690Y017375D01*
X013465Y017150D01*
X013765Y017150D01*
X013690Y017925D02*
X013540Y017925D01*
X013465Y018000D01*
X013304Y017925D02*
X013004Y017925D01*
X013304Y018225D01*
X013304Y018300D01*
X013229Y018375D01*
X013079Y018375D01*
X013004Y018300D01*
X012844Y018300D02*
X012769Y018375D01*
X012619Y018375D01*
X012544Y018300D01*
X012544Y018000D01*
X012619Y017925D01*
X012769Y017925D01*
X012844Y018000D01*
X012844Y018300D01*
X012387Y018375D02*
X012237Y018375D01*
X012312Y018375D02*
X012312Y017925D01*
X012237Y017925D02*
X012387Y017925D01*
X012619Y018925D02*
X012544Y019000D01*
X012544Y019300D01*
X012619Y019375D01*
X012769Y019375D01*
X012844Y019300D01*
X012844Y019150D02*
X012694Y019150D01*
X012844Y019150D02*
X012844Y019000D01*
X012769Y018925D01*
X012619Y018925D01*
X013004Y018925D02*
X013004Y019375D01*
X013304Y018925D01*
X013304Y019375D01*
X013465Y019375D02*
X013690Y019375D01*
X013765Y019300D01*
X013765Y019000D01*
X013690Y018925D01*
X013465Y018925D01*
X013465Y019375D01*
X013540Y019925D02*
X013465Y020000D01*
X013465Y020075D01*
X013540Y020150D01*
X013690Y020150D01*
X013765Y020075D01*
X013765Y020000D01*
X013690Y019925D01*
X013540Y019925D01*
X013540Y020150D02*
X013465Y020225D01*
X013465Y020300D01*
X013540Y020375D01*
X013690Y020375D01*
X013765Y020300D01*
X013765Y020225D01*
X013690Y020150D01*
X013304Y019925D02*
X013004Y019925D01*
X013154Y019925D02*
X013154Y020375D01*
X013004Y020225D01*
X012844Y020300D02*
X012769Y020375D01*
X012619Y020375D01*
X012544Y020300D01*
X012544Y020000D01*
X012619Y019925D01*
X012769Y019925D01*
X012844Y020000D01*
X012844Y020300D01*
X012387Y020375D02*
X012237Y020375D01*
X012312Y020375D02*
X012312Y019925D01*
X012237Y019925D02*
X012387Y019925D01*
X012387Y020925D02*
X012237Y020925D01*
X012312Y020925D02*
X012312Y021375D01*
X012237Y021375D02*
X012387Y021375D01*
X012544Y021300D02*
X012544Y021000D01*
X012619Y020925D01*
X012769Y020925D01*
X012844Y021000D01*
X012844Y021300D01*
X012769Y021375D01*
X012619Y021375D01*
X012544Y021300D01*
X013004Y021225D02*
X013154Y021375D01*
X013154Y020925D01*
X013004Y020925D02*
X013304Y020925D01*
X013465Y021000D02*
X013540Y020925D01*
X013690Y020925D01*
X013765Y021000D01*
X013765Y021150D01*
X013690Y021225D01*
X013615Y021225D01*
X013465Y021150D01*
X013465Y021375D01*
X013765Y021375D01*
X013690Y021925D02*
X013690Y022375D01*
X013465Y022150D01*
X013765Y022150D01*
X013304Y021925D02*
X013004Y021925D01*
X013154Y021925D02*
X013154Y022375D01*
X013004Y022225D01*
X012844Y022300D02*
X012769Y022375D01*
X012619Y022375D01*
X012544Y022300D01*
X012544Y022000D01*
X012619Y021925D01*
X012769Y021925D01*
X012844Y022000D01*
X012844Y022300D01*
X012387Y022375D02*
X012237Y022375D01*
X012312Y022375D02*
X012312Y021925D01*
X012237Y021925D02*
X012387Y021925D01*
X012619Y022925D02*
X012769Y022925D01*
X012844Y023000D01*
X012844Y023150D01*
X012694Y023150D01*
X012544Y023300D02*
X012544Y023000D01*
X012619Y022925D01*
X013004Y022925D02*
X013004Y023375D01*
X013304Y022925D01*
X013304Y023375D01*
X013465Y023375D02*
X013690Y023375D01*
X013765Y023300D01*
X013765Y023000D01*
X013690Y022925D01*
X013465Y022925D01*
X013465Y023375D01*
X013615Y023925D02*
X013765Y024075D01*
X013765Y024375D01*
X013465Y024375D02*
X013465Y024075D01*
X013615Y023925D01*
X013304Y024000D02*
X013229Y023925D01*
X013079Y023925D01*
X013004Y024000D01*
X013004Y024150D02*
X013154Y024225D01*
X013229Y024225D01*
X013304Y024150D01*
X013304Y024000D01*
X013304Y024375D02*
X013004Y024375D01*
X013004Y024150D01*
X013079Y024925D02*
X013004Y025000D01*
X013079Y024925D02*
X013229Y024925D01*
X013304Y025000D01*
X013304Y025150D01*
X013229Y025225D01*
X013154Y025225D01*
X013004Y025150D01*
X013004Y025375D01*
X013304Y025375D01*
X013465Y025375D02*
X013465Y025075D01*
X013615Y024925D01*
X013765Y025075D01*
X013765Y025375D01*
X012769Y023375D02*
X012619Y023375D01*
X012544Y023300D01*
X012769Y023375D02*
X012844Y023300D01*
X010746Y025000D02*
X010671Y024925D01*
X010521Y024925D01*
X010446Y025000D01*
X010286Y025075D02*
X010286Y025375D01*
X010446Y025300D02*
X010521Y025375D01*
X010671Y025375D01*
X010746Y025300D01*
X010746Y025225D01*
X010671Y025150D01*
X010746Y025075D01*
X010746Y025000D01*
X010671Y025150D02*
X010596Y025150D01*
X010286Y025075D02*
X010136Y024925D01*
X009985Y025075D01*
X009985Y025375D01*
X009825Y025300D02*
X009825Y025225D01*
X009750Y025150D01*
X009825Y025075D01*
X009825Y025000D01*
X009750Y024925D01*
X009600Y024925D01*
X009525Y025000D01*
X009675Y025150D02*
X009750Y025150D01*
X009825Y025300D02*
X009750Y025375D01*
X009600Y025375D01*
X009525Y025300D01*
X009525Y024375D02*
X009675Y024375D01*
X009600Y024375D02*
X009600Y023925D01*
X009525Y023925D02*
X009675Y023925D01*
X009832Y024000D02*
X009907Y023925D01*
X010057Y023925D01*
X010132Y024000D01*
X010132Y024300D01*
X010057Y024375D01*
X009907Y024375D01*
X009832Y024300D01*
X009832Y024000D01*
X010292Y023925D02*
X010593Y024225D01*
X010593Y024300D01*
X010518Y024375D01*
X010367Y024375D01*
X010292Y024300D01*
X010292Y023925D02*
X010593Y023925D01*
X010518Y023375D02*
X010367Y023375D01*
X010292Y023300D01*
X010132Y023300D02*
X010132Y023000D01*
X010057Y022925D01*
X009907Y022925D01*
X009832Y023000D01*
X009832Y023300D01*
X009907Y023375D01*
X010057Y023375D01*
X010132Y023300D01*
X010292Y023000D02*
X010367Y022925D01*
X010518Y022925D01*
X010593Y023000D01*
X010593Y023075D01*
X010518Y023150D01*
X010442Y023150D01*
X010518Y023150D02*
X010593Y023225D01*
X010593Y023300D01*
X010518Y023375D01*
X009675Y023375D02*
X009525Y023375D01*
X009600Y023375D02*
X009600Y022925D01*
X009525Y022925D02*
X009675Y022925D01*
X009675Y022375D02*
X009525Y022375D01*
X009600Y022375D02*
X009600Y021925D01*
X009525Y021925D02*
X009675Y021925D01*
X009832Y022000D02*
X009907Y021925D01*
X010057Y021925D01*
X010132Y022000D01*
X010132Y022300D01*
X010057Y022375D01*
X009907Y022375D01*
X009832Y022300D01*
X009832Y022000D01*
X010292Y022150D02*
X010593Y022150D01*
X010518Y021925D02*
X010518Y022375D01*
X010292Y022150D01*
X010286Y021375D02*
X010286Y020925D01*
X009985Y021375D01*
X009985Y020925D01*
X009825Y021000D02*
X009825Y021150D01*
X009675Y021150D01*
X009525Y021000D02*
X009600Y020925D01*
X009750Y020925D01*
X009825Y021000D01*
X009825Y021300D02*
X009750Y021375D01*
X009600Y021375D01*
X009525Y021300D01*
X009525Y021000D01*
X009525Y020375D02*
X009675Y020375D01*
X009600Y020375D02*
X009600Y019925D01*
X009525Y019925D02*
X009675Y019925D01*
X009832Y020000D02*
X009832Y020300D01*
X009907Y020375D01*
X010057Y020375D01*
X010132Y020300D01*
X010132Y020000D01*
X010057Y019925D01*
X009907Y019925D01*
X009832Y020000D01*
X010292Y019925D02*
X010593Y019925D01*
X010442Y019925D02*
X010442Y020375D01*
X010292Y020225D01*
X010753Y020375D02*
X011053Y020375D01*
X011053Y020300D01*
X010753Y020000D01*
X010753Y019925D01*
X010753Y019375D02*
X011053Y019375D01*
X011053Y019300D01*
X010753Y019000D01*
X010753Y018925D01*
X010593Y018925D02*
X010292Y018925D01*
X010593Y019225D01*
X010593Y019300D01*
X010518Y019375D01*
X010367Y019375D01*
X010292Y019300D01*
X010132Y019300D02*
X010132Y019000D01*
X010057Y018925D01*
X009907Y018925D01*
X009832Y019000D01*
X009832Y019300D01*
X009907Y019375D01*
X010057Y019375D01*
X010132Y019300D01*
X009675Y019375D02*
X009525Y019375D01*
X009600Y019375D02*
X009600Y018925D01*
X009525Y018925D02*
X009675Y018925D01*
X009675Y018375D02*
X009525Y018375D01*
X009600Y018375D02*
X009600Y017925D01*
X009525Y017925D02*
X009675Y017925D01*
X009832Y018000D02*
X009832Y018300D01*
X009907Y018375D01*
X010057Y018375D01*
X010132Y018300D01*
X010132Y018000D01*
X010057Y017925D01*
X009907Y017925D01*
X009832Y018000D01*
X010292Y017925D02*
X010593Y018225D01*
X010593Y018300D01*
X010518Y018375D01*
X010367Y018375D01*
X010292Y018300D01*
X010292Y017925D02*
X010593Y017925D01*
X010753Y017925D02*
X011053Y018225D01*
X011053Y018300D01*
X010978Y018375D01*
X010828Y018375D01*
X010753Y018300D01*
X010753Y017925D02*
X011053Y017925D01*
X010671Y017375D02*
X010746Y017300D01*
X010746Y017225D01*
X010671Y017150D01*
X010746Y017075D01*
X010746Y017000D01*
X010671Y016925D01*
X010521Y016925D01*
X010446Y017000D01*
X010286Y017075D02*
X010286Y017375D01*
X010446Y017300D02*
X010521Y017375D01*
X010671Y017375D01*
X010671Y017150D02*
X010596Y017150D01*
X010286Y017075D02*
X010136Y016925D01*
X009985Y017075D01*
X009985Y017375D01*
X009825Y017300D02*
X009825Y017225D01*
X009750Y017150D01*
X009825Y017075D01*
X009825Y017000D01*
X009750Y016925D01*
X009600Y016925D01*
X009525Y017000D01*
X009675Y017150D02*
X009750Y017150D01*
X009825Y017300D02*
X009750Y017375D01*
X009600Y017375D01*
X009525Y017300D01*
X009525Y016375D02*
X009675Y016375D01*
X009600Y016375D02*
X009600Y015925D01*
X009525Y015925D02*
X009675Y015925D01*
X009832Y016000D02*
X009907Y015925D01*
X010057Y015925D01*
X010132Y016000D01*
X010132Y016300D01*
X010057Y016375D01*
X009907Y016375D01*
X009832Y016300D01*
X009832Y016000D01*
X010292Y015925D02*
X010593Y015925D01*
X010442Y015925D02*
X010442Y016375D01*
X010292Y016225D01*
X010753Y016300D02*
X010753Y016000D01*
X011053Y016300D01*
X011053Y016000D01*
X010978Y015925D01*
X010828Y015925D01*
X010753Y016000D01*
X010753Y016300D02*
X010828Y016375D01*
X010978Y016375D01*
X011053Y016300D01*
X010518Y015375D02*
X010367Y015375D01*
X010292Y015300D01*
X010292Y015225D01*
X010367Y015150D01*
X010593Y015150D01*
X010593Y015000D02*
X010593Y015300D01*
X010518Y015375D01*
X010593Y015000D02*
X010518Y014925D01*
X010367Y014925D01*
X010292Y015000D01*
X010132Y015000D02*
X010057Y014925D01*
X009907Y014925D01*
X009832Y015000D01*
X009832Y015300D01*
X009907Y015375D01*
X010057Y015375D01*
X010132Y015300D01*
X010132Y015000D01*
X009675Y014925D02*
X009525Y014925D01*
X009600Y014925D02*
X009600Y015375D01*
X009525Y015375D02*
X009675Y015375D01*
X009675Y014375D02*
X009525Y014375D01*
X009600Y014375D02*
X009600Y013925D01*
X009525Y013925D02*
X009675Y013925D01*
X009832Y014000D02*
X009907Y013925D01*
X010057Y013925D01*
X010132Y014000D01*
X010132Y014300D01*
X010057Y014375D01*
X009907Y014375D01*
X009832Y014300D01*
X009832Y014000D01*
X010292Y013925D02*
X010593Y013925D01*
X010442Y013925D02*
X010442Y014375D01*
X010292Y014225D01*
X010753Y014225D02*
X010903Y014375D01*
X010903Y013925D01*
X010753Y013925D02*
X011053Y013925D01*
X010671Y013375D02*
X010446Y013375D01*
X010446Y012925D01*
X010671Y012925D01*
X010746Y013000D01*
X010746Y013300D01*
X010671Y013375D01*
X010286Y013375D02*
X010286Y012925D01*
X009985Y013375D01*
X009985Y012925D01*
X009825Y013000D02*
X009825Y013150D01*
X009675Y013150D01*
X009525Y013000D02*
X009600Y012925D01*
X009750Y012925D01*
X009825Y013000D01*
X009825Y013300D02*
X009750Y013375D01*
X009600Y013375D01*
X009525Y013300D01*
X009525Y013000D01*
X009525Y012375D02*
X009675Y012375D01*
X009600Y012375D02*
X009600Y011925D01*
X009525Y011925D02*
X009675Y011925D01*
X009832Y011925D02*
X009832Y012375D01*
X010057Y012375D01*
X010132Y012300D01*
X010132Y012000D01*
X010057Y011925D01*
X009832Y011925D01*
X010292Y011925D02*
X010367Y011925D01*
X010367Y012000D01*
X010292Y012000D01*
X010292Y011925D01*
X010523Y012000D02*
X010598Y011925D01*
X010748Y011925D01*
X010823Y012000D01*
X010823Y012075D01*
X010748Y012150D01*
X010598Y012150D01*
X010523Y012225D01*
X010523Y012300D01*
X010598Y012375D01*
X010748Y012375D01*
X010823Y012300D01*
X010983Y012375D02*
X010983Y011925D01*
X011208Y011925D01*
X011283Y012000D01*
X011283Y012300D01*
X011208Y012375D01*
X010983Y012375D01*
X010593Y011375D02*
X010292Y011375D01*
X010292Y011150D01*
X010442Y011225D01*
X010518Y011225D01*
X010593Y011150D01*
X010593Y011000D01*
X010518Y010925D01*
X010367Y010925D01*
X010292Y011000D01*
X010132Y011000D02*
X010132Y011300D01*
X010057Y011375D01*
X009907Y011375D01*
X009832Y011300D01*
X009832Y011000D01*
X009907Y010925D01*
X010057Y010925D01*
X010132Y011000D01*
X009675Y010925D02*
X009525Y010925D01*
X009600Y010925D02*
X009600Y011375D01*
X009525Y011375D02*
X009675Y011375D01*
X009675Y010375D02*
X009525Y010375D01*
X009600Y010375D02*
X009600Y009925D01*
X009525Y009925D02*
X009675Y009925D01*
X009832Y010000D02*
X009832Y010300D01*
X009907Y010375D01*
X010057Y010375D01*
X010132Y010300D01*
X010132Y010000D01*
X010057Y009925D01*
X009907Y009925D01*
X009832Y010000D01*
X010292Y010000D02*
X010367Y009925D01*
X010518Y009925D01*
X010593Y010000D01*
X010593Y010075D01*
X010518Y010150D01*
X010292Y010150D01*
X010292Y010000D01*
X010292Y010150D02*
X010442Y010300D01*
X010593Y010375D01*
X010442Y009375D02*
X010442Y008925D01*
X010292Y008925D02*
X010593Y008925D01*
X010753Y009000D02*
X010828Y008925D01*
X010978Y008925D01*
X011053Y009000D01*
X011053Y009075D01*
X010978Y009150D01*
X010903Y009150D01*
X010978Y009150D02*
X011053Y009225D01*
X011053Y009300D01*
X010978Y009375D01*
X010828Y009375D01*
X010753Y009300D01*
X010442Y009375D02*
X010292Y009225D01*
X010132Y009300D02*
X010132Y009000D01*
X010057Y008925D01*
X009907Y008925D01*
X009832Y009000D01*
X009832Y009300D01*
X009907Y009375D01*
X010057Y009375D01*
X010132Y009300D01*
X009675Y009375D02*
X009525Y009375D01*
X009600Y009375D02*
X009600Y008925D01*
X009525Y008925D02*
X009675Y008925D01*
X009675Y008375D02*
X009525Y008375D01*
X009600Y008375D02*
X009600Y007925D01*
X009525Y007925D02*
X009675Y007925D01*
X009832Y008000D02*
X009907Y007925D01*
X010057Y007925D01*
X010132Y008000D01*
X010132Y008300D01*
X010057Y008375D01*
X009907Y008375D01*
X009832Y008300D01*
X009832Y008000D01*
X010292Y007925D02*
X010593Y007925D01*
X010442Y007925D02*
X010442Y008375D01*
X010292Y008225D01*
X010753Y008225D02*
X010828Y008150D01*
X011053Y008150D01*
X011053Y008000D02*
X011053Y008300D01*
X010978Y008375D01*
X010828Y008375D01*
X010753Y008300D01*
X010753Y008225D01*
X010753Y008000D02*
X010828Y007925D01*
X010978Y007925D01*
X011053Y008000D01*
X011053Y007375D02*
X010903Y007300D01*
X010753Y007150D01*
X010978Y007150D01*
X011053Y007075D01*
X011053Y007000D01*
X010978Y006925D01*
X010828Y006925D01*
X010753Y007000D01*
X010753Y007150D01*
X010593Y007225D02*
X010593Y007300D01*
X010518Y007375D01*
X010367Y007375D01*
X010292Y007300D01*
X010132Y007300D02*
X010132Y007000D01*
X010057Y006925D01*
X009907Y006925D01*
X009832Y007000D01*
X009832Y007300D01*
X009907Y007375D01*
X010057Y007375D01*
X010132Y007300D01*
X010292Y006925D02*
X010593Y007225D01*
X010593Y006925D02*
X010292Y006925D01*
X010286Y006375D02*
X010286Y005925D01*
X009985Y006375D01*
X009985Y005925D01*
X009825Y006000D02*
X009825Y006150D01*
X009675Y006150D01*
X009525Y006300D02*
X009525Y006000D01*
X009600Y005925D01*
X009750Y005925D01*
X009825Y006000D01*
X009825Y006300D02*
X009750Y006375D01*
X009600Y006375D01*
X009525Y006300D01*
X009525Y006925D02*
X009675Y006925D01*
X009600Y006925D02*
X009600Y007375D01*
X009525Y007375D02*
X009675Y007375D01*
X010446Y006375D02*
X010671Y006375D01*
X010746Y006300D01*
X010746Y006000D01*
X010671Y005925D01*
X010446Y005925D01*
X010446Y006375D01*
X013465Y009925D02*
X013765Y010225D01*
X013765Y010300D01*
X013690Y010375D01*
X013540Y010375D01*
X013465Y010300D01*
X013465Y009925D02*
X013765Y009925D01*
X012157Y011925D02*
X012007Y011925D01*
X012082Y011925D02*
X012082Y012375D01*
X012007Y012375D02*
X012157Y012375D01*
X013465Y012925D02*
X013465Y013000D01*
X013765Y013300D01*
X013765Y013375D01*
X013465Y013375D01*
X013690Y017925D02*
X013765Y018000D01*
X013765Y018075D01*
X013690Y018150D01*
X013615Y018150D01*
X013690Y018150D02*
X013765Y018225D01*
X013765Y018300D01*
X013690Y018375D01*
X013540Y018375D01*
X013465Y018300D01*
X010746Y021000D02*
X010746Y021300D01*
X010671Y021375D01*
X010446Y021375D01*
X010446Y020925D01*
X010671Y020925D01*
X010746Y021000D01*
X014366Y004225D02*
X014591Y004225D01*
X014666Y004150D01*
X014666Y004075D01*
X014591Y004000D01*
X014366Y004000D01*
X014591Y004000D02*
X014666Y003925D01*
X014666Y003850D01*
X014591Y003775D01*
X014366Y003775D01*
X014366Y004225D01*
X014826Y004075D02*
X014826Y003775D01*
X014826Y003925D02*
X014976Y004075D01*
X015051Y004075D01*
X015210Y004000D02*
X015210Y003850D01*
X015285Y003775D01*
X015435Y003775D01*
X015510Y003925D02*
X015210Y003925D01*
X015210Y004000D02*
X015285Y004075D01*
X015435Y004075D01*
X015510Y004000D01*
X015510Y003925D01*
X015670Y003850D02*
X015745Y003925D01*
X015970Y003925D01*
X015970Y004000D02*
X015970Y003775D01*
X015745Y003775D01*
X015670Y003850D01*
X015745Y004075D02*
X015895Y004075D01*
X015970Y004000D01*
X016130Y003925D02*
X016356Y004075D01*
X016514Y004000D02*
X016514Y003850D01*
X016589Y003775D01*
X016739Y003775D01*
X016814Y003850D01*
X016814Y004000D01*
X016739Y004075D01*
X016589Y004075D01*
X016514Y004000D01*
X016356Y003775D02*
X016130Y003925D01*
X016130Y003775D02*
X016130Y004225D01*
X016974Y004075D02*
X016974Y003850D01*
X017049Y003775D01*
X017275Y003775D01*
X017275Y004075D01*
X017435Y004075D02*
X017585Y004075D01*
X017510Y004150D02*
X017510Y003850D01*
X017585Y003775D01*
X021615Y002525D02*
X021765Y002675D01*
X021765Y002225D01*
X021615Y002225D02*
X021915Y002225D01*
D11*
X021550Y003900D02*
X020800Y003900D01*
X011500Y005450D02*
X011500Y025650D01*
D12*
X002309Y004540D02*
X002362Y004487D01*
X002149Y004273D01*
X002202Y004220D01*
X002309Y004220D01*
X002362Y004273D01*
X002362Y004487D01*
X002309Y004540D02*
X002202Y004540D01*
X002149Y004487D01*
X002149Y004273D01*
X002036Y004273D02*
X002036Y004220D01*
X001983Y004220D01*
X001983Y004273D01*
X002036Y004273D01*
X001865Y004220D02*
X001651Y004220D01*
X001758Y004220D02*
X001758Y004540D01*
X001651Y004434D01*
X001534Y004434D02*
X001427Y004220D01*
X001320Y004434D01*
D13*
X000150Y003600D02*
X000150Y000180D01*
X023150Y000180D01*
X023150Y003600D01*
X012150Y003600D01*
X012150Y003200D01*
X011150Y003200D01*
X011150Y003600D01*
X000150Y003600D01*
X008400Y005650D02*
X009400Y005650D01*
X009400Y025650D01*
X008400Y025650D01*
X008400Y005650D01*
X013900Y005650D02*
X014900Y005650D01*
X014900Y025650D01*
X013900Y025650D01*
X013900Y005650D01*
D14*
X011930Y005280D02*
X011930Y004660D01*
X012000Y004660D01*
X012000Y004400D01*
X011610Y004400D01*
X011610Y004660D01*
X011690Y004660D01*
X011780Y005030D01*
X011670Y005030D01*
X011670Y005060D01*
X011510Y005060D01*
X011510Y005080D01*
X011620Y005080D01*
X011620Y005210D01*
X011380Y005210D01*
X011380Y005080D01*
X011510Y005080D01*
X011510Y005060D01*
X011320Y005060D01*
X011320Y005030D01*
X011210Y005030D01*
X011320Y004660D01*
X011380Y004660D01*
X011380Y004400D01*
X011000Y004400D01*
X011000Y004660D01*
X011060Y004660D01*
X011060Y005270D01*
X011220Y005430D01*
X011770Y005430D01*
X011930Y005280D01*
X011930Y005276D02*
X011066Y005276D01*
X011060Y005267D02*
X011930Y005267D01*
X011930Y005259D02*
X011060Y005259D01*
X011060Y005250D02*
X011930Y005250D01*
X011930Y005242D02*
X011060Y005242D01*
X011060Y005233D02*
X011930Y005233D01*
X011930Y005225D02*
X011060Y005225D01*
X011060Y005216D02*
X011930Y005216D01*
X011930Y005208D02*
X011620Y005208D01*
X011620Y005199D02*
X011930Y005199D01*
X011930Y005191D02*
X011620Y005191D01*
X011620Y005182D02*
X011930Y005182D01*
X011930Y005174D02*
X011620Y005174D01*
X011620Y005165D02*
X011930Y005165D01*
X011930Y005157D02*
X011620Y005157D01*
X011620Y005148D02*
X011930Y005148D01*
X011930Y005140D02*
X011620Y005140D01*
X011620Y005131D02*
X011930Y005131D01*
X011930Y005123D02*
X011620Y005123D01*
X011620Y005114D02*
X011930Y005114D01*
X011930Y005106D02*
X011620Y005106D01*
X011620Y005097D02*
X011930Y005097D01*
X011930Y005089D02*
X011620Y005089D01*
X011620Y005080D02*
X011930Y005080D01*
X011930Y005072D02*
X011510Y005072D01*
X011060Y005072D01*
X011060Y005080D02*
X011380Y005080D01*
X011380Y005089D02*
X011060Y005089D01*
X011060Y005097D02*
X011380Y005097D01*
X011380Y005106D02*
X011060Y005106D01*
X011060Y005114D02*
X011380Y005114D01*
X011380Y005123D02*
X011060Y005123D01*
X011060Y005131D02*
X011380Y005131D01*
X011380Y005140D02*
X011060Y005140D01*
X011060Y005148D02*
X011380Y005148D01*
X011380Y005157D02*
X011060Y005157D01*
X011060Y005165D02*
X011380Y005165D01*
X011380Y005174D02*
X011060Y005174D01*
X011060Y005182D02*
X011380Y005182D01*
X011380Y005191D02*
X011060Y005191D01*
X011060Y005199D02*
X011380Y005199D01*
X011380Y005208D02*
X011060Y005208D01*
X011074Y005284D02*
X011926Y005284D01*
X011917Y005293D02*
X011083Y005293D01*
X011091Y005301D02*
X011907Y005301D01*
X011898Y005310D02*
X011100Y005310D01*
X011108Y005318D02*
X011889Y005318D01*
X011880Y005327D02*
X011117Y005327D01*
X011125Y005335D02*
X011871Y005335D01*
X011862Y005344D02*
X011134Y005344D01*
X011142Y005352D02*
X011853Y005352D01*
X011844Y005361D02*
X011151Y005361D01*
X011159Y005369D02*
X011835Y005369D01*
X011826Y005378D02*
X011168Y005378D01*
X011176Y005386D02*
X011817Y005386D01*
X011808Y005395D02*
X011185Y005395D01*
X011193Y005403D02*
X011799Y005403D01*
X011790Y005412D02*
X011202Y005412D01*
X011210Y005420D02*
X011781Y005420D01*
X011771Y005429D02*
X011219Y005429D01*
X011320Y005055D02*
X011060Y005055D01*
X011060Y005063D02*
X011510Y005063D01*
X011930Y005063D01*
X011930Y005055D02*
X011670Y005055D01*
X011670Y005046D02*
X011930Y005046D01*
X011930Y005038D02*
X011670Y005038D01*
X011776Y005012D02*
X011930Y005012D01*
X011930Y005004D02*
X011774Y005004D01*
X011772Y004995D02*
X011930Y004995D01*
X011930Y004987D02*
X011769Y004987D01*
X011767Y004978D02*
X011930Y004978D01*
X011930Y004970D02*
X011765Y004970D01*
X011763Y004961D02*
X011930Y004961D01*
X011930Y004953D02*
X011761Y004953D01*
X011759Y004944D02*
X011930Y004944D01*
X011930Y004936D02*
X011757Y004936D01*
X011755Y004927D02*
X011930Y004927D01*
X011930Y004919D02*
X011753Y004919D01*
X011751Y004910D02*
X011930Y004910D01*
X011930Y004902D02*
X011749Y004902D01*
X011747Y004893D02*
X011930Y004893D01*
X011930Y004885D02*
X011745Y004885D01*
X011743Y004876D02*
X011930Y004876D01*
X011930Y004868D02*
X011741Y004868D01*
X011738Y004859D02*
X011930Y004859D01*
X011930Y004851D02*
X011736Y004851D01*
X011734Y004842D02*
X011930Y004842D01*
X011930Y004834D02*
X011732Y004834D01*
X011730Y004825D02*
X011930Y004825D01*
X011930Y004817D02*
X011728Y004817D01*
X011726Y004808D02*
X011930Y004808D01*
X011930Y004800D02*
X011724Y004800D01*
X011722Y004791D02*
X011930Y004791D01*
X011930Y004783D02*
X011720Y004783D01*
X011718Y004774D02*
X011930Y004774D01*
X011930Y004766D02*
X011716Y004766D01*
X011714Y004757D02*
X011930Y004757D01*
X011930Y004749D02*
X011712Y004749D01*
X011709Y004740D02*
X011930Y004740D01*
X011930Y004732D02*
X011707Y004732D01*
X011705Y004723D02*
X011930Y004723D01*
X011930Y004715D02*
X011703Y004715D01*
X011701Y004706D02*
X011930Y004706D01*
X011930Y004698D02*
X011699Y004698D01*
X011697Y004689D02*
X011930Y004689D01*
X011930Y004681D02*
X011695Y004681D01*
X011693Y004672D02*
X011930Y004672D01*
X011930Y004664D02*
X011691Y004664D01*
X011610Y004655D02*
X012000Y004655D01*
X012000Y004647D02*
X011610Y004647D01*
X011610Y004638D02*
X012000Y004638D01*
X012000Y004630D02*
X011610Y004630D01*
X011610Y004621D02*
X012000Y004621D01*
X012000Y004613D02*
X011610Y004613D01*
X011610Y004604D02*
X012000Y004604D01*
X012000Y004596D02*
X011610Y004596D01*
X011610Y004587D02*
X012000Y004587D01*
X012000Y004579D02*
X011610Y004579D01*
X011610Y004570D02*
X012000Y004570D01*
X012000Y004562D02*
X011610Y004562D01*
X011610Y004553D02*
X012000Y004553D01*
X012000Y004545D02*
X011610Y004545D01*
X011610Y004536D02*
X012000Y004536D01*
X012000Y004528D02*
X011610Y004528D01*
X011610Y004519D02*
X012000Y004519D01*
X012000Y004511D02*
X011610Y004511D01*
X011610Y004502D02*
X012000Y004502D01*
X012000Y004494D02*
X011610Y004494D01*
X011610Y004485D02*
X012000Y004485D01*
X012000Y004477D02*
X011610Y004477D01*
X011610Y004468D02*
X012000Y004468D01*
X012000Y004460D02*
X011610Y004460D01*
X011610Y004451D02*
X012000Y004451D01*
X012000Y004443D02*
X011610Y004443D01*
X011610Y004434D02*
X012000Y004434D01*
X012000Y004426D02*
X011610Y004426D01*
X011610Y004417D02*
X012000Y004417D01*
X012000Y004409D02*
X011610Y004409D01*
X011610Y004400D02*
X012000Y004400D01*
X011930Y005021D02*
X011778Y005021D01*
X011780Y005029D02*
X011930Y005029D01*
X011320Y005038D02*
X011060Y005038D01*
X011060Y005046D02*
X011320Y005046D01*
X011215Y005012D02*
X011060Y005012D01*
X011060Y005004D02*
X011218Y005004D01*
X011220Y004995D02*
X011060Y004995D01*
X011060Y004987D02*
X011223Y004987D01*
X011225Y004978D02*
X011060Y004978D01*
X011060Y004970D02*
X011228Y004970D01*
X011230Y004961D02*
X011060Y004961D01*
X011060Y004953D02*
X011233Y004953D01*
X011236Y004944D02*
X011060Y004944D01*
X011060Y004936D02*
X011238Y004936D01*
X011241Y004927D02*
X011060Y004927D01*
X011060Y004919D02*
X011243Y004919D01*
X011246Y004910D02*
X011060Y004910D01*
X011060Y004902D02*
X011248Y004902D01*
X011251Y004893D02*
X011060Y004893D01*
X011060Y004885D02*
X011253Y004885D01*
X011256Y004876D02*
X011060Y004876D01*
X011060Y004868D02*
X011258Y004868D01*
X011261Y004859D02*
X011060Y004859D01*
X011060Y004851D02*
X011263Y004851D01*
X011266Y004842D02*
X011060Y004842D01*
X011060Y004834D02*
X011268Y004834D01*
X011271Y004825D02*
X011060Y004825D01*
X011060Y004817D02*
X011273Y004817D01*
X011276Y004808D02*
X011060Y004808D01*
X011060Y004800D02*
X011278Y004800D01*
X011281Y004791D02*
X011060Y004791D01*
X011060Y004783D02*
X011284Y004783D01*
X011286Y004774D02*
X011060Y004774D01*
X011060Y004766D02*
X011289Y004766D01*
X011291Y004757D02*
X011060Y004757D01*
X011060Y004749D02*
X011294Y004749D01*
X011296Y004740D02*
X011060Y004740D01*
X011060Y004732D02*
X011299Y004732D01*
X011301Y004723D02*
X011060Y004723D01*
X011060Y004715D02*
X011304Y004715D01*
X011306Y004706D02*
X011060Y004706D01*
X011060Y004698D02*
X011309Y004698D01*
X011311Y004689D02*
X011060Y004689D01*
X011060Y004681D02*
X011314Y004681D01*
X011316Y004672D02*
X011060Y004672D01*
X011060Y004664D02*
X011319Y004664D01*
X011380Y004655D02*
X011000Y004655D01*
X011000Y004647D02*
X011380Y004647D01*
X011380Y004638D02*
X011000Y004638D01*
X011000Y004630D02*
X011380Y004630D01*
X011380Y004621D02*
X011000Y004621D01*
X011000Y004613D02*
X011380Y004613D01*
X011380Y004604D02*
X011000Y004604D01*
X011000Y004596D02*
X011380Y004596D01*
X011380Y004587D02*
X011000Y004587D01*
X011000Y004579D02*
X011380Y004579D01*
X011380Y004570D02*
X011000Y004570D01*
X011000Y004562D02*
X011380Y004562D01*
X011380Y004553D02*
X011000Y004553D01*
X011000Y004545D02*
X011380Y004545D01*
X011380Y004536D02*
X011000Y004536D01*
X011000Y004528D02*
X011380Y004528D01*
X011380Y004519D02*
X011000Y004519D01*
X011000Y004511D02*
X011380Y004511D01*
X011380Y004502D02*
X011000Y004502D01*
X011000Y004494D02*
X011380Y004494D01*
X011380Y004485D02*
X011000Y004485D01*
X011000Y004477D02*
X011380Y004477D01*
X011380Y004468D02*
X011000Y004468D01*
X011000Y004460D02*
X011380Y004460D01*
X011380Y004451D02*
X011000Y004451D01*
X011000Y004443D02*
X011380Y004443D01*
X011380Y004434D02*
X011000Y004434D01*
X011000Y004426D02*
X011380Y004426D01*
X011380Y004417D02*
X011000Y004417D01*
X011000Y004409D02*
X011380Y004409D01*
X011380Y004400D02*
X011000Y004400D01*
X011060Y005021D02*
X011213Y005021D01*
X011210Y005029D02*
X011060Y005029D01*
M02*
