G75*
%MOIN*%
%OFA0B0*%
%FSLAX24Y24*%
%IPPOS*%
%LPD*%
%AMOC8*
5,1,8,0,0,1.08239X$1,22.5*
%
%ADD10R,0.0740X0.0740*%
%ADD11C,0.0740*%
%ADD12C,0.0100*%
%ADD13C,0.0350*%
D10*
X021150Y002400D03*
X008900Y025150D03*
D11*
X008900Y024150D03*
X008900Y023150D03*
X008900Y022150D03*
X008900Y021150D03*
X008900Y020150D03*
X008900Y019150D03*
X008900Y018150D03*
X008900Y017150D03*
X008900Y016150D03*
X008900Y015150D03*
X008900Y014150D03*
X008900Y013150D03*
X008900Y012150D03*
X008900Y011150D03*
X008900Y010150D03*
X008900Y009150D03*
X008900Y008150D03*
X008900Y007150D03*
X008900Y006150D03*
X009150Y002400D03*
X009150Y001400D03*
X010150Y001400D03*
X010150Y002400D03*
X011150Y002400D03*
X011150Y001400D03*
X012150Y001400D03*
X012150Y002400D03*
X013150Y002400D03*
X013150Y001400D03*
X014150Y001400D03*
X014150Y002400D03*
X015150Y002400D03*
X015150Y001400D03*
X016150Y001400D03*
X016150Y002400D03*
X017150Y002400D03*
X017150Y001400D03*
X018150Y001400D03*
X018150Y002400D03*
X019150Y002400D03*
X019150Y001400D03*
X020150Y001400D03*
X020150Y002400D03*
X021150Y001400D03*
X014400Y006150D03*
X014400Y007150D03*
X014400Y008150D03*
X014400Y009150D03*
X014400Y010150D03*
X014400Y011150D03*
X014400Y012150D03*
X014400Y013150D03*
X014400Y014150D03*
X014400Y015150D03*
X014400Y016150D03*
X014400Y017150D03*
X014400Y018150D03*
X014400Y019150D03*
X014400Y020150D03*
X014400Y021150D03*
X014400Y022150D03*
X014400Y023150D03*
X014400Y024150D03*
X014400Y025150D03*
X008150Y002400D03*
X008150Y001400D03*
X007150Y001400D03*
X007150Y002400D03*
X006150Y002400D03*
X006150Y001400D03*
X005150Y001400D03*
X005150Y002400D03*
X004150Y002400D03*
X004150Y001400D03*
X003150Y001400D03*
X003150Y002400D03*
X002150Y002400D03*
X002150Y001400D03*
D12*
X000285Y000285D02*
X000285Y003650D01*
X000296Y003785D01*
X000379Y004043D01*
X000538Y004262D01*
X000757Y004421D01*
X001015Y004504D01*
X001150Y004515D01*
X003460Y004515D01*
X002970Y004025D01*
X002970Y002867D01*
X002867Y002824D01*
X002726Y002683D01*
X002650Y002499D01*
X002650Y002301D01*
X002726Y002117D01*
X002867Y001976D01*
X003051Y001900D01*
X002867Y001824D01*
X002726Y001683D01*
X002650Y001499D01*
X002650Y001301D01*
X002726Y001117D01*
X002867Y000976D01*
X003051Y000900D01*
X003249Y000900D01*
X003433Y000976D01*
X003574Y001117D01*
X003650Y001301D01*
X003726Y001117D01*
X003867Y000976D01*
X004051Y000900D01*
X004249Y000900D01*
X004433Y000976D01*
X004574Y001117D01*
X004650Y001301D01*
X004650Y001499D01*
X004574Y001683D01*
X004433Y001824D01*
X004249Y001900D01*
X004433Y001976D01*
X004574Y002117D01*
X004650Y002301D01*
X004726Y002117D01*
X004867Y001976D01*
X005051Y001900D01*
X005249Y001900D01*
X005433Y001976D01*
X005574Y002117D01*
X005650Y002301D01*
X005726Y002117D01*
X005867Y001976D01*
X006051Y001900D01*
X006249Y001900D01*
X006433Y001976D01*
X006574Y002117D01*
X006650Y002301D01*
X006726Y002117D01*
X006867Y001976D01*
X007051Y001900D01*
X007249Y001900D01*
X007433Y001976D01*
X007574Y002117D01*
X007650Y002301D01*
X007726Y002117D01*
X007867Y001976D01*
X008051Y001900D01*
X008249Y001900D01*
X008433Y001976D01*
X008574Y002117D01*
X008650Y002301D01*
X008650Y002499D01*
X008574Y002683D01*
X008433Y002824D01*
X008249Y002900D01*
X008051Y002900D01*
X007867Y002824D01*
X007726Y002683D01*
X007650Y002499D01*
X007650Y002301D01*
X007650Y002499D01*
X007574Y002683D01*
X007433Y002824D01*
X007249Y002900D01*
X007051Y002900D01*
X006867Y002824D01*
X006726Y002683D01*
X006650Y002499D01*
X006650Y002301D01*
X006650Y002499D01*
X006574Y002683D01*
X006433Y002824D01*
X006249Y002900D01*
X006051Y002900D01*
X005867Y002824D01*
X005726Y002683D01*
X005650Y002499D01*
X005650Y002301D01*
X005650Y002499D01*
X005574Y002683D01*
X005433Y002824D01*
X005249Y002900D01*
X005051Y002900D01*
X004867Y002824D01*
X004726Y002683D01*
X004650Y002499D01*
X004650Y002301D01*
X004650Y002499D01*
X004574Y002683D01*
X004433Y002824D01*
X004249Y002900D01*
X004051Y002900D01*
X003867Y002824D01*
X003726Y002683D01*
X003650Y002499D01*
X003650Y002301D01*
X003726Y002117D01*
X003867Y001976D01*
X004051Y001900D01*
X004249Y001900D01*
X004051Y001900D01*
X003867Y001824D01*
X003726Y001683D01*
X003650Y001499D01*
X003650Y001301D01*
X003650Y001499D01*
X003574Y001683D01*
X003433Y001824D01*
X003249Y001900D01*
X003051Y001900D01*
X003249Y001900D01*
X003433Y001976D01*
X003574Y002117D01*
X003650Y002301D01*
X003650Y002499D01*
X003574Y002683D01*
X003433Y002824D01*
X003330Y002867D01*
X003330Y003875D01*
X003775Y004320D01*
X008875Y004320D01*
X009000Y004445D01*
X009111Y004445D01*
X009220Y004490D01*
X009220Y003903D01*
X009218Y003831D01*
X009220Y003829D01*
X009220Y003825D01*
X009271Y003775D01*
X009970Y003029D01*
X009970Y002867D01*
X009867Y002824D01*
X009726Y002683D01*
X009650Y002499D01*
X009650Y002301D01*
X009726Y002117D01*
X009867Y001976D01*
X010051Y001900D01*
X009867Y001824D01*
X009726Y001683D01*
X009650Y001499D01*
X009574Y001683D01*
X009433Y001824D01*
X009249Y001900D01*
X009051Y001900D01*
X008867Y001824D01*
X008726Y001683D01*
X008650Y001499D01*
X008650Y001301D01*
X008726Y001117D01*
X008867Y000976D01*
X009051Y000900D01*
X009249Y000900D01*
X009433Y000976D01*
X009574Y001117D01*
X009650Y001301D01*
X009650Y001499D01*
X009650Y001301D01*
X009726Y001117D01*
X009867Y000976D01*
X010051Y000900D01*
X010249Y000900D01*
X010433Y000976D01*
X010574Y001117D01*
X010650Y001301D01*
X010726Y001117D01*
X010867Y000976D01*
X011051Y000900D01*
X011249Y000900D01*
X011433Y000976D01*
X011574Y001117D01*
X011650Y001301D01*
X011650Y001499D01*
X011574Y001683D01*
X011433Y001824D01*
X011249Y001900D01*
X011051Y001900D01*
X010867Y001824D01*
X010726Y001683D01*
X010650Y001499D01*
X010650Y001301D01*
X010650Y001499D01*
X010574Y001683D01*
X010433Y001824D01*
X010249Y001900D01*
X010051Y001900D01*
X010249Y001900D01*
X010433Y001976D01*
X010574Y002117D01*
X010650Y002301D01*
X010726Y002117D01*
X010867Y001976D01*
X011051Y001900D01*
X011249Y001900D01*
X011433Y001976D01*
X011574Y002117D01*
X011650Y002301D01*
X011726Y002117D01*
X011867Y001976D01*
X012051Y001900D01*
X012249Y001900D01*
X012433Y001976D01*
X012574Y002117D01*
X012650Y002301D01*
X012726Y002117D01*
X012867Y001976D01*
X013051Y001900D01*
X012867Y001824D01*
X012726Y001683D01*
X012650Y001499D01*
X012650Y001301D01*
X012726Y001117D01*
X012867Y000976D01*
X013051Y000900D01*
X013249Y000900D01*
X013433Y000976D01*
X013574Y001117D01*
X013650Y001301D01*
X013726Y001117D01*
X013867Y000976D01*
X014051Y000900D01*
X014249Y000900D01*
X014433Y000976D01*
X014574Y001117D01*
X014650Y001301D01*
X014650Y001499D01*
X014574Y001683D01*
X014433Y001824D01*
X014249Y001900D01*
X014051Y001900D01*
X013867Y001824D01*
X013726Y001683D01*
X013650Y001499D01*
X013650Y001301D01*
X013650Y001499D01*
X013574Y001683D01*
X013433Y001824D01*
X013249Y001900D01*
X013051Y001900D01*
X013249Y001900D01*
X013433Y001976D01*
X013574Y002117D01*
X013650Y002301D01*
X013726Y002117D01*
X013867Y001976D01*
X014051Y001900D01*
X014249Y001900D01*
X014433Y001976D01*
X014574Y002117D01*
X014650Y002301D01*
X014726Y002117D01*
X014867Y001976D01*
X015051Y001900D01*
X015249Y001900D01*
X015433Y001976D01*
X015574Y002117D01*
X015650Y002301D01*
X015726Y002117D01*
X015867Y001976D01*
X016051Y001900D01*
X015867Y001824D01*
X015726Y001683D01*
X015650Y001499D01*
X015650Y001301D01*
X015726Y001117D01*
X015867Y000976D01*
X016051Y000900D01*
X016249Y000900D01*
X016433Y000976D01*
X016574Y001117D01*
X016650Y001301D01*
X016650Y001499D01*
X016574Y001683D01*
X016433Y001824D01*
X016249Y001900D01*
X016051Y001900D01*
X016249Y001900D01*
X016433Y001976D01*
X016574Y002117D01*
X016650Y002301D01*
X016650Y002499D01*
X016574Y002683D01*
X016537Y002720D01*
X017763Y002720D01*
X017726Y002683D01*
X017650Y002499D01*
X017650Y002301D01*
X017726Y002117D01*
X017867Y001976D01*
X018051Y001900D01*
X017867Y001824D01*
X017726Y001683D01*
X017650Y001499D01*
X017574Y001683D01*
X017433Y001824D01*
X017249Y001900D01*
X017051Y001900D01*
X016867Y001824D01*
X016726Y001683D01*
X016650Y001499D01*
X016650Y001301D01*
X016726Y001117D01*
X016867Y000976D01*
X017051Y000900D01*
X017249Y000900D01*
X017433Y000976D01*
X017574Y001117D01*
X017650Y001301D01*
X017650Y001499D01*
X017650Y001301D01*
X017726Y001117D01*
X017867Y000976D01*
X018051Y000900D01*
X018249Y000900D01*
X018433Y000976D01*
X018574Y001117D01*
X018650Y001301D01*
X018650Y001499D01*
X018574Y001683D01*
X018433Y001824D01*
X018249Y001900D01*
X018051Y001900D01*
X018249Y001900D01*
X018433Y001976D01*
X018574Y002117D01*
X018650Y002301D01*
X018726Y002117D01*
X018867Y001976D01*
X019051Y001900D01*
X019249Y001900D01*
X019433Y001976D01*
X019574Y002117D01*
X019650Y002301D01*
X019726Y002117D01*
X019867Y001976D01*
X020051Y001900D01*
X019867Y001824D01*
X019726Y001683D01*
X019650Y001499D01*
X019650Y001301D01*
X019726Y001117D01*
X019867Y000976D01*
X020051Y000900D01*
X020249Y000900D01*
X020433Y000976D01*
X020574Y001117D01*
X020650Y001301D01*
X020650Y001499D01*
X020574Y001683D01*
X020433Y001824D01*
X020249Y001900D01*
X020051Y001900D01*
X020249Y001900D01*
X020433Y001976D01*
X020574Y002117D01*
X020650Y002301D01*
X020650Y002499D01*
X020574Y002683D01*
X020433Y002824D01*
X020330Y002867D01*
X020330Y003025D01*
X020035Y003320D01*
X020525Y003320D01*
X020945Y002900D01*
X020726Y002900D01*
X020650Y002824D01*
X020650Y001976D01*
X020726Y001900D01*
X021574Y001900D01*
X021650Y001976D01*
X021650Y002824D01*
X021574Y002900D01*
X021330Y002900D01*
X021330Y003025D01*
X020780Y003575D01*
X020675Y003680D01*
X016725Y003680D01*
X016630Y003775D01*
X016525Y003880D01*
X015675Y003880D01*
X015580Y003975D01*
X015475Y004080D01*
X014825Y004080D01*
X014680Y004225D01*
X014575Y004330D01*
X013925Y004330D01*
X013575Y004680D01*
X011975Y004680D01*
X011855Y004800D01*
X011855Y004911D01*
X011809Y005023D01*
X011723Y005109D01*
X011611Y005155D01*
X011489Y005155D01*
X011380Y005110D01*
X011380Y021925D01*
X009357Y023947D01*
X009400Y024051D01*
X009400Y024249D01*
X009324Y024433D01*
X009183Y024574D01*
X008999Y024650D01*
X008801Y024650D01*
X008617Y024574D01*
X008535Y024492D01*
X008535Y024650D01*
X009145Y024650D01*
X011045Y022750D01*
X011045Y022639D01*
X011091Y022527D01*
X011177Y022441D01*
X011289Y022395D01*
X011411Y022395D01*
X011523Y022441D01*
X011609Y022527D01*
X011655Y022639D01*
X011655Y022761D01*
X011609Y022873D01*
X011523Y022959D01*
X011411Y023005D01*
X011300Y023005D01*
X009400Y024905D01*
X009400Y025515D01*
X014058Y025515D01*
X013976Y025433D01*
X013900Y025249D01*
X013900Y025051D01*
X013976Y024867D01*
X014117Y024726D01*
X014301Y024650D01*
X014117Y024574D01*
X013976Y024433D01*
X013900Y024249D01*
X013900Y024051D01*
X013976Y023867D01*
X014117Y023726D01*
X014282Y023658D01*
X014278Y023657D01*
X014200Y023632D01*
X014127Y023595D01*
X014061Y023547D01*
X014003Y023489D01*
X013955Y023423D01*
X013918Y023350D01*
X013893Y023272D01*
X013881Y023200D01*
X014350Y023200D01*
X014350Y023100D01*
X013881Y023100D01*
X013893Y023028D01*
X013918Y022950D01*
X013955Y022877D01*
X014003Y022811D01*
X014061Y022753D01*
X014127Y022705D01*
X014200Y022668D01*
X014278Y022643D01*
X014282Y022642D01*
X014197Y022607D01*
X014125Y022680D01*
X013801Y022680D01*
X013723Y022759D01*
X013611Y022805D01*
X013489Y022805D01*
X013377Y022759D01*
X013291Y022673D01*
X013245Y022561D01*
X013245Y022439D01*
X013291Y022327D01*
X013377Y022241D01*
X013489Y022195D01*
X013611Y022195D01*
X013723Y022241D01*
X013801Y022320D01*
X013929Y022320D01*
X013900Y022249D01*
X013900Y022051D01*
X013976Y021867D01*
X014117Y021726D01*
X014301Y021650D01*
X014197Y021607D01*
X014075Y021730D01*
X013601Y021730D01*
X013523Y021809D01*
X013411Y021855D01*
X013289Y021855D01*
X013177Y021809D01*
X013091Y021723D01*
X013045Y021611D01*
X013045Y021489D01*
X013091Y021377D01*
X013177Y021291D01*
X013289Y021245D01*
X013411Y021245D01*
X013523Y021291D01*
X013601Y021370D01*
X013925Y021370D01*
X013943Y021353D01*
X013900Y021249D01*
X013900Y021051D01*
X013976Y020867D01*
X014117Y020726D01*
X014301Y020650D01*
X014197Y020607D01*
X014075Y020730D01*
X013351Y020730D01*
X013273Y020809D01*
X013161Y020855D01*
X013039Y020855D01*
X012927Y020809D01*
X012841Y020723D01*
X012795Y020611D01*
X012795Y020489D01*
X012841Y020377D01*
X012927Y020291D01*
X013039Y020245D01*
X013161Y020245D01*
X013273Y020291D01*
X013351Y020370D01*
X013925Y020370D01*
X013943Y020353D01*
X013900Y020249D01*
X013900Y020051D01*
X013976Y019867D01*
X014117Y019726D01*
X014282Y019658D01*
X014278Y019657D01*
X014200Y019632D01*
X014127Y019595D01*
X014061Y019547D01*
X014003Y019489D01*
X013955Y019423D01*
X013918Y019350D01*
X013893Y019272D01*
X013881Y019200D01*
X014350Y019200D01*
X014350Y019100D01*
X013881Y019100D01*
X013893Y019028D01*
X013918Y018950D01*
X013955Y018877D01*
X014003Y018811D01*
X014061Y018753D01*
X014127Y018705D01*
X014200Y018668D01*
X014278Y018643D01*
X014282Y018642D01*
X014197Y018607D01*
X014075Y018730D01*
X013201Y018730D01*
X013123Y018809D01*
X013011Y018855D01*
X012889Y018855D01*
X012777Y018809D01*
X012691Y018723D01*
X012645Y018611D01*
X012645Y018489D01*
X012691Y018377D01*
X012777Y018291D01*
X012889Y018245D01*
X013011Y018245D01*
X013123Y018291D01*
X013201Y018370D01*
X013925Y018370D01*
X013943Y018353D01*
X013900Y018249D01*
X013900Y018051D01*
X013976Y017867D01*
X014117Y017726D01*
X014301Y017650D01*
X014197Y017607D01*
X014075Y017730D01*
X013001Y017730D01*
X012923Y017809D01*
X012811Y017855D01*
X012689Y017855D01*
X012577Y017809D01*
X012491Y017723D01*
X012445Y017611D01*
X012445Y017489D01*
X012491Y017377D01*
X012577Y017291D01*
X012689Y017245D01*
X012811Y017245D01*
X012923Y017291D01*
X013001Y017370D01*
X013925Y017370D01*
X013943Y017353D01*
X013900Y017249D01*
X013900Y017051D01*
X013976Y016867D01*
X014117Y016726D01*
X014282Y016658D01*
X014278Y016657D01*
X014200Y016632D01*
X014127Y016595D01*
X014061Y016547D01*
X014003Y016489D01*
X013955Y016423D01*
X013918Y016350D01*
X013893Y016272D01*
X013881Y016200D01*
X014350Y016200D01*
X014350Y016100D01*
X013881Y016100D01*
X013893Y016028D01*
X013918Y015950D01*
X013955Y015877D01*
X014003Y015811D01*
X014061Y015753D01*
X014127Y015705D01*
X014200Y015668D01*
X014278Y015643D01*
X014282Y015642D01*
X014197Y015607D01*
X014025Y015780D01*
X012801Y015780D01*
X012723Y015859D01*
X012611Y015905D01*
X012489Y015905D01*
X012377Y015859D01*
X012291Y015773D01*
X012245Y015661D01*
X012245Y015539D01*
X012291Y015427D01*
X012377Y015341D01*
X012489Y015295D01*
X012611Y015295D01*
X012723Y015341D01*
X012801Y015420D01*
X013875Y015420D01*
X013943Y015353D01*
X013900Y015249D01*
X013900Y015051D01*
X013976Y014867D01*
X014117Y014726D01*
X014301Y014650D01*
X014197Y014607D01*
X013975Y014830D01*
X012601Y014830D01*
X012523Y014909D01*
X012411Y014955D01*
X012289Y014955D01*
X012177Y014909D01*
X012091Y014823D01*
X012045Y014711D01*
X012045Y014589D01*
X012091Y014477D01*
X012177Y014391D01*
X012289Y014345D01*
X012411Y014345D01*
X012523Y014391D01*
X012601Y014470D01*
X013825Y014470D01*
X013943Y014353D01*
X013900Y014249D01*
X013900Y014051D01*
X013976Y013867D01*
X014117Y013726D01*
X014301Y013650D01*
X014197Y013607D01*
X013975Y013830D01*
X012401Y013830D01*
X012323Y013909D01*
X012211Y013955D01*
X012089Y013955D01*
X011977Y013909D01*
X011891Y013823D01*
X011845Y013711D01*
X011845Y013589D01*
X011891Y013477D01*
X011977Y013391D01*
X012089Y013345D01*
X012211Y013345D01*
X012323Y013391D01*
X012401Y013470D01*
X013825Y013470D01*
X013943Y013353D01*
X013900Y013249D01*
X013900Y013051D01*
X013976Y012867D01*
X014117Y012726D01*
X014301Y012650D01*
X014197Y012607D01*
X014130Y012675D01*
X014025Y012780D01*
X012101Y012780D01*
X012023Y012859D01*
X011911Y012905D01*
X011789Y012905D01*
X011677Y012859D01*
X011591Y012773D01*
X011545Y012661D01*
X011545Y012539D01*
X011591Y012427D01*
X011677Y012341D01*
X011789Y012295D01*
X011911Y012295D01*
X012023Y012341D01*
X012101Y012420D01*
X013875Y012420D01*
X013943Y012353D01*
X013900Y012249D01*
X013900Y012051D01*
X013976Y011867D01*
X014117Y011726D01*
X014282Y011658D01*
X014278Y011657D01*
X014200Y011632D01*
X014127Y011595D01*
X014061Y011547D01*
X014003Y011489D01*
X013955Y011423D01*
X013918Y011350D01*
X013893Y011272D01*
X013881Y011200D01*
X014350Y011200D01*
X014350Y011100D01*
X013881Y011100D01*
X013893Y011028D01*
X013918Y010950D01*
X013955Y010877D01*
X014003Y010811D01*
X014061Y010753D01*
X014127Y010705D01*
X014200Y010668D01*
X014278Y010643D01*
X014282Y010642D01*
X014117Y010574D01*
X013976Y010433D01*
X013933Y010330D01*
X011825Y010330D01*
X011625Y010130D01*
X011520Y010025D01*
X011520Y005851D01*
X011441Y005773D01*
X011395Y005661D01*
X011395Y005539D01*
X011441Y005427D01*
X011527Y005341D01*
X011639Y005295D01*
X011761Y005295D01*
X011873Y005341D01*
X011959Y005427D01*
X012005Y005539D01*
X012005Y005661D01*
X011959Y005773D01*
X011880Y005851D01*
X011880Y009875D01*
X011975Y009970D01*
X013933Y009970D01*
X013976Y009867D01*
X014117Y009726D01*
X014282Y009658D01*
X014278Y009657D01*
X014200Y009632D01*
X014127Y009595D01*
X014061Y009547D01*
X014003Y009489D01*
X013955Y009423D01*
X013918Y009350D01*
X013893Y009272D01*
X013881Y009200D01*
X014350Y009200D01*
X014350Y009100D01*
X013881Y009100D01*
X013893Y009028D01*
X013918Y008950D01*
X013955Y008877D01*
X014003Y008811D01*
X014061Y008753D01*
X014127Y008705D01*
X014200Y008668D01*
X014278Y008643D01*
X014282Y008642D01*
X014117Y008574D01*
X013976Y008433D01*
X013933Y008330D01*
X013775Y008330D01*
X013670Y008225D01*
X013320Y007875D01*
X013320Y005675D01*
X013425Y005570D01*
X014825Y004170D01*
X015925Y004170D01*
X016175Y003920D01*
X021395Y003920D01*
X021395Y003889D01*
X021441Y003777D01*
X021527Y003691D01*
X021639Y003645D01*
X021761Y003645D01*
X021873Y003691D01*
X021959Y003777D01*
X022005Y003889D01*
X022005Y004011D01*
X021959Y004123D01*
X021873Y004209D01*
X021761Y004255D01*
X021650Y004255D01*
X021625Y004280D01*
X016325Y004280D01*
X016180Y004425D01*
X016090Y004515D01*
X022150Y004515D01*
X022285Y004504D01*
X022543Y004421D01*
X022762Y004262D01*
X022921Y004043D01*
X023004Y003785D01*
X023015Y003650D01*
X023015Y000285D01*
X000285Y000285D01*
X000285Y000347D02*
X023015Y000347D01*
X023015Y000446D02*
X000285Y000446D01*
X000285Y000544D02*
X023015Y000544D01*
X023015Y000643D02*
X000285Y000643D01*
X000285Y000741D02*
X023015Y000741D01*
X023015Y000840D02*
X000285Y000840D01*
X000285Y000938D02*
X001959Y000938D01*
X002051Y000900D02*
X002249Y000900D01*
X002433Y000976D01*
X002574Y001117D01*
X002650Y001301D01*
X002650Y001499D01*
X002574Y001683D01*
X002433Y001824D01*
X002249Y001900D01*
X002051Y001900D01*
X001867Y001824D01*
X001726Y001683D01*
X001650Y001499D01*
X001650Y001301D01*
X001726Y001117D01*
X001867Y000976D01*
X002051Y000900D01*
X001806Y001037D02*
X000285Y001037D01*
X000285Y001135D02*
X001719Y001135D01*
X001678Y001234D02*
X000285Y001234D01*
X000285Y001332D02*
X001650Y001332D01*
X001650Y001431D02*
X000285Y001431D01*
X000285Y001529D02*
X001662Y001529D01*
X001703Y001628D02*
X000285Y001628D01*
X000285Y001726D02*
X001769Y001726D01*
X001868Y001825D02*
X000285Y001825D01*
X000285Y001923D02*
X002995Y001923D01*
X002868Y001825D02*
X002432Y001825D01*
X002531Y001726D02*
X002769Y001726D01*
X002703Y001628D02*
X002597Y001628D01*
X002638Y001529D02*
X002662Y001529D01*
X002650Y001431D02*
X002650Y001431D01*
X002650Y001332D02*
X002650Y001332D01*
X002622Y001234D02*
X002678Y001234D01*
X002719Y001135D02*
X002581Y001135D01*
X002494Y001037D02*
X002806Y001037D01*
X002959Y000938D02*
X002341Y000938D01*
X003341Y000938D02*
X003959Y000938D01*
X003806Y001037D02*
X003494Y001037D01*
X003581Y001135D02*
X003719Y001135D01*
X003678Y001234D02*
X003622Y001234D01*
X003650Y001332D02*
X003650Y001332D01*
X003650Y001431D02*
X003650Y001431D01*
X003638Y001529D02*
X003662Y001529D01*
X003703Y001628D02*
X003597Y001628D01*
X003531Y001726D02*
X003769Y001726D01*
X003868Y001825D02*
X003432Y001825D01*
X003305Y001923D02*
X003995Y001923D01*
X003821Y002022D02*
X003479Y002022D01*
X003575Y002120D02*
X003725Y002120D01*
X003684Y002219D02*
X003616Y002219D01*
X003650Y002317D02*
X003650Y002317D01*
X003650Y002416D02*
X003650Y002416D01*
X003644Y002514D02*
X003656Y002514D01*
X003697Y002613D02*
X003603Y002613D01*
X003546Y002711D02*
X003754Y002711D01*
X003852Y002810D02*
X003448Y002810D01*
X003330Y002908D02*
X009970Y002908D01*
X009970Y003007D02*
X003330Y003007D01*
X003330Y003105D02*
X009899Y003105D01*
X009806Y003204D02*
X003330Y003204D01*
X003330Y003302D02*
X009714Y003302D01*
X009622Y003401D02*
X003330Y003401D01*
X003330Y003499D02*
X009529Y003499D01*
X009437Y003598D02*
X003330Y003598D01*
X003330Y003696D02*
X009345Y003696D01*
X009251Y003795D02*
X003330Y003795D01*
X003348Y003893D02*
X009220Y003893D01*
X009220Y003992D02*
X003446Y003992D01*
X003545Y004090D02*
X009220Y004090D01*
X009220Y004189D02*
X003643Y004189D01*
X003742Y004287D02*
X009220Y004287D01*
X009220Y004386D02*
X008940Y004386D01*
X008800Y004500D02*
X009050Y004750D01*
X008773Y004878D02*
X008242Y004878D01*
X008213Y004837D02*
X008424Y005128D01*
X008424Y005128D01*
X008535Y005470D01*
X008535Y005780D01*
X008561Y005753D01*
X008627Y005705D01*
X008700Y005668D01*
X008778Y005643D01*
X008850Y005631D01*
X008850Y006100D01*
X008950Y006100D01*
X008950Y005631D01*
X009022Y005643D01*
X009100Y005668D01*
X009173Y005705D01*
X009220Y005740D01*
X009220Y005010D01*
X009111Y005055D01*
X008989Y005055D01*
X008877Y005009D01*
X008791Y004923D01*
X008745Y004811D01*
X008745Y004700D01*
X008725Y004680D01*
X007996Y004680D01*
X008213Y004837D01*
X008213Y004837D01*
X008213Y004837D01*
X008133Y004780D02*
X008745Y004780D01*
X008726Y004681D02*
X007997Y004681D01*
X008314Y004977D02*
X008845Y004977D01*
X009220Y005174D02*
X008439Y005174D01*
X008471Y005272D02*
X009220Y005272D01*
X009220Y005371D02*
X008503Y005371D01*
X008535Y005469D02*
X009220Y005469D01*
X009220Y005568D02*
X008535Y005568D01*
X008535Y005666D02*
X008707Y005666D01*
X008850Y005666D02*
X008950Y005666D01*
X008950Y005765D02*
X008850Y005765D01*
X008850Y005863D02*
X008950Y005863D01*
X008950Y005962D02*
X008850Y005962D01*
X008850Y006060D02*
X008950Y006060D01*
X009093Y005666D02*
X009220Y005666D01*
X009220Y005075D02*
X008385Y005075D01*
X008800Y004500D02*
X003700Y004500D01*
X003150Y003950D01*
X003150Y002400D01*
X002852Y002810D02*
X000285Y002810D01*
X000285Y002908D02*
X002970Y002908D01*
X002970Y003007D02*
X000285Y003007D01*
X000285Y003105D02*
X002970Y003105D01*
X002970Y003204D02*
X000285Y003204D01*
X000285Y003302D02*
X002970Y003302D01*
X002970Y003401D02*
X000285Y003401D01*
X000285Y003499D02*
X002970Y003499D01*
X002970Y003598D02*
X000285Y003598D01*
X000289Y003696D02*
X002970Y003696D01*
X002970Y003795D02*
X000299Y003795D01*
X000331Y003893D02*
X002970Y003893D01*
X002970Y003992D02*
X000363Y003992D01*
X000414Y004090D02*
X003035Y004090D01*
X003134Y004189D02*
X000485Y004189D01*
X000573Y004287D02*
X003232Y004287D01*
X003331Y004386D02*
X000709Y004386D01*
X000952Y004484D02*
X003429Y004484D01*
X002754Y002711D02*
X000285Y002711D01*
X000285Y002613D02*
X002697Y002613D01*
X002656Y002514D02*
X000285Y002514D01*
X000285Y002416D02*
X002650Y002416D01*
X002650Y002317D02*
X000285Y002317D01*
X000285Y002219D02*
X002684Y002219D01*
X002725Y002120D02*
X000285Y002120D01*
X000285Y002022D02*
X002821Y002022D01*
X004305Y001923D02*
X004995Y001923D01*
X004821Y002022D02*
X004479Y002022D01*
X004575Y002120D02*
X004725Y002120D01*
X004684Y002219D02*
X004616Y002219D01*
X004650Y002317D02*
X004650Y002317D01*
X004650Y002416D02*
X004650Y002416D01*
X004644Y002514D02*
X004656Y002514D01*
X004697Y002613D02*
X004603Y002613D01*
X004546Y002711D02*
X004754Y002711D01*
X004852Y002810D02*
X004448Y002810D01*
X004432Y001825D02*
X005868Y001825D01*
X005867Y001824D02*
X005726Y001683D01*
X005650Y001499D01*
X005650Y001301D01*
X005726Y001117D01*
X005867Y000976D01*
X006051Y000900D01*
X006249Y000900D01*
X006433Y000976D01*
X006574Y001117D01*
X006650Y001301D01*
X006650Y001499D01*
X006574Y001683D01*
X006433Y001824D01*
X006249Y001900D01*
X006051Y001900D01*
X005867Y001824D01*
X005769Y001726D02*
X004531Y001726D01*
X004597Y001628D02*
X005703Y001628D01*
X005662Y001529D02*
X004638Y001529D01*
X004650Y001431D02*
X005650Y001431D01*
X005650Y001332D02*
X004650Y001332D01*
X004622Y001234D02*
X005678Y001234D01*
X005719Y001135D02*
X004581Y001135D01*
X004494Y001037D02*
X005806Y001037D01*
X005959Y000938D02*
X004341Y000938D01*
X005305Y001923D02*
X005995Y001923D01*
X005821Y002022D02*
X005479Y002022D01*
X005575Y002120D02*
X005725Y002120D01*
X005684Y002219D02*
X005616Y002219D01*
X005650Y002317D02*
X005650Y002317D01*
X005650Y002416D02*
X005650Y002416D01*
X005644Y002514D02*
X005656Y002514D01*
X005697Y002613D02*
X005603Y002613D01*
X005546Y002711D02*
X005754Y002711D01*
X005852Y002810D02*
X005448Y002810D01*
X006448Y002810D02*
X006852Y002810D01*
X006754Y002711D02*
X006546Y002711D01*
X006603Y002613D02*
X006697Y002613D01*
X006656Y002514D02*
X006644Y002514D01*
X006650Y002416D02*
X006650Y002416D01*
X006650Y002317D02*
X006650Y002317D01*
X006616Y002219D02*
X006684Y002219D01*
X006725Y002120D02*
X006575Y002120D01*
X006479Y002022D02*
X006821Y002022D01*
X006995Y001923D02*
X006305Y001923D01*
X006432Y001825D02*
X007868Y001825D01*
X007867Y001824D02*
X007726Y001683D01*
X007650Y001499D01*
X007650Y001301D01*
X007726Y001117D01*
X007867Y000976D01*
X008051Y000900D01*
X008249Y000900D01*
X008433Y000976D01*
X008574Y001117D01*
X008650Y001301D01*
X008650Y001499D01*
X008574Y001683D01*
X008433Y001824D01*
X008249Y001900D01*
X008051Y001900D01*
X007867Y001824D01*
X007769Y001726D02*
X006531Y001726D01*
X006597Y001628D02*
X007703Y001628D01*
X007662Y001529D02*
X006638Y001529D01*
X006650Y001431D02*
X007650Y001431D01*
X007650Y001332D02*
X006650Y001332D01*
X006622Y001234D02*
X007678Y001234D01*
X007719Y001135D02*
X006581Y001135D01*
X006494Y001037D02*
X007806Y001037D01*
X007959Y000938D02*
X006341Y000938D01*
X007305Y001923D02*
X007995Y001923D01*
X007821Y002022D02*
X007479Y002022D01*
X007575Y002120D02*
X007725Y002120D01*
X007684Y002219D02*
X007616Y002219D01*
X007650Y002317D02*
X007650Y002317D01*
X007650Y002416D02*
X007650Y002416D01*
X007644Y002514D02*
X007656Y002514D01*
X007697Y002613D02*
X007603Y002613D01*
X007546Y002711D02*
X007754Y002711D01*
X007852Y002810D02*
X007448Y002810D01*
X008305Y001923D02*
X009995Y001923D01*
X009868Y001825D02*
X009432Y001825D01*
X009531Y001726D02*
X009769Y001726D01*
X009703Y001628D02*
X009597Y001628D01*
X009638Y001529D02*
X009662Y001529D01*
X009650Y001431D02*
X009650Y001431D01*
X009650Y001332D02*
X009650Y001332D01*
X009622Y001234D02*
X009678Y001234D01*
X009719Y001135D02*
X009581Y001135D01*
X009494Y001037D02*
X009806Y001037D01*
X009959Y000938D02*
X009341Y000938D01*
X008959Y000938D02*
X008341Y000938D01*
X008494Y001037D02*
X008806Y001037D01*
X008719Y001135D02*
X008581Y001135D01*
X008622Y001234D02*
X008678Y001234D01*
X008650Y001332D02*
X008650Y001332D01*
X008650Y001431D02*
X008650Y001431D01*
X008638Y001529D02*
X008662Y001529D01*
X008703Y001628D02*
X008597Y001628D01*
X008531Y001726D02*
X008769Y001726D01*
X008868Y001825D02*
X008432Y001825D01*
X008479Y002022D02*
X009821Y002022D01*
X009725Y002120D02*
X008575Y002120D01*
X008616Y002219D02*
X009684Y002219D01*
X009650Y002317D02*
X008650Y002317D01*
X008650Y002416D02*
X009650Y002416D01*
X009656Y002514D02*
X008644Y002514D01*
X008603Y002613D02*
X009697Y002613D01*
X009754Y002711D02*
X008546Y002711D01*
X008448Y002810D02*
X009852Y002810D01*
X010150Y003100D02*
X010150Y002400D01*
X010330Y002867D02*
X010433Y002824D01*
X010574Y002683D01*
X010650Y002499D01*
X010650Y002301D01*
X010650Y002499D01*
X010693Y002603D01*
X010330Y002965D01*
X010330Y002867D01*
X010330Y002908D02*
X010387Y002908D01*
X010448Y002810D02*
X010486Y002810D01*
X010546Y002711D02*
X010584Y002711D01*
X010603Y002613D02*
X010683Y002613D01*
X010656Y002514D02*
X010644Y002514D01*
X010650Y002416D02*
X010650Y002416D01*
X010650Y002317D02*
X010650Y002317D01*
X010616Y002219D02*
X010684Y002219D01*
X010725Y002120D02*
X010575Y002120D01*
X010479Y002022D02*
X010821Y002022D01*
X010995Y001923D02*
X010305Y001923D01*
X010432Y001825D02*
X010868Y001825D01*
X010769Y001726D02*
X010531Y001726D01*
X010597Y001628D02*
X010703Y001628D01*
X010662Y001529D02*
X010638Y001529D01*
X010650Y001431D02*
X010650Y001431D01*
X010650Y001332D02*
X010650Y001332D01*
X010622Y001234D02*
X010678Y001234D01*
X010719Y001135D02*
X010581Y001135D01*
X010494Y001037D02*
X010806Y001037D01*
X010959Y000938D02*
X010341Y000938D01*
X011341Y000938D02*
X012959Y000938D01*
X012806Y001037D02*
X011494Y001037D01*
X011581Y001135D02*
X012719Y001135D01*
X012678Y001234D02*
X011622Y001234D01*
X011650Y001332D02*
X012650Y001332D01*
X012650Y001431D02*
X011650Y001431D01*
X011638Y001529D02*
X012662Y001529D01*
X012703Y001628D02*
X011597Y001628D01*
X011531Y001726D02*
X012769Y001726D01*
X012868Y001825D02*
X011432Y001825D01*
X011305Y001923D02*
X011995Y001923D01*
X011821Y002022D02*
X011479Y002022D01*
X011575Y002120D02*
X011725Y002120D01*
X011684Y002219D02*
X011616Y002219D01*
X011650Y002301D02*
X011650Y002499D01*
X011726Y002683D01*
X011763Y002720D01*
X011537Y002720D01*
X011574Y002683D01*
X011650Y002499D01*
X011650Y002301D01*
X011650Y002317D02*
X011650Y002317D01*
X011650Y002416D02*
X011650Y002416D01*
X011644Y002514D02*
X011656Y002514D01*
X011697Y002613D02*
X011603Y002613D01*
X011546Y002711D02*
X011754Y002711D01*
X012050Y002900D02*
X010950Y002900D01*
X009800Y004050D01*
X009800Y015400D01*
X008900Y016150D01*
X008900Y015150D02*
X009600Y014550D01*
X009600Y003950D01*
X011150Y002400D01*
X011050Y003100D02*
X012800Y003100D01*
X013150Y002750D01*
X013150Y002400D01*
X012844Y002801D02*
X012726Y002683D01*
X012650Y002499D01*
X012650Y002301D01*
X012650Y002499D01*
X012574Y002683D01*
X012433Y002824D01*
X012330Y002867D01*
X012330Y002875D01*
X012285Y002920D01*
X012725Y002920D01*
X012844Y002801D01*
X012836Y002810D02*
X012448Y002810D01*
X012546Y002711D02*
X012754Y002711D01*
X012697Y002613D02*
X012603Y002613D01*
X012644Y002514D02*
X012656Y002514D01*
X012650Y002416D02*
X012650Y002416D01*
X012650Y002317D02*
X012650Y002317D01*
X012616Y002219D02*
X012684Y002219D01*
X012725Y002120D02*
X012575Y002120D01*
X012479Y002022D02*
X012821Y002022D01*
X012995Y001923D02*
X012305Y001923D01*
X012150Y002400D02*
X012150Y002800D01*
X012050Y002900D01*
X012297Y002908D02*
X012737Y002908D01*
X012900Y003300D02*
X013300Y002900D01*
X013950Y002900D01*
X014150Y002700D01*
X014150Y002400D01*
X013763Y002720D02*
X013726Y002683D01*
X013650Y002499D01*
X013650Y002301D01*
X013650Y002499D01*
X013574Y002683D01*
X013537Y002720D01*
X013763Y002720D01*
X013754Y002711D02*
X013546Y002711D01*
X013603Y002613D02*
X013697Y002613D01*
X013656Y002514D02*
X013644Y002514D01*
X013650Y002416D02*
X013650Y002416D01*
X013650Y002317D02*
X013650Y002317D01*
X013616Y002219D02*
X013684Y002219D01*
X013725Y002120D02*
X013575Y002120D01*
X013479Y002022D02*
X013821Y002022D01*
X013995Y001923D02*
X013305Y001923D01*
X013432Y001825D02*
X013868Y001825D01*
X013769Y001726D02*
X013531Y001726D01*
X013597Y001628D02*
X013703Y001628D01*
X013662Y001529D02*
X013638Y001529D01*
X013650Y001431D02*
X013650Y001431D01*
X013650Y001332D02*
X013650Y001332D01*
X013622Y001234D02*
X013678Y001234D01*
X013719Y001135D02*
X013581Y001135D01*
X013494Y001037D02*
X013806Y001037D01*
X013959Y000938D02*
X013341Y000938D01*
X014341Y000938D02*
X015959Y000938D01*
X015806Y001037D02*
X014494Y001037D01*
X014581Y001135D02*
X015719Y001135D01*
X015678Y001234D02*
X014622Y001234D01*
X014650Y001332D02*
X015650Y001332D01*
X015650Y001431D02*
X014650Y001431D01*
X014638Y001529D02*
X015662Y001529D01*
X015703Y001628D02*
X014597Y001628D01*
X014531Y001726D02*
X015769Y001726D01*
X015868Y001825D02*
X014432Y001825D01*
X014305Y001923D02*
X014995Y001923D01*
X014821Y002022D02*
X014479Y002022D01*
X014575Y002120D02*
X014725Y002120D01*
X014684Y002219D02*
X014616Y002219D01*
X014650Y002301D02*
X014650Y002499D01*
X014726Y002683D01*
X014763Y002720D01*
X014537Y002720D01*
X014574Y002683D01*
X014650Y002499D01*
X014650Y002301D01*
X014650Y002317D02*
X014650Y002317D01*
X014650Y002416D02*
X014650Y002416D01*
X014644Y002514D02*
X014656Y002514D01*
X014697Y002613D02*
X014603Y002613D01*
X014546Y002711D02*
X014754Y002711D01*
X014900Y002900D02*
X015150Y002650D01*
X015150Y002400D01*
X015603Y002613D02*
X015697Y002613D01*
X015726Y002683D02*
X015650Y002499D01*
X015650Y002301D01*
X015650Y002499D01*
X015574Y002683D01*
X015537Y002720D01*
X015763Y002720D01*
X015726Y002683D01*
X015754Y002711D02*
X015546Y002711D01*
X015644Y002514D02*
X015656Y002514D01*
X015650Y002416D02*
X015650Y002416D01*
X015650Y002317D02*
X015650Y002317D01*
X015616Y002219D02*
X015684Y002219D01*
X015725Y002120D02*
X015575Y002120D01*
X015479Y002022D02*
X015821Y002022D01*
X015995Y001923D02*
X015305Y001923D01*
X015650Y001900D02*
X015150Y001400D01*
X015650Y001900D02*
X016900Y001900D01*
X017150Y002150D01*
X017150Y002400D01*
X016650Y002416D02*
X017650Y002416D01*
X017656Y002514D02*
X016644Y002514D01*
X016603Y002613D02*
X017697Y002613D01*
X017754Y002711D02*
X016546Y002711D01*
X016300Y002900D02*
X016100Y003100D01*
X015300Y003100D01*
X015100Y003300D01*
X014450Y003300D01*
X014250Y003500D01*
X013600Y003500D01*
X013200Y003900D01*
X011450Y003900D01*
X010800Y004550D01*
X010800Y020250D01*
X008900Y022150D01*
X009103Y021693D02*
X010620Y020175D01*
X010620Y018731D01*
X009360Y019954D01*
X009400Y020051D01*
X009400Y020249D01*
X009324Y020433D01*
X009183Y020574D01*
X009018Y020642D01*
X009022Y020643D01*
X009100Y020668D01*
X009173Y020705D01*
X009239Y020753D01*
X009297Y020811D01*
X009345Y020877D01*
X009382Y020950D01*
X009407Y021028D01*
X009419Y021100D01*
X008950Y021100D01*
X008950Y021200D01*
X009419Y021200D01*
X009407Y021272D01*
X009382Y021350D01*
X009345Y021423D01*
X009297Y021489D01*
X009239Y021547D01*
X009173Y021595D01*
X009100Y021632D01*
X009022Y021657D01*
X009018Y021658D01*
X009103Y021693D01*
X009117Y021623D02*
X009172Y021623D01*
X009261Y021525D02*
X009271Y021525D01*
X009342Y021426D02*
X009369Y021426D01*
X009389Y021328D02*
X009468Y021328D01*
X009414Y021229D02*
X009566Y021229D01*
X009665Y021131D02*
X008950Y021131D01*
X009314Y020835D02*
X009960Y020835D01*
X009862Y020934D02*
X009373Y020934D01*
X009408Y021032D02*
X009763Y021032D01*
X010059Y020737D02*
X009216Y020737D01*
X009218Y020540D02*
X010256Y020540D01*
X010157Y020638D02*
X009028Y020638D01*
X009316Y020441D02*
X010354Y020441D01*
X010453Y020343D02*
X009361Y020343D01*
X009400Y020244D02*
X010551Y020244D01*
X010620Y020146D02*
X009400Y020146D01*
X009399Y020047D02*
X010620Y020047D01*
X010620Y019949D02*
X009366Y019949D01*
X009467Y019850D02*
X010620Y019850D01*
X010620Y019752D02*
X009569Y019752D01*
X009670Y019653D02*
X010620Y019653D01*
X010620Y019555D02*
X009772Y019555D01*
X009873Y019456D02*
X010620Y019456D01*
X010620Y019358D02*
X009975Y019358D01*
X010076Y019259D02*
X010620Y019259D01*
X010620Y019161D02*
X010178Y019161D01*
X010279Y019062D02*
X010620Y019062D01*
X010620Y018964D02*
X010381Y018964D01*
X010482Y018865D02*
X010620Y018865D01*
X010620Y018767D02*
X010584Y018767D01*
X010600Y018500D02*
X008900Y020150D01*
X008900Y019150D02*
X010400Y017700D01*
X010400Y004350D01*
X011250Y003500D01*
X013000Y003500D01*
X013400Y003100D01*
X014050Y003100D01*
X014250Y002900D01*
X014900Y002900D01*
X015000Y003100D02*
X015200Y002900D01*
X016000Y002900D01*
X016150Y002750D01*
X016150Y002400D01*
X016616Y002219D02*
X017684Y002219D01*
X017650Y002317D02*
X016650Y002317D01*
X016575Y002120D02*
X017725Y002120D01*
X017821Y002022D02*
X016479Y002022D01*
X016305Y001923D02*
X017995Y001923D01*
X017868Y001825D02*
X017432Y001825D01*
X017531Y001726D02*
X017769Y001726D01*
X017703Y001628D02*
X017597Y001628D01*
X017638Y001529D02*
X017662Y001529D01*
X017650Y001431D02*
X017650Y001431D01*
X017650Y001332D02*
X017650Y001332D01*
X017622Y001234D02*
X017678Y001234D01*
X017719Y001135D02*
X017581Y001135D01*
X017494Y001037D02*
X017806Y001037D01*
X017959Y000938D02*
X017341Y000938D01*
X016959Y000938D02*
X016341Y000938D01*
X016494Y001037D02*
X016806Y001037D01*
X016719Y001135D02*
X016581Y001135D01*
X016622Y001234D02*
X016678Y001234D01*
X016650Y001332D02*
X016650Y001332D01*
X016650Y001431D02*
X016650Y001431D01*
X016638Y001529D02*
X016662Y001529D01*
X016703Y001628D02*
X016597Y001628D01*
X016531Y001726D02*
X016769Y001726D01*
X016868Y001825D02*
X016432Y001825D01*
X016300Y002900D02*
X018050Y002900D01*
X018150Y002800D01*
X018150Y002400D01*
X018616Y002219D02*
X018684Y002219D01*
X018650Y002301D02*
X018650Y002499D01*
X018726Y002683D01*
X018867Y002824D01*
X018906Y002840D01*
X018825Y002920D01*
X018285Y002920D01*
X018330Y002875D01*
X018330Y002867D01*
X018433Y002824D01*
X018574Y002683D01*
X018650Y002499D01*
X018650Y002301D01*
X018650Y002317D02*
X018650Y002317D01*
X018650Y002416D02*
X018650Y002416D01*
X018644Y002514D02*
X018656Y002514D01*
X018697Y002613D02*
X018603Y002613D01*
X018546Y002711D02*
X018754Y002711D01*
X018852Y002810D02*
X018448Y002810D01*
X018297Y002908D02*
X018837Y002908D01*
X018900Y003100D02*
X016400Y003100D01*
X016200Y003300D01*
X015400Y003300D01*
X015200Y003500D01*
X014550Y003500D01*
X014300Y003750D01*
X013650Y003750D01*
X013300Y004100D01*
X011550Y004100D01*
X011000Y004650D01*
X011000Y021050D01*
X008900Y023150D01*
X009514Y023790D02*
X010005Y023790D01*
X009907Y023889D02*
X009416Y023889D01*
X009374Y023987D02*
X009808Y023987D01*
X009710Y024086D02*
X009400Y024086D01*
X009400Y024184D02*
X009611Y024184D01*
X009513Y024283D02*
X009386Y024283D01*
X009414Y024381D02*
X009345Y024381D01*
X009316Y024480D02*
X009278Y024480D01*
X009217Y024578D02*
X009173Y024578D01*
X009431Y024874D02*
X013973Y024874D01*
X013933Y024972D02*
X009400Y024972D01*
X009400Y025071D02*
X013900Y025071D01*
X013900Y025169D02*
X009400Y025169D01*
X009400Y025268D02*
X013908Y025268D01*
X013948Y025366D02*
X009400Y025366D01*
X009400Y025465D02*
X014007Y025465D01*
X014068Y024775D02*
X009529Y024775D01*
X009628Y024677D02*
X014236Y024677D01*
X014301Y024650D02*
X014499Y024650D01*
X014683Y024574D01*
X014765Y024492D01*
X014765Y024808D01*
X014683Y024726D01*
X014499Y024650D01*
X014301Y024650D01*
X014127Y024578D02*
X009726Y024578D01*
X009825Y024480D02*
X014022Y024480D01*
X013955Y024381D02*
X009923Y024381D01*
X010022Y024283D02*
X013914Y024283D01*
X013900Y024184D02*
X010120Y024184D01*
X010219Y024086D02*
X013900Y024086D01*
X013926Y023987D02*
X010317Y023987D01*
X010416Y023889D02*
X013967Y023889D01*
X014053Y023790D02*
X010514Y023790D01*
X010613Y023692D02*
X014200Y023692D01*
X014125Y023593D02*
X010711Y023593D01*
X010810Y023495D02*
X014009Y023495D01*
X013942Y023396D02*
X010908Y023396D01*
X011007Y023298D02*
X013901Y023298D01*
X013901Y023002D02*
X011418Y023002D01*
X011578Y022904D02*
X013942Y022904D01*
X014010Y022805D02*
X011637Y022805D01*
X011655Y022707D02*
X013325Y022707D01*
X013265Y022608D02*
X011642Y022608D01*
X011591Y022510D02*
X013245Y022510D01*
X013257Y022411D02*
X011449Y022411D01*
X011251Y022411D02*
X010894Y022411D01*
X010992Y022313D02*
X013306Y022313D01*
X013443Y022214D02*
X011091Y022214D01*
X011189Y022116D02*
X013900Y022116D01*
X013900Y022214D02*
X013657Y022214D01*
X013794Y022313D02*
X013926Y022313D01*
X014050Y022500D02*
X013550Y022500D01*
X013775Y022707D02*
X014126Y022707D01*
X014197Y022608D02*
X014199Y022608D01*
X014050Y022500D02*
X014400Y022150D01*
X014023Y021820D02*
X013495Y021820D01*
X013205Y021820D02*
X011380Y021820D01*
X011380Y021722D02*
X013091Y021722D01*
X013050Y021623D02*
X011380Y021623D01*
X011380Y021525D02*
X013045Y021525D01*
X013071Y021426D02*
X011380Y021426D01*
X011380Y021328D02*
X013141Y021328D01*
X013350Y021550D02*
X014000Y021550D01*
X014400Y021150D01*
X014008Y020835D02*
X013209Y020835D01*
X013345Y020737D02*
X014106Y020737D01*
X014167Y020638D02*
X014272Y020638D01*
X014301Y020650D02*
X014499Y020650D01*
X014683Y020574D01*
X014765Y020492D01*
X014765Y020808D01*
X014683Y020726D01*
X014499Y020650D01*
X014301Y020650D01*
X014528Y020638D02*
X014765Y020638D01*
X014765Y020540D02*
X014718Y020540D01*
X014694Y020737D02*
X014765Y020737D01*
X014400Y020150D02*
X014000Y020550D01*
X013100Y020550D01*
X012815Y020441D02*
X011380Y020441D01*
X011380Y020343D02*
X012876Y020343D01*
X012795Y020540D02*
X011380Y020540D01*
X011380Y020638D02*
X012806Y020638D01*
X012855Y020737D02*
X011380Y020737D01*
X011380Y020835D02*
X012991Y020835D01*
X013324Y020343D02*
X013939Y020343D01*
X013900Y020244D02*
X011380Y020244D01*
X011380Y020146D02*
X013900Y020146D01*
X013901Y020047D02*
X011380Y020047D01*
X011380Y019949D02*
X013942Y019949D01*
X013993Y019850D02*
X011380Y019850D01*
X011380Y019752D02*
X014091Y019752D01*
X014072Y019555D02*
X011380Y019555D01*
X011380Y019653D02*
X014265Y019653D01*
X013980Y019456D02*
X011380Y019456D01*
X011380Y019358D02*
X013922Y019358D01*
X013891Y019259D02*
X011380Y019259D01*
X011380Y019161D02*
X014350Y019161D01*
X013887Y019062D02*
X011380Y019062D01*
X011380Y018964D02*
X013914Y018964D01*
X013964Y018865D02*
X011380Y018865D01*
X011380Y018767D02*
X012735Y018767D01*
X012669Y018668D02*
X011380Y018668D01*
X011380Y018570D02*
X012645Y018570D01*
X012653Y018471D02*
X011380Y018471D01*
X011380Y018373D02*
X012696Y018373D01*
X012819Y018274D02*
X011380Y018274D01*
X011380Y018176D02*
X013900Y018176D01*
X013910Y018274D02*
X013081Y018274D01*
X012950Y018550D02*
X014000Y018550D01*
X014400Y018150D01*
X014579Y017683D02*
X014765Y017683D01*
X014683Y017726D02*
X014765Y017808D01*
X014765Y017492D01*
X014683Y017574D01*
X014499Y017650D01*
X014301Y017650D01*
X014499Y017650D01*
X014683Y017726D01*
X014739Y017782D02*
X014765Y017782D01*
X014765Y017585D02*
X014657Y017585D01*
X014221Y017683D02*
X014122Y017683D01*
X014061Y017782D02*
X012950Y017782D01*
X012750Y017550D02*
X014000Y017550D01*
X014400Y017150D01*
X014046Y016797D02*
X011380Y016797D01*
X011380Y016895D02*
X013964Y016895D01*
X013924Y016994D02*
X011380Y016994D01*
X011380Y017092D02*
X013900Y017092D01*
X013900Y017191D02*
X011380Y017191D01*
X011380Y017289D02*
X012583Y017289D01*
X012487Y017388D02*
X011380Y017388D01*
X011380Y017486D02*
X012446Y017486D01*
X012445Y017585D02*
X011380Y017585D01*
X011380Y017683D02*
X012475Y017683D01*
X012550Y017782D02*
X011380Y017782D01*
X011380Y017880D02*
X013971Y017880D01*
X013930Y017979D02*
X011380Y017979D01*
X011380Y018077D02*
X013900Y018077D01*
X014137Y018668D02*
X014201Y018668D01*
X014048Y018767D02*
X013165Y018767D01*
X012917Y017289D02*
X013916Y017289D01*
X014185Y016698D02*
X011380Y016698D01*
X011380Y016600D02*
X014137Y016600D01*
X014016Y016501D02*
X011380Y016501D01*
X011380Y016403D02*
X013945Y016403D01*
X013903Y016304D02*
X011380Y016304D01*
X011380Y016206D02*
X013882Y016206D01*
X013899Y016009D02*
X011380Y016009D01*
X011380Y016107D02*
X014350Y016107D01*
X014003Y015812D02*
X012770Y015812D01*
X012550Y015600D02*
X013950Y015600D01*
X014400Y015150D01*
X014016Y014827D02*
X013978Y014827D01*
X013952Y014925D02*
X012483Y014925D01*
X012217Y014925D02*
X011380Y014925D01*
X011380Y014827D02*
X012095Y014827D01*
X012052Y014728D02*
X011380Y014728D01*
X011380Y014630D02*
X012045Y014630D01*
X012069Y014531D02*
X011380Y014531D01*
X011380Y014433D02*
X012136Y014433D01*
X012350Y014650D02*
X013900Y014650D01*
X014400Y014150D01*
X014001Y013842D02*
X012390Y013842D01*
X012247Y013940D02*
X013946Y013940D01*
X013905Y014039D02*
X011380Y014039D01*
X011380Y014137D02*
X013900Y014137D01*
X013900Y014236D02*
X011380Y014236D01*
X011380Y014334D02*
X013935Y014334D01*
X013863Y014433D02*
X012564Y014433D01*
X012053Y013940D02*
X011380Y013940D01*
X011380Y013842D02*
X011910Y013842D01*
X011858Y013743D02*
X011380Y013743D01*
X011380Y013645D02*
X011845Y013645D01*
X011863Y013546D02*
X011380Y013546D01*
X011380Y013448D02*
X011921Y013448D01*
X012080Y013349D02*
X011380Y013349D01*
X011380Y013251D02*
X013900Y013251D01*
X013900Y013152D02*
X011380Y013152D01*
X011380Y013054D02*
X013900Y013054D01*
X013940Y012955D02*
X011380Y012955D01*
X011380Y012857D02*
X011675Y012857D01*
X011585Y012758D02*
X011380Y012758D01*
X011380Y012660D02*
X011545Y012660D01*
X011545Y012561D02*
X011380Y012561D01*
X011380Y012463D02*
X011577Y012463D01*
X011655Y012364D02*
X011380Y012364D01*
X011380Y012266D02*
X013907Y012266D01*
X013900Y012167D02*
X011380Y012167D01*
X011380Y012069D02*
X013900Y012069D01*
X013933Y011970D02*
X011380Y011970D01*
X011380Y011872D02*
X013974Y011872D01*
X014070Y011773D02*
X011380Y011773D01*
X011380Y011675D02*
X014241Y011675D01*
X014102Y011576D02*
X011380Y011576D01*
X011380Y011478D02*
X013995Y011478D01*
X013933Y011379D02*
X011380Y011379D01*
X011380Y011281D02*
X013896Y011281D01*
X013884Y011084D02*
X011380Y011084D01*
X011380Y011182D02*
X014350Y011182D01*
X013907Y010985D02*
X011380Y010985D01*
X011380Y010887D02*
X013951Y010887D01*
X014027Y010788D02*
X011380Y010788D01*
X011380Y010690D02*
X014158Y010690D01*
X014158Y010591D02*
X011380Y010591D01*
X011380Y010493D02*
X014035Y010493D01*
X013960Y010394D02*
X011380Y010394D01*
X011380Y010296D02*
X011791Y010296D01*
X011692Y010197D02*
X011380Y010197D01*
X011380Y010099D02*
X011594Y010099D01*
X011520Y010000D02*
X011380Y010000D01*
X011380Y009902D02*
X011520Y009902D01*
X011520Y009803D02*
X011380Y009803D01*
X011380Y009705D02*
X011520Y009705D01*
X011520Y009606D02*
X011380Y009606D01*
X011380Y009508D02*
X011520Y009508D01*
X011520Y009409D02*
X011380Y009409D01*
X011380Y009311D02*
X011520Y009311D01*
X011520Y009212D02*
X011380Y009212D01*
X011380Y009114D02*
X011520Y009114D01*
X011520Y009015D02*
X011380Y009015D01*
X011380Y008917D02*
X011520Y008917D01*
X011520Y008818D02*
X011380Y008818D01*
X011380Y008720D02*
X011520Y008720D01*
X011520Y008621D02*
X011380Y008621D01*
X011380Y008523D02*
X011520Y008523D01*
X011520Y008424D02*
X011380Y008424D01*
X011380Y008326D02*
X011520Y008326D01*
X011520Y008227D02*
X011380Y008227D01*
X011380Y008129D02*
X011520Y008129D01*
X011520Y008030D02*
X011380Y008030D01*
X011380Y007932D02*
X011520Y007932D01*
X011520Y007833D02*
X011380Y007833D01*
X011380Y007735D02*
X011520Y007735D01*
X011520Y007636D02*
X011380Y007636D01*
X011380Y007538D02*
X011520Y007538D01*
X011520Y007439D02*
X011380Y007439D01*
X011380Y007341D02*
X011520Y007341D01*
X011520Y007242D02*
X011380Y007242D01*
X011380Y007144D02*
X011520Y007144D01*
X011520Y007045D02*
X011380Y007045D01*
X011380Y006947D02*
X011520Y006947D01*
X011520Y006848D02*
X011380Y006848D01*
X011380Y006750D02*
X011520Y006750D01*
X011520Y006651D02*
X011380Y006651D01*
X011380Y006553D02*
X011520Y006553D01*
X011520Y006454D02*
X011380Y006454D01*
X011380Y006356D02*
X011520Y006356D01*
X011520Y006257D02*
X011380Y006257D01*
X011380Y006159D02*
X011520Y006159D01*
X011520Y006060D02*
X011380Y006060D01*
X011380Y005962D02*
X011520Y005962D01*
X011520Y005863D02*
X011380Y005863D01*
X011380Y005765D02*
X011438Y005765D01*
X011397Y005666D02*
X011380Y005666D01*
X011380Y005568D02*
X011395Y005568D01*
X011380Y005469D02*
X011424Y005469D01*
X011380Y005371D02*
X011498Y005371D01*
X011380Y005272D02*
X013723Y005272D01*
X013625Y005371D02*
X011902Y005371D01*
X011976Y005469D02*
X013526Y005469D01*
X013428Y005568D02*
X012005Y005568D01*
X012003Y005666D02*
X013329Y005666D01*
X013320Y005765D02*
X011962Y005765D01*
X011880Y005863D02*
X013320Y005863D01*
X013320Y005962D02*
X011880Y005962D01*
X011880Y006060D02*
X013320Y006060D01*
X013320Y006159D02*
X011880Y006159D01*
X011880Y006257D02*
X013320Y006257D01*
X013320Y006356D02*
X011880Y006356D01*
X011880Y006454D02*
X013320Y006454D01*
X013320Y006553D02*
X011880Y006553D01*
X011880Y006651D02*
X013320Y006651D01*
X013320Y006750D02*
X011880Y006750D01*
X011880Y006848D02*
X013320Y006848D01*
X013320Y006947D02*
X011880Y006947D01*
X011880Y007045D02*
X013320Y007045D01*
X013320Y007144D02*
X011880Y007144D01*
X011880Y007242D02*
X013320Y007242D01*
X013320Y007341D02*
X011880Y007341D01*
X011880Y007439D02*
X013320Y007439D01*
X013320Y007538D02*
X011880Y007538D01*
X011880Y007636D02*
X013320Y007636D01*
X013320Y007735D02*
X011880Y007735D01*
X011880Y007833D02*
X013320Y007833D01*
X013377Y007932D02*
X011880Y007932D01*
X011880Y008030D02*
X013475Y008030D01*
X013574Y008129D02*
X011880Y008129D01*
X011880Y008227D02*
X013672Y008227D01*
X013771Y008326D02*
X011880Y008326D01*
X011880Y008424D02*
X013972Y008424D01*
X014065Y008523D02*
X011880Y008523D01*
X011880Y008621D02*
X014231Y008621D01*
X014108Y008720D02*
X011880Y008720D01*
X011880Y008818D02*
X013998Y008818D01*
X013935Y008917D02*
X011880Y008917D01*
X011880Y009015D02*
X013897Y009015D01*
X013883Y009212D02*
X011880Y009212D01*
X011880Y009114D02*
X014350Y009114D01*
X014022Y009508D02*
X011880Y009508D01*
X011880Y009606D02*
X014150Y009606D01*
X014169Y009705D02*
X011880Y009705D01*
X011880Y009803D02*
X014040Y009803D01*
X013962Y009902D02*
X011906Y009902D01*
X011700Y009950D02*
X011900Y010150D01*
X014400Y010150D01*
X013948Y009409D02*
X011880Y009409D01*
X011880Y009311D02*
X013905Y009311D01*
X013850Y008150D02*
X014400Y008150D01*
X013850Y008150D02*
X013500Y007800D01*
X013500Y005750D01*
X014900Y004350D01*
X016000Y004350D01*
X016250Y004100D01*
X021550Y004100D01*
X021700Y003950D01*
X021972Y004090D02*
X022886Y004090D01*
X022937Y003992D02*
X022005Y003992D01*
X022005Y003893D02*
X022969Y003893D01*
X023001Y003795D02*
X021966Y003795D01*
X021877Y003696D02*
X023011Y003696D01*
X023015Y003598D02*
X020757Y003598D01*
X020856Y003499D02*
X023015Y003499D01*
X023015Y003401D02*
X020954Y003401D01*
X021053Y003302D02*
X023015Y003302D01*
X023015Y003204D02*
X021151Y003204D01*
X021250Y003105D02*
X023015Y003105D01*
X023015Y003007D02*
X021330Y003007D01*
X021330Y002908D02*
X023015Y002908D01*
X023015Y002810D02*
X021650Y002810D01*
X021650Y002711D02*
X023015Y002711D01*
X023015Y002613D02*
X021650Y002613D01*
X021650Y002514D02*
X023015Y002514D01*
X023015Y002416D02*
X021650Y002416D01*
X021650Y002317D02*
X023015Y002317D01*
X023015Y002219D02*
X021650Y002219D01*
X021650Y002120D02*
X023015Y002120D01*
X023015Y002022D02*
X021650Y002022D01*
X021597Y001923D02*
X023015Y001923D01*
X023015Y001825D02*
X021432Y001825D01*
X021433Y001824D02*
X021249Y001900D01*
X021051Y001900D01*
X020867Y001824D01*
X020726Y001683D01*
X020650Y001499D01*
X020650Y001301D01*
X020726Y001117D01*
X020867Y000976D01*
X021051Y000900D01*
X021249Y000900D01*
X021433Y000976D01*
X021574Y001117D01*
X021650Y001301D01*
X021650Y001499D01*
X021574Y001683D01*
X021433Y001824D01*
X021531Y001726D02*
X023015Y001726D01*
X023015Y001628D02*
X021597Y001628D01*
X021638Y001529D02*
X023015Y001529D01*
X023015Y001431D02*
X021650Y001431D01*
X021650Y001332D02*
X023015Y001332D01*
X023015Y001234D02*
X021622Y001234D01*
X021581Y001135D02*
X023015Y001135D01*
X023015Y001037D02*
X021494Y001037D01*
X021341Y000938D02*
X023015Y000938D01*
X021150Y002400D02*
X021150Y002950D01*
X020600Y003500D01*
X016650Y003500D01*
X016450Y003700D01*
X015600Y003700D01*
X015400Y003900D01*
X014750Y003900D01*
X014500Y004150D01*
X013850Y004150D01*
X013500Y004500D01*
X011900Y004500D01*
X011550Y004850D01*
X011828Y004977D02*
X014019Y004977D01*
X013920Y005075D02*
X011756Y005075D01*
X011855Y004878D02*
X014117Y004878D01*
X014216Y004780D02*
X011875Y004780D01*
X011974Y004681D02*
X014314Y004681D01*
X014413Y004583D02*
X013672Y004583D01*
X013771Y004484D02*
X014511Y004484D01*
X014610Y004386D02*
X013869Y004386D01*
X013750Y003950D02*
X013400Y004300D01*
X011650Y004300D01*
X011200Y004750D01*
X011200Y021850D01*
X008900Y024150D01*
X008627Y024578D02*
X008535Y024578D01*
X008900Y025150D02*
X011350Y022700D01*
X011045Y022707D02*
X010598Y022707D01*
X010500Y022805D02*
X010990Y022805D01*
X010892Y022904D02*
X010401Y022904D01*
X010303Y023002D02*
X010793Y023002D01*
X010695Y023101D02*
X010204Y023101D01*
X010105Y023199D02*
X010596Y023199D01*
X010498Y023298D02*
X010007Y023298D01*
X009908Y023396D02*
X010399Y023396D01*
X010301Y023495D02*
X009810Y023495D01*
X009711Y023593D02*
X010202Y023593D01*
X010104Y023692D02*
X009613Y023692D01*
X010697Y022608D02*
X011058Y022608D01*
X011109Y022510D02*
X010795Y022510D01*
X011288Y022017D02*
X013914Y022017D01*
X013955Y021919D02*
X011380Y021919D01*
X011380Y021229D02*
X013900Y021229D01*
X013900Y021131D02*
X011380Y021131D01*
X011380Y021032D02*
X013908Y021032D01*
X013948Y020934D02*
X011380Y020934D01*
X011204Y023101D02*
X014350Y023101D01*
X014350Y023199D02*
X011105Y023199D01*
X013559Y021328D02*
X013932Y021328D01*
X014182Y021623D02*
X014235Y021623D01*
X014301Y021650D02*
X014499Y021650D01*
X014683Y021574D01*
X014765Y021492D01*
X014765Y021808D01*
X014683Y021726D01*
X014499Y021650D01*
X014301Y021650D01*
X014128Y021722D02*
X014083Y021722D01*
X014565Y021623D02*
X014765Y021623D01*
X014765Y021525D02*
X014733Y021525D01*
X014765Y021722D02*
X014672Y021722D01*
X014673Y024578D02*
X014765Y024578D01*
X014765Y024677D02*
X014564Y024677D01*
X014732Y024775D02*
X014765Y024775D01*
X010600Y018500D02*
X010600Y004450D01*
X011350Y003700D01*
X013100Y003700D01*
X013500Y003300D01*
X014150Y003300D01*
X014350Y003100D01*
X015000Y003100D01*
X015500Y003500D02*
X015300Y003700D01*
X014650Y003700D01*
X014400Y003950D01*
X013750Y003950D01*
X014618Y004287D02*
X014708Y004287D01*
X014716Y004189D02*
X014807Y004189D01*
X014815Y004090D02*
X016005Y004090D01*
X016104Y003992D02*
X015563Y003992D01*
X015662Y003893D02*
X021395Y003893D01*
X021434Y003795D02*
X016610Y003795D01*
X016709Y003696D02*
X021523Y003696D01*
X021893Y004189D02*
X022815Y004189D01*
X022727Y004287D02*
X016318Y004287D01*
X016219Y004386D02*
X022591Y004386D01*
X022348Y004484D02*
X016121Y004484D01*
X016300Y003500D02*
X015500Y003500D01*
X016300Y003500D02*
X016500Y003300D01*
X019800Y003300D01*
X020150Y002950D01*
X020150Y002400D01*
X019970Y002867D02*
X019867Y002824D01*
X019726Y002683D01*
X019650Y002499D01*
X019650Y002301D01*
X019650Y002499D01*
X019574Y002683D01*
X019433Y002824D01*
X019330Y002867D01*
X019330Y002925D01*
X019135Y003120D01*
X019725Y003120D01*
X019970Y002875D01*
X019970Y002867D01*
X019937Y002908D02*
X019330Y002908D01*
X019248Y003007D02*
X019839Y003007D01*
X019740Y003105D02*
X019150Y003105D01*
X018900Y003100D02*
X019150Y002850D01*
X019150Y002400D01*
X019546Y002711D02*
X019754Y002711D01*
X019697Y002613D02*
X019603Y002613D01*
X019644Y002514D02*
X019656Y002514D01*
X019650Y002416D02*
X019650Y002416D01*
X019650Y002317D02*
X019650Y002317D01*
X019616Y002219D02*
X019684Y002219D01*
X019725Y002120D02*
X019575Y002120D01*
X019479Y002022D02*
X019821Y002022D01*
X019995Y001923D02*
X019305Y001923D01*
X018995Y001923D02*
X018305Y001923D01*
X018432Y001825D02*
X019868Y001825D01*
X019769Y001726D02*
X018531Y001726D01*
X018597Y001628D02*
X019703Y001628D01*
X019662Y001529D02*
X018638Y001529D01*
X018650Y001431D02*
X019650Y001431D01*
X019650Y001332D02*
X018650Y001332D01*
X018622Y001234D02*
X019678Y001234D01*
X019719Y001135D02*
X018581Y001135D01*
X018494Y001037D02*
X019806Y001037D01*
X019959Y000938D02*
X018341Y000938D01*
X018479Y002022D02*
X018821Y002022D01*
X018725Y002120D02*
X018575Y002120D01*
X019448Y002810D02*
X019852Y002810D01*
X020330Y002908D02*
X020937Y002908D01*
X020839Y003007D02*
X020330Y003007D01*
X020250Y003105D02*
X020740Y003105D01*
X020642Y003204D02*
X020151Y003204D01*
X020053Y003302D02*
X020543Y003302D01*
X020448Y002810D02*
X020650Y002810D01*
X020650Y002711D02*
X020546Y002711D01*
X020603Y002613D02*
X020650Y002613D01*
X020644Y002514D02*
X020650Y002514D01*
X020650Y002416D02*
X020650Y002416D01*
X020650Y002317D02*
X020650Y002317D01*
X020650Y002219D02*
X020616Y002219D01*
X020650Y002120D02*
X020575Y002120D01*
X020650Y002022D02*
X020479Y002022D01*
X020305Y001923D02*
X020703Y001923D01*
X020868Y001825D02*
X020432Y001825D01*
X020531Y001726D02*
X020769Y001726D01*
X020703Y001628D02*
X020597Y001628D01*
X020638Y001529D02*
X020662Y001529D01*
X020650Y001431D02*
X020650Y001431D01*
X020650Y001332D02*
X020650Y001332D01*
X020622Y001234D02*
X020678Y001234D01*
X020719Y001135D02*
X020581Y001135D01*
X020494Y001037D02*
X020806Y001037D01*
X020959Y000938D02*
X020341Y000938D01*
X014250Y005450D02*
X013700Y006000D01*
X013700Y006950D01*
X013900Y007150D01*
X014400Y007150D01*
X013822Y005174D02*
X011380Y005174D01*
X011700Y005600D02*
X011700Y009950D01*
X012045Y012364D02*
X013931Y012364D01*
X013950Y012600D02*
X011850Y012600D01*
X012025Y012857D02*
X013986Y012857D01*
X014047Y012758D02*
X014085Y012758D01*
X014145Y012660D02*
X014278Y012660D01*
X014301Y012650D02*
X014499Y012650D01*
X014301Y012650D01*
X014499Y012650D02*
X014683Y012574D01*
X014765Y012492D01*
X014765Y012808D01*
X014683Y012726D01*
X014499Y012650D01*
X014522Y012660D02*
X014765Y012660D01*
X014765Y012758D02*
X014715Y012758D01*
X014696Y012561D02*
X014765Y012561D01*
X014400Y012150D02*
X013950Y012600D01*
X014400Y013150D02*
X013900Y013650D01*
X012150Y013650D01*
X012379Y013448D02*
X013848Y013448D01*
X013941Y013349D02*
X012220Y013349D01*
X011380Y015024D02*
X013911Y015024D01*
X013900Y015122D02*
X011380Y015122D01*
X011380Y015221D02*
X013900Y015221D01*
X013929Y015319D02*
X012669Y015319D01*
X012799Y015418D02*
X013878Y015418D01*
X014092Y015713D02*
X014117Y015713D01*
X014190Y015615D02*
X014215Y015615D01*
X013939Y015910D02*
X011380Y015910D01*
X011380Y015812D02*
X012330Y015812D01*
X012267Y015713D02*
X011380Y015713D01*
X011380Y015615D02*
X012245Y015615D01*
X012255Y015516D02*
X011380Y015516D01*
X011380Y015418D02*
X012301Y015418D01*
X012431Y015319D02*
X011380Y015319D01*
X010000Y016200D02*
X010000Y004150D01*
X011050Y003100D01*
X011150Y003300D02*
X010200Y004250D01*
X010200Y016950D01*
X008900Y018150D01*
X008900Y017150D02*
X010000Y016200D01*
X009100Y014150D02*
X008900Y014150D01*
X009100Y014150D02*
X009400Y013850D01*
X009400Y003900D01*
X010150Y003100D01*
X011150Y003300D02*
X012900Y003300D01*
X009220Y004484D02*
X009205Y004484D01*
X008550Y005765D02*
X008535Y005765D01*
X014160Y013645D02*
X014287Y013645D01*
X014301Y013650D02*
X014499Y013650D01*
X014683Y013574D01*
X014765Y013492D01*
X014765Y013808D01*
X014683Y013726D01*
X014499Y013650D01*
X014301Y013650D01*
X014513Y013645D02*
X014765Y013645D01*
X014765Y013743D02*
X014700Y013743D01*
X014711Y013546D02*
X014765Y013546D01*
X014100Y013743D02*
X014062Y013743D01*
X014175Y014630D02*
X014251Y014630D01*
X014301Y014650D02*
X014499Y014650D01*
X014683Y014574D01*
X014765Y014492D01*
X014765Y014808D01*
X014683Y014726D01*
X014499Y014650D01*
X014301Y014650D01*
X014115Y014728D02*
X014077Y014728D01*
X014549Y014630D02*
X014765Y014630D01*
X014765Y014728D02*
X014685Y014728D01*
X014726Y014531D02*
X014765Y014531D01*
D13*
X012350Y014650D03*
X012550Y015600D03*
X011750Y016150D03*
X012750Y017550D03*
X012950Y018550D03*
X013100Y020550D03*
X013350Y021550D03*
X013550Y022500D03*
X011350Y022700D03*
X012150Y013650D03*
X011850Y012600D03*
X011700Y005600D03*
X011550Y004850D03*
X009050Y004750D03*
X014250Y005450D03*
X021700Y003950D03*
X001000Y004100D03*
M02*
